<svg width="335" height="223" viewBox="0 0 335 223" fill="none" xmlns="http://www.w3.org/2000/svg">
<path d="M309.473 207.35C309.473 207.417 245.305 207.466 166.169 207.466C87.033 207.466 22.847 207.417 22.847 207.35C22.847 207.283 87.0017 207.234 166.169 207.234C245.336 207.234 309.473 207.287 309.473 207.35Z" fill="#263238"/>
<path d="M67.5941 81.7295H234.272C236.997 81.7295 239.61 82.8102 241.537 84.734C243.463 86.6577 244.546 89.2669 244.546 91.9875V191.891C244.546 195.542 243.093 199.043 240.508 201.624C237.923 204.205 234.417 205.655 230.761 205.655H70.6359C66.9801 205.655 63.474 204.205 60.889 201.624C58.304 199.043 56.8517 195.542 56.8517 191.891V92.4335C56.8517 89.5946 57.9812 86.872 59.9915 84.8646C62.0019 82.8572 64.7286 81.7295 67.5717 81.7295H67.5941Z" fill="#263238"/>
<path d="M49.0038 196.508H252.367V201.231C252.367 202.854 251.721 204.41 250.572 205.558C249.422 206.705 247.864 207.35 246.238 207.35H55.1365C53.5112 207.35 51.9525 206.705 50.8032 205.558C49.6539 204.41 49.0083 202.854 49.0083 201.231V196.508H49.0038Z" fill="#263238"/>
<path d="M232.133 86.6578H68.7599C64.9683 86.6578 61.8946 89.7269 61.8946 93.5128V184.47C61.8946 188.256 64.9683 191.325 68.7599 191.325H232.133C235.924 191.325 238.998 188.256 238.998 184.47V93.5128C238.998 89.7269 235.924 86.6578 232.133 86.6578Z" fill="white"/>
<path d="M132.204 196.508L134.728 200.513H170.238L172.579 196.508H132.204Z" fill="#455A64"/>
<path d="M244.586 196.467H56.883V197.065H244.586V196.467Z" fill="#455A64"/>
<path d="M92.9022 158.459H76.8713V191.321H92.9022V158.459Z" fill="#EBEBEB"/>
<path d="M118.161 141.971H102.13V191.321H118.161V141.971Z" fill="#EBEBEB"/>
<path d="M144.309 141.971H128.278V191.321H144.309V141.971Z" fill="#EBEBEB"/>
<path d="M197.922 117.976H181.892V191.321H197.922V117.976Z" fill="#EBEBEB"/>
<path d="M222.449 102.165H206.418V191.325H222.449V102.165Z" fill="#EBEBEB"/>
<path d="M110.219 155.311L128.926 128.417L164.079 101.05L183.031 151.234C183.031 151.234 161.546 164.966 155.958 166.349C150.37 167.732 146.288 167.585 140.101 176.607L110.219 155.311Z" fill="#FFBF9D"/>
<path d="M190.36 92.8304C190.887 92.8037 197.319 97.4421 193.697 101.22C189.842 105.234 176.103 116.95 176.103 116.95C176.103 116.95 169.135 116.299 170.636 112.289C172.136 108.28 190.36 92.8304 190.36 92.8304Z" fill="#FFBF9D"/>
<path d="M195.85 161.452C192.504 161.625 189.149 161.384 185.862 160.734C178.095 159.21 170.948 155.437 165.314 149.886C159.679 144.334 155.805 137.249 154.175 129.514C152.545 121.779 153.232 113.737 156.148 106.388C159.065 99.0403 164.083 92.7118 170.578 88.192L206.11 63.4568L217.031 79.0981L181.503 103.833C176.901 107.036 173.756 111.927 172.754 117.437C171.751 122.948 172.974 128.631 176.155 133.244C179.335 137.858 184.215 141.027 189.728 142.06C195.241 143.092 200.94 141.904 205.578 138.755L240.865 111.995L252.425 127.159L216.803 154.196L216.633 154.316C210.509 158.586 203.309 161.058 195.85 161.452Z" fill="#27B0C4"/>
<path d="M234.384 133.613L237.917 138.166L252.411 127.168L249.329 123.136L234.384 133.613Z" fill="#E0E0E0"/>
<path d="M199.151 85.4714L202.09 89.5077L217.031 79.1025L214.092 74.9949L199.151 85.4714Z" fill="#E0E0E0"/>
<g opacity="0.3">
<path d="M195.886 161.505C192.54 161.679 189.185 161.437 185.898 160.787C178.132 159.261 170.987 155.486 165.354 149.933C159.722 144.38 155.85 137.295 154.222 129.56C152.593 121.825 153.281 113.783 156.198 106.436C159.115 99.0885 164.133 92.7607 170.627 88.2411L206.155 63.5059L217.08 79.1516L181.548 103.887C176.91 107.075 173.73 111.973 172.709 117.502C171.687 123.031 172.907 128.739 176.101 133.37C179.294 138.001 184.199 141.175 189.736 142.195C195.273 143.215 200.99 141.997 205.627 138.809L240.914 112.049L252.474 127.213L216.857 154.249L216.682 154.369C210.553 158.64 203.349 161.112 195.886 161.505Z" fill="black"/>
</g>
<path d="M192.884 157.393C189.536 157.566 186.18 157.325 182.892 156.675C175.125 155.15 167.979 151.376 162.345 145.823C156.712 140.271 152.839 133.186 151.21 125.451C149.58 117.716 150.267 109.674 153.184 102.326C156.1 94.9777 161.118 88.6492 167.612 84.129L203.14 59.3938L214.065 75.0395L178.533 99.7746C173.953 102.987 170.83 107.874 169.84 113.374C168.851 118.874 170.077 124.541 173.251 129.143C176.424 133.745 181.29 136.91 186.788 137.949C192.287 138.989 197.974 137.818 202.612 134.692L237.899 107.932L249.468 123.292L213.819 150.141L213.65 150.262C207.529 154.525 200.336 156.995 192.884 157.393Z" fill="#27B0C4"/>
<path d="M176.072 124.175L177.215 123.283C179.801 120.456 179.341 117.735 176.692 115.973C176.203 115.626 175.632 115.411 175.035 115.349C172.154 115.13 164.824 116.241 161.747 117.65C158.669 119.06 157.218 122.583 159.263 125.067C161.309 127.552 163.958 127.043 168.197 126.575C170.939 126.225 173.601 125.414 176.072 124.175Z" fill="#FFBF9D"/>
<path d="M166.357 129.474C166.357 129.474 162.086 132.542 163.833 135.99C165.579 139.437 167.643 139.17 171.395 138.563C175.147 137.957 180.922 132.342 180.922 132.342C180.922 132.342 183.254 128.845 181.369 126.392C178.814 123.065 176.71 124.438 174.517 125.219C172.324 125.999 166.357 129.474 166.357 129.474Z" fill="#FFBF9D"/>
<path d="M175.54 137.814C175.54 137.814 172.467 143.398 176.469 145.329C180.016 147.042 183.169 143.67 185.076 140.972C186.984 138.273 188.676 135.981 185.97 133.907C183.406 131.945 182.017 131.735 180.351 132.917C177.854 134.665 175.54 137.814 175.54 137.814Z" fill="#FFBF9D"/>
<path d="M120.868 140.49C120.868 140.49 128.676 119.211 131.222 113.859C133.768 108.507 149.236 96.1754 149.236 96.1754L165.392 88.8075C165.392 88.8075 171.426 95.8855 164.079 101.05C159.591 104.203 154.916 107.082 150.08 109.671L148.557 119.876C148.557 119.876 153.296 144.223 134.04 158.928L120.868 140.49Z" fill="#FFBF9D"/>
<path d="M150.567 109.645C150.56 109.685 150.548 109.724 150.531 109.761L150.415 110.095C150.303 110.385 150.156 110.818 149.968 111.38C149.484 112.982 149.143 114.623 148.95 116.286C148.678 118.742 148.581 121.215 148.66 123.685C148.709 126.472 148.901 129.541 148.887 132.774C148.924 135.811 148.574 138.839 147.847 141.788C147.216 144.2 146.157 146.48 144.72 148.518C143.74 149.89 142.532 151.083 141.147 152.046L140.486 152.492C140.289 152.612 140.115 152.693 139.981 152.768L139.664 152.933L139.552 152.982C139.583 152.955 139.618 152.931 139.655 152.911L139.954 152.728C140.088 152.648 140.258 152.559 140.45 152.434L141.098 151.988C142.44 150.994 143.612 149.789 144.568 148.42C145.97 146.386 147.001 144.122 147.614 141.73C148.324 138.788 148.661 135.769 148.619 132.743C148.619 129.527 148.445 126.459 148.409 123.662C148.341 121.182 148.454 118.7 148.749 116.237C148.958 114.57 149.326 112.927 149.848 111.331C150.04 110.773 150.201 110.34 150.326 110.055L150.464 109.729C150.495 109.697 150.53 109.669 150.567 109.645Z" fill="#FF9A6C"/>
<path d="M187.864 70.0844L199.151 85.4714L214.092 74.9949L203.22 59.2556L187.864 70.0844Z" fill="#E0E0E0"/>
<path d="M222.855 119.251L234.884 134.219L249.45 123.283L237.953 107.883L222.855 119.251Z" fill="#E0E0E0"/>
<path d="M173.244 115.362C173.422 115.328 173.603 115.312 173.785 115.313H174.079L174.432 115.336L174.839 115.362L175.285 115.452C176.149 115.622 176.95 116.024 177.602 116.615C178.254 117.206 178.731 117.963 178.984 118.805C179.038 119.568 178.911 120.332 178.613 121.035C178.115 122.182 177.31 123.17 176.286 123.89C175.458 124.467 174.557 124.932 173.606 125.272C172.806 125.571 172.141 125.759 171.681 125.888C171.444 125.963 171.202 126.02 170.957 126.057C171.182 125.953 171.415 125.868 171.654 125.803C172.101 125.647 172.762 125.437 173.548 125.121C174.473 124.763 175.349 124.291 176.156 123.716C177.136 123.009 177.907 122.052 178.39 120.946C178.676 120.274 178.798 119.543 178.747 118.814C178.476 117.917 177.946 117.12 177.224 116.522C176.645 116.048 175.965 115.714 175.236 115.545L174.79 115.447L174.392 115.402L174.044 115.362H173.753C173.584 115.377 173.414 115.377 173.244 115.362Z" fill="#FF9A6C"/>
<path d="M181.619 131.151C181.566 131.278 181.494 131.397 181.405 131.503C181.257 131.722 181.03 132.029 180.735 132.395C179.967 133.356 179.12 134.251 178.202 135.071C177.287 135.902 176.275 136.619 175.187 137.207C174.86 137.388 174.522 137.546 174.173 137.68C174.048 137.739 173.916 137.781 173.78 137.805C173.78 137.769 174.298 137.542 175.12 137.065C176.171 136.442 177.157 135.716 178.064 134.897C178.97 134.077 179.824 133.203 180.623 132.279C180.935 131.886 181.267 131.509 181.619 131.151Z" fill="#FF9A6C"/>
<path d="M70.0909 191.321L109.724 150.868L145.287 179.618L136.131 191.383L70.0909 191.321Z" fill="#27B0C4"/>
<path d="M90.2267 95.9747C91.2828 95.3396 92.4182 94.8462 93.6035 94.5074L94.3003 91.1668L99.9506 91.0687L100.764 94.3825C101.962 94.6735 103.115 95.1235 104.194 95.7205L107.048 93.8518L111.117 97.7721L109.331 100.689C109.969 101.743 110.463 102.876 110.8 104.061L114.146 104.756L114.244 110.398L110.925 111.21C110.634 112.406 110.183 113.558 109.585 114.635L111.457 117.485L107.531 121.548L104.614 119.764C103.557 120.401 102.42 120.895 101.233 121.232L100.536 124.572L94.8854 124.67L94.0725 121.357C92.8745 121.065 91.7209 120.615 90.6421 120.019L87.7879 121.887L83.7232 117.967L85.5099 115.055C84.8737 113.998 84.3796 112.863 84.0403 111.678L80.6993 110.983L80.5965 105.341L83.9153 104.529C84.2075 103.333 84.6582 102.181 85.2553 101.104L83.3837 98.2538L87.3099 94.1952L90.2311 95.9792L90.2267 95.9747ZM93.2283 103.472C92.3954 104.333 91.8369 105.421 91.6234 106.599C91.4098 107.777 91.5509 108.991 92.0287 110.089C92.5064 111.187 93.2995 112.119 94.3075 112.766C95.3156 113.414 96.4934 113.749 97.6919 113.728C98.8905 113.708 100.056 113.333 101.041 112.651C102.026 111.969 102.787 111.01 103.227 109.897C103.666 108.783 103.765 107.565 103.511 106.395C103.257 105.225 102.662 104.157 101.8 103.325C101.227 102.772 100.552 102.338 99.8109 102.046C99.0703 101.755 98.2795 101.612 97.4835 101.626C96.6875 101.639 95.9021 101.809 95.1719 102.126C94.4418 102.443 93.7814 102.9 93.2283 103.472Z" fill="#E0E0E0"/>
<path d="M79.5067 129.113C80.2742 128.649 81.1005 128.291 81.9633 128.047L82.4725 125.616L86.5863 125.545L87.1759 127.953C88.0479 128.169 88.8874 128.499 89.6728 128.934L91.7498 127.596L94.7112 130.451L93.4203 132.574C93.8856 133.34 94.2462 134.165 94.4923 135.027L96.9267 135.535L96.9981 139.643L94.5817 140.231C94.3675 141.103 94.037 141.941 93.599 142.724L94.939 144.798L92.0848 147.755L89.9587 146.471C89.1896 146.934 88.3618 147.293 87.4975 147.537L86.9928 149.968L82.879 150.039L82.3207 147.626C81.4494 147.415 80.611 147.086 79.8283 146.649L77.7468 148.01L74.7899 145.155L76.0763 143.032C75.6115 142.265 75.2524 141.438 75.0087 140.575L72.5744 140.044L72.5029 135.936L74.9149 135.348C75.131 134.477 75.4614 133.639 75.8976 132.855L74.5576 130.776L77.4163 127.824L79.5424 129.108L79.5067 129.113ZM81.6998 134.585C81.0956 135.213 80.6913 136.005 80.5379 136.863C80.3844 137.72 80.4887 138.603 80.8376 139.401C81.1865 140.199 81.7643 140.876 82.4982 141.346C83.232 141.817 84.089 142.059 84.9608 142.044C85.8327 142.028 86.6805 141.755 87.397 141.259C88.1136 140.763 88.6668 140.066 88.987 139.256C89.3071 138.446 89.3798 137.559 89.1958 136.708C89.0118 135.857 88.5794 135.079 87.9531 134.473C87.1108 133.662 85.9802 133.218 84.81 133.239C83.6398 133.26 82.5259 133.744 81.7132 134.585H81.6998Z" fill="#EBEBEB"/>
<path d="M121.408 95.2031C121.928 94.8906 122.487 94.6477 123.07 94.4806L123.41 92.8393L126.188 92.7903L126.585 94.4182C127.174 94.562 127.741 94.7856 128.269 95.0827L129.676 94.164L131.673 96.0907L130.78 97.5223C131.093 98.0394 131.337 98.5958 131.503 99.177L133.142 99.5204L133.192 102.295L131.561 102.691C131.417 103.279 131.195 103.844 130.9 104.373L131.82 105.773L129.891 107.767L128.457 106.902C127.938 107.215 127.379 107.457 126.795 107.62L126.456 109.261L123.678 109.31L123.28 107.682C122.692 107.538 122.125 107.316 121.596 107.022L120.216 107.932L118.215 106.005L119.086 104.574C118.772 104.055 118.531 103.497 118.367 102.914L116.723 102.571L116.674 99.8014L118.304 99.4C118.448 98.8125 118.671 98.247 118.965 97.7186L118.045 96.336L119.975 94.3424L121.408 95.2344V95.2031ZM122.887 98.896C122.478 99.3195 122.204 99.8545 122.099 100.434C121.994 101.013 122.064 101.61 122.299 102.149C122.535 102.689 122.925 103.146 123.421 103.464C123.916 103.782 124.495 103.947 125.085 103.936C125.674 103.925 126.247 103.74 126.731 103.405C127.215 103.069 127.588 102.598 127.804 102.05C128.019 101.502 128.067 100.903 127.942 100.328C127.817 99.7535 127.523 99.2286 127.099 98.8202C126.53 98.2737 125.767 97.9749 124.977 97.9891C124.188 98.0033 123.436 98.3294 122.887 98.896Z" fill="#EBEBEB"/>
<path d="M170.658 168.958H154.627V191.321H170.658V168.958Z" fill="#EBEBEB"/>
<path d="M84.4513 126.838C83.5592 126.236 82.5132 125.901 81.4368 125.873C80.3604 125.846 79.2985 126.126 78.3766 126.682C78.072 125.615 77.5065 124.641 76.7312 123.847C75.9558 123.053 74.9949 122.463 73.9348 122.132C72.8748 121.801 71.7489 121.738 70.6584 121.949C69.5679 122.16 68.5471 122.638 67.6879 123.341C66.7694 122.458 65.6198 121.852 64.3715 121.593C63.1233 121.333 61.827 121.431 60.6318 121.874C59.4367 122.318 58.3912 123.089 57.6158 124.1C56.8404 125.111 56.3665 126.32 56.2487 127.587C53.5687 127.73 50.8217 129.487 50.2634 132.493H86.6757C86.8845 131.437 86.7859 130.343 86.3918 129.341C85.9976 128.339 85.3242 127.47 84.4513 126.838Z" fill="white"/>
<path d="M84.4513 126.838C84.4513 126.838 84.5719 126.914 84.7952 127.083C85.1178 127.346 85.4086 127.645 85.6617 127.975C86.0707 128.512 86.3835 129.116 86.5863 129.759C86.8631 130.643 86.9137 131.581 86.7337 132.489V132.538H86.6846L50.2723 132.596H50.1249L50.1562 132.458L50.2009 132.279C50.5021 130.896 51.2957 129.67 52.4342 128.827C53.5411 128.022 54.8589 127.557 56.2264 127.489L56.1192 127.592C56.2398 126.305 56.7216 125.079 57.5092 124.054C58.2969 123.028 59.3583 122.246 60.5716 121.796C61.7848 121.347 63.1004 121.248 64.3672 121.512C65.634 121.776 66.8005 122.391 67.7325 123.288H67.603C68.6326 122.452 69.8834 121.933 71.2031 121.794C72.3942 121.659 73.5996 121.849 74.6916 122.342C75.5889 122.753 76.3875 123.352 77.0332 124.097C77.679 124.843 78.1569 125.718 78.4347 126.664L78.3453 126.628C79.1387 126.152 80.038 125.879 80.9628 125.834C81.6395 125.803 82.3165 125.889 82.9639 126.089C83.3599 126.215 83.7405 126.386 84.0984 126.597C84.3351 126.749 84.4513 126.838 84.4513 126.838C84.4513 126.838 84.4155 126.838 84.353 126.789L84.085 126.624C83.7229 126.427 83.3412 126.269 82.946 126.151C82.3041 125.964 81.6348 125.889 80.9673 125.928C80.0606 125.98 79.1811 126.255 78.4079 126.731L78.3409 126.776V126.695C78.065 125.771 77.5948 124.916 76.9616 124.188C76.3285 123.459 75.5469 122.874 74.6693 122.472C73.6023 121.996 72.4262 121.817 71.2657 121.954C69.9847 122.096 68.7719 122.604 67.7727 123.417L67.7057 123.475L67.6432 123.413C66.738 122.544 65.6058 121.949 64.3768 121.694C63.1477 121.44 61.8716 121.537 60.6954 121.975C59.5191 122.412 58.4904 123.172 57.7275 124.167C56.9646 125.163 56.4985 126.353 56.3827 127.601V127.699H56.2845C54.96 127.772 53.6856 128.229 52.6173 129.014C51.514 129.818 50.7434 130.996 50.451 132.328C50.4339 132.384 50.4205 132.44 50.4108 132.498L50.2947 132.359L86.7069 132.417L86.6489 132.466C86.8298 131.578 86.7884 130.659 86.5283 129.79C86.2213 128.753 85.6248 127.825 84.8086 127.114L84.5629 126.914C84.4736 126.865 84.4468 126.842 84.4513 126.838Z" fill="#263238"/>
<path d="M144.273 175.724C143.402 175.134 142.38 174.806 141.328 174.778C140.276 174.75 139.238 175.024 138.337 175.568C138.043 174.522 137.492 173.565 136.734 172.786C135.976 172.006 135.034 171.428 133.996 171.104C132.957 170.779 131.854 170.719 130.786 170.929C129.718 171.138 128.719 171.611 127.881 172.303C126.981 171.446 125.859 170.86 124.642 170.61C123.424 170.36 122.161 170.457 120.996 170.89C119.831 171.323 118.812 172.075 118.055 173.059C117.298 174.043 116.833 175.22 116.714 176.455C114.105 176.594 111.408 178.315 110.863 181.241H146.475C146.676 180.207 146.575 179.138 146.184 178.16C145.794 177.182 145.131 176.337 144.273 175.724Z" fill="white"/>
<path d="M144.273 175.724C144.273 175.724 144.394 175.8 144.613 175.965C144.93 176.228 145.214 176.527 145.461 176.857C145.861 177.384 146.163 177.977 146.355 178.61C146.629 179.475 146.679 180.395 146.502 181.286V181.335H146.453L110.84 181.388H110.693L110.729 181.25L110.769 181.076C111.065 179.719 111.85 178.517 112.975 177.7C114.056 176.902 115.346 176.437 116.687 176.362L116.58 176.464C116.698 175.205 117.169 174.004 117.94 173.001C118.711 171.997 119.751 171.231 120.938 170.791C122.126 170.351 123.414 170.255 124.654 170.514C125.894 170.773 127.036 171.376 127.948 172.254H127.818C128.827 171.437 130.051 170.931 131.342 170.796C132.507 170.662 133.687 170.847 134.755 171.331C135.631 171.737 136.409 172.327 137.037 173.059C137.665 173.792 138.128 174.65 138.395 175.577L138.306 175.541C139.08 175.072 139.96 174.805 140.865 174.765C141.527 174.734 142.189 174.817 142.822 175.01C143.211 175.133 143.584 175.3 143.934 175.51C144.162 175.657 144.273 175.746 144.273 175.746L144.184 175.697L143.916 175.537C143.561 175.351 143.188 175.202 142.804 175.091C142.176 174.91 141.522 174.837 140.87 174.877C139.983 174.926 139.123 175.195 138.368 175.662L138.301 175.702L138.279 175.626C138.012 174.723 137.555 173.888 136.939 173.176C136.322 172.464 135.561 171.891 134.706 171.496C133.663 171.029 132.513 170.855 131.378 170.992C130.125 171.129 128.938 171.624 127.961 172.419L127.894 172.477L127.832 172.415C126.946 171.567 125.84 170.986 124.639 170.738C123.438 170.491 122.191 170.586 121.042 171.013C119.893 171.441 118.888 172.183 118.142 173.155C117.396 174.127 116.94 175.29 116.826 176.509V176.607H116.727C115.437 176.682 114.196 177.128 113.154 177.892C112.077 178.679 111.324 179.832 111.037 181.134L110.997 181.299L110.881 181.161L146.493 181.219L146.435 181.268C146.613 180.399 146.571 179.499 146.315 178.65C146.131 178.024 145.839 177.436 145.453 176.91C145.212 176.586 144.938 176.287 144.635 176.018L144.394 175.827L144.273 175.724Z" fill="#263238"/>
<path d="M223.664 174.453C222.792 173.863 221.769 173.535 220.716 173.507C219.664 173.479 218.625 173.753 217.723 174.297C217.43 173.251 216.879 172.294 216.122 171.515C215.364 170.735 214.423 170.157 213.385 169.832C212.346 169.508 211.243 169.448 210.175 169.657C209.108 169.867 208.109 170.339 207.271 171.032C206.373 170.17 205.249 169.578 204.028 169.325C202.808 169.073 201.541 169.168 200.373 169.602C199.205 170.036 198.183 170.79 197.425 171.777C196.667 172.764 196.203 173.945 196.087 175.184C193.474 175.323 190.78 177.044 190.235 179.97H225.844C226.047 178.938 225.95 177.87 225.563 176.893C225.177 175.915 224.518 175.068 223.664 174.453Z" fill="white"/>
<path d="M223.664 174.453C223.664 174.453 223.784 174.524 224.003 174.689C224.319 174.954 224.603 175.253 224.852 175.581C225.25 176.109 225.552 176.702 225.745 177.334C226.017 178.2 226.068 179.12 225.893 180.01V180.059H225.839L190.231 180.113H190.083L190.115 179.979L190.155 179.805C190.455 178.448 191.241 177.247 192.366 176.429C193.446 175.631 194.736 175.166 196.078 175.091L195.971 175.193C196.088 173.934 196.56 172.733 197.331 171.729C198.102 170.726 199.141 169.96 200.329 169.52C201.517 169.08 202.805 168.984 204.045 169.243C205.285 169.502 206.426 170.105 207.338 170.983H207.209C208.218 170.168 209.442 169.663 210.733 169.529C211.898 169.396 213.077 169.581 214.145 170.064C215.021 170.47 215.799 171.059 216.426 171.792C217.054 172.525 217.516 173.383 217.781 174.31L217.692 174.274C218.468 173.806 219.35 173.539 220.256 173.498C220.917 173.465 221.579 173.548 222.212 173.744C222.601 173.867 222.974 174.035 223.324 174.243C223.552 174.39 223.664 174.48 223.664 174.48L223.57 174.431L223.307 174.27C222.377 173.758 221.32 173.522 220.26 173.588C219.374 173.64 218.514 173.911 217.759 174.377L217.687 174.417L217.665 174.341C217.398 173.439 216.941 172.603 216.325 171.891C215.709 171.179 214.947 170.606 214.092 170.211C213.049 169.745 211.899 169.571 210.764 169.707C209.51 169.841 208.323 170.337 207.347 171.135L207.28 171.188L207.218 171.13C206.332 170.283 205.226 169.702 204.025 169.454C202.824 169.206 201.577 169.301 200.428 169.729C199.279 170.156 198.274 170.899 197.528 171.871C196.782 172.843 196.326 174.005 196.212 175.224V175.323H196.087C194.796 175.396 193.555 175.842 192.513 176.607C191.435 177.394 190.68 178.547 190.392 179.849L190.351 180.015L190.24 179.876L225.848 179.934L225.79 179.979C225.97 179.112 225.93 178.213 225.674 177.365C225.373 176.348 224.789 175.437 223.99 174.738L223.753 174.542L223.664 174.453Z" fill="#263238"/>
<path d="M120.31 113.663C119.74 113.279 119.073 113.065 118.386 113.047C117.699 113.029 117.021 113.207 116.433 113.561C116.24 112.878 115.88 112.254 115.385 111.746C114.89 111.237 114.276 110.86 113.598 110.649C112.92 110.438 112.2 110.399 111.503 110.536C110.806 110.673 110.155 110.981 109.608 111.433C109.023 110.863 108.287 110.47 107.488 110.3C106.688 110.13 105.856 110.19 105.089 110.474C104.322 110.757 103.652 111.253 103.156 111.902C102.66 112.551 102.358 113.327 102.287 114.14C100.585 114.234 98.825 115.353 98.4677 117.262H121.717C121.849 116.591 121.787 115.896 121.538 115.258C121.289 114.621 120.863 114.067 120.31 113.663Z" fill="white"/>
<path d="M120.31 113.663C120.618 113.847 120.885 114.091 121.096 114.381C121.409 114.789 121.633 115.257 121.753 115.757C121.873 116.256 121.887 116.775 121.793 117.28V117.325H121.743C117.009 117.36 108.343 117.383 98.4945 117.383H98.3471L98.3783 117.245L98.4051 117.133C98.6027 116.236 99.1223 115.443 99.8657 114.903C100.575 114.374 101.425 114.063 102.309 114.011L102.202 114.114C102.279 113.284 102.589 112.492 103.096 111.831C103.604 111.17 104.289 110.665 105.072 110.375C105.854 110.086 106.703 110.023 107.52 110.194C108.337 110.366 109.088 110.764 109.688 111.344H109.558C110.116 110.883 110.781 110.569 111.491 110.431C112.202 110.292 112.936 110.334 113.626 110.552C114.317 110.769 114.941 111.156 115.443 111.677C115.945 112.198 116.308 112.837 116.5 113.534L116.41 113.498C116.921 113.193 117.5 113.019 118.094 112.994C118.528 112.973 118.962 113.029 119.376 113.159C119.721 113.256 120.042 113.423 120.319 113.65C120.017 113.464 119.695 113.315 119.358 113.204C118.949 113.088 118.523 113.043 118.099 113.07C117.524 113.103 116.966 113.279 116.477 113.583L116.406 113.627V113.547C116.23 112.961 115.932 112.419 115.53 111.958C115.127 111.496 114.631 111.126 114.074 110.871C113.36 110.562 112.574 110.454 111.803 110.561C111.032 110.667 110.305 110.982 109.701 111.473L109.634 111.531L109.572 111.469C108.997 110.908 108.273 110.523 107.487 110.36C106.7 110.196 105.883 110.26 105.131 110.544C104.38 110.829 103.725 111.322 103.245 111.965C102.765 112.609 102.479 113.376 102.421 114.176V114.274H102.322C101.485 114.321 100.679 114.611 100.004 115.108C99.3073 115.615 98.8198 116.359 98.6329 117.2L98.6106 117.307L98.4945 117.169C108.366 117.169 117.009 117.191 121.743 117.222L121.681 117.271C121.8 116.708 121.775 116.124 121.609 115.572C121.491 115.165 121.302 114.781 121.051 114.439C120.836 114.152 120.587 113.891 120.31 113.663Z" fill="#263238"/>
<path d="M308.472 111.674C307.454 111.204 306.538 110.538 305.777 109.715C305.017 108.891 304.426 107.926 304.04 106.874C303.653 105.822 303.478 104.705 303.524 103.585C303.57 102.466 303.837 101.366 304.31 100.35C304.78 99.3341 305.447 98.4206 306.271 97.6619C307.095 96.9032 308.061 96.314 309.113 95.928C310.166 95.542 311.284 95.3667 312.404 95.4123C313.524 95.4578 314.624 95.7232 315.641 96.1933C316.66 96.6629 317.576 97.3282 318.337 98.1512C319.097 98.9743 319.688 99.939 320.076 100.99C320.463 102.041 320.639 103.158 320.594 104.278C320.549 105.397 320.284 106.496 319.813 107.513C319.343 108.53 318.676 109.444 317.851 110.204C317.026 110.964 316.06 111.553 315.006 111.94C313.953 112.326 312.834 112.502 311.713 112.456C310.592 112.41 309.491 112.145 308.472 111.674Z" fill="white"/>
<path d="M308.472 111.674C308.519 111.68 308.564 111.694 308.606 111.714L308.986 111.857C309.19 111.941 309.401 112.008 309.616 112.057C309.908 112.147 310.207 112.215 310.509 112.263C311.315 112.411 312.139 112.438 312.953 112.343C314.032 112.225 315.078 111.901 316.035 111.388C317.185 110.772 318.173 109.893 318.92 108.824C319.79 107.594 320.316 106.154 320.443 104.654C320.516 103.847 320.467 103.033 320.296 102.241C320.208 101.831 320.095 101.428 319.956 101.032C319.802 100.636 319.621 100.25 319.416 99.8772C318.553 98.3082 317.21 97.0564 315.583 96.3051C313.956 95.5538 312.131 95.3427 310.375 95.7027C309.957 95.7884 309.545 95.9016 309.142 96.0416C308.751 96.1907 308.371 96.3665 308.003 96.5679C307.287 96.9498 306.633 97.4386 306.065 98.0174C305.002 99.0856 304.244 100.417 303.867 101.875C303.541 103.147 303.518 104.478 303.8 105.76C304.03 106.819 304.461 107.824 305.069 108.721C305.523 109.402 306.077 110.011 306.713 110.528C306.942 110.721 307.185 110.897 307.441 111.054C307.62 111.183 307.808 111.299 308.003 111.402L308.356 111.598C308.437 111.643 308.477 111.669 308.472 111.674C308.428 111.662 308.386 111.644 308.347 111.62L307.981 111.442C307.78 111.348 307.587 111.238 307.405 111.112C307.146 110.96 306.899 110.787 306.668 110.595C306.011 110.084 305.439 109.475 304.971 108.788C304.274 107.786 303.799 106.646 303.578 105.445C303.357 104.245 303.394 103.011 303.689 101.826C304.066 100.33 304.837 98.9607 305.922 97.8613C306.503 97.2653 307.172 96.7615 307.905 96.3672C308.282 96.1605 308.673 95.9802 309.075 95.8275C309.489 95.6825 309.911 95.5648 310.34 95.4752C312.143 95.1031 314.018 95.3187 315.69 96.0902C317.362 96.8617 318.741 98.1485 319.626 99.7613C319.835 100.146 320.019 100.543 320.175 100.952C320.317 101.357 320.432 101.772 320.519 102.192C320.694 103.005 320.744 103.839 320.666 104.667C320.545 106.105 320.061 107.488 319.261 108.689C318.46 109.889 317.369 110.869 316.088 111.536C315.115 112.044 314.054 112.362 312.961 112.472C312.135 112.557 311.301 112.515 310.487 112.347C310.184 112.297 309.885 112.222 309.594 112.124C309.38 112.068 309.172 111.992 308.973 111.897L308.598 111.736C308.554 111.719 308.512 111.698 308.472 111.674Z" fill="#263238"/>
<path d="M312.769 104.163C313.179 104.171 313.582 104.059 313.928 103.84C314.275 103.621 314.549 103.306 314.717 102.932C314.841 102.696 314.915 102.438 314.936 102.172C314.957 101.907 314.924 101.64 314.838 101.387C314.753 101.135 314.617 100.903 314.44 100.704C314.262 100.506 314.046 100.345 313.804 100.232C313.562 100.119 313.3 100.057 313.034 100.048C312.767 100.039 312.501 100.084 312.253 100.181C312.004 100.277 311.778 100.423 311.587 100.609C311.396 100.795 311.246 101.018 311.144 101.264C310.963 101.636 310.897 102.053 310.954 102.463C311.01 102.872 311.186 103.256 311.461 103.566C308.522 102.709 307.266 105.751 307.266 105.751L313.748 108.779C313.748 108.779 315.302 105.831 312.769 104.163Z" fill="#27B0C4"/>
<path d="M228.635 106.384C226.546 108.162 223.835 109.039 221.099 108.821C218.362 108.604 215.824 107.31 214.043 105.225C212.262 103.139 211.384 100.432 211.602 97.6993C211.82 94.967 213.116 92.4328 215.204 90.654C216.238 89.7729 217.436 89.1039 218.729 88.685C220.022 88.2662 221.385 88.1059 222.74 88.2132C224.095 88.3204 225.416 88.6932 226.627 89.3102C227.837 89.9272 228.915 90.7764 229.797 91.8091C230.679 92.8423 231.349 94.0388 231.768 95.3304C232.187 96.6221 232.347 97.9835 232.239 99.3369C232.131 100.69 231.758 102.009 231.139 103.219C230.521 104.428 229.67 105.504 228.635 106.384Z" fill="white"/>
<path d="M228.635 106.384L228.751 106.26L229.1 105.912L229.359 105.662C229.453 105.564 229.542 105.448 229.645 105.332C229.887 105.062 230.111 104.776 230.315 104.476C230.891 103.664 231.343 102.771 231.655 101.826C232.072 100.579 232.247 99.2634 232.168 97.9506C232.083 96.359 231.624 94.8098 230.828 93.4281C229.91 91.845 228.586 90.5349 226.992 89.6327C226.57 89.3905 226.131 89.1788 225.678 88.9993C225.213 88.8185 224.735 88.6694 224.249 88.5533C223.753 88.441 223.25 88.3605 222.744 88.3125C222.226 88.2768 221.707 88.2768 221.189 88.3125C220.126 88.383 219.081 88.624 218.094 89.0261C217.08 89.4442 216.135 90.0142 215.293 90.7164C214.467 91.4377 213.754 92.278 213.176 93.2096C212.623 94.1196 212.219 95.1118 211.979 96.1487C211.861 96.6539 211.777 97.1665 211.729 97.683C211.693 98.1893 211.693 98.6975 211.729 99.2038C211.784 100.188 211.994 101.157 212.35 102.076C212.944 103.686 213.934 105.121 215.229 106.249C216.524 107.377 218.082 108.161 219.76 108.53C221.046 108.813 222.374 108.847 223.673 108.632C224.655 108.479 225.608 108.179 226.5 107.74C226.831 107.588 227.15 107.412 227.456 107.214C227.59 107.134 227.715 107.062 227.827 106.987L228.117 106.772L228.515 106.483C228.557 106.446 228.604 106.415 228.653 106.389L228.528 106.5L228.144 106.808L227.863 107.036C227.751 107.111 227.626 107.187 227.492 107.272C227.19 107.481 226.872 107.664 226.54 107.821C225.646 108.279 224.686 108.598 223.695 108.766C221.303 109.189 218.839 108.762 216.73 107.558C214.621 106.355 213.002 104.451 212.153 102.179C211.971 101.715 211.822 101.24 211.707 100.756C211.6 100.259 211.53 99.7553 211.497 99.2484C211.463 98.7301 211.463 98.2102 211.497 97.6919C211.546 97.1649 211.631 96.6419 211.751 96.1264C211.996 95.0641 212.409 94.0477 212.975 93.1159C214.14 91.1811 215.906 89.6793 218.005 88.8388C219.013 88.428 220.081 88.1825 221.167 88.1118C221.696 88.0739 222.228 88.0739 222.757 88.1118C223.274 88.1606 223.788 88.2441 224.294 88.3616C224.791 88.475 225.279 88.6241 225.754 88.8076C226.215 88.9948 226.662 89.2124 227.094 89.4587C228.716 90.3861 230.06 91.7286 230.989 93.3478C231.722 94.6318 232.171 96.0572 232.307 97.5286C232.444 98.9999 232.264 100.483 231.78 101.88C231.461 102.839 230.994 103.741 230.395 104.556C230.188 104.857 229.958 105.142 229.707 105.408C229.6 105.524 229.506 105.64 229.412 105.733L229.144 105.979L228.778 106.309L228.635 106.384Z" fill="#263238"/>
<path d="M222.534 97.8524C222.75 97.406 222.831 96.9058 222.765 96.4141C222.699 95.9225 222.49 95.461 222.163 95.0872C221.968 94.8259 221.722 94.6072 221.44 94.4445C221.157 94.2818 220.844 94.1786 220.52 94.1413C220.196 94.1039 219.868 94.1332 219.555 94.2273C219.243 94.3215 218.953 94.4784 218.704 94.6885C218.455 94.8986 218.252 95.1575 218.106 95.4491C217.961 95.7407 217.877 96.059 217.86 96.3842C217.842 96.7094 217.892 97.0348 218.005 97.3402C218.118 97.6456 218.293 97.9247 218.518 98.1601C218.835 98.5444 219.258 98.8268 219.735 98.972C220.212 99.1172 220.721 99.1187 221.198 98.9763C218.764 101.777 221.48 104.699 221.48 104.699L228.108 99.1057C228.108 99.1057 225.66 95.9168 222.534 97.8524Z" fill="#27B0C4"/>
<path d="M167.607 62.9351C166.862 62.4962 166.212 61.9151 165.692 61.225C165.172 60.5349 164.793 59.7493 164.578 58.9131C164.362 58.0769 164.313 57.2065 164.435 56.3515C164.556 55.4966 164.845 54.6738 165.285 53.9303C166.173 52.4295 167.622 51.342 169.312 50.9064C171.003 50.4708 172.798 50.7226 174.303 51.6067C175.048 52.0456 175.699 52.6268 176.22 53.3172C176.74 54.0075 177.119 54.7934 177.335 55.63C177.551 56.4666 177.6 57.3375 177.479 58.193C177.358 59.0485 177.07 59.8718 176.63 60.6159C175.741 62.118 174.292 63.2063 172.6 63.6412C170.907 64.0761 169.112 63.8221 167.607 62.9351Z" fill="white"/>
<path d="M167.607 62.9395C168.096 63.1692 168.599 63.3673 169.112 63.5327C170.532 63.9329 172.046 63.8449 173.409 63.283C174.415 62.8719 175.301 62.2149 175.985 61.3724C176.67 60.5299 177.131 59.5289 177.327 58.4617C177.447 57.8507 177.471 57.2247 177.398 56.6063C177.337 55.96 177.173 55.3276 176.911 54.7331C176.372 53.4656 175.439 52.404 174.251 51.7041C173.063 51.0042 171.682 50.7028 170.31 50.844C169.661 50.9035 169.027 51.0645 168.429 51.3212C167.852 51.5573 167.315 51.8823 166.839 52.2846C165.998 52.9693 165.343 53.8544 164.935 54.8584C164.527 55.8623 164.378 56.9527 164.503 58.0291C164.669 59.4938 165.324 60.8603 166.361 61.9093C166.752 62.2798 167.168 62.6226 167.607 62.9351L167.5 62.886L167.232 62.721C167.084 62.6342 166.944 62.5357 166.812 62.4266C166.624 62.2929 166.448 62.1437 166.285 61.9806C165.817 61.5399 165.422 61.0281 165.115 60.4642C164.657 59.6381 164.38 58.724 164.303 57.7827C164.226 56.8415 164.35 55.8947 164.668 55.0052C165.073 53.8817 165.772 52.8869 166.692 52.124C167.186 51.7105 167.74 51.3737 168.335 51.125C168.952 50.8557 169.608 50.6871 170.278 50.6255C171.696 50.4757 173.124 50.785 174.352 51.5078C175.581 52.2306 176.543 53.3285 177.099 54.6395C177.623 55.8544 177.769 57.1985 177.519 58.4974C177.312 59.5937 176.833 60.6204 176.124 61.4825C175.415 62.3447 174.5 63.0145 173.463 63.4301C172.671 63.7471 171.824 63.9077 170.971 63.9029C170.328 63.9047 169.689 63.8069 169.077 63.613C168.852 63.5496 168.632 63.4691 168.42 63.3722C168.265 63.3105 168.116 63.2359 167.973 63.1492L167.701 62.9931L167.607 62.9395Z" fill="#263238"/>
<path d="M171.484 57.5028C171.798 57.5413 172.116 57.4865 172.399 57.3453C172.682 57.2041 172.917 56.9827 173.074 56.7089C173.194 56.5377 173.277 56.3438 173.318 56.1392C173.359 55.9346 173.358 55.7238 173.314 55.5198C173.27 55.3158 173.184 55.123 173.063 54.9534C172.941 54.7838 172.785 54.6411 172.606 54.534C172.427 54.427 172.227 54.3579 172.02 54.3312C171.813 54.3045 171.602 54.3206 171.401 54.3786C171.201 54.4366 171.014 54.5352 170.853 54.6684C170.692 54.8015 170.56 54.9662 170.466 55.1524C170.301 55.4238 170.22 55.7374 170.232 56.0544C170.244 56.3715 170.348 56.6781 170.533 56.9364C168.344 56.0444 167.143 58.2744 167.143 58.2744L171.886 61.102C171.886 61.102 173.307 58.9791 171.484 57.5028Z" fill="#27B0C4"/>
<path d="M283.381 58.7284C291.225 54.7686 294.369 45.2092 290.403 37.377C286.438 29.5447 276.864 26.4055 269.02 30.3653C261.176 34.325 258.032 43.8844 261.998 51.7167C265.963 59.5489 275.537 62.6882 283.381 58.7284Z" fill="white"/>
<path d="M282.74 39.5022C282.717 38.9361 282.581 38.3802 282.34 37.8672C282.099 37.3541 281.758 36.8941 281.337 36.514C280.374 35.7079 279.159 35.263 277.903 35.2563C276.662 35.2531 275.429 35.4535 274.253 35.8495C273.574 36.0186 272.932 36.312 272.359 36.7147C271.228 37.6093 270.361 38.7929 269.849 40.14C269.501 41.642 269.403 43.1911 269.559 44.7249C269.696 45.1561 269.959 45.5366 270.314 45.8176C270.558 46.8249 270.98 47.7808 271.56 48.6408C271.953 48.0253 272.342 47.4054 272.73 46.7899L282.74 39.5022Z" fill="#263238"/>
<path d="M282.468 38.1375L280.574 37.3168C281.047 40.1356 279.957 46.0718 279.935 48.9128C280.909 48.0208 283.356 45.2155 283.566 43.9176C283.776 42.6198 284.862 38.4675 282.468 38.1375Z" fill="#263238"/>
<path d="M272.105 40.2025C272.31 39.4918 272.738 38.8654 273.325 38.4151C273.913 37.9649 274.629 37.7144 275.37 37.7004L280.185 37.6112C282.2 37.8654 282.941 40.586 282.606 42.5841C282.235 44.8141 281.775 47.1288 281.136 48.7032C279.846 51.8654 277.228 51.6959 277.228 51.6959C277.228 51.6959 276.862 53.2569 276.634 54.2113L274.767 58.2833L269.407 54.1489L272.087 40.2426C272.096 40.1846 272.078 40.2783 272.105 40.2025Z" fill="#FFBF9D"/>
<path d="M280.9 45.046C280.872 45.1541 280.805 45.2479 280.712 45.309C280.618 45.3701 280.505 45.394 280.395 45.3761C280.341 45.3679 280.288 45.3491 280.241 45.3206C280.194 45.2921 280.153 45.2546 280.121 45.2102C280.088 45.1658 280.065 45.1154 280.052 45.0619C280.04 45.0085 280.038 44.9531 280.047 44.8988C280.074 44.7899 280.142 44.6954 280.236 44.6342C280.331 44.573 280.445 44.5496 280.556 44.5688C280.61 44.5769 280.662 44.5958 280.709 44.6243C280.756 44.6528 280.797 44.6905 280.829 44.7349C280.861 44.7794 280.883 44.8299 280.896 44.8833C280.908 44.9367 280.909 44.992 280.9 45.046Z" fill="#263238"/>
<path d="M281.811 43.7526C281.744 43.7928 281.48 43.485 281.025 43.378C280.569 43.271 280.19 43.4226 280.131 43.3557C280.073 43.2888 280.19 43.2397 280.359 43.1684C280.588 43.0789 280.839 43.0618 281.078 43.1193C281.315 43.1735 281.528 43.3017 281.686 43.485C281.82 43.6233 281.847 43.7348 281.811 43.7526Z" fill="#263238"/>
<path d="M276.848 43.9533C276.821 44.0623 276.753 44.1568 276.659 44.218C276.564 44.2792 276.45 44.3025 276.339 44.2834C276.285 44.2753 276.232 44.2563 276.185 44.2275C276.138 44.1986 276.097 44.1606 276.065 44.1156C276.033 44.0706 276.01 44.0197 275.998 43.9657C275.986 43.9118 275.985 43.856 275.995 43.8017C276.023 43.6936 276.09 43.5998 276.183 43.5387C276.277 43.4776 276.39 43.4537 276.5 43.4716C276.555 43.4803 276.607 43.4997 276.654 43.5286C276.701 43.5575 276.742 43.5955 276.774 43.6402C276.807 43.685 276.83 43.7357 276.843 43.7894C276.855 43.8431 276.857 43.8988 276.848 43.9533Z" fill="#263238"/>
<path d="M277.505 42.7402C277.438 42.7803 277.175 42.4726 276.719 42.3655C276.263 42.2585 275.879 42.4101 275.826 42.3655C275.772 42.3209 275.884 42.2496 276.053 42.1782C276.282 42.0885 276.533 42.0714 276.773 42.1292C277.008 42.1822 277.221 42.3087 277.38 42.4904C277.51 42.6108 277.536 42.7179 277.505 42.7402Z" fill="#263238"/>
<path d="M278.081 46.6293C278.338 46.6103 278.596 46.6237 278.85 46.6695C278.97 46.6695 279.082 46.6695 279.122 46.6115C279.157 46.4936 279.157 46.3682 279.122 46.2502L278.984 45.2869C278.841 44.4677 278.763 43.6385 278.751 42.8071C278.966 43.613 279.115 44.4348 279.198 45.2646C279.237 45.6006 279.277 45.9217 279.319 46.2279C279.354 46.3778 279.337 46.5354 279.269 46.6739C279.244 46.711 279.21 46.7416 279.17 46.7633C279.131 46.7849 279.087 46.7971 279.042 46.7988C278.973 46.8064 278.904 46.8064 278.836 46.7988C278.578 46.7741 278.325 46.7172 278.081 46.6293Z" fill="#263238"/>
<path d="M273.146 49.506C273.146 49.506 273.686 52.0126 277.045 52.4719L277.228 51.7004C275.69 51.3593 274.277 50.5998 273.146 49.506Z" fill="#FF9A6C"/>
<path d="M277.746 41.0677C277.675 41.1837 277.233 41.0186 276.688 40.9562C276.143 40.8938 275.674 40.9562 275.629 40.8135C275.629 40.7555 275.714 40.6574 275.915 40.5771C276.181 40.4807 276.466 40.4501 276.746 40.4879C277.025 40.5199 277.292 40.6161 277.527 40.7689C277.706 40.8938 277.782 41.032 277.746 41.0677Z" fill="#263238"/>
<path d="M281.99 42.3299C281.887 42.4147 281.597 42.2362 281.221 42.1426C280.846 42.0489 280.511 42.0534 280.466 41.9285C280.422 41.8036 280.52 41.7769 280.681 41.71C280.898 41.643 281.13 41.643 281.346 41.71C281.565 41.7654 281.762 41.8869 281.909 42.0578C282.016 42.1738 282.034 42.2898 281.99 42.3299Z" fill="#263238"/>
<path d="M282.423 39.3774C282.364 39.1085 282.231 38.8613 282.04 38.6635C281.848 38.4658 281.605 38.3253 281.337 38.2579C280.8 38.1321 280.238 38.1615 279.716 38.3426C277.483 39.0116 275.843 41.5048 273.637 42.2184C273.092 42.3923 272.534 41.982 272.042 42.2674C271.785 42.3939 271.571 42.5944 271.429 42.8432C271.286 43.092 271.221 43.3776 271.243 43.6634C271.048 43.2535 270.913 42.818 270.841 42.37C270.806 42.1456 270.82 41.9165 270.882 41.698C270.944 41.4795 271.051 41.2767 271.198 41.1034C271.43 40.8536 271.779 40.702 271.94 40.3987C272.028 40.1081 272.087 39.8092 272.114 39.5067C272.217 39.2148 272.388 38.9518 272.614 38.7396C273.664 37.546 275.02 36.6608 276.536 36.1795C277.537 35.88 278.602 35.8615 279.613 36.126C280.621 36.3883 281.502 37.0022 282.097 37.8565C282.436 38.3649 282.794 38.8868 282.441 39.3818" fill="#263238"/>
<path d="M271.993 42.6867C271.993 42.5841 270.412 41.5628 269.961 43.378C269.51 45.1932 271.386 45.211 271.404 45.162C271.421 45.1129 271.993 42.6867 271.993 42.6867Z" fill="#FFBF9D"/>
<path d="M271.024 44.3592C271.024 44.3592 270.988 44.3592 270.93 44.386C270.849 44.398 270.766 44.3789 270.698 44.3324C270.601 44.2328 270.533 44.109 270.501 43.974C270.469 43.839 270.473 43.6978 270.515 43.5653C270.547 43.413 270.612 43.2697 270.707 43.1461C270.737 43.0953 270.78 43.0526 270.83 43.0216C270.881 42.9905 270.938 42.9721 270.997 42.9677C271.035 42.966 271.072 42.9783 271.102 43.0021C271.132 43.0259 271.151 43.0596 271.158 43.097C271.158 43.1505 271.158 43.1818 271.158 43.1907C271.158 43.1996 271.203 43.1907 271.207 43.0926C271.207 43.0464 271.193 43.0013 271.167 42.9632C271.126 42.9155 271.069 42.8852 271.006 42.8785C270.93 42.8754 270.854 42.8918 270.786 42.9261C270.718 42.9605 270.66 43.0116 270.617 43.0747C270.508 43.2035 270.43 43.3563 270.39 43.5207C270.342 43.6754 270.341 43.8409 270.388 43.9958C270.435 44.1508 270.527 44.2882 270.653 44.3904C270.697 44.4164 270.745 44.4319 270.796 44.4357C270.846 44.4396 270.897 44.4317 270.944 44.4127C271.011 44.4038 271.028 44.3637 271.024 44.3592Z" fill="#FF9A6C"/>
<path d="M271.502 41.6118C271.543 41.6052 271.584 41.5932 271.622 41.5761C271.703 41.5494 271.819 41.5181 271.966 41.4602C272.374 41.2872 272.761 41.0719 273.123 40.8179C273.656 40.4326 274.166 40.0172 274.651 39.5736C275.238 39.0302 275.87 38.5379 276.54 38.1018C276.893 37.8891 277.267 37.7142 277.657 37.58C278.023 37.4613 278.403 37.3879 278.787 37.3614C279.438 37.3069 280.093 37.3781 280.717 37.571C281.138 37.6971 281.54 37.8786 281.914 38.1107C282.048 38.191 282.146 38.2668 282.213 38.3114C282.28 38.356 282.316 38.3828 282.32 38.3783C282.289 38.3493 282.256 38.3225 282.222 38.298C282.155 38.249 282.066 38.1687 281.932 38.0839C281.561 37.8397 281.158 37.6476 280.734 37.5131C280.103 37.3137 279.439 37.235 278.778 37.2811C278.389 37.3092 278.005 37.3841 277.635 37.5041C277.234 37.6365 276.849 37.813 276.487 38.0304C275.814 38.4727 275.181 38.971 274.593 39.5201C274.112 39.9623 273.608 40.3792 273.083 40.7689C272.725 41.0248 272.344 41.2458 271.944 41.4289C271.801 41.4914 271.685 41.5315 271.609 41.5627L271.502 41.6118Z" fill="white"/>
<path d="M271.828 42.2184C271.647 42.6835 271.592 43.188 271.667 43.6813C271.715 43.9252 271.856 44.1411 272.06 44.2834C272.264 44.4257 272.516 44.4832 272.761 44.4439C273.15 44.328 273.356 43.9132 273.507 43.5519C273.954 42.4681 274.285 41.3219 274.727 40.2649L271.828 42.2184Z" fill="#263238"/>
<path d="M282.186 38.4318C282.186 38.4318 282.034 38.3649 281.739 38.2891C281.341 38.1898 280.927 38.1686 280.52 38.2267C280.239 38.2686 279.962 38.3373 279.694 38.4318C279.389 38.5493 279.091 38.6833 278.8 38.8332C278.134 39.1737 277.511 39.5913 276.942 40.0776C276.643 40.3407 276.371 40.6172 276.08 40.867C275.81 41.1127 275.51 41.324 275.187 41.4958C274.637 41.777 274.057 41.994 273.458 42.1425C272.949 42.2763 272.529 42.3566 272.243 42.4101L271.908 42.4681H271.792C271.827 42.4499 271.865 42.4378 271.904 42.4324L272.234 42.3566C272.52 42.2897 272.936 42.2005 273.44 42.0623C274.031 41.9091 274.603 41.6923 275.147 41.4156C275.468 41.244 275.768 41.0344 276.04 40.7912C276.321 40.5459 276.594 40.2694 276.898 40.0018C277.472 39.5082 278.105 39.0873 278.783 38.7485C279.073 38.5994 279.371 38.4669 279.676 38.3515C279.95 38.258 280.233 38.1922 280.52 38.1553C280.936 38.101 281.359 38.1344 281.762 38.2534C281.869 38.2852 281.974 38.3255 282.074 38.3738C282.114 38.3891 282.151 38.4085 282.186 38.4318Z" fill="#455A64"/>
<path d="M272.02 41.1123C271.963 41.1448 271.901 41.1688 271.837 41.1837L271.328 41.3398L271.158 41.3933C271.088 41.405 271.017 41.405 270.948 41.3933C270.906 41.3858 270.867 41.3656 270.836 41.3353C270.819 41.3181 270.806 41.2969 270.799 41.2735C270.792 41.2501 270.791 41.2254 270.796 41.2015C270.82 41.1215 270.868 41.0511 270.935 41.0008L271.649 40.2917L271.703 40.372C271.502 40.46 271.287 40.5099 271.069 40.5192C270.849 40.5318 270.628 40.5076 270.416 40.4478C270.363 40.4331 270.312 40.4106 270.265 40.3809C270.236 40.3655 270.211 40.3439 270.192 40.3177C270.172 40.2915 270.159 40.2612 270.153 40.2293C270.15 40.1973 270.155 40.1652 270.168 40.1356C270.18 40.1061 270.2 40.08 270.224 40.0598C270.265 40.0266 270.308 39.9968 270.354 39.9706C270.639 39.7985 270.902 39.5918 271.136 39.3551C271.346 39.1276 271.538 38.8846 271.712 38.6281C271.685 38.7085 271.647 38.7849 271.6 38.8556C271.481 39.0514 271.344 39.2351 271.189 39.4042C270.958 39.6546 270.694 39.8722 270.403 40.0509C270.323 40.0999 270.238 40.1534 270.251 40.2159C270.265 40.2783 270.354 40.3274 270.448 40.3497C270.648 40.4076 270.856 40.4317 271.064 40.421C271.27 40.4084 271.473 40.3601 271.663 40.2783L271.913 40.1757L271.721 40.3631L270.993 41.0633C270.941 41.102 270.9 41.1545 270.877 41.2149C270.875 41.2273 270.875 41.24 270.879 41.2521C270.882 41.2642 270.888 41.2755 270.896 41.2852C270.904 41.2949 270.914 41.3027 270.925 41.3083C270.937 41.3139 270.949 41.317 270.961 41.3175C271.08 41.3182 271.198 41.2986 271.31 41.2595L271.828 41.1302C271.891 41.1192 271.956 41.1132 272.02 41.1123Z" fill="white"/>
<path d="M276.161 47.0575C276.225 46.931 276.332 46.8312 276.463 46.7757C276.593 46.7202 276.739 46.7126 276.875 46.7542C276.974 46.7895 277.061 46.8488 277.131 46.9267C277.2 47.0046 277.249 47.0986 277.273 47.2002C277.295 47.3015 277.296 47.4062 277.277 47.5081C277.258 47.61 277.218 47.707 277.161 47.7934V47.8335C277.044 47.9161 276.905 47.9604 276.761 47.9604C276.618 47.9604 276.478 47.9161 276.362 47.8335C276.246 47.7451 276.164 47.6207 276.127 47.48C276.091 47.3394 276.103 47.1907 276.161 47.0575Z" fill="#FF9A6C"/>
<path d="M277.469 47.9272C277.469 47.8603 277.023 47.7711 276.764 47.3162C276.505 46.8612 276.652 46.3751 276.585 46.3573C276.518 46.3394 276.473 46.4509 276.433 46.6605C276.379 46.9311 276.422 47.2121 276.554 47.4544C276.681 47.686 276.895 47.8588 277.148 47.9361C277.34 47.9896 277.465 47.9584 277.469 47.9272Z" fill="#263238"/>
<path d="M281.847 56.7223C281.274 56.0382 280.608 55.4377 279.868 54.9383L276.822 53.413C276.359 53.9942 275.725 54.4165 275.01 54.6212C274.295 54.8259 273.534 54.8026 272.833 54.5547C272.123 54.3131 271.483 53.9026 270.968 53.3586C270.453 52.8147 270.078 52.1537 269.876 51.4327C269.876 51.4327 265.561 50.8752 262.412 52.5433C264.44 56.0298 267.715 58.6205 271.578 59.7946C275.441 60.9687 279.606 60.639 283.236 58.872C282.821 58.1254 282.357 57.4072 281.847 56.7223Z" fill="#455A64"/>
<path d="M260.898 48.5828C260.898 48.5828 260.929 48.6631 260.983 48.8281C261.036 48.9931 261.117 49.2384 261.22 49.5506C261.269 49.7112 261.327 49.8896 261.389 50.0814C261.452 50.2732 261.555 50.4783 261.653 50.7058C261.858 51.2284 262.101 51.7352 262.381 52.2222C263.111 53.5763 264.04 54.8136 265.137 55.8928C266.736 57.4809 268.654 58.713 270.764 59.5079C272.874 60.3027 275.129 60.6424 277.38 60.5044C278.055 60.4607 278.727 60.3713 279.39 60.2368C279.725 60.1654 280.064 60.1119 280.404 60.0227L281.409 59.7105C281.579 59.657 281.748 59.6124 281.914 59.55L282.409 59.3403C282.74 59.1976 283.075 59.0683 283.406 58.8943C284.062 58.5631 284.696 58.1892 285.304 57.7749C285.932 57.3537 286.529 56.8887 287.091 56.3833C287.372 56.1247 287.631 55.8437 287.903 55.5716C288.181 55.2937 288.438 54.9956 288.672 54.6796C289.17 54.0679 289.628 53.4243 290.043 52.7529C290.445 52.0568 290.798 51.3341 291.102 50.5898C291.732 49.0622 292.114 47.4435 292.232 45.7953C292.336 44.0981 292.185 42.3948 291.785 40.7421C291.353 39.1123 290.678 37.5563 289.784 36.126L289.078 35.0913L288.279 34.1413C288.151 33.9813 288.011 33.8321 287.859 33.6953L287.412 33.2493L286.965 32.8033L286.492 32.4198C285.871 31.908 285.216 31.4386 284.531 31.0149C283.846 30.6231 283.135 30.2759 282.405 29.9757C282.053 29.8122 281.688 29.6765 281.315 29.5698C280.944 29.4583 280.583 29.3334 280.212 29.2398C279.477 29.0634 278.731 28.9382 277.979 28.8652C277.246 28.7883 276.509 28.76 275.772 28.7804C275.406 28.7804 275.048 28.8473 274.691 28.8741L274.155 28.9276C273.981 28.9276 273.807 28.99 273.632 29.0212L272.601 29.2264C272.261 29.3067 271.935 29.4271 271.605 29.5208C270.957 29.7146 270.324 29.9546 269.711 30.2388C267.663 31.1908 265.842 32.5655 264.366 34.2722C262.89 35.979 261.793 37.9789 261.148 40.14C260.692 41.6103 260.463 43.1413 260.469 44.6803C260.454 45.2405 260.481 45.801 260.55 46.3573C260.55 46.6026 260.585 46.8033 260.612 47.0307C260.639 47.2582 260.688 47.4143 260.719 47.5793C260.777 47.9004 260.822 48.1502 260.858 48.3286C260.894 48.507 260.898 48.5828 260.898 48.5828C260.898 48.5828 260.871 48.4981 260.835 48.3331C260.8 48.168 260.742 47.887 260.675 47.5882C260.639 47.4232 260.599 47.2404 260.559 47.0397C260.518 46.839 260.509 46.5936 260.483 46.3662C260.404 45.8078 260.368 45.2442 260.375 44.6803C260.355 43.1294 260.574 41.5846 261.023 40.0999C261.667 37.9157 262.77 35.8933 264.257 34.167C265.744 32.4408 267.582 31.05 269.648 30.0872C270.272 29.7979 270.915 29.552 271.573 29.3513C271.904 29.2576 272.234 29.1372 272.578 29.0525L273.624 28.8428C273.802 28.8116 273.976 28.767 274.155 28.7447L274.696 28.6912C275.057 28.66 275.419 28.6109 275.79 28.5931C276.535 28.5736 277.281 28.6004 278.023 28.6734C278.784 28.7486 279.539 28.8737 280.283 29.048C280.663 29.1461 281.029 29.271 281.404 29.3825C281.783 29.4927 282.153 29.6298 282.512 29.7928C283.255 30.0939 283.975 30.4456 284.67 30.8454C285.363 31.2735 286.027 31.7474 286.657 32.2637L287.14 32.6562L287.586 33.1022L288.033 33.5482C288.194 33.6842 288.343 33.8333 288.48 33.9942L289.288 34.9575L290.007 36.0056C291.893 38.9283 292.768 42.387 292.5 45.8533C292.382 47.525 291.995 49.1667 291.352 50.7147C291.044 51.4693 290.686 52.2024 290.28 52.909C289.849 53.5885 289.374 54.2395 288.859 54.858C288.621 55.1737 288.359 55.4718 288.078 55.75C287.801 56.0221 287.537 56.312 287.251 56.5707C286.675 57.0827 286.063 57.5536 285.42 57.98C284.802 58.3982 284.157 58.7766 283.49 59.1129C283.16 59.269 282.816 59.3983 282.485 59.5589L281.981 59.7685C281.815 59.8354 281.641 59.8755 281.467 59.9335L280.449 60.2457C280.109 60.3349 279.761 60.3884 279.421 60.4598C278.751 60.5951 278.072 60.683 277.389 60.7229C275.112 60.858 272.833 60.5079 270.702 59.6959C268.571 58.8839 266.637 57.6285 265.03 56.0132C263.928 54.9196 263.002 53.6636 262.283 52.2891C262.007 51.7977 261.768 51.2863 261.568 50.7593C261.479 50.5318 261.385 50.3133 261.313 50.1304C261.242 49.9476 261.202 49.7513 261.157 49.5908C261.063 49.2786 260.992 49.0333 260.943 48.8593C260.894 48.6854 260.898 48.5828 260.898 48.5828Z" fill="#263238"/>
<path d="M291.172 113.464C300.22 104.43 300.22 89.7821 291.172 80.7477C282.124 71.7133 267.455 71.7133 258.407 80.7477C249.359 89.7821 249.359 104.43 258.407 113.464C267.455 122.499 282.124 122.499 291.172 113.464Z" fill="white"/>
<path d="M285.742 95.5644C285.612 93.3745 285.804 91.1668 285.567 88.9859C285.331 86.805 284.589 84.566 282.95 83.1076C281.311 81.6492 278.613 81.2344 276.915 82.6259L276.679 84.517C277.983 92.9077 279.284 101.297 280.583 109.685C280.685 110.799 281 111.883 281.512 112.878C282.088 113.833 283.16 114.582 284.268 114.435C285.715 114.243 286.563 112.7 286.921 111.286C288.203 106.148 286.054 100.845 285.742 95.5644Z" fill="#263238"/>
<path d="M279.667 84.5884C279.336 84.052 278.923 83.5705 278.443 83.1612C278.199 82.955 277.912 82.8075 277.602 82.7301C277.292 82.6528 276.969 82.6477 276.656 82.7152C276.511 82.7426 276.375 82.8071 276.261 82.9024C276.148 82.9977 276.061 83.1206 276.009 83.2593C275.928 83.5492 276.165 83.906 276.455 83.8614L276.522 83.9105C277.219 84.4412 277.925 84.963 278.644 85.467C278.816 85.6082 279.015 85.7129 279.229 85.7747C279.336 85.8043 279.449 85.8037 279.555 85.773C279.662 85.7423 279.758 85.6827 279.832 85.6008C280.082 85.302 279.872 84.8917 279.667 84.5884Z" fill="#27B0C4"/>
<path d="M281.056 86.6489C279.947 85.4158 278.574 84.4473 277.039 83.8151C275.505 83.1829 273.847 82.903 272.19 82.9961C270.238 83.1032 269.465 83.5625 268.089 84.0398C266.71 84.4757 265.527 85.3818 264.748 86.5998C263.798 88.0453 263.226 89.7063 263.087 91.43C262.961 93.199 263.002 94.9759 263.207 96.7374C263.415 98.5085 264.109 100.188 265.213 101.59L269.76 102.036C272.248 101.942 274.771 101.849 277.148 101.113C279.524 100.377 281.784 98.9094 282.928 96.7062C284.5 93.66 283.432 89.1598 281.056 86.6489Z" fill="#263238"/>
<path d="M270.287 110.028C270.207 108.449 270.122 106.46 270.122 106.483C270.122 106.505 266.428 106.335 265.083 101.719C264.418 99.4223 264.047 95.5644 263.85 92.3978C263.672 89.5523 265.825 85.5027 269.344 85.2618L270.899 84.9719L277.058 86.9254C277.477 86.9174 277.884 87.0664 278.198 87.343C278.512 87.6196 278.711 88.0037 278.756 88.4195L280.44 109.025L277.054 115.715L269.809 110.885L270.287 110.028Z" fill="#CC6760"/>
<path d="M272.051 100.123C271.997 99.8858 271.859 99.6767 271.663 99.5338C271.484 99.3975 271.265 99.3236 271.04 99.3236C270.814 99.3236 270.595 99.3975 270.416 99.5338C270.23 99.6928 270.091 99.8989 270.012 100.13C269.934 100.362 269.919 100.61 269.97 100.85C270.084 100.986 270.226 101.096 270.386 101.173C270.546 101.25 270.721 101.292 270.899 101.296C270.954 101.3 271.009 101.3 271.064 101.296C271.344 101.278 271.606 101.153 271.797 100.948C271.898 100.838 271.974 100.707 272.018 100.564C272.062 100.421 272.073 100.27 272.051 100.123Z" fill="#9D4941"/>
<path d="M265.999 95.9212C266.017 96.0791 266.096 96.2236 266.22 96.3237C266.344 96.4238 266.502 96.4714 266.66 96.4564C266.737 96.453 266.813 96.4342 266.884 96.401C266.954 96.3678 267.016 96.3209 267.068 96.2631C267.12 96.2053 267.159 96.1378 267.184 96.0645C267.209 95.9912 267.219 95.9137 267.214 95.8365C267.196 95.6782 267.117 95.5333 266.993 95.4325C266.87 95.3317 266.712 95.283 266.553 95.2968C266.475 95.3008 266.399 95.3201 266.329 95.3538C266.259 95.3875 266.196 95.4348 266.145 95.4929C266.093 95.5511 266.054 95.6189 266.029 95.6924C266.004 95.7659 265.993 95.8437 265.999 95.9212Z" fill="#263238"/>
<path d="M265.034 93.9053C265.119 93.9766 265.534 93.5797 266.187 93.4994C266.839 93.4191 267.357 93.6823 267.419 93.5931C267.482 93.5039 267.352 93.4236 267.125 93.2987C266.819 93.1388 266.471 93.078 266.128 93.1248C265.794 93.1657 265.48 93.3127 265.235 93.544C265.043 93.7224 264.994 93.874 265.034 93.9053Z" fill="#263238"/>
<path d="M269.599 98.731C269.243 98.6639 268.879 98.6444 268.518 98.673C268.348 98.673 268.188 98.673 268.147 98.5526C268.109 98.3826 268.125 98.205 268.192 98.0442C268.299 97.6249 268.411 97.1789 268.527 96.7062C268.974 94.8196 269.291 93.2764 269.215 93.2586C269.139 93.2407 268.706 94.7571 268.25 96.6437C268.143 97.0897 268.04 97.5357 267.937 97.9817C267.862 98.1967 267.862 98.4312 267.937 98.6463C267.968 98.7022 268.012 98.7503 268.065 98.7866C268.117 98.823 268.178 98.8467 268.241 98.8559C268.336 98.8693 268.432 98.8693 268.527 98.8559C268.888 98.8594 269.248 98.8175 269.599 98.731Z" fill="#263238"/>
<path d="M270.122 106.483C272.347 106.236 274.461 105.377 276.228 104.003C276.228 104.003 274.959 107.482 270.18 107.633L270.122 106.483Z" fill="#9D4941"/>
<path d="M271.573 98.9362C271.466 98.9362 271.573 99.6498 271.011 100.23C270.448 100.809 269.706 100.823 269.715 100.921C269.724 101.019 269.898 101.037 270.22 101.006C270.634 100.958 271.018 100.767 271.305 100.466C271.588 100.179 271.748 99.7936 271.752 99.3911C271.721 99.0923 271.622 98.9273 271.573 98.9362Z" fill="#263238"/>
<path d="M265.097 91.6039C265.226 91.7467 265.713 91.6039 266.298 91.5549C266.883 91.5058 267.393 91.6218 267.5 91.4612C267.549 91.3854 267.464 91.2382 267.245 91.1044C266.944 90.9397 266.601 90.8654 266.258 90.8903C265.915 90.9033 265.584 91.0183 265.307 91.2204C265.101 91.3765 265.039 91.5326 265.097 91.6039Z" fill="#263238"/>
<path d="M273.427 95.2389C273.439 95.392 273.393 95.544 273.298 95.6647C273.202 95.7854 273.065 95.8658 272.913 95.89C272.836 95.902 272.758 95.8988 272.682 95.8803C272.607 95.8619 272.536 95.8288 272.473 95.7827C272.41 95.7367 272.357 95.6788 272.317 95.6122C272.277 95.5456 272.25 95.4718 272.239 95.395C272.224 95.2369 272.271 95.0792 272.37 94.9552C272.469 94.8312 272.613 94.7505 272.77 94.7304C272.925 94.7115 273.081 94.7543 273.204 94.8495C273.327 94.9448 273.407 95.0847 273.427 95.2389Z" fill="#263238"/>
<path d="M273.865 93.0267C273.798 93.1159 273.306 92.8126 272.654 92.875C272.002 92.9375 271.551 93.321 271.471 93.2274C271.39 93.1337 271.497 93.0445 271.694 92.875C271.959 92.6533 272.287 92.5207 272.632 92.4959C272.971 92.4638 273.313 92.5403 273.606 92.7145C273.807 92.8527 273.9 92.991 273.865 93.0267Z" fill="#263238"/>
<path d="M273.324 90.984C273.208 91.1401 272.69 91.0331 272.083 91.0777C271.475 91.1223 270.97 91.2784 270.841 91.1312C270.783 91.0598 270.841 90.9082 271.06 90.7476C271.352 90.5507 271.691 90.4353 272.043 90.4134C272.395 90.3914 272.746 90.4637 273.061 90.6228C273.289 90.7387 273.36 90.8859 273.324 90.984Z" fill="#263238"/>
<path d="M278.501 96.4029C278.461 96.0506 278.76 95.1719 279.1 95.0649C279.993 94.8018 281.69 94.668 282.003 97.0139C282.427 100.225 279.113 99.9887 279.095 99.8995C279.077 99.8103 278.653 97.616 278.501 96.4029Z" fill="#CC6760"/>
<path d="M279.828 98.624C279.828 98.624 279.89 98.6552 279.989 98.6864C280.13 98.7229 280.279 98.7054 280.408 98.6373C280.6 98.4768 280.745 98.2683 280.829 98.0331C280.913 97.7979 280.933 97.5447 280.886 97.2993C280.858 97.0228 280.768 96.7561 280.623 96.5188C280.579 96.4226 280.513 96.3382 280.43 96.273C280.347 96.2078 280.249 96.1636 280.145 96.1442C280.078 96.1356 280.01 96.1505 279.953 96.1863C279.896 96.2221 279.853 96.2766 279.832 96.3404C279.801 96.4386 279.832 96.4965 279.832 96.5055C279.832 96.5144 279.756 96.4609 279.765 96.3271C279.771 96.245 279.806 96.1677 279.863 96.1085C279.944 96.0309 280.051 95.9864 280.163 95.9836C280.298 95.9929 280.429 96.0362 280.543 96.1095C280.657 96.1829 280.75 96.2838 280.815 96.4029C280.987 96.6636 281.094 96.9619 281.128 97.2726C281.195 97.9237 280.94 98.5704 280.493 98.7667C280.412 98.8058 280.322 98.8261 280.232 98.8261C280.141 98.8261 280.052 98.8058 279.971 98.7667C279.841 98.6998 279.814 98.6284 279.828 98.624Z" fill="#9D4941"/>
<path d="M279.234 95.0783L278.474 95.9703C274.691 92.8483 267.169 84.847 267.589 85.3242C269.163 84.6123 270.891 84.3057 272.614 84.4322C275.294 84.6954 280.368 85.6587 280.511 88.7629C280.654 91.8671 279.234 95.0783 279.234 95.0783Z" fill="#263238"/>
<path d="M283.875 94.0346C283.863 93.9709 283.842 93.9093 283.812 93.8518C283.742 93.6794 283.657 93.5138 283.557 93.3567C283.183 92.7822 282.686 92.2977 282.101 91.9384C281.236 91.4075 280.286 91.0302 279.292 90.8234C278.184 90.5469 276.947 90.3774 275.718 89.9314C274.556 89.5426 273.442 89.0203 272.4 88.3749C271.55 87.8456 270.751 87.2411 270.01 86.5686C269.514 86.1112 269.043 85.6273 268.599 85.1191L268.246 84.6954C268.204 84.6454 268.159 84.5978 268.112 84.5527C268.14 84.6124 268.176 84.6679 268.219 84.7177C268.29 84.8158 268.398 84.9719 268.549 85.1637C268.975 85.6927 269.436 86.1919 269.93 86.6578C271.57 88.203 273.527 89.3746 275.665 90.092C276.839 90.4516 278.032 90.7493 279.238 90.984C280.219 91.1812 281.16 91.5415 282.021 92.0499C282.596 92.3909 283.095 92.8464 283.486 93.3879C283.767 93.7893 283.861 94.0391 283.875 94.0346Z" fill="#455A64"/>
<path d="M282.972 94.6055C282.964 94.364 282.904 94.1269 282.798 93.9097C282.504 93.3098 282.038 92.8112 281.458 92.4781C280.601 92.0096 279.66 91.7155 278.689 91.6128C277.521 91.4672 276.374 91.1919 275.267 90.7922C273.259 90.0374 271.446 88.8426 269.961 87.2956C269.511 86.8288 269.094 86.3326 268.71 85.8104L268.402 85.3644C268.331 85.2663 268.295 85.2172 268.286 85.2217C268.309 85.2784 268.339 85.3323 268.375 85.3822L268.657 85.8282C269.026 86.3652 269.434 86.8749 269.876 87.3535C271.352 88.9402 273.178 90.1618 275.209 90.9215C276.326 91.3284 277.486 91.6038 278.666 91.7422C279.621 91.8344 280.548 92.1116 281.396 92.5584C281.962 92.8665 282.427 93.331 282.736 93.8964C282.836 94.1251 282.915 94.3624 282.972 94.6055Z" fill="#455A64"/>
<path d="M279.515 100.542C279.515 100.519 279.783 100.466 280.252 100.305C280.909 100.063 281.503 99.6757 281.99 99.1726C282.694 98.4117 283.207 97.4945 283.486 96.4966C283.846 95.2743 283.997 94.0002 283.933 92.7279C283.9 92.0714 283.801 91.42 283.638 90.7833C283.198 89.1821 282.327 87.732 281.119 86.5909C280.409 85.9412 279.638 85.3603 278.818 84.856C278.884 84.8755 278.947 84.9024 279.006 84.9362C279.122 84.9987 279.301 85.079 279.515 85.2128C280.13 85.5732 280.703 85.9995 281.226 86.4839C282.008 87.1999 282.66 88.0466 283.151 88.9859C283.437 89.5432 283.667 90.1273 283.839 90.7298C284.012 91.3799 284.114 92.0468 284.143 92.7189C284.218 94.0137 284.067 95.3117 283.696 96.5545C283.401 97.5791 282.86 98.5162 282.119 99.2841C281.612 99.7953 280.988 100.176 280.301 100.395C280.117 100.451 279.929 100.494 279.738 100.524C279.666 100.544 279.59 100.55 279.515 100.542Z" fill="#455A64"/>
<path d="M289.596 109.877C288.046 108.985 285.514 108.985 285.514 108.985L280.569 108.646C280.569 108.646 278.135 112.566 274.445 112.553C270.756 112.539 270.18 110.104 270.18 110.104C270.18 110.104 264.016 111.558 260.728 115.568C264.918 118.574 269.724 120.505 275.803 120.242C281.23 120.17 288.091 117.378 292.258 112.334C291.557 111.335 290.649 110.497 289.596 109.877Z" fill="#27B0C4"/>
<path d="M297.9 95.4752C297.9 95.4752 297.878 95.3504 297.842 95.1051C297.806 94.8598 297.761 94.4896 297.699 94.0123C297.668 93.776 297.632 93.5039 297.596 93.2096C297.56 92.9152 297.458 92.603 297.382 92.2551C297.306 91.9072 297.216 91.5415 297.123 91.1446C297.083 90.9389 297.025 90.7374 296.948 90.5425C296.881 90.3373 296.81 90.1232 296.734 89.9092C296.046 87.7863 295.038 85.7802 293.746 83.9595C292.051 81.536 289.905 79.4601 287.426 77.8448L286.38 77.1758C286.014 76.9707 285.63 76.7878 285.25 76.5916C284.871 76.3954 284.491 76.1724 284.08 76.0207L282.847 75.5301L282.217 75.2848L281.561 75.0975L280.221 74.7184C279.774 74.6069 279.327 74.5444 278.841 74.4508C278.374 74.3502 277.901 74.2787 277.425 74.2367C276.451 74.1268 275.47 74.0821 274.49 74.1029C273.994 74.1029 273.49 74.1029 272.985 74.152L271.471 74.3393C271.216 74.375 270.957 74.3884 270.702 74.4419L269.943 74.6158C269.438 74.7362 268.925 74.8299 268.415 74.9726C267.39 75.2795 266.386 75.6519 265.409 76.0876L264.668 76.4221C264.543 76.4801 264.418 76.5292 264.297 76.5916L263.94 76.7968L262.519 77.604C262.05 77.8984 261.626 78.2373 261.144 78.5585C260.92 78.7235 260.697 78.8707 260.465 79.058L259.826 79.611C258.955 80.3546 258.136 81.1563 257.374 82.0105L256.293 83.402L256.025 83.7499L255.784 84.1156L255.306 84.856L254.828 85.6008L254.417 86.3902L254.01 87.1796L253.805 87.581C253.747 87.7148 253.693 87.8576 253.635 87.9958L252.97 89.646L252.469 91.3899C251.22 96.2038 251.579 101.293 253.492 105.885C253.742 106.438 253.988 106.991 254.238 107.54C254.488 108.088 254.837 108.583 255.132 109.105L255.359 109.493L255.618 109.859L256.132 110.586L256.65 111.308L257.226 111.977L257.803 112.646L258.093 112.976L258.41 113.28L259.67 114.479C260.546 115.218 261.471 115.898 262.439 116.513L263.149 116.959C263.386 117.111 263.649 117.222 263.895 117.356C264.395 117.606 264.882 117.878 265.387 118.11L266.924 118.721L267.303 118.872L267.696 118.988L268.482 119.211C269.508 119.507 270.553 119.735 271.609 119.894C272.132 119.965 272.654 119.987 273.172 120.036L273.95 120.099C274.209 120.099 274.463 120.099 274.722 120.099L276.25 120.068C276.755 120.041 277.25 119.956 277.746 119.907C278.719 119.791 279.683 119.609 280.632 119.363C281.097 119.252 281.555 119.114 282.003 118.948C282.45 118.792 282.896 118.667 283.343 118.502L284.603 117.94L285.223 117.664L285.813 117.334L286.965 116.674C287.337 116.45 287.696 116.208 288.042 115.947C288.39 115.697 288.748 115.46 289.078 115.206L290.021 114.395C292.25 112.45 294.082 110.093 295.416 107.455C296.438 105.472 297.152 103.345 297.534 101.148C297.578 100.925 297.618 100.702 297.659 100.493C297.705 100.287 297.735 100.079 297.748 99.8683C297.784 99.4625 297.815 99.0834 297.846 98.731C297.878 98.3787 297.913 98.0576 297.922 97.7588C297.931 97.4599 297.922 97.1923 297.922 96.947C297.922 96.4698 297.922 96.1041 297.922 95.8499C297.922 95.5957 297.922 95.4708 297.922 95.4708C297.922 95.4708 297.922 95.6001 297.922 95.8454C297.922 96.0907 297.922 96.4698 297.958 96.947C297.958 97.1923 297.958 97.4599 297.98 97.7588C298.003 98.0576 297.936 98.3832 297.913 98.7355C297.891 99.0878 297.86 99.4714 297.828 99.8773C297.817 100.089 297.789 100.299 297.744 100.506C297.703 100.716 297.668 100.952 297.623 101.166C297.256 103.376 296.551 105.517 295.533 107.513C294.202 110.174 292.368 112.554 290.132 114.519L289.185 115.34C288.85 115.599 288.493 115.835 288.145 116.089C287.796 116.344 287.448 116.611 287.059 116.825L285.898 117.49L285.308 117.824L284.683 118.105L283.41 118.676C282.963 118.855 282.517 118.984 282.07 119.122C281.619 119.289 281.158 119.429 280.69 119.541C279.734 119.79 278.763 119.975 277.782 120.094C277.282 120.148 276.781 120.233 276.272 120.264L274.731 120.295C274.472 120.295 274.209 120.317 273.95 120.295L273.168 120.233C272.645 120.184 272.114 120.161 271.587 120.094C270.519 119.934 269.462 119.705 268.424 119.408L267.634 119.185C267.504 119.144 267.37 119.109 267.241 119.064L266.852 118.913L265.32 118.328C264.811 118.101 264.319 117.824 263.81 117.57C263.565 117.436 263.301 117.325 263.06 117.169L262.341 116.723C261.364 116.103 260.43 115.419 259.545 114.676L258.272 113.458L257.95 113.155L257.66 112.82L257.079 112.147L256.494 111.473L255.94 110.728L255.417 109.993L255.154 109.627L254.926 109.234L254.033 107.655C253.783 107.098 253.528 106.54 253.278 105.979C251.346 101.344 250.982 96.2055 252.242 91.3453C252.416 90.7521 252.586 90.1678 252.751 89.5836C252.916 88.9993 253.197 88.4507 253.425 87.8888C253.483 87.7505 253.537 87.6078 253.595 87.4695L253.805 87.0681L254.216 86.2698L254.631 85.4715L255.114 84.7222L255.596 83.9729L255.837 83.6027L256.114 83.2548C256.476 82.8088 256.842 82.3316 257.204 81.8767C257.974 81.0151 258.8 80.206 259.679 79.4549L260.331 78.8974C260.545 78.7101 260.777 78.5629 261.014 78.3934C261.461 78.0723 261.907 77.7334 262.403 77.4301L263.85 76.605L264.212 76.3998C264.333 76.3374 264.462 76.2839 264.587 76.2303L265.338 75.8914C266.323 75.4515 267.336 75.0775 268.371 74.7719C268.884 74.6292 269.403 74.5311 269.916 74.4107L270.68 74.2412C270.935 74.1877 271.198 74.1698 271.453 74.1341L272.985 73.9513C273.494 73.9067 273.999 73.9245 274.499 73.9067C275.488 73.885 276.478 73.9312 277.46 74.0449C277.94 74.0895 278.415 74.164 278.885 74.2679C279.332 74.3571 279.823 74.424 280.279 74.54L281.619 74.9236L282.28 75.1153L282.914 75.3651L284.156 75.8602C284.571 76.0163 284.942 76.2482 285.331 76.4355C285.719 76.6228 286.099 76.8235 286.47 77.0331L287.524 77.7111C290.014 79.3413 292.165 81.4373 293.858 83.8837C295.148 85.7182 296.148 87.7399 296.823 89.8779C296.899 90.0965 296.966 90.3239 297.033 90.5157C297.108 90.7143 297.166 90.9187 297.208 91.1267C297.292 91.5237 297.377 91.8939 297.453 92.2417C297.529 92.5896 297.61 92.9063 297.654 93.2006C297.699 93.495 297.721 93.7671 297.748 94.0079C297.802 94.4836 297.842 94.8493 297.869 95.1051C297.891 95.3504 297.9 95.4752 297.9 95.4752Z" fill="#263238"/>
<path d="M251.63 56.2008C251.96 47.9762 245.549 41.0422 237.313 40.7132C229.076 40.3843 222.131 46.7849 221.802 55.0095C221.472 63.2341 227.883 70.1681 236.119 70.4971C244.356 70.8261 251.301 64.4254 251.63 56.2008Z" fill="white"/>
<path d="M232.396 63.1135C232.396 62.1814 232.396 61.4098 232.396 61.3295C232.396 61.3295 229.27 61.0307 229.028 57.9265C228.921 56.4235 228.948 53.3149 229.006 50.5006C229.036 49.043 229.615 47.6502 230.627 46.5997C231.64 45.5492 233.011 44.918 234.469 44.832H234.768C238.02 44.832 239.838 47.5793 239.753 50.8262L239.641 63.002L234.384 67.2167L234 67.1855L232.396 63.1135Z" fill="#FFBF9D"/>
<path d="M232.387 61.3161C233.826 61.2249 235.208 60.7251 236.372 59.8755C236.372 59.8755 235.518 62.2037 232.396 62.1055L232.387 61.3161Z" fill="#FF9A6C"/>
<path d="M234.295 51.8297C234.353 51.8921 234.741 51.6067 235.237 51.6022C235.733 51.5978 236.13 51.852 236.197 51.7851C236.264 51.7182 236.166 51.6424 235.996 51.522C235.769 51.3672 235.499 51.2862 235.224 51.29C234.952 51.2952 234.689 51.3874 234.473 51.5532C234.317 51.6825 234.263 51.7985 234.295 51.8297Z" fill="#263238"/>
<path d="M234.679 53.248C234.681 53.3038 234.694 53.3587 234.718 53.4093C234.742 53.4599 234.776 53.5052 234.817 53.5426C234.859 53.58 234.908 53.6088 234.961 53.6271C235.013 53.6454 235.069 53.653 235.125 53.6494C235.179 53.6506 235.233 53.6409 235.283 53.621C235.333 53.6011 235.379 53.5713 235.417 53.5335C235.455 53.4956 235.486 53.4504 235.506 53.4006C235.527 53.3508 235.537 53.2974 235.536 53.2435C235.534 53.1877 235.521 53.1328 235.497 53.0822C235.473 53.0316 235.439 52.9863 235.398 52.9489C235.356 52.9115 235.307 52.8828 235.254 52.8644C235.202 52.8461 235.145 52.8385 235.09 52.8421C235.036 52.8415 234.983 52.8516 234.933 52.8717C234.883 52.8919 234.838 52.9217 234.799 52.9594C234.761 52.9972 234.731 53.0421 234.71 53.0916C234.689 53.1412 234.679 53.1943 234.679 53.248Z" fill="#263238"/>
<path d="M232.941 55.4289C232.686 55.3614 232.423 55.3298 232.159 55.3352C232.034 55.3352 231.918 55.3352 231.891 55.2282C231.873 55.1032 231.893 54.9756 231.95 54.8625L232.258 53.9125C232.544 53.1046 232.767 52.2754 232.923 51.4327C232.571 52.216 232.281 53.0258 232.057 53.8545C231.958 54.1846 231.86 54.5057 231.771 54.809C231.7 54.9597 231.687 55.1311 231.735 55.2906C231.754 55.3329 231.783 55.37 231.82 55.3987C231.857 55.4274 231.899 55.4469 231.945 55.4557C232.015 55.466 232.085 55.466 232.155 55.4557C232.417 55.4784 232.681 55.4694 232.941 55.4289Z" fill="#263238"/>
<path d="M234.554 50.1617C234.603 50.2776 235 50.1929 235.518 50.2286C236.037 50.2642 236.412 50.3757 236.483 50.2642C236.555 50.1527 236.434 50.1037 236.269 49.9966C236.046 49.8692 235.797 49.7959 235.541 49.7826C235.284 49.7664 235.028 49.8139 234.795 49.9208C234.616 50.0056 234.531 50.1037 234.554 50.1617Z" fill="#263238"/>
<path d="M229.667 50.456C229.721 50.5496 230.114 50.456 230.623 50.456C231.132 50.456 231.516 50.514 231.574 50.4158C231.632 50.3177 231.521 50.2865 231.351 50.2107C231.121 50.1135 230.872 50.0693 230.623 50.0813C230.371 50.0834 230.123 50.1397 229.895 50.2464C229.725 50.3222 229.645 50.398 229.667 50.456Z" fill="#263238"/>
<path d="M239.628 53.1097C239.681 53.0829 241.732 52.3515 241.79 54.4789C241.848 56.6063 239.695 56.2317 239.69 56.1693C239.686 56.1068 239.628 53.1097 239.628 53.1097Z" fill="#FFBF9D"/>
<path d="M240.307 55.3442C240.307 55.3442 240.342 55.3709 240.409 55.3977C240.499 55.4312 240.597 55.4312 240.686 55.3977C240.821 55.3066 240.93 55.1814 241 55.0349C241.071 54.8884 241.101 54.7258 241.088 54.5637C241.09 54.3798 241.048 54.1982 240.968 54.0329C240.945 53.9679 240.907 53.9091 240.857 53.8611C240.808 53.8131 240.748 53.7773 240.682 53.7564C240.639 53.7468 240.594 53.7527 240.554 53.7731C240.515 53.7935 240.484 53.8271 240.467 53.8679C240.441 53.9259 240.467 53.966 240.441 53.9705C240.414 53.975 240.396 53.9393 240.409 53.8501C240.42 53.7964 240.449 53.7479 240.49 53.7118C240.549 53.6683 240.622 53.6477 240.695 53.6538C240.784 53.668 240.867 53.7052 240.937 53.7615C241.007 53.8178 241.06 53.8914 241.093 53.975C241.188 54.1565 241.237 54.3587 241.236 54.5637C241.252 54.7523 241.212 54.9415 241.12 55.1074C241.029 55.2733 240.89 55.4084 240.722 55.4958C240.665 55.5148 240.605 55.5207 240.545 55.5129C240.485 55.5052 240.428 55.4841 240.378 55.4512C240.307 55.3932 240.307 55.3486 240.307 55.3442Z" fill="#FF9A6C"/>
<path d="M233.607 57.2352C233.607 57.1817 234.004 57.0613 234.303 56.6777C234.427 56.5064 234.529 56.3207 234.607 56.1247C234.67 55.9686 234.719 55.8749 234.741 55.8794C234.764 55.8838 234.741 55.9909 234.741 56.1603C234.695 56.3853 234.598 56.597 234.46 56.7803C234.318 56.9644 234.128 57.105 233.91 57.1861C233.718 57.253 233.607 57.253 233.607 57.2352Z" fill="#263238"/>
<path d="M242.509 49.7023C242.062 48.9441 241.982 48.0476 241.749 47.2092C241.517 46.3707 241.062 45.4965 240.244 45.1932C239.885 45.0195 239.487 44.9448 239.089 44.977C238.692 45.0091 238.31 45.1469 237.984 45.3761C237.881 44.8261 237.621 44.3175 237.236 43.9109C236.851 43.5044 236.357 43.2172 235.813 43.0837C234.528 42.8149 233.193 42.9028 231.954 43.3379C231.15 43.6501 230.368 44.2968 229.412 45.2557C229.009 45.6584 228.64 46.0941 228.309 46.558L227.331 49.4436L228.117 50.9734C228.161 51.0804 228.212 51.1847 228.269 51.2856L228.957 54.5013C229.01 53.6093 228.988 50.5854 229.046 49.7157C229.704 49.7044 230.354 49.5603 230.955 49.292C231.556 49.0238 232.096 48.6369 232.544 48.1547C233.026 47.6329 233.41 46.9772 234.053 46.6695C234.884 46.2726 235.84 46.5803 236.733 46.8925L236.698 46.8613C237.148 47.0785 237.552 47.3815 237.886 47.7533C237.667 49.4752 237.819 51.224 238.332 52.8823C238.413 53.132 238.627 53.6449 238.868 53.7431C239.346 53.9348 239.48 53.4487 239.762 53.1945C240.024 53.0176 240.343 52.946 240.655 52.9938C240.904 52.2725 241.108 51.5367 241.267 50.7905C241.555 50.885 241.861 50.9095 242.16 50.8619C242.071 50.6434 241.986 50.4159 241.897 50.2018C242.01 50.2868 242.139 50.3476 242.276 50.3802C242.346 50.394 242.418 50.3865 242.484 50.3587C242.549 50.3308 242.604 50.2839 242.643 50.2241C242.705 50.0502 242.598 49.8584 242.509 49.7023Z" fill="#263238"/>
<path d="M236.983 45.7239C237.094 45.8122 237.197 45.9092 237.292 46.0138C237.527 46.3149 237.681 46.6712 237.738 47.0486C237.787 47.3088 237.809 47.5733 237.805 47.838C237.805 48.1279 237.779 48.4312 237.752 48.73C237.717 49.0678 237.705 49.4075 237.716 49.7469C237.724 49.928 237.745 50.1084 237.779 50.2865C237.802 50.4765 237.876 50.6567 237.993 50.8083C238.045 50.8735 238.115 50.9227 238.194 50.9503C238.273 50.9779 238.358 50.9828 238.44 50.9644C238.593 50.9373 238.732 50.8605 238.837 50.7459C239.01 50.5168 239.118 50.2458 239.15 49.9609H239.083C239.173 50.1966 239.298 50.4176 239.454 50.6166C239.602 50.8022 239.816 50.9236 240.052 50.9555C240.162 50.9677 240.273 50.9492 240.374 50.902C240.467 50.8553 240.545 50.7825 240.597 50.6924C240.643 50.6075 240.666 50.5122 240.664 50.4159C240.66 50.3267 240.625 50.2416 240.566 50.175L240.534 50.2018C240.716 50.4169 240.941 50.5903 241.196 50.7102C241.262 50.7429 241.331 50.7712 241.401 50.795C241.45 50.795 241.477 50.795 241.477 50.795L241.405 50.7637C241.337 50.7379 241.27 50.7081 241.204 50.6745C240.961 50.5452 240.746 50.3695 240.57 50.1572L240.534 50.1884C240.58 50.254 240.604 50.3317 240.604 50.4114C240.604 50.4911 240.58 50.5688 240.534 50.6344C240.489 50.7148 240.421 50.78 240.338 50.8217C240.247 50.861 240.147 50.8763 240.048 50.8663C239.828 50.8324 239.629 50.7179 239.489 50.5452C239.34 50.3495 239.219 50.1332 239.132 49.903L239.087 49.8048V49.9119C239.056 50.183 238.954 50.4412 238.792 50.6612C238.697 50.7625 238.572 50.8312 238.435 50.8574C238.367 50.8697 238.298 50.8643 238.233 50.8416C238.168 50.819 238.11 50.7798 238.064 50.7281C237.958 50.5838 237.891 50.415 237.868 50.2375C237.834 50.0638 237.813 49.8879 237.805 49.7112C237.795 49.3734 237.806 49.0353 237.837 48.6988C237.837 48.3776 237.886 48.0699 237.886 47.78C237.886 47.5119 237.859 47.2444 237.805 46.9817C237.738 46.5961 237.568 46.2357 237.314 45.938C237.216 45.8491 237.105 45.7768 236.983 45.7239Z" fill="#455A64"/>
<path d="M227.353 48.6141C227.353 48.6141 227.353 48.6141 227.376 48.6141L227.452 48.672C227.494 48.7042 227.538 48.7325 227.586 48.7568C227.644 48.7973 227.707 48.8317 227.773 48.8594C228.191 49.0581 228.652 49.1471 229.113 49.118C229.793 49.081 230.447 48.8487 230.998 48.449C231.661 47.9545 232.218 47.331 232.633 46.616C232.865 46.2413 233.053 45.8578 233.263 45.5054C233.453 45.1618 233.69 44.8465 233.968 44.5688C234.218 44.3213 234.525 44.139 234.862 44.0381C235.016 43.998 235.176 43.9814 235.335 43.989C235.487 44.0005 235.637 44.0305 235.782 44.0782C236.205 44.2343 236.558 44.5386 236.774 44.9346C236.84 45.0774 236.891 45.2269 236.925 45.3806V45.3493V45.2557C236.9 45.1343 236.861 45.0161 236.809 44.9033C236.724 44.7264 236.609 44.5651 236.47 44.4261C236.283 44.2419 236.059 44.0991 235.813 44.0069C235.669 43.9582 235.519 43.9268 235.367 43.9132C235.2 43.9016 235.033 43.9167 234.871 43.9578C234.519 44.0591 234.198 44.2461 233.937 44.5019C233.63 44.7911 233.368 45.1249 233.16 45.4921C232.95 45.8489 232.758 46.2324 232.53 46.5981C232.121 47.3072 231.573 47.9261 230.918 48.4178C230.379 48.814 229.737 49.0463 229.069 49.0868C228.619 49.1174 228.168 49.0394 227.755 48.8594C227.615 48.7876 227.481 48.7056 227.353 48.6141Z" fill="#455A64"/>
<path d="M229.546 51.9635C229.605 52.0259 229.966 51.7405 230.489 51.736C231.012 51.7316 231.382 51.9858 231.449 51.9233C231.516 51.8609 231.414 51.7762 231.248 51.6557C231.022 51.4996 230.751 51.4198 230.476 51.4283C230.204 51.4321 229.941 51.5228 229.725 51.687C229.587 51.8163 229.515 51.9323 229.546 51.9635Z" fill="#263238"/>
<path d="M230.342 53.3104C230.344 53.3663 230.357 53.4211 230.381 53.4717C230.405 53.5223 230.439 53.5677 230.48 53.6051C230.522 53.6425 230.57 53.6712 230.623 53.6895C230.676 53.7079 230.732 53.7154 230.788 53.7118C230.842 53.713 230.896 53.7034 230.946 53.6835C230.996 53.6635 231.041 53.6338 231.08 53.5959C231.118 53.558 231.148 53.5128 231.169 53.463C231.189 53.4132 231.2 53.3598 231.199 53.306C231.197 53.2501 231.183 53.1953 231.16 53.1446C231.136 53.094 231.102 53.0487 231.06 53.0113C231.019 52.9739 230.97 52.9452 230.917 52.9269C230.864 52.9085 230.808 52.9009 230.752 52.9046C230.699 52.904 230.645 52.914 230.596 52.9342C230.546 52.9543 230.5 52.9841 230.462 53.0218C230.424 53.0596 230.394 53.1045 230.373 53.1541C230.352 53.2036 230.342 53.2567 230.342 53.3104Z" fill="#263238"/>
<path d="M228.555 46.2056C228.438 46.3941 228.275 46.5498 228.081 46.6582C227.887 46.7666 227.669 46.8242 227.447 46.8256C227.295 46.7917 227.146 46.747 227 46.6918C226.849 46.7854 226.884 47.3028 227 47.4455C227.098 47.5688 227.207 47.6823 227.327 47.7845C226.813 48.061 226.348 47.9227 225.803 47.7265C225.855 48.1859 226.025 48.6242 226.296 48.9986C226.568 49.373 226.932 49.6708 227.353 49.8628C227.486 49.9309 227.633 49.9664 227.782 49.9664C227.931 49.9664 228.078 49.9309 228.211 49.8628C228.416 49.6945 228.551 49.4561 228.591 49.1938C228.837 48.262 228.966 47.3031 228.975 46.3394L228.555 46.2056Z" fill="#263238"/>
<path d="M245.747 64.2686C244.755 63.5104 243.005 63.2562 243.005 63.2562L239.619 62.556C239.619 62.556 237.564 65.0402 235.014 64.6834C232.463 64.3266 232.298 62.5872 232.298 62.5872C232.298 62.5872 227.474 63.3811 224.821 65.8475C227.434 68.3183 230.324 69.9417 234.549 70.3342C238.315 70.7802 243.389 68.9159 246.748 65.2721C246.748 65.2721 246.828 65.116 245.747 64.2686Z" fill="#455A64"/>
<path d="M250.401 56.4414C250.401 56.4414 250.401 56.3566 250.401 56.1961V54.9696C250.401 54.7778 250.366 54.5682 250.348 54.3407C250.316 53.8189 250.246 53.3002 250.138 52.7886C249.88 51.3777 249.41 50.0139 248.744 48.7434C247.778 46.8805 246.428 45.2422 244.784 43.9357C243.14 42.6291 241.238 41.6838 239.203 41.1614C238.592 41.008 237.972 40.8963 237.345 40.8269C237.028 40.7957 236.711 40.7422 236.385 40.7243H235.407C235.241 40.7243 235.076 40.7243 234.911 40.7243L234.411 40.7645C234.08 40.8001 233.741 40.818 233.406 40.8626C232.031 41.081 230.691 41.4752 229.417 42.0356C229.095 42.1827 228.783 42.3611 228.461 42.5217C228.139 42.686 227.828 42.8723 227.532 43.0792C226.907 43.4746 226.31 43.9127 225.745 44.3904C225.191 44.8942 224.67 45.4335 224.186 46.005C223.189 47.1775 222.386 48.5027 221.81 49.9298C220.6 52.8842 220.387 56.1516 221.203 59.2378C221.588 60.7281 222.21 62.1467 223.047 63.4391C223.453 64.0637 223.9 64.6598 224.387 65.2231C224.879 65.7687 225.407 66.2799 225.969 66.7529C226.235 66.9973 226.519 67.2223 226.817 67.4263C227.117 67.627 227.402 67.8456 227.711 68.0329C228.311 68.4007 228.936 68.7256 229.582 69.0052C230.21 69.2833 230.856 69.5187 231.516 69.7099C231.842 69.8035 232.173 69.8615 232.499 69.9373L232.99 70.0444C233.151 70.08 233.316 70.089 233.482 70.1113L234.455 70.2228C234.777 70.2495 235.103 70.2227 235.42 70.2495C236.05 70.2613 236.68 70.23 237.305 70.1559C239.393 69.9029 241.403 69.2109 243.203 68.1254C245.003 67.0398 246.552 65.5855 247.748 63.8583C248.574 62.6851 249.218 61.3933 249.655 60.0272C249.831 59.5344 249.968 59.029 250.066 58.5153C250.115 58.2967 250.169 58.0916 250.205 57.9042C250.241 57.7169 250.249 57.5385 250.267 57.3869L250.361 56.6822C250.361 56.5261 250.401 56.4458 250.401 56.4458C250.401 56.4458 250.401 56.5261 250.401 56.6867C250.401 56.8472 250.361 57.088 250.334 57.3913C250.334 57.5474 250.299 57.7214 250.276 57.9132C250.254 58.1049 250.196 58.3056 250.151 58.5286C250.06 59.0465 249.929 59.5564 249.758 60.054C249.334 61.4366 248.698 62.7454 247.873 63.9342C246.675 65.6882 245.116 67.1673 243.301 68.2731C241.486 69.379 239.456 70.0861 237.345 70.3476C236.713 70.4246 236.075 70.4589 235.438 70.4502C235.112 70.4502 234.786 70.4502 234.46 70.4234L233.468 70.3119C233.303 70.3119 233.138 70.2807 232.972 70.2495L232.477 70.1425C232.146 70.0667 231.811 70.0042 231.476 69.915C230.808 69.7189 230.153 69.4806 229.515 69.2014C228.861 68.9171 228.227 68.5893 227.617 68.2202C227.309 68.0284 227.018 67.8099 226.724 67.6047C226.41 67.3928 226.113 67.1573 225.835 66.9001C225.263 66.4208 224.726 65.9022 224.227 65.348C223.733 64.7689 223.278 64.158 222.864 63.5194C222.014 62.208 221.38 60.7683 220.988 59.2556C220.158 56.1224 220.374 52.8041 221.605 49.8049C222.191 48.3562 223.007 47.0114 224.021 45.8221C224.512 45.2396 225.041 44.6912 225.607 44.1808C226.173 43.6964 226.769 43.2495 227.394 42.8428C227.695 42.6327 228.012 42.4449 228.34 42.2809C228.667 42.1158 228.979 41.9374 229.31 41.7858C230.603 41.2194 231.965 40.8236 233.361 40.6084C233.7 40.5593 234.04 40.5459 234.379 40.5102L234.884 40.4701C235.049 40.4701 235.219 40.4701 235.384 40.4701H236.38C236.707 40.4701 237.033 40.5415 237.354 40.5771C237.988 40.6477 238.617 40.7625 239.235 40.9206C241.293 41.4544 243.214 42.4193 244.871 43.7511C246.527 45.0829 247.881 46.7512 248.842 48.6453C249.503 49.9314 249.964 51.3105 250.209 52.7351C250.313 53.2497 250.376 53.7716 250.397 54.2961C250.397 54.5236 250.437 54.7421 250.442 54.925C250.446 55.1078 250.442 55.2951 250.442 55.4512C250.442 55.7545 250.442 55.9909 250.442 56.1604C250.442 56.3299 250.401 56.4414 250.401 56.4414Z" fill="#263238"/>
</svg>
