<svg width="750" height="500" viewBox="0 0 750 500" fill="none" xmlns="http://www.w3.org/2000/svg">
<path fill-rule="evenodd" clip-rule="evenodd" d="M637.77 117.56C641.815 119.672 645.561 122.312 648.91 125.41L660.82 121.18L672 138.84L663.09 147.84C664.463 152.193 665.247 156.709 665.42 161.27L676.84 166.69L672.26 187.09H659.63C657.516 191.139 654.873 194.888 651.77 198.24L656.01 210.14L638.35 221.33L629.35 212.42C625.022 213.778 620.533 214.558 616 214.74L610.58 226.16L590.17 221.58V208.95C586.114 206.837 582.358 204.194 579 201.09L567.09 205.33L555.9 187.67L564.82 178.67C563.453 174.316 562.667 169.8 562.48 165.24L551 159.86L555.58 139.46H568.21C570.322 135.41 572.965 131.66 576.07 128.31L571.83 116.41L589.49 105.22L598.49 114.13C602.844 112.762 607.36 111.978 611.92 111.8L617.34 100.38L637.74 104.96V117.59L637.77 117.56ZM619.77 141.56C615.441 140.594 610.923 140.933 606.787 142.534C602.651 144.135 599.082 146.926 596.532 150.555C593.982 154.184 592.565 158.487 592.46 162.921C592.355 167.355 593.567 171.721 595.943 175.466C598.319 179.211 601.752 182.168 605.807 183.963C609.863 185.758 614.36 186.31 618.73 185.549C623.099 184.789 627.145 182.75 630.356 179.69C633.567 176.631 635.799 172.688 636.77 168.36C637.414 165.485 637.485 162.512 636.979 159.61C636.474 156.708 635.402 153.934 633.824 151.446C632.246 148.958 630.194 146.806 627.784 145.111C625.375 143.417 622.655 142.213 619.78 141.57L619.77 141.56Z" fill="#E0E0E0"/>
<path d="M525.53 78.5101C526.892 78.7046 528.212 79.1201 529.44 79.7401C532.878 81.3863 535.639 84.175 537.25 87.6301C538.377 90.0114 538.922 92.6267 538.84 95.2601C538.747 98.2962 537.842 101.252 536.22 103.82C534.412 106.659 531.801 108.896 528.72 110.25C525.407 111.716 521.71 112.08 518.175 111.288C514.639 110.496 511.451 108.59 509.08 105.85C506.891 103.309 505.5 100.178 505.08 96.8501C504.699 93.8405 505.134 90.7837 506.34 88.0001C507.395 85.5856 509.005 83.4544 511.04 81.7801C513.975 79.3526 517.661 78.0169 521.47 78.0001C522.845 77.9639 524.216 78.1531 525.53 78.5601C525.53 78.6801 524.08 78.2701 521.53 78.3701C517.842 78.5443 514.32 79.9531 511.53 82.3701C509.47 84.1218 507.883 86.363 506.915 88.8878C505.947 91.4126 505.629 94.1402 505.99 96.8201C506.177 98.3596 506.602 99.8608 507.25 101.27C507.894 102.757 508.772 104.131 509.85 105.34C512.091 107.928 515.104 109.729 518.445 110.477C521.786 111.226 525.278 110.884 528.41 109.5C531.331 108.226 533.812 106.118 535.54 103.44C537.1 101.012 537.987 98.2134 538.11 95.3301C538.219 92.8134 537.736 90.3063 536.7 88.0101C535.188 84.6504 532.598 81.8913 529.34 80.1701C527 78.8701 525.5 78.6201 525.53 78.5101Z" fill="#E0E0E0"/>
<path d="M538.81 60.79C538.799 60.5935 538.799 60.3965 538.81 60.2C538.81 59.77 538.81 59.2 538.81 58.44C538.81 56.82 538.78 54.4867 538.72 51.44L538.84 51.59L523.75 48.29L524.02 48.16L520.02 56.6L519.95 56.76H519.78C516.438 56.9096 513.129 57.498 509.94 58.51L509.76 58.57L509.63 58.43L503 51.89H503.42L490.42 60.18L490.57 59.74C491.57 62.46 492.62 65.46 493.72 68.53L493.8 68.75L493.63 68.93C491.369 71.3798 489.445 74.1208 487.91 77.08L487.8 77.3H487.55H478.22L478.64 76.97C477.58 81.7 476.44 86.81 475.28 92.04L475.03 91.54L483.46 95.54L483.71 95.65V96C483.846 99.3245 484.421 102.616 485.42 105.79L485.51 106.06L485.31 106.25L478.73 112.87L478.79 112.29C481.41 116.42 484.22 120.84 487.06 125.29L486.5 125.1L495.29 121.97L495.57 121.87L495.78 122.06C498.215 124.321 500.943 126.245 503.89 127.78L504.15 128.2V137.52L503.78 137.05L518.85 140.44L518.32 140.69C519.653 137.857 520.987 135.05 522.32 132.27L522.45 132.01H522.73C526.055 131.883 529.347 131.311 532.52 130.31L532.79 130.23L532.99 130.43L539.59 137.02L539 137L552 128.76L551.82 129.27C550.76 126.27 549.73 123.36 548.7 120.48L548.62 120.23L548.79 120.04C551.06 117.602 552.994 114.871 554.54 111.92L554.65 111.7H564.23L563.84 112.01C565.04 106.71 566.18 101.71 567.25 96.95L567.45 97.36L559.04 93.36L558.85 93.27V93C558.728 89.6634 558.163 86.3578 557.17 83.17L557.11 82.99L557.25 82.85L563.85 76.26V76.61L555.65 63.54L555.9 63.62L547.09 66.7H547L546.93 66.63C545.085 64.9012 543.076 63.3572 540.93 62.02L539.33 61.02C539.148 60.9233 538.971 60.8165 538.8 60.7C538.996 60.769 539.187 60.8525 539.37 60.95C539.74 61.14 540.29 61.43 541.01 61.85C543.2 63.1456 545.251 64.6636 547.13 66.38H546.98L555.75 63.19L555.91 63.13L556 63.28L564.32 76.28L564.44 76.47L564.28 76.63C562.28 78.63 560.1 80.85 557.72 83.27L557.79 82.95C558.825 86.1892 559.42 89.5525 559.56 92.95L559.37 92.65L567.81 96.65L568.07 96.78L568 97.06C567 101.83 565.83 106.83 564.66 112.13L564.59 112.44H564.27H554.94L555.31 112.22C553.741 115.242 551.773 118.041 549.46 120.54L549.55 120.11C550.57 122.99 551.617 125.92 552.69 128.9L552.8 129.23L552.51 129.42L539.51 137.69L539.2 137.88L538.95 137.63L532.33 131.05L532.79 131.16C529.55 132.189 526.187 132.778 522.79 132.91L523.2 132.65L519.2 141.08L519.04 141.42L518.67 141.33L503.55 138L503.18 137.92V137.54C503.18 135.99 503.18 134.44 503.18 132.89V128.22C503.69 129.06 503.32 128.45 503.43 128.64C500.411 127.058 497.613 125.084 495.11 122.77L495.59 122.87L486.77 126L486.41 126.12L486.21 125.8L477.96 112.8L477.76 112.49L478.02 112.22L484.61 105.61L484.5 106.08C483.48 102.838 482.895 99.4757 482.76 96.08L483.01 96.47L474.59 92.47L474.27 92.32L474.35 91.97L477.75 76.97L477.82 76.63H487.49L487.13 76.85C488.698 73.7913 490.672 70.9589 493 68.43L492.92 68.83L489.8 60L489.7 59.72L489.96 59.56L503 51.36L503.23 51.22L503.42 51.41C505.75 53.72 508 56 510 58L509.68 57.92C512.923 56.9096 516.286 56.3379 519.68 56.22L519.44 56.37C520.9 53.37 522.26 50.51 523.44 47.97L523.52 47.79H523.71L538.71 51.26H538.83V51.38C538.83 54.38 538.81 56.6867 538.77 58.3C538.77 59.06 538.77 59.65 538.77 60.09C538.799 60.3222 538.812 60.5561 538.81 60.79Z" fill="#E0E0E0"/>
<path d="M122.37 291.48C123.272 291.762 124.123 292.187 124.89 292.74C127.037 294.236 128.6 296.431 129.31 298.95C129.806 300.69 129.888 302.522 129.55 304.3C129.146 306.347 128.203 308.249 126.82 309.81C125.283 311.531 123.273 312.759 121.04 313.34C118.632 313.967 116.086 313.805 113.777 312.878C111.467 311.951 109.516 310.308 108.21 308.19C107.59 307.194 107.128 306.108 106.84 304.97C106.548 303.882 106.427 302.755 106.48 301.63C106.564 299.547 107.203 297.524 108.33 295.77C109.53 293.916 111.238 292.447 113.251 291.539C115.264 290.631 117.496 290.323 119.68 290.65C120.616 290.777 121.525 291.057 122.37 291.48C122.37 291.56 121.37 291.13 119.65 290.9C117.134 290.603 114.592 291.16 112.43 292.48C110.951 293.373 109.702 294.599 108.78 296.06C107.732 297.742 107.146 299.67 107.08 301.65C107.042 302.715 107.163 303.78 107.44 304.81C107.718 305.874 108.164 306.886 108.76 307.81C109.995 309.81 111.838 311.362 114.019 312.239C116.2 313.115 118.605 313.27 120.88 312.68C122.999 312.136 124.911 310.981 126.38 309.36C127.62 307.982 128.496 306.317 128.929 304.515C129.362 302.712 129.339 300.831 128.86 299.04C128.21 296.594 126.759 294.436 124.74 292.91C123.975 292.393 123.184 291.915 122.37 291.48Z" fill="#E0E0E0"/>
<path d="M133.33 280.93C133.315 280.8 133.315 280.67 133.33 280.54C133.33 280.24 133.42 279.85 133.5 279.34C133.66 278.24 133.89 276.65 134.2 274.6L134.26 274.71L124.41 270.81L124.6 270.75C123.51 272.36 122.29 274.13 120.99 276.04L120.92 276.13H120.8C118.523 275.855 116.218 275.889 113.95 276.23H113.82L113.74 276.12L110 271L110.27 271.08L100.54 275.26L100.69 274.98C101.05 276.93 101.45 279.07 101.85 281.28V281.44L101.72 281.54C99.9413 282.939 98.3543 284.567 97 286.38L96.9 286.52H96.73L90.4 285.52L90.72 285.34C89.48 288.43 88.15 291.77 86.78 295.18L86.67 294.82L91.94 298.46L92.1 298.56V298.75C91.8277 301.017 91.8546 303.31 92.18 305.57V305.76L92.03 305.88L86.84 309.63L86.94 309.25L91.11 319L90.75 318.81L97.05 317.66H97.25L97.37 317.81C98.7739 319.61 100.412 321.214 102.24 322.58C102.3 322.72 102.12 322.27 102.37 322.9V323V323.2L102.3 323.6L102.18 324.39L101.92 325.98C101.75 327.03 101.58 328.09 101.41 329.13L101.21 328.78L111.05 332.73L110.66 332.85L114.3 327.58L114.41 327.42H114.61C116.876 327.707 119.17 327.684 121.43 327.35H121.62L121.73 327.5L125.48 332.7L125.11 332.59L134.86 328.44L134.68 328.77C134.3 326.63 133.92 324.53 133.54 322.47V322.29L133.68 322.19C135.485 320.781 137.095 319.14 138.47 317.31L138.57 317.17H138.74L145.06 318.17L144.76 318.33L148.76 308.51L148.85 308.81L143.59 305.15L143.47 305.07V304.93C143.752 302.654 143.732 300.351 143.41 298.08V297.95L143.52 297.88L148.72 294.14L148.66 294.37C147.06 290.59 145.66 287.37 144.54 284.61L144.7 284.69L138.39 285.8H138.33V285.75C137.274 284.376 136.085 283.11 134.78 281.97L133.78 281.13C133.55 280.95 133.45 280.86 133.46 280.85L133.81 281.09C134.04 281.26 134.39 281.52 134.81 281.88C136.149 283.002 137.371 284.255 138.46 285.62H138.35L144.65 284.42H144.76V284.53L148.96 294.26L149.02 294.4L148.9 294.49L143.72 298.26L143.81 298.06C144.155 300.379 144.185 302.733 143.9 305.06L143.8 304.84L149.08 308.47L149.25 308.58L149.17 308.76C147.93 311.88 146.62 315.14 145.24 318.61L145.16 318.81H144.94L138.62 317.81L138.89 317.7C137.494 319.577 135.852 321.259 134.01 322.7L134.12 322.41C134.5 324.483 134.883 326.583 135.27 328.71V328.95L135 329L125.25 333.17L125.03 333.27L124.88 333.07L121.12 327.88L121.42 328.01C119.101 328.348 116.747 328.375 114.42 328.09L114.72 327.95C113.52 329.69 112.307 331.447 111.08 333.22L110.94 333.44L110.7 333.34L100.86 329.39L100.62 329.3V329.04L101.13 325.89L101.38 324.3L101.51 323.51L101.57 323.11V322.91V322.81V322.73C101.82 323.35 101.64 322.9 101.69 323.04C99.8087 321.645 98.1265 320 96.69 318.15L97 318.27L90.7 319.42L90.44 319.47L90.34 319.23C88.91 315.88 87.5 312.57 86.19 309.48L86.09 309.24L86.29 309.09L91.49 305.34L91.36 305.65C91.0278 303.33 91.0043 300.976 91.29 298.65L91.42 298.95L86.16 295.3L85.96 295.16L86.05 294.94C87.42 291.52 88.76 288.19 90.05 285.11L90.14 284.89H90.37L96.69 285.89L96.42 286C97.82 284.123 99.4646 282.441 101.31 281L101.21 281.26C100.81 279.06 100.43 276.91 100.07 274.96V274.76L100.26 274.68L110.01 270.54L110.18 270.47L110.29 270.62L114.03 275.82L113.83 275.73C116.151 275.401 118.505 275.384 120.83 275.68L120.65 275.76L124.31 270.51L124.39 270.4L124.51 270.45L134.32 274.45H134.4V274.53L133.59 279.21C133.5 279.72 133.42 280.12 133.37 280.42C133.375 280.591 133.362 280.762 133.33 280.93Z" fill="#E0E0E0"/>
<path fill-rule="evenodd" clip-rule="evenodd" d="M216.94 334.08C220.185 336.505 223.091 339.353 225.58 342.55L236.58 340.55L243.87 357.63L234.77 364.21C235.357 368.222 235.404 372.295 234.91 376.32L244.14 382.7L237.21 399.93L226.13 398.15C223.708 401.401 220.859 404.31 217.66 406.8L219.66 417.8L202.58 425.09L196.06 416C192.047 416.579 187.975 416.622 183.95 416.13L177.58 425.36L160.34 418.44L162.12 407.36C158.871 404.932 155.962 402.08 153.47 398.88L142.42 400.88L135.14 383.8L144.23 377.22C143.651 373.207 143.608 369.135 144.1 365.11L134.87 358.73L141.79 341.5L152.87 343.28C155.298 340.031 158.15 337.122 161.35 334.63L159.35 323.58L176.43 316.29L183.01 325.39C187.023 324.806 191.096 324.763 195.12 325.26L201.5 316.03L218.71 323L216.94 334.08ZM197.74 352.56C194.082 351.09 190.071 350.737 186.213 351.547C182.355 352.356 178.824 354.292 176.066 357.108C173.308 359.925 171.447 363.496 170.719 367.37C169.991 371.245 170.428 375.248 171.975 378.873C173.522 382.499 176.11 385.585 179.411 387.74C182.711 389.895 186.577 391.023 190.519 390.981C194.461 390.938 198.302 389.728 201.556 387.503C204.81 385.278 207.331 382.138 208.8 378.48C210.77 373.576 210.711 368.091 208.637 363.23C206.563 358.369 202.643 354.531 197.74 352.56Z" fill="#E0E0E0"/>
<path d="M216.18 224.08H95.65V74.1801L187.85 74.4501L216.18 105.22V224.08Z" fill="#EBEBEB"/>
<path d="M131.7 159.7C131.55 159.85 129.55 158.04 126.44 155C123.33 151.96 119.1 147.68 114.5 142.88L113.99 142.34L114.5 141.8V141.75C119.08 136.92 123.29 132.6 126.4 129.53C129.51 126.46 131.5 124.63 131.65 124.78C131.8 124.93 130.1 127.02 127.2 130.29C124.3 133.56 120.2 137.99 115.63 142.83H115.58V141.8C120.18 146.6 124.27 151 127.18 154.24C130.09 157.48 131.86 159.55 131.7 159.7Z" fill="#263238"/>
<path d="M180.07 124.78C180.23 124.63 182.23 126.44 185.34 129.48C188.45 132.52 192.68 136.8 197.27 141.6L197.79 142.14L197.28 142.68H197.23C192.64 147.52 188.43 151.83 185.33 154.9C182.23 157.97 180.23 159.8 180.07 159.65C179.91 159.5 181.63 157.41 184.53 154.14C187.43 150.87 191.53 146.44 196.09 141.61V141.55V142.63C191.5 137.83 187.4 133.43 184.49 130.2C181.58 126.97 179.92 124.93 180.07 124.78Z" fill="#263238"/>
<path d="M141.22 165.21C140.86 164.99 147.11 154.09 155.22 140.87C163.33 127.65 170.15 117.12 170.52 117.35C170.89 117.58 164.64 128.47 156.52 141.69C148.4 154.91 141.59 165.44 141.22 165.21Z" fill="#263238"/>
<path d="M187.84 74.4601L187.73 99.5701C187.727 100.436 187.898 101.294 188.233 102.093C188.569 102.892 189.061 103.615 189.682 104.22C190.302 104.824 191.038 105.298 191.845 105.612C192.652 105.927 193.514 106.076 194.38 106.05L216.18 105.24L187.84 74.4601Z" fill="#E0E0E0"/>
<path d="M135.03 175.72H81.58V208.21H135.03V175.72Z" fill="#27B0C4"/>
<path d="M96.77 198.61L98.16 197C98.5282 197.601 99.0419 198.099 99.6537 198.449C100.265 198.798 100.956 198.988 101.66 199C103.55 199 104.53 197.85 104.53 195.59V186.17H98.47V184.09H106.91V195.47C106.91 199.21 105.09 201.06 101.66 201.06C100.707 201.079 99.7642 200.866 98.9122 200.439C98.0603 200.013 97.325 199.385 96.77 198.61Z" fill="white"/>
<path d="M110.26 198.92L111.15 197.05C112.709 198.324 114.666 199.011 116.68 198.99C119.59 198.99 120.83 197.86 120.83 196.4C120.83 192.3 110.67 194.89 110.67 188.66C110.67 186.07 112.67 183.86 117.09 183.86C118.996 183.825 120.871 184.343 122.49 185.35L121.69 187.27C120.318 186.386 118.722 185.911 117.09 185.9C114.24 185.9 113.02 187.1 113.02 188.56C113.02 192.66 123.18 190.1 123.18 196.26C123.18 198.82 121.12 201.03 116.68 201.03C114.36 201.093 112.09 200.347 110.26 198.92Z" fill="white"/>
<path d="M318.9 83.05C317.573 83.7153 316.459 84.7404 315.687 86.0082C314.914 87.2759 314.513 88.7354 314.53 90.22L314.91 149.69C314.91 151.057 315.263 152.401 315.936 153.59C316.609 154.78 317.578 155.776 318.75 156.48L368.13 185.91L415.4 155.26C416.516 154.53 417.43 153.531 418.057 152.355C418.685 151.179 419.006 149.863 418.99 148.53L418.6 86.44C418.598 84.9059 418.151 83.4055 417.313 82.1204C416.475 80.8354 415.283 79.8209 413.88 79.2L367.34 59.08L318.9 83.05Z" fill="#27B0C4"/>
<g opacity="0.2">
<path d="M367.34 59.08L368.14 185.91L415.35 155.32C416.475 154.601 417.4 153.611 418.039 152.439C418.679 151.268 419.013 149.954 419.01 148.62L418.64 86.28C418.637 84.7781 418.197 83.3097 417.373 82.0542C416.549 80.7986 415.377 79.8103 414 79.21L367.34 59.08Z" fill="black"/>
</g>
<path d="M381.16 130.3L352.36 130.48L346.49 144.4H338.49L362.69 88.73H370.35L395.35 144.09L387.22 144.15L381.16 130.3ZM378.41 124L366.55 96.84L355 124.12L378.41 124Z" fill="white"/>
<path d="M616.7 156.27H344.86V314.67H616.7V156.27Z" fill="#263238"/>
<path d="M366.12 306.7C365.98 306.7 365.86 274.31 365.86 234.36C365.86 194.41 366 162 366.12 162C366.24 162 366.38 194.38 366.38 234.34C366.38 274.3 366.27 306.7 366.12 306.7Z" fill="#E0E0E0"/>
<path d="M360.53 168.12C357.54 168.467 354.52 168.467 351.53 168.12C354.52 167.773 357.54 167.773 360.53 168.12Z" fill="#E0E0E0"/>
<path d="M360.53 177.65C357.54 177.997 354.52 177.997 351.53 177.65C354.52 177.303 357.54 177.303 360.53 177.65Z" fill="#E0E0E0"/>
<path d="M360.53 187.19C357.54 187.537 354.52 187.537 351.53 187.19C354.52 186.843 357.54 186.843 360.53 187.19Z" fill="#E0E0E0"/>
<path d="M360.53 196.72C357.54 197.067 354.52 197.067 351.53 196.72C354.52 196.373 357.54 196.373 360.53 196.72Z" fill="#E0E0E0"/>
<path d="M360.53 206.25C357.54 206.597 354.52 206.597 351.53 206.25C354.52 205.903 357.54 205.903 360.53 206.25Z" fill="#E0E0E0"/>
<path d="M360.53 215.79C357.54 216.137 354.52 216.137 351.53 215.79C354.52 215.443 357.54 215.443 360.53 215.79Z" fill="#E0E0E0"/>
<path d="M360.53 225.32C357.54 225.667 354.52 225.667 351.53 225.32C354.52 224.973 357.54 224.973 360.53 225.32Z" fill="#E0E0E0"/>
<path d="M360.53 234.85C357.54 235.197 354.52 235.197 351.53 234.85C354.52 234.503 357.54 234.503 360.53 234.85Z" fill="#E0E0E0"/>
<path d="M360.53 244.39C357.54 244.737 354.52 244.737 351.53 244.39C354.52 244.043 357.54 244.043 360.53 244.39Z" fill="#E0E0E0"/>
<path d="M360.53 253.92C357.54 254.267 354.52 254.267 351.53 253.92C354.52 253.573 357.54 253.573 360.53 253.92Z" fill="#E0E0E0"/>
<path d="M360.53 263.45C357.54 263.797 354.52 263.797 351.53 263.45C354.52 263.103 357.54 263.103 360.53 263.45Z" fill="#E0E0E0"/>
<path d="M360.53 273C357.54 273.347 354.52 273.347 351.53 273C354.52 272.653 357.54 272.653 360.53 273Z" fill="#E0E0E0"/>
<path d="M360.53 282.52C357.54 282.867 354.52 282.867 351.53 282.52C354.52 282.173 357.54 282.173 360.53 282.52Z" fill="#E0E0E0"/>
<path d="M360.53 292.05C357.54 292.397 354.52 292.397 351.53 292.05C354.52 291.703 357.54 291.703 360.53 292.05Z" fill="#E0E0E0"/>
<path d="M360.53 301.59C357.54 301.937 354.52 301.937 351.53 301.59C354.52 301.243 357.54 301.243 360.53 301.59Z" fill="#E0E0E0"/>
<path d="M396.62 167.56C396.62 167.7 391.39 167.82 384.94 167.82C378.49 167.82 373.25 167.7 373.25 167.56C373.25 167.42 378.48 167.3 384.94 167.3C391.4 167.3 396.62 167.41 396.62 167.56Z" fill="#27B0C4"/>
<path d="M396.62 301.59C396.62 301.73 391.39 301.85 384.94 301.85C378.49 301.85 373.25 301.73 373.25 301.59C373.25 301.45 378.48 301.33 384.94 301.33C391.4 301.33 396.62 301.44 396.62 301.59Z" fill="#27B0C4"/>
<path d="M429.16 187.19C429.16 187.33 419.37 187.45 407.3 187.45C395.23 187.45 385.44 187.33 385.44 187.19C385.44 187.05 395.23 186.93 407.3 186.93C419.37 186.93 429.16 187 429.16 187.19Z" fill="#27B0C4"/>
<path d="M479.7 187.19C479.7 187.33 469.92 187.45 457.85 187.45C445.78 187.45 435.99 187.33 435.99 187.19C435.99 187.05 445.77 186.93 457.85 186.93C469.93 186.93 479.7 187 479.7 187.19Z" fill="#E0E0E0"/>
<path d="M460.39 196.72C460.39 196.86 445.96 196.98 428.18 196.98C410.4 196.98 395.96 196.86 395.96 196.72C395.96 196.58 410.38 196.46 428.18 196.46C445.98 196.46 460.39 196.58 460.39 196.72Z" fill="#E0E0E0"/>
<path d="M460.39 206.25C460.39 206.4 445.96 206.51 428.18 206.51C410.4 206.51 396 206.4 396 206.25C396 206.1 410.42 205.99 428.22 205.99C446.02 205.99 460.39 206.11 460.39 206.25Z" fill="#E0E0E0"/>
<path d="M504.73 234.85C504.73 235 490.31 235.11 472.52 235.11C454.73 235.11 440.31 235 440.31 234.85C440.31 234.7 454.73 234.59 472.52 234.59C490.31 234.59 504.73 234.71 504.73 234.85Z" fill="#E0E0E0"/>
<path d="M485.6 215.79C485.6 215.93 471.17 216.05 453.39 216.05C435.61 216.05 421.17 215.93 421.17 215.79C421.17 215.65 435.59 215.53 453.39 215.53C471.19 215.53 485.6 215.64 485.6 215.79Z" fill="#E0E0E0"/>
<path d="M564.32 215.79C564.32 215.93 549.9 216.05 532.11 216.05C514.32 216.05 499.9 215.93 499.9 215.79C499.9 215.65 514.32 215.53 532.11 215.53C549.9 215.53 564.32 215.64 564.32 215.79Z" fill="#E0E0E0"/>
<path d="M536.94 196.72C536.94 196.86 522.52 196.98 504.73 196.98C486.94 196.98 472.52 196.86 472.52 196.72C472.52 196.58 486.94 196.46 504.73 196.46C522.52 196.46 536.94 196.58 536.94 196.72Z" fill="#FAFAFA"/>
<path d="M581.45 234.85C581.45 235 567.02 235.11 549.24 235.11C531.46 235.11 517 235 517 234.85C517 234.7 531.42 234.59 549.22 234.59C567.02 234.59 581.45 234.71 581.45 234.85Z" fill="#FAFAFA"/>
<path d="M572.56 206.25C572.56 206.4 550.16 206.51 522.56 206.51C494.96 206.51 472.56 206.4 472.56 206.25C472.56 206.1 494.95 205.99 522.56 205.99C550.17 205.99 572.56 206.11 572.56 206.25Z" fill="#455A64"/>
<path d="M396.62 177.65C396.62 177.8 391.39 177.91 384.94 177.91C378.49 177.91 373.25 177.8 373.25 177.65C373.25 177.5 378.48 177.39 384.94 177.39C391.4 177.39 396.62 177.51 396.62 177.65Z" fill="#FAFAFA"/>
<path d="M396.62 292.05C396.62 292.2 391.39 292.31 384.94 292.31C378.49 292.31 373.25 292.2 373.25 292.05C373.25 291.9 378.48 291.79 384.94 291.79C391.4 291.79 396.62 291.91 396.62 292.05Z" fill="#FAFAFA"/>
<path d="M408.19 215.79C408.19 215.93 402.96 216.05 396.51 216.05C390.06 216.05 384.83 215.93 384.83 215.79C384.83 215.65 390.06 215.53 396.51 215.53C402.96 215.53 408.19 215.64 408.19 215.79Z" fill="#FAFAFA"/>
<path d="M595.45 215.79C595.45 215.93 590.22 216.05 583.77 216.05C577.32 216.05 572.09 215.93 572.09 215.79C572.09 215.65 577.32 215.53 583.77 215.53C590.22 215.53 595.45 215.64 595.45 215.79Z" fill="#27B0C4"/>
<path d="M429.16 253.86C429.16 254.01 419.37 254.12 407.3 254.12C395.23 254.12 385.44 254.01 385.44 253.86C385.44 253.71 395.23 253.6 407.3 253.6C419.37 253.6 429.16 253.72 429.16 253.86Z" fill="#27B0C4"/>
<path d="M479.7 253.86C479.7 254.01 469.92 254.12 457.85 254.12C445.78 254.12 436 254 436 253.86C436 253.72 445.78 253.6 457.86 253.6C469.94 253.6 479.7 253.72 479.7 253.86Z" fill="#E0E0E0"/>
<path d="M460.39 263.4C460.39 263.54 445.96 263.66 428.18 263.66C410.4 263.66 396 263.54 396 263.4C396 263.26 410.42 263.14 428.22 263.14C446.02 263.14 460.39 263.25 460.39 263.4Z" fill="#E0E0E0"/>
<path d="M460.39 272.93C460.39 273.07 445.96 273.19 428.18 273.19C410.4 273.19 395.96 273.07 395.96 272.93C395.96 272.79 410.38 272.67 428.18 272.67C445.98 272.67 460.39 272.79 460.39 272.93Z" fill="#E0E0E0"/>
<path d="M485.6 282.46C485.6 282.61 471.17 282.72 453.39 282.72C435.61 282.72 421.17 282.61 421.17 282.46C421.17 282.31 435.59 282.2 453.39 282.2C471.19 282.2 485.6 282.32 485.6 282.46Z" fill="#E0E0E0"/>
<path d="M564.32 282.46C564.32 282.61 549.9 282.72 532.11 282.72C514.32 282.72 499.9 282.61 499.9 282.46C499.9 282.31 514.32 282.2 532.11 282.2C549.9 282.2 564.32 282.32 564.32 282.46Z" fill="#E0E0E0"/>
<path d="M536.94 263.4C536.94 263.54 522.52 263.66 504.73 263.66C486.94 263.66 472.52 263.54 472.52 263.4C472.52 263.26 486.94 263.14 504.73 263.14C522.52 263.14 536.94 263.25 536.94 263.4Z" fill="#FAFAFA"/>
<path d="M572.56 272.93C572.56 273.07 550.16 273.19 522.56 273.19C494.96 273.19 472.56 273.07 472.56 272.93C472.56 272.79 494.95 272.67 522.56 272.67C550.17 272.67 572.56 272.79 572.56 272.93Z" fill="#455A64"/>
<path d="M408.19 282.46C408.19 282.61 402.96 282.72 396.51 282.72C390.06 282.72 384.83 282.61 384.83 282.46C384.83 282.31 390.06 282.2 396.51 282.2C402.96 282.2 408.19 282.32 408.19 282.46Z" fill="#FAFAFA"/>
<path d="M595.45 282.46C595.45 282.61 590.22 282.72 583.77 282.72C577.32 282.72 572.09 282.61 572.09 282.46C572.09 282.31 577.32 282.2 583.77 282.2C590.22 282.2 595.45 282.32 595.45 282.46Z" fill="#27B0C4"/>
<path d="M652.65 312.48C652.46 312.59 650.77 309.78 647.36 304.96C645.66 302.55 643.51 299.65 640.84 296.43C637.835 292.788 634.563 289.375 631.05 286.22C629.025 284.393 626.866 282.722 624.59 281.22C622.208 279.594 619.557 278.402 616.76 277.7C615.375 277.366 613.934 277.345 612.54 277.64C611.179 277.973 609.969 278.751 609.1 279.85C608.173 281.052 607.528 282.446 607.21 283.93C606.83 285.526 606.628 287.159 606.61 288.8C606.612 292.294 606.994 295.778 607.75 299.19C608.517 302.792 609.519 306.339 610.75 309.81C616.077 324.487 623.947 338.112 634 350.06C636.388 352.864 638.953 355.513 641.68 357.99C644.257 360.353 647.084 362.428 650.11 364.18C651.544 364.979 653.059 365.623 654.63 366.1C656.076 366.559 657.605 366.696 659.11 366.5C660.498 366.295 661.776 365.629 662.74 364.61C663.695 363.558 664.399 362.303 664.8 360.94C665.591 358.167 665.882 355.275 665.66 352.4C665.512 349.68 665.155 346.975 664.59 344.31C663.601 339.689 662.264 335.149 660.59 330.73C659.14 326.81 657.7 323.5 656.47 320.82C654 315.45 652.41 312.59 652.6 312.48C653.148 313.064 653.619 313.716 654 314.42C654.82 315.75 656 317.74 657.38 320.37C658.76 323 660.38 326.28 661.95 330.2C663.779 334.652 665.247 339.243 666.34 343.93C666.982 346.676 667.41 349.468 667.62 352.28C667.907 355.407 667.633 358.56 666.81 361.59C666.328 363.275 665.474 364.83 664.31 366.14C663.026 367.532 661.31 368.452 659.44 368.75C657.604 369.029 655.728 368.896 653.95 368.36C652.212 367.853 650.535 367.155 648.95 366.28C645.74 364.476 642.741 362.32 640.01 359.85C637.167 357.319 634.494 354.604 632.01 351.72C621.701 339.595 613.672 325.704 608.31 310.72C607.066 307.124 606.064 303.449 605.31 299.72C604.533 296.106 604.16 292.416 604.2 288.72C604.239 286.902 604.48 285.094 604.92 283.33C605.34 281.506 606.16 279.798 607.32 278.33C608.521 276.866 610.174 275.842 612.02 275.42C613.739 275.064 615.517 275.102 617.22 275.53C620.252 276.333 623.117 277.671 625.68 279.48C628.01 281.072 630.216 282.837 632.28 284.76C635.802 288.081 639.053 291.679 642 295.52C644.6 298.87 646.64 301.88 648.23 304.39C649.82 306.9 650.96 308.92 651.69 310.3C652.104 310.981 652.427 311.714 652.65 312.48Z" fill="#27B0C4"/>
<path d="M621.77 312.42C621.95 312.53 620.33 315.26 617.77 320.42C616.51 322.98 615.03 326.15 613.54 329.91C611.839 334.149 610.478 338.516 609.47 342.97C608.888 345.536 608.514 348.144 608.35 350.77C608.116 353.542 608.387 356.334 609.15 359.01C609.549 360.331 610.232 361.55 611.15 362.58C612.081 363.572 613.297 364.25 614.63 364.52C616.071 364.8 617.556 364.759 618.98 364.4C620.524 364.043 622.021 363.506 623.44 362.8C626.455 361.281 629.283 359.419 631.87 357.25C634.612 354.98 637.197 352.527 639.61 349.91C649.771 338.748 657.782 325.804 663.24 311.73C664.507 308.401 665.546 304.99 666.35 301.52C667.136 298.244 667.542 294.889 667.56 291.52C667.555 289.937 667.367 288.36 667 286.82C666.686 285.386 666.061 284.037 665.17 282.87C664.33 281.796 663.177 281.009 661.87 280.62C660.539 280.264 659.147 280.203 657.79 280.44C655.057 280.95 652.438 281.949 650.06 283.39C647.787 284.716 645.62 286.218 643.58 287.88C640.047 290.773 636.747 293.94 633.71 297.35C631.01 300.35 628.83 303.1 627.1 305.35C623.64 309.89 621.92 312.56 621.74 312.45C621.965 311.706 622.302 311.001 622.74 310.36C623.49 309.05 624.64 307.13 626.27 304.76C628.239 301.863 630.351 299.066 632.6 296.38C635.58 292.796 638.858 289.471 642.4 286.44C644.474 284.66 646.691 283.054 649.03 281.64C651.608 280.016 654.462 278.878 657.45 278.28C659.11 277.981 660.815 278.042 662.45 278.46C664.206 278.958 665.764 279.989 666.91 281.41C668.024 282.823 668.819 284.461 669.24 286.21C669.665 287.925 669.893 289.683 669.92 291.45C669.961 294.998 669.589 298.538 668.81 302C668.004 305.588 666.951 309.117 665.66 312.56C660.141 326.966 651.947 340.199 641.51 351.56C639.019 354.253 636.346 356.773 633.51 359.1C630.746 361.371 627.725 363.311 624.51 364.88C622.916 365.648 621.238 366.229 619.51 366.61C617.759 367.02 615.94 367.041 614.18 366.67C612.398 366.28 610.78 365.347 609.55 364C608.436 362.718 607.614 361.21 607.14 359.58C606.346 356.65 606.092 353.601 606.39 350.58C606.613 347.854 607.061 345.152 607.73 342.5C608.861 337.977 610.373 333.558 612.25 329.29C613.648 326.08 615.206 322.943 616.92 319.89C618.32 317.37 619.52 315.49 620.36 314.23C621.2 312.97 621.69 312.37 621.77 312.42Z" fill="#27B0C4"/>
<path d="M635.24 300.91C635.24 301.13 632.06 301.18 626.37 301.73C623.53 302.01 620.06 302.43 616.08 303.13C611.581 303.923 607.151 305.067 602.83 306.55C600.344 307.409 597.93 308.462 595.61 309.7C593.128 310.953 590.895 312.647 589.02 314.7C588.104 315.728 587.422 316.943 587.02 318.26C586.668 319.58 586.73 320.977 587.2 322.26C587.726 323.631 588.541 324.872 589.59 325.9C590.711 327.017 591.956 328.004 593.3 328.84C596.176 330.604 599.247 332.03 602.45 333.09C605.827 334.231 609.279 335.14 612.78 335.81C627.615 338.583 642.835 338.583 657.67 335.81C661.171 335.144 664.623 334.238 668 333.1C671.207 332.042 674.281 330.616 677.16 328.85C678.504 328.014 679.749 327.027 680.87 325.91C681.919 324.882 682.734 323.641 683.26 322.27C683.73 320.987 683.792 319.59 683.44 318.27C683.038 316.953 682.356 315.738 681.44 314.71C679.565 312.657 677.332 310.963 674.85 309.71C672.534 308.464 670.119 307.41 667.63 306.56C663.309 305.077 658.879 303.933 654.38 303.14C650.38 302.44 646.93 302.02 644.09 301.74C638.4 301.19 635.22 301.14 635.23 300.92C635.98 300.726 636.756 300.645 637.53 300.68C639.04 300.63 641.28 300.6 644.16 300.73C647.04 300.86 650.55 301.13 654.61 301.73C659.226 302.377 663.779 303.414 668.22 304.83C670.823 305.664 673.355 306.708 675.79 307.95C678.53 309.285 681.001 311.112 683.08 313.34C684.217 314.599 685.067 316.09 685.57 317.71C686.067 319.464 686.011 321.329 685.41 323.05C684.797 324.744 683.821 326.283 682.55 327.56C681.321 328.829 679.944 329.947 678.45 330.89C675.427 332.792 672.192 334.332 668.81 335.48C665.334 336.683 661.779 337.642 658.17 338.35C643.011 341.257 627.439 341.257 612.28 338.35C608.671 337.642 605.116 336.683 601.64 335.48C598.258 334.332 595.023 332.792 592 330.89C590.508 329.944 589.132 328.827 587.9 327.56C586.627 326.285 585.651 324.745 585.04 323.05C584.438 321.329 584.383 319.464 584.88 317.71C585.385 316.091 586.235 314.6 587.37 313.34C589.45 311.113 591.921 309.286 594.66 307.95C597.093 306.705 599.625 305.665 602.23 304.84C606.669 303.416 611.223 302.375 615.84 301.73C619.9 301.15 623.42 300.88 626.29 300.73C629.16 300.58 631.41 300.63 632.92 300.68C633.7 300.641 634.482 300.719 635.24 300.91Z" fill="#27B0C4"/>
<path d="M645.957 323.619C646.699 319.056 643.602 314.756 639.039 314.013C634.477 313.271 630.176 316.368 629.434 320.931C628.692 325.494 631.789 329.794 636.351 330.536C640.914 331.278 645.215 328.181 645.957 323.619Z" fill="#27B0C4"/>
<path d="M202.13 235.47H499.58C501.368 235.47 503.082 236.18 504.346 237.444C505.61 238.708 506.32 240.422 506.32 242.21V427.21C506.32 431.074 504.785 434.78 502.053 437.513C499.32 440.245 495.614 441.78 491.75 441.78H208.95C205.086 441.78 201.38 440.245 198.647 437.513C195.915 434.78 194.38 431.074 194.38 427.21V243.21C194.383 241.156 195.2 239.188 196.653 237.736C198.107 236.285 200.076 235.47 202.13 235.47Z" fill="#455A64"/>
<path d="M181.34 426.5H519.34V430.83C519.34 432.632 518.985 434.416 518.296 436.08C517.606 437.745 516.596 439.257 515.322 440.531C514.048 441.806 512.535 442.816 510.87 443.506C509.206 444.195 507.422 444.55 505.62 444.55H195.06C193.258 444.55 191.474 444.195 189.81 443.506C188.145 442.816 186.633 441.806 185.358 440.531C184.084 439.257 183.074 437.745 182.384 436.08C181.695 434.416 181.34 432.632 181.34 430.83V426.5Z" fill="#455A64"/>
<path d="M497.07 243.67H202.75V417.87H497.07V243.67Z" fill="#E0E0E0"/>
<path d="M319.6 426.5L323.79 433.17H382.8L386.7 426.5H319.6Z" fill="#263238"/>
<path d="M506.37 426.43H194.43V427.42H506.37V426.43Z" fill="#263238"/>
<path d="M489.05 253.76H211.49V417.87H489.05V253.76Z" fill="#263238"/>
<path d="M232.78 413.05C232.64 413.05 232.52 378.1 232.52 334.99C232.52 291.88 232.64 256.93 232.78 256.93C232.92 256.93 233 291.87 233 335C233 378.13 232.92 413.05 232.78 413.05Z" fill="#E0E0E0"/>
<path d="M227.18 271.08C225.692 271.342 224.178 271.43 222.67 271.34C221.162 271.43 219.648 271.342 218.16 271.08C221.15 270.735 224.17 270.735 227.16 271.08H227.18Z" fill="#E0E0E0"/>
<path d="M227.53 262.22C226.042 262.482 224.528 262.57 223.02 262.48C221.512 262.57 219.998 262.482 218.51 262.22C221.5 261.875 224.52 261.875 227.51 262.22H227.53Z" fill="#E0E0E0"/>
<path d="M227.18 280.63C224.19 280.975 221.17 280.975 218.18 280.63C221.17 280.285 224.19 280.285 227.18 280.63Z" fill="#E0E0E0"/>
<path d="M227.18 290.18C224.19 290.525 221.17 290.525 218.18 290.18C219.668 289.918 221.182 289.83 222.69 289.92C224.192 289.832 225.699 289.919 227.18 290.18Z" fill="#E0E0E0"/>
<path d="M227.18 299.73C224.19 300.075 221.17 300.075 218.18 299.73C219.668 299.468 221.182 299.38 222.69 299.47C224.192 299.382 225.699 299.469 227.18 299.73Z" fill="#E0E0E0"/>
<path d="M227.18 309.28C224.19 309.625 221.17 309.625 218.18 309.28C219.668 309.018 221.182 308.93 222.69 309.02C224.192 308.932 225.699 309.019 227.18 309.28Z" fill="#E0E0E0"/>
<path d="M227.18 318.82C225.693 319.089 224.179 319.18 222.67 319.09C221.161 319.18 219.647 319.089 218.16 318.82C221.15 318.475 224.17 318.475 227.16 318.82H227.18Z" fill="#E0E0E0"/>
<path d="M227.18 328.37C225.692 328.632 224.178 328.72 222.67 328.63C221.162 328.72 219.648 328.632 218.16 328.37C221.15 328.025 224.17 328.025 227.16 328.37H227.18Z" fill="#E0E0E0"/>
<path d="M227.18 337.92C225.692 338.182 224.178 338.27 222.67 338.18C221.162 338.27 219.648 338.182 218.16 337.92C221.15 337.575 224.17 337.575 227.16 337.92H227.18Z" fill="#E0E0E0"/>
<path d="M227.18 347.47C225.692 347.732 224.178 347.82 222.67 347.73C221.162 347.82 219.648 347.732 218.16 347.47C221.15 347.125 224.17 347.125 227.16 347.47H227.18Z" fill="#E0E0E0"/>
<path d="M227.18 357C224.19 357.345 221.17 357.345 218.18 357C221.17 356.655 224.19 356.655 227.18 357Z" fill="#E0E0E0"/>
<path d="M227.18 366.57C224.19 366.915 221.17 366.915 218.18 366.57C219.668 366.308 221.182 366.22 222.69 366.31C224.192 366.222 225.699 366.309 227.18 366.57Z" fill="#E0E0E0"/>
<path d="M227.18 376.12C224.19 376.465 221.17 376.465 218.18 376.12C219.668 375.858 221.182 375.77 222.69 375.86C224.192 375.772 225.699 375.859 227.18 376.12Z" fill="#E0E0E0"/>
<path d="M227.18 385.67C224.19 386.015 221.17 386.015 218.18 385.67C219.668 385.408 221.182 385.32 222.69 385.41C224.192 385.322 225.699 385.409 227.18 385.67Z" fill="#E0E0E0"/>
<path d="M227.18 395.22C224.19 395.565 221.17 395.565 218.18 395.22C219.667 394.951 221.181 394.86 222.69 394.95C224.192 394.862 225.699 394.953 227.18 395.22Z" fill="#E0E0E0"/>
<path d="M227.18 404.76C225.692 405.022 224.178 405.11 222.67 405.02C221.162 405.11 219.648 405.022 218.16 404.76C221.15 404.415 224.17 404.415 227.16 404.76H227.18Z" fill="#E0E0E0"/>
<path d="M263.33 270.52C263.33 270.66 258.09 270.78 251.63 270.78C245.17 270.78 239.92 270.66 239.92 270.52C239.92 270.38 245.16 270.26 251.63 270.26C258.1 270.26 263.33 270.37 263.33 270.52Z" fill="#27B0C4"/>
<path d="M263.33 404.76C263.33 404.91 258.09 405.02 251.63 405.02C245.17 405.02 239.92 404.91 239.92 404.76C239.92 404.61 245.16 404.5 251.63 404.5C258.1 404.5 263.33 404.62 263.33 404.76Z" fill="#27B0C4"/>
<path d="M295.92 290.18C295.92 290.32 286.11 290.44 274.02 290.44C261.93 290.44 252.13 290.32 252.13 290.18C252.13 290.04 261.93 289.92 274.02 289.92C286.11 289.92 295.92 290 295.92 290.18Z" fill="#27B0C4"/>
<path d="M346.55 290.18C346.55 290.32 336.74 290.44 324.65 290.44C312.56 290.44 302.76 290.32 302.76 290.18C302.76 290.04 312.56 289.92 324.65 289.92C336.74 289.92 346.55 290 346.55 290.18Z" fill="#E0E0E0"/>
<path d="M327.2 299.73C327.2 299.87 312.75 299.99 294.93 299.99C277.11 299.99 262.67 299.87 262.67 299.73C262.67 299.59 277.11 299.47 294.93 299.47C312.75 299.47 327.2 299.58 327.2 299.73Z" fill="#E0E0E0"/>
<path d="M327.2 309.28C327.2 309.42 312.75 309.54 294.93 309.54C277.11 309.54 262.67 309.42 262.67 309.28C262.67 309.14 277.11 309.02 294.93 309.02C312.75 309.02 327.2 309.13 327.2 309.28Z" fill="#E0E0E0"/>
<path d="M371.61 337.92C371.61 338.07 357.17 338.18 339.35 338.18C321.53 338.18 307.08 338.07 307.08 337.92C307.08 337.77 321.53 337.66 339.35 337.66C357.17 337.66 371.61 337.78 371.61 337.92Z" fill="#E0E0E0"/>
<path d="M352.45 318.82C352.45 318.97 338 319.09 320.18 319.09C302.36 319.09 287.92 318.97 287.92 318.82C287.92 318.67 302.36 318.56 320.18 318.56C338 318.56 352.45 318.68 352.45 318.82Z" fill="#E0E0E0"/>
<path d="M431.3 318.82C431.3 318.97 416.85 319.09 399.04 319.09C381.23 319.09 366.77 318.97 366.77 318.82C366.77 318.67 381.22 318.56 399.04 318.56C416.86 318.56 431.3 318.68 431.3 318.82Z" fill="#E0E0E0"/>
<path d="M403.88 299.73C403.88 299.87 389.43 299.99 371.61 299.99C353.79 299.99 339.35 299.87 339.35 299.73C339.35 299.59 353.79 299.47 371.61 299.47C389.43 299.47 403.88 299.58 403.88 299.73Z" fill="#FAFAFA"/>
<path d="M448.45 337.92C448.45 338.07 434 338.18 416.19 338.18C398.38 338.18 383.92 338.07 383.92 337.92C383.92 337.77 398.37 337.66 416.19 337.66C434.01 337.66 448.45 337.78 448.45 337.92Z" fill="#FAFAFA"/>
<path d="M439.55 309.28C439.55 309.42 417.12 309.54 389.45 309.54C361.78 309.54 339.35 309.42 339.35 309.28C339.35 309.14 361.78 309.02 389.45 309.02C417.12 309.02 439.55 309.13 439.55 309.28Z" fill="#455A64"/>
<path d="M263.33 280.63C263.33 280.77 258.09 280.89 251.63 280.89C245.17 280.89 239.92 280.77 239.92 280.63C239.92 280.49 245.16 280.37 251.63 280.37C258.1 280.37 263.33 280.49 263.33 280.63Z" fill="#FAFAFA"/>
<path d="M263.33 395.22C263.33 395.36 258.09 395.48 251.63 395.48C245.17 395.48 239.92 395.36 239.92 395.22C239.92 395.08 245.16 394.95 251.63 394.95C258.1 394.95 263.33 395.07 263.33 395.22Z" fill="#FAFAFA"/>
<path d="M274.92 318.82C274.92 318.97 269.68 319.09 263.22 319.09C256.76 319.09 251.52 318.97 251.52 318.82C251.52 318.67 256.75 318.56 263.22 318.56C269.69 318.56 274.92 318.68 274.92 318.82Z" fill="#FAFAFA"/>
<path d="M462.48 318.82C462.48 318.97 457.24 319.09 450.78 319.09C444.32 319.09 439.08 318.97 439.08 318.82C439.08 318.67 444.31 318.56 450.78 318.56C457.25 318.56 462.48 318.68 462.48 318.82Z" fill="#27B0C4"/>
<path d="M295.92 357C295.92 357.15 286.11 357.26 274.02 357.26C261.93 357.26 252.13 357.15 252.13 357C252.13 356.85 261.93 356.74 274.02 356.74C286.11 356.74 295.92 356.82 295.92 357Z" fill="#27B0C4"/>
<path d="M346.55 357C346.55 357.15 336.74 357.26 324.65 357.26C312.56 357.26 302.76 357.15 302.76 357C302.76 356.85 312.56 356.74 324.65 356.74C336.74 356.74 346.55 356.82 346.55 357Z" fill="#E0E0E0"/>
<path d="M327.2 366.51C327.2 366.66 312.75 366.77 294.93 366.77C277.11 366.77 262.67 366.66 262.67 366.51C262.67 366.36 277.11 366.25 294.93 366.25C312.75 366.25 327.2 366.37 327.2 366.51Z" fill="#E0E0E0"/>
<path d="M327.2 376.06C327.2 376.21 312.75 376.32 294.93 376.32C277.11 376.32 262.67 376.21 262.67 376.06C262.67 375.91 277.11 375.8 294.93 375.8C312.75 375.8 327.2 375.92 327.2 376.06Z" fill="#E0E0E0"/>
<path d="M352.45 385.61C352.45 385.75 338 385.87 320.18 385.87C302.36 385.87 287.92 385.75 287.92 385.61C287.92 385.47 302.36 385.35 320.18 385.35C338 385.35 352.45 385.47 352.45 385.61Z" fill="#E0E0E0"/>
<path d="M431.3 385.61C431.3 385.75 416.85 385.87 399.04 385.87C381.23 385.87 366.77 385.75 366.77 385.61C366.77 385.47 381.22 385.35 399.04 385.35C416.86 385.35 431.3 385.47 431.3 385.61Z" fill="#E0E0E0"/>
<path d="M403.88 366.51C403.88 366.66 389.43 366.77 371.61 366.77C353.79 366.77 339.35 366.66 339.35 366.51C339.35 366.36 353.79 366.25 371.61 366.25C389.43 366.25 403.88 366.37 403.88 366.51Z" fill="#FAFAFA"/>
<path d="M439.55 376.06C439.55 376.21 417.12 376.32 389.45 376.32C361.78 376.32 339.35 376.21 339.35 376.06C339.35 375.91 361.78 375.8 389.45 375.8C417.12 375.8 439.55 375.92 439.55 376.06Z" fill="#455A64"/>
<path d="M274.92 385.61C274.92 385.75 269.68 385.87 263.22 385.87C256.76 385.87 251.52 385.75 251.52 385.61C251.52 385.47 256.75 385.35 263.22 385.35C269.69 385.35 274.92 385.47 274.92 385.61Z" fill="#FAFAFA"/>
<path d="M462.48 385.61C462.48 385.75 457.24 385.87 450.78 385.87C444.32 385.87 439.08 385.75 439.08 385.61C439.08 385.47 444.31 385.35 450.78 385.35C457.25 385.35 462.48 385.47 462.48 385.61Z" fill="#27B0C4"/>
<path d="M700.42 444.56C700.42 444.7 554.71 444.82 375.02 444.82C195.33 444.82 49.58 444.7 49.58 444.56C49.58 444.42 195.26 444.3 375.02 444.3C554.78 444.3 700.42 444.41 700.42 444.56Z" fill="#263238"/>
<path d="M568.68 388.12L572.68 400.61C573.449 403.144 574.901 405.418 576.877 407.181C578.852 408.945 581.275 410.131 583.88 410.61L610.54 415.61L617.79 415.38L610.54 406.38L590.54 399.55C589.587 399.334 588.711 398.863 588.006 398.186C587.301 397.51 586.794 396.653 586.54 395.71L578.54 378.35L568.43 384.55L568.68 388.12Z" fill="#FFBE9D"/>
<path d="M549.58 304.23C549.714 302.268 549.186 300.317 548.08 298.69C547.629 297.85 547.006 297.115 546.251 296.532C545.496 295.95 544.627 295.533 543.7 295.31C542.62 295.186 541.529 295.418 540.592 295.97C539.656 296.523 538.925 297.365 538.51 298.37C538.12 299.382 537.99 300.476 538.129 301.551C538.269 302.627 538.675 303.651 539.31 304.53C539.957 305.444 540.784 306.217 541.74 306.8C538.959 308.628 536.852 311.314 535.74 314.45C535.37 315.51 535.12 316.61 534.66 317.63C534.241 318.685 533.456 319.554 532.45 320.08C531.69 320.42 530.84 320.45 530.06 320.74C529.415 320.996 528.841 321.402 528.384 321.923C527.926 322.445 527.6 323.067 527.43 323.74C527.128 325.115 527.384 326.553 528.14 327.74C528.593 328.274 528.902 328.914 529.04 329.6C529.013 330.075 528.915 330.544 528.75 330.99C528.56 331.779 528.628 332.608 528.944 333.355C529.259 334.103 529.805 334.73 530.503 335.145C531.2 335.559 532.012 335.74 532.819 335.66C533.627 335.58 534.388 335.243 534.99 334.7C535.394 335.903 536.208 336.926 537.29 337.59C538.43 338.13 540.11 337.64 540.29 336.4C540.573 337.003 541.048 337.494 541.64 337.797C542.233 338.101 542.91 338.198 543.564 338.074C544.218 337.95 544.812 337.613 545.253 337.114C545.694 336.615 545.957 335.984 546 335.32L567.5 311.81C564.3 303.27 551.75 304 549.58 304.23Z" fill="#27B0C4"/>
<path d="M545.94 312.4C545.274 312.474 544.659 312.794 544.215 313.297C543.772 313.8 543.531 314.45 543.54 315.12L545.06 351.32C545.12 355.6 552.88 360.66 557.45 360.56C562.08 360.46 560.72 355.56 560.78 351.49C560.9 344.69 560.89 342.14 560.9 342.18C560.91 342.22 566.74 341.18 567.95 333.59C568.55 329.8 568.36 323.59 568.04 318.51C567.75 313.94 564.72 308.33 560.17 308.81L545.94 312.4Z" fill="#FFBE9D"/>
<path d="M566.06 323.44C566.06 323.695 565.963 323.941 565.789 324.127C565.614 324.313 565.375 324.425 565.12 324.44C564.996 324.448 564.873 324.432 564.755 324.392C564.638 324.352 564.53 324.289 564.437 324.208C564.344 324.126 564.268 324.027 564.214 323.916C564.16 323.804 564.128 323.684 564.12 323.56C564.12 323.305 564.217 323.059 564.391 322.873C564.566 322.687 564.805 322.575 565.06 322.56C565.183 322.552 565.307 322.568 565.425 322.608C565.542 322.648 565.65 322.711 565.743 322.792C565.836 322.874 565.912 322.973 565.966 323.085C566.02 323.196 566.052 323.316 566.06 323.44Z" fill="#263238"/>
<path d="M566.69 321.74C566.57 321.87 565.83 321.32 564.78 321.32C563.73 321.32 562.95 321.85 562.84 321.72C562.73 321.59 562.91 321.44 563.24 321.19C563.696 320.877 564.237 320.71 564.79 320.71C565.34 320.712 565.875 320.887 566.32 321.21C566.64 321.45 566.75 321.68 566.69 321.74Z" fill="#263238"/>
<path d="M555.78 323.44C555.78 323.695 555.683 323.941 555.509 324.127C555.334 324.313 555.095 324.425 554.84 324.44C554.717 324.448 554.593 324.432 554.475 324.392C554.358 324.352 554.25 324.289 554.157 324.208C554.064 324.126 553.988 324.027 553.934 323.916C553.88 323.804 553.848 323.684 553.84 323.56C553.84 323.305 553.937 323.059 554.111 322.873C554.286 322.687 554.525 322.575 554.78 322.56C554.904 322.552 555.027 322.568 555.145 322.608C555.262 322.648 555.37 322.711 555.463 322.792C555.556 322.874 555.632 322.973 555.686 323.085C555.74 323.196 555.772 323.316 555.78 323.44Z" fill="#263238"/>
<path d="M556.35 321.94C556.23 322.06 555.49 321.52 554.44 321.52C553.39 321.52 552.62 322.05 552.5 321.92C552.38 321.79 552.57 321.63 552.91 321.39C553.363 321.071 553.906 320.903 554.46 320.91C555.005 320.91 555.537 321.082 555.98 321.4C556.3 321.65 556.41 321.88 556.35 321.94Z" fill="#263238"/>
<path d="M560.17 329.74C560.724 329.561 561.299 329.457 561.88 329.43C562.15 329.43 562.4 329.35 562.45 329.16C562.47 328.885 562.408 328.609 562.27 328.37C562.01 327.72 561.75 327.04 561.47 326.32C560.732 324.588 560.137 322.799 559.69 320.97C560.565 322.641 561.304 324.38 561.9 326.17C562.16 326.89 562.42 327.57 562.66 328.22C562.829 328.546 562.879 328.921 562.8 329.28C562.761 329.374 562.7 329.457 562.624 329.525C562.548 329.592 562.458 329.642 562.36 329.67C562.21 329.711 562.055 329.732 561.9 329.73C561.326 329.805 560.745 329.809 560.17 329.74Z" fill="#263238"/>
<path d="M560.9 342.18C557.311 342.234 553.777 341.293 550.69 339.46C550.69 339.46 553.17 344.69 560.79 343.98L560.9 342.18Z" fill="#EB996E"/>
<path d="M559.72 332.27C559.521 332.019 559.262 331.823 558.966 331.701C558.67 331.578 558.348 331.533 558.03 331.57C557.797 331.591 557.571 331.659 557.365 331.769C557.159 331.879 556.977 332.029 556.83 332.21C556.69 332.385 556.607 332.599 556.593 332.822C556.578 333.046 556.633 333.269 556.75 333.46C556.919 333.65 557.14 333.784 557.386 333.847C557.632 333.909 557.891 333.896 558.13 333.81C558.626 333.636 559.081 333.364 559.47 333.01C559.587 332.925 559.689 332.82 559.77 332.7C559.809 332.642 559.829 332.574 559.829 332.505C559.829 332.436 559.809 332.368 559.77 332.31" fill="#EB996E"/>
<path d="M557.07 330.46C557.25 330.46 557.25 331.6 558.22 332.46C559.19 333.32 560.42 333.14 560.43 333.3C560.44 333.46 560.15 333.52 559.64 333.54C558.972 333.543 558.322 333.317 557.8 332.9C557.306 332.49 556.987 331.907 556.91 331.27C556.87 330.74 557 330.46 557.07 330.46Z" fill="#263238"/>
<path d="M556.83 320.1C556.72 320.38 555.67 320.25 554.44 320.4C553.21 320.55 552.21 320.88 552.04 320.62C551.87 320.36 552.14 320.23 552.55 319.96C553.082 319.612 553.688 319.396 554.32 319.33C554.952 319.256 555.592 319.331 556.19 319.55C556.64 319.74 556.87 320 556.83 320.1Z" fill="#27B0C4"/>
<path d="M566.3 318.7C566.12 318.94 565.39 318.7 564.52 318.7C563.65 318.7 562.91 318.86 562.74 318.61C562.57 318.36 562.74 318.25 563.11 318.02C563.542 317.745 564.048 317.608 564.56 317.63C565.072 317.639 565.568 317.807 565.98 318.11C566.28 318.34 566.39 318.58 566.3 318.7Z" fill="#27B0C4"/>
<path d="M544.39 324.59C544.079 324.422 543.729 324.343 543.376 324.36C543.023 324.378 542.682 324.492 542.39 324.69C541.68 325.097 541.134 325.739 540.844 326.505C540.555 327.27 540.541 328.113 540.804 328.888C541.068 329.663 541.593 330.322 542.289 330.753C542.985 331.184 543.809 331.36 544.62 331.25" fill="#FFBE9D"/>
<path d="M556.37 306.27C558.962 306.401 561.479 307.182 563.69 308.54C566.186 309.837 568.067 312.07 568.92 314.75C569.027 315.026 569.077 315.321 569.067 315.616C569.057 315.912 568.986 316.202 568.86 316.47C568.617 316.774 568.276 316.985 567.895 317.068C567.514 317.15 567.117 317.097 566.77 316.92C566.086 316.54 565.503 316.002 565.07 315.35C564.888 316.056 564.474 316.68 563.896 317.123C563.317 317.566 562.606 317.802 561.878 317.794C561.149 317.786 560.444 317.534 559.875 317.079C559.306 316.623 558.907 315.99 558.74 315.28C558.679 316.01 558.34 316.689 557.793 317.177C557.246 317.664 556.532 317.923 555.8 317.9C555.069 317.837 554.372 317.561 553.796 317.106C553.22 316.651 552.79 316.037 552.56 315.34C552.376 316.659 551.92 317.926 551.22 319.06C550.858 319.619 550.333 320.055 549.716 320.307C549.1 320.559 548.42 320.616 547.77 320.47C548.061 321.588 548.061 322.762 547.77 323.88C547.594 324.428 547.222 324.891 546.726 325.181C546.229 325.47 545.643 325.566 545.08 325.45C544.02 325.09 543.61 323.84 543.37 322.75C542.824 320.664 542.548 318.516 542.55 316.36C542.478 314.141 543.198 311.968 544.581 310.231C545.965 308.494 547.921 307.306 550.1 306.88C552.273 306.382 554.503 306.177 556.73 306.27" fill="#27B0C4"/>
<path d="M543.86 329C543.86 328.95 543.56 329.07 543.19 328.9C542.967 328.77 542.787 328.578 542.672 328.347C542.556 328.116 542.511 327.856 542.54 327.6C542.541 327.339 542.619 327.083 542.763 326.865C542.906 326.647 543.11 326.475 543.35 326.37C543.573 326.309 543.8 326.265 544.03 326.24C544.03 326.24 543.77 326 543.27 326.11C542.976 326.176 542.712 326.338 542.52 326.57C542.29 326.854 542.156 327.205 542.14 327.57C542.107 327.907 542.187 328.246 542.368 328.532C542.549 328.818 542.821 329.036 543.14 329.15C543.61 329.28 543.9 329 543.86 329Z" fill="#EB996E"/>
<path d="M541 329.38C541 329.38 540.89 329.38 540.68 329.46C539.292 329.965 538.117 330.928 537.35 332.19C536.937 332.885 536.704 333.672 536.67 334.48C536.647 335.414 536.867 336.338 537.31 337.16C537.783 338.064 538.47 338.84 539.31 339.42C540.225 340.053 541.307 340.401 542.42 340.42C543.489 340.4 544.533 340.089 545.44 339.522C546.347 338.955 547.083 338.153 547.57 337.2C547.999 336.368 548.186 335.433 548.11 334.5C548.028 333.699 547.776 332.925 547.37 332.23C546.798 331.213 545.915 330.407 544.85 329.93C544.566 329.802 544.267 329.711 543.96 329.66C543.747 329.62 543.637 329.62 543.63 329.66C543.63 329.66 544.07 329.76 544.78 330.1C545.777 330.609 546.596 331.407 547.13 332.39C547.496 333.06 547.717 333.799 547.78 334.56C547.833 335.43 547.646 336.298 547.24 337.07C546.78 337.957 546.09 338.704 545.242 339.232C544.394 339.759 543.419 340.049 542.42 340.07C541.426 340.035 540.458 339.739 539.614 339.213C538.77 338.686 538.079 337.948 537.61 337.07C537.211 336.358 537.001 335.556 537.001 334.74C537.001 333.924 537.211 333.122 537.61 332.41C538.17 331.441 538.968 330.632 539.93 330.06C540.55 329.56 541 329.41 541 329.38Z" fill="#263238"/>
<path d="M547.25 305.76C547.17 305.76 547.01 305.09 546.54 304.1C545.935 302.803 545.035 301.666 543.911 300.781C542.788 299.895 541.472 299.285 540.07 299C538.99 298.77 538.29 298.78 538.29 298.69C538.889 298.52 539.521 298.499 540.13 298.63C541.627 298.836 543.042 299.436 544.23 300.37C545.415 301.305 546.327 302.541 546.87 303.95C547.144 304.513 547.274 305.135 547.25 305.76Z" fill="#E0E0E0"/>
<path d="M529.73 334.71C529.73 334.71 529.6 334.71 529.46 334.46C529.282 334.159 529.218 333.804 529.28 333.46C529.338 333.179 529.451 332.913 529.612 332.676C529.773 332.439 529.98 332.237 530.22 332.08C530.83 331.71 531.461 331.376 532.11 331.08C532.475 330.909 532.789 330.646 533.02 330.316C533.252 329.986 533.393 329.601 533.43 329.2C533.384 328.225 533.209 327.26 532.91 326.33C532.774 325.781 532.72 325.215 532.75 324.65C532.8 324.032 533.053 323.448 533.47 322.99C534.37 322.15 535.478 321.566 536.68 321.3C537.792 321.067 538.801 320.486 539.56 319.64C540.079 318.731 540.249 317.665 540.04 316.64C539.874 315.649 539.804 314.644 539.83 313.64C540.012 311.452 541.05 309.425 542.72 308C542.983 307.775 543.268 307.578 543.57 307.41C543.671 307.34 543.782 307.285 543.9 307.25C543.9 307.25 543.5 307.55 542.9 308.15C542 309.003 541.3 310.044 540.85 311.2C540.539 311.99 540.353 312.823 540.3 313.67C540.295 314.652 540.378 315.633 540.55 316.6C540.797 317.747 540.608 318.945 540.02 319.96C539.205 320.906 538.102 321.56 536.88 321.82C535.762 322.061 534.727 322.592 533.88 323.36C533.567 323.766 533.36 324.244 533.278 324.751C533.196 325.257 533.241 325.776 533.41 326.26C533.711 327.232 533.872 328.242 533.89 329.26C533.844 329.756 533.656 330.228 533.35 330.62C533.076 330.956 532.736 331.232 532.35 331.43C531.63 331.82 530.95 332.04 530.45 332.43C530.004 332.694 529.678 333.12 529.54 333.62C529.461 333.994 529.529 334.385 529.73 334.71Z" fill="#E0E0E0"/>
<path d="M556.89 315C556.81 315 556.74 314.19 556.34 313C555.824 311.407 554.94 309.958 553.76 308.77C552.566 307.602 551.119 306.726 549.53 306.21C548.31 305.81 547.53 305.75 547.53 305.66C548.246 305.563 548.975 305.632 549.66 305.86C551.357 306.285 552.908 307.16 554.15 308.391C555.393 309.623 556.28 311.167 556.72 312.86C556.947 313.55 557.005 314.283 556.89 315Z" fill="#E0E0E0"/>
<path d="M563 311.7C562.613 310.883 562.169 310.094 561.67 309.34C560.35 307.616 558.525 306.347 556.45 305.71C554.357 305.103 552.163 304.926 550 305.19C548.33 305.37 547.31 305.6 547.29 305.52C548.136 305.154 549.033 304.921 549.95 304.83C552.17 304.446 554.448 304.576 556.61 305.21C558.787 305.875 560.676 307.257 561.97 309.13C562.357 309.692 562.657 310.309 562.86 310.96C562.959 311.194 563.006 311.446 563 311.7Z" fill="#E0E0E0"/>
<path d="M549.74 303.85C549.74 303.85 549.55 304.35 548.96 304.96C548.173 305.738 547.224 306.332 546.18 306.7C545.141 307.079 544.03 307.219 542.93 307.11C542.468 307.106 542.016 306.978 541.62 306.74C543.103 306.812 544.587 306.633 546.01 306.21C547.375 305.635 548.636 304.837 549.74 303.85Z" fill="#263238"/>
<path d="M555.09 444.62C536.78 438.56 549.33 414.34 549.33 414.34L629.33 421.87C630.859 421.857 632.375 422.147 633.791 422.723C635.207 423.299 636.494 424.15 637.58 425.227C638.665 426.303 639.526 427.585 640.113 428.996C640.7 430.407 641.001 431.921 641 433.45C640.995 436.513 639.775 439.45 637.608 441.615C635.441 443.78 632.503 444.997 629.44 445L555.09 444.6" fill="#263238"/>
<path d="M536.35 444.6C518.51 438.6 530.81 414.33 530.81 414.33L608.81 421.69C616.43 421.79 620.15 425.47 620.15 433.24C620.15 439.63 617.77 445.02 608.84 444.84L536.34 444.6" fill="#263238"/>
<path d="M554.46 418.43H554.68H555.33L557.83 418.53L567 419L597.27 420.66C598.75 420.73 600.21 420.86 601.65 420.88C603.09 420.9 604.52 420.96 605.91 421.05C607.3 421.14 608.68 421.24 610.02 421.38C611.35 421.471 612.661 421.74 613.92 422.18C615.133 422.647 616.238 423.354 617.17 424.26C618.061 425.154 618.743 426.233 619.17 427.42C619.568 428.522 619.84 429.666 619.98 430.83C620.122 431.901 620.192 432.98 620.19 434.06C620.227 435.919 619.887 437.766 619.19 439.49C618.646 440.766 617.814 441.899 616.76 442.8C616.11 443.352 615.36 443.773 614.55 444.04C614 444.22 613.99 444.16 614.55 443.96C615.336 443.665 616.062 443.228 616.69 442.67C617.699 441.764 618.492 440.643 619.01 439.39C619.696 437.698 620.037 435.886 620.01 434.06C620.002 432.996 619.922 431.933 619.77 430.88C619.627 429.744 619.359 428.627 618.97 427.55C618.557 426.424 617.905 425.401 617.06 424.55C616.17 423.669 615.103 422.987 613.93 422.55C612.701 422.12 611.419 421.861 610.12 421.78C608.79 421.64 607.42 421.54 606.03 421.46C604.64 421.38 603.22 421.32 601.79 421.3C600.36 421.28 598.88 421.15 597.4 421.08L567 419.29L557.82 418.7L555.33 418.52L554.68 418.46L554.46 418.43Z" fill="#455A64"/>
<path d="M582.2 420L575.79 416.85L571.32 402L570.89 383L579.95 379.18L572.76 361.13C571.45 358.46 568.76 351.39 562 349.07C561.893 348.064 561.974 347.046 562.24 346.07C562.77 345.18 545.65 344.65 544.68 345C543.71 345.35 544.84 348.48 544.73 349C538.64 350.68 532.73 353.19 530.5 361.56C529.64 364.82 529.93 371.7 530.4 375.02L535.15 400.15L532.48 408.4C532.48 408.4 523.13 427.88 526.68 435.49C530.23 443.1 536.25 444.82 536.25 444.82L582.83 444.72L582.2 420Z" fill="#27B0C4"/>
<g opacity="0.3">
<path d="M535.46 390.2C536.337 394.234 537.48 398.206 538.88 402.09C539.769 404.554 541.031 406.868 542.62 408.95C544.981 411.662 548.126 413.573 551.62 414.42C555.092 415.262 558.692 415.439 562.23 414.94L544.6 404.94L539.91 388.65L535.46 390.2Z" fill="black"/>
</g>
<path d="M571.31 401.45C571.226 401.005 571.182 400.553 571.18 400.1C571.18 399.16 571.08 397.92 571 396.43C570.87 393.33 570.72 389.04 570.57 384.3C570.42 379.56 570.32 375.3 570.27 372.17C570.27 370.67 570.27 369.43 570.27 368.49C570.234 368.041 570.234 367.589 570.27 367.14C570.348 367.583 570.388 368.031 570.39 368.48C570.44 369.42 570.5 370.66 570.57 372.16C570.7 375.26 570.86 379.55 571 384.29C571.14 389.03 571.25 393.29 571.31 396.42C571.31 397.92 571.31 399.16 571.31 400.1C571.346 400.549 571.346 401.001 571.31 401.45Z" fill="#263238"/>
<path d="M554.06 383.7C553.959 383.758 553.852 383.805 553.74 383.84L552.74 384.2L548.9 385.55L534.84 390.4L534.61 390.48L534.56 390.24C533.61 385.13 532.49 379.15 531.28 372.68C531.09 369.49 530.45 366.16 530.72 362.68C530.834 361.835 531.066 361.01 531.41 360.23C531.712 359.452 532.101 358.711 532.57 358.02C533.504 356.66 534.78 355.57 536.27 354.86C537.668 354.152 539.242 353.865 540.801 354.033C542.359 354.202 543.835 354.819 545.05 355.81C546.06 356.838 546.859 358.054 547.4 359.39C547.931 360.615 548.388 361.871 548.77 363.15C549.51 365.61 550.08 367.94 550.63 370.08L553.18 380.08C553.47 381.23 553.69 382.13 553.85 382.79C553.92 383.07 553.97 383.3 554.02 383.48C554.07 383.66 554.02 383.72 554.02 383.71C553.98 383.631 553.95 383.547 553.93 383.46C553.87 383.267 553.8 383.027 553.72 382.74C553.53 382.08 553.28 381.17 552.95 380.02C552.3 377.63 551.37 374.24 550.23 370.08C549.65 368 549.08 365.68 548.32 363.24C547.933 361.981 547.473 360.745 546.94 359.54C546.424 358.267 545.663 357.109 544.7 356.13C543.554 355.211 542.167 354.642 540.705 354.491C539.244 354.341 537.77 354.614 536.46 355.28C535.049 355.954 533.842 356.989 532.96 358.28C532.514 358.941 532.142 359.648 531.85 360.39C531.527 361.13 531.308 361.91 531.2 362.71C530.94 366.08 531.55 369.41 531.75 372.64C532.93 379.11 534.02 385.09 534.95 390.21L534.67 390.05L548.67 385.44L552.6 384.18L553.6 383.85L554.06 383.7Z" fill="#263238"/>
<path d="M540 388.35C539.87 388.35 539.5 387.62 539.17 386.62C538.84 385.62 538.7 384.77 538.84 384.73C538.98 384.69 539.35 385.46 539.67 386.46C539.99 387.46 540.17 388.31 540 388.35Z" fill="#263238"/>
<path d="M544.62 387.06C544.48 387.06 544.17 386.34 543.94 385.37C543.71 384.4 543.62 383.6 543.76 383.56C543.9 383.52 544.21 384.28 544.44 385.25C544.67 386.22 544.76 387 544.62 387.06Z" fill="#263238"/>
<path d="M549.25 385.4C549.11 385.4 548.8 384.82 548.56 384.02C548.32 383.22 548.24 382.54 548.38 382.49C548.52 382.44 548.82 383.07 549.06 383.87C549.3 384.67 549.38 385.36 549.25 385.4Z" fill="#263238"/>
<path d="M574.29 381.57C574.17 381.64 573.64 380.98 573.29 380.01C572.94 379.04 572.88 378.2 573.01 378.18C573.14 378.16 573.43 378.91 573.78 379.83C574.13 380.75 574.42 381.49 574.29 381.57Z" fill="#263238"/>
<path d="M577.77 379.59C577.64 379.66 577.22 379.08 576.83 378.31C576.44 377.54 576.23 376.86 576.36 376.79C576.49 376.72 576.91 377.3 577.3 378.07C577.69 378.84 577.9 379.53 577.77 379.59Z" fill="#263238"/>
<path d="M547.37 349.79C547.37 349.79 547.45 349.96 547.46 350.24H547.19C547.028 349.455 546.921 348.66 546.87 347.86C546.702 346.917 546.702 345.953 546.87 345.01C547.21 345.907 547.38 346.86 547.37 347.82C547.447 348.618 547.471 349.419 547.44 350.22H547.17C547.26 349.94 547.32 349.78 547.37 349.79Z" fill="#263238"/>
<path d="M551.53 349.79C551.226 349.055 551.08 348.265 551.1 347.47C550.952 346.69 550.982 345.886 551.19 345.12C551.494 345.855 551.64 346.645 551.62 347.44C551.768 348.22 551.738 349.024 551.53 349.79Z" fill="#263238"/>
<path d="M555.89 350.73C555.616 349.824 555.514 348.874 555.59 347.93C555.495 346.988 555.57 346.036 555.81 345.12C556.084 346.026 556.186 346.976 556.11 347.92C556.205 348.862 556.13 349.814 555.89 350.73Z" fill="#263238"/>
<path d="M559.45 350.14C559.197 349.37 559.109 348.556 559.19 347.75C559.109 346.941 559.198 346.123 559.45 345.35C559.714 346.121 559.807 346.94 559.72 347.75C559.807 348.557 559.715 349.373 559.45 350.14Z" fill="#263238"/>
<path d="M582.5 420.54C582.5 420.68 573.81 420.21 563.11 419.48C552.41 418.75 543.75 418.04 543.76 417.9C543.77 417.76 552.45 418.23 563.15 418.96C573.85 419.69 582.51 420.4 582.5 420.54Z" fill="#263238"/>
<path d="M537.53 389.54L541.82 403.54C542.573 406.094 544.015 408.391 545.987 410.179C547.959 411.968 550.385 413.179 553 413.68L579.66 418.75L586.91 418.51L584.45 412.32L559.62 402.5C558.663 402.276 557.785 401.796 557.08 401.111C556.375 400.425 555.87 399.561 555.62 398.61L551.87 384.56L537.53 389.54Z" fill="#FFBE9D"/>
<path d="M561.1 418.93L561.33 417.2L581.81 416.4L591.86 391.05L630.15 393.65L617.23 421.79L561.1 418.93Z" fill="#455A64"/>
<path d="M606.93 407.49C606.718 407.824 606.412 408.088 606.051 408.248C605.689 408.409 605.288 408.458 604.898 408.39C604.509 408.323 604.148 408.141 603.861 407.868C603.575 407.596 603.376 407.244 603.289 406.858C603.202 406.472 603.232 406.069 603.374 405.7C603.517 405.331 603.765 405.013 604.088 404.785C604.412 404.557 604.795 404.43 605.191 404.421C605.586 404.411 605.976 404.518 606.31 404.73C606.532 404.871 606.724 405.053 606.875 405.268C607.027 405.483 607.134 405.725 607.192 405.982C607.249 406.238 607.256 406.503 607.211 406.762C607.166 407.021 607.071 407.268 606.93 407.49Z" fill="white"/>
<path d="M283 236.89C299.69 230.83 291.12 205.66 291.12 205.66L206.42 213.42C204.847 213.412 203.288 213.715 201.832 214.312C200.377 214.908 199.053 215.786 197.938 216.896C196.823 218.005 195.938 219.324 195.335 220.777C194.731 222.229 194.42 223.787 194.42 225.36C194.42 228.527 195.678 231.564 197.917 233.803C200.156 236.042 203.193 237.3 206.36 237.3L283.02 236.89" fill="#263238"/>
<path d="M173.93 306.59L173.76 298.19L189.87 292.46L190.54 304.16L189.63 304.6C185.63 306.51 168.93 314.03 165.82 314.32C162.35 314.63 173.93 306.59 173.93 306.59Z" fill="#27B0C4"/>
<g opacity="0.4">
<path d="M168.36 310.74C168.36 310.74 164.42 313.84 165.28 314.35C166.14 314.86 183.28 307.89 190.54 304.16L190.38 303.83L170.48 312.13C170.48 312.13 169.25 310.42 168.36 310.74Z" fill="white"/>
</g>
<path d="M190.61 303.73L190.36 303.86L189.64 304.21L187 305.43C184.73 306.43 181.58 307.82 178.07 309.25C174.56 310.68 171.34 311.92 169.01 312.77L166.24 313.77L165.48 314.03L165.21 314.1L165.47 313.99L166.21 313.7L168.96 312.64C171.28 311.75 174.48 310.51 177.96 309.07C181.44 307.63 184.63 306.29 186.96 305.31L189.66 304.14L190.39 303.83C190.46 303.789 190.533 303.755 190.61 303.73Z" fill="#263238"/>
<path d="M170.58 312.36C170.282 311.966 169.947 311.601 169.58 311.27C169.153 310.997 168.697 310.772 168.22 310.6C168.75 310.619 169.263 310.797 169.69 311.111C170.118 311.425 170.442 311.86 170.62 312.36H170.58Z" fill="#263238"/>
<path d="M174.09 308.32C174.09 308.32 173.74 308.19 173.38 307.94C173.02 307.69 172.75 307.44 172.79 307.39C172.83 307.34 173.13 307.52 173.49 307.78C173.85 308.04 174.12 308.27 174.09 308.32Z" fill="#263238"/>
<path d="M175 307.18C175 307.23 174.68 307.18 174.33 307.04C173.98 306.9 173.7 306.77 173.72 306.72C173.74 306.67 174.04 306.72 174.39 306.86C174.74 307 175.06 307.13 175 307.18Z" fill="#263238"/>
<path d="M175.23 305.45C175.23 305.5 174.92 305.69 174.49 305.87C174.237 306.008 173.957 306.09 173.67 306.11C173.67 306.06 173.98 305.87 174.41 305.69C174.663 305.552 174.943 305.47 175.23 305.45Z" fill="#263238"/>
<path d="M175.09 304.35C174.898 304.623 174.63 304.835 174.32 304.96C174.037 305.139 173.704 305.223 173.37 305.2C173.644 305.036 173.932 304.896 174.23 304.78C174.503 304.611 174.791 304.467 175.09 304.35Z" fill="#263238"/>
<path d="M173 307.22C172.692 307.406 172.353 307.534 172 307.6C171.634 307.702 171.259 307.766 170.88 307.79C170.654 307.815 170.426 307.815 170.2 307.79C170.055 307.775 169.922 307.703 169.83 307.59C169.791 307.522 169.77 307.444 169.77 307.365C169.77 307.286 169.791 307.208 169.83 307.14C170.126 306.811 170.527 306.595 170.964 306.527C171.401 306.46 171.849 306.546 172.23 306.77C172.457 306.901 172.655 307.079 172.81 307.29C172.91 307.44 172.95 307.53 172.94 307.54C172.723 307.277 172.458 307.056 172.16 306.89C171.852 306.732 171.505 306.663 171.16 306.69C170.948 306.704 170.741 306.76 170.55 306.854C170.359 306.948 170.19 307.08 170.05 307.24C169.94 307.42 170.05 307.57 170.28 307.6C170.493 307.625 170.707 307.625 170.92 307.6C171.29 307.579 171.657 307.533 172.02 307.46C172.66 307.34 173 307.19 173 307.22Z" fill="#263238"/>
<path d="M172.81 307.37C172.614 307.21 172.48 306.988 172.43 306.74C172.364 306.474 172.364 306.196 172.43 305.93C172.448 305.752 172.513 305.582 172.618 305.438C172.724 305.294 172.866 305.181 173.03 305.11C173.137 305.092 173.247 305.117 173.337 305.178C173.426 305.24 173.488 305.334 173.51 305.44C173.545 305.605 173.545 305.775 173.51 305.94C173.466 306.201 173.392 306.456 173.29 306.7C173.212 306.935 173.078 307.148 172.9 307.32C172.9 307.32 173.02 307.07 173.16 306.65C173.245 306.411 173.303 306.162 173.33 305.91C173.38 305.65 173.33 305.25 173.06 305.31C172.79 305.37 172.66 305.72 172.59 305.97C172.535 306.214 172.535 306.466 172.59 306.71C172.644 306.936 172.718 307.157 172.81 307.37Z" fill="#263238"/>
<path d="M188.63 299.75C188.63 299.75 188.19 299.88 187.54 300.24C186.696 300.697 185.999 301.384 185.53 302.221C185.061 303.058 184.839 304.012 184.89 304.97C184.89 305.7 185.07 306.15 185.04 306.16C184.984 306.063 184.94 305.958 184.91 305.85C184.827 305.566 184.773 305.275 184.75 304.98C184.657 303.989 184.869 302.992 185.357 302.124C185.844 301.256 186.585 300.557 187.48 300.12C187.743 299.981 188.022 299.874 188.31 299.8C188.413 299.766 188.521 299.749 188.63 299.75Z" fill="#263238"/>
<path d="M184.54 294.14C185.058 295.112 185.519 296.114 185.92 297.14C186.384 298.147 186.785 299.183 187.12 300.24C186.601 299.268 186.14 298.267 185.74 297.24C185.282 296.23 184.881 295.195 184.54 294.14Z" fill="#263238"/>
<path d="M182.57 305.56C181.917 306.013 181.212 306.386 180.47 306.67C179.746 307.002 178.984 307.24 178.2 307.38C178.2 307.33 179.2 306.99 180.39 306.48C181.58 305.97 182.54 305.51 182.57 305.56Z" fill="#263238"/>
<path d="M185.51 304.36C185.56 304.36 185.51 304.6 185.51 304.86C185.51 305.12 185.51 305.35 185.51 305.37C185.51 305.39 185.33 305.16 185.34 304.85C185.35 304.54 185.46 304.33 185.51 304.36Z" fill="#263238"/>
<path d="M186.05 302.53C186.05 302.53 186.05 302.74 185.98 302.96C185.91 303.18 185.77 303.35 185.72 303.33C185.67 303.31 185.72 303.11 185.8 302.89C185.88 302.67 186 302.51 186.05 302.53Z" fill="#263238"/>
<path d="M187.38 301.25C187.38 301.31 187.19 301.39 187 301.55C186.81 301.71 186.7 301.9 186.65 301.88C186.6 301.86 186.65 301.61 186.87 301.41C187.09 301.21 187.38 301.2 187.38 301.25Z" fill="#263238"/>
<path d="M188.39 300.5C188.39 300.5 188.39 300.65 188.26 300.75C188.13 300.85 188.04 300.89 188.01 300.85C187.98 300.81 188.01 300.7 188.13 300.6C188.25 300.5 188.35 300.46 188.39 300.5Z" fill="#263238"/>
<path d="M238.59 212.28L191.29 213.17C187.632 213.237 184.122 214.622 181.404 217.072C178.687 219.521 176.945 222.869 176.5 226.5L167.12 302.73H192.81L200.65 236.89H238L238.59 212.28Z" fill="#263238"/>
<path d="M167.44 297.88C167.44 298 173.07 298.14 180.01 298.18C186.95 298.22 192.46 298.05 192.58 298.04C193.38 297.96 186.95 297.78 180.01 297.74C173.07 297.7 167.44 297.76 167.44 297.88Z" fill="#455A64"/>
<path d="M264.61 209.88H263.68L261 210L251.22 210.46L219 212.12C217.42 212.19 215.87 212.32 214.34 212.34C212.81 212.36 211.28 212.43 209.79 212.51C208.3 212.59 206.85 212.7 205.42 212.85C204.004 212.935 202.605 213.207 201.26 213.66C199.981 214.117 198.807 214.828 197.81 215.75C196.881 216.644 196.164 217.733 195.71 218.94C195.294 220.05 195.009 221.204 194.86 222.38C194.702 223.459 194.625 224.549 194.63 225.64C194.599 227.524 194.974 229.394 195.73 231.12C196.31 232.424 197.195 233.569 198.31 234.46C199.008 235.023 199.805 235.45 200.66 235.72C201.25 235.89 201.26 235.84 200.66 235.64C199.829 235.34 199.058 234.897 198.38 234.33C197.312 233.436 196.467 232.306 195.91 231.03C195.2 229.324 194.859 227.487 194.91 225.64C194.917 224.565 195.001 223.493 195.16 222.43C195.32 221.281 195.609 220.154 196.02 219.07C196.46 217.936 197.143 216.912 198.02 216.07C198.989 215.187 200.124 214.507 201.36 214.07C202.676 213.645 204.04 213.387 205.42 213.3C206.84 213.16 208.3 213.06 209.78 212.98C211.26 212.9 212.78 212.84 214.3 212.82C215.82 212.8 217.39 212.67 218.97 212.6L251.22 210.8L261 210.2L263.65 210.02L264.34 209.96C264.434 209.951 264.526 209.923 264.61 209.88Z" fill="#455A64"/>
<path d="M249.54 178.26L245.43 191.14C244.643 193.761 243.149 196.114 241.111 197.94C239.073 199.766 236.571 200.995 233.88 201.49L210 208.11L208.14 203.69L206.4 197.16L227.06 190.16C228.056 189.943 228.973 189.454 229.709 188.748C230.445 188.042 230.971 187.146 231.23 186.16L239.46 168.26L249.88 174.65L249.54 178.26Z" fill="#B78876"/>
<path d="M259.56 138C250.81 139 247.99 142.58 244.42 147.75C242.937 149.892 241.746 152.223 240.88 154.68L234.25 173.46L248.08 177.73L247.62 193L241.32 211.67L294.45 215.85L294.3 188.72L293.92 172.35C294.42 166.15 295.71 153.01 294.61 149.89C289.88 136.56 279.45 139.12 271.8 137.22C268.296 136.86 264.764 136.86 261.26 137.22" fill="#27B0C4"/>
<path d="M294.45 187C294.45 187.14 284.06 187.26 271.24 187.26C258.42 187.26 248 187.17 248 187C248 186.83 258.39 186.74 271.21 186.74C284.03 186.74 294.45 186.88 294.45 187Z" fill="#FAFAFA"/>
<path d="M293.67 196.3C293.67 196.45 283.28 196.56 270.46 196.56C257.64 196.56 247.25 196.45 247.25 196.3C247.25 196.15 257.64 196.04 270.46 196.04C283.28 196.04 293.67 196.16 293.67 196.3Z" fill="#FAFAFA"/>
<path d="M293.92 206.94C293.92 207.09 282.92 207.2 269.38 207.2C255.84 207.2 244.83 207.09 244.83 206.94C244.83 206.79 255.83 206.68 269.38 206.68C282.93 206.68 293.92 206.8 293.92 206.94Z" fill="#FAFAFA"/>
<g opacity="0.3">
<path d="M287.47 181.1C286.78 184.69 286.47 188.57 285.25 192.02C284.443 194.597 283.246 197.035 281.7 199.25C279.391 202.131 276.248 204.227 272.7 205.25C269.19 206.34 252.32 210.11 248.7 209.83L279.56 195.22L283.28 179.86L287.47 181.1Z" fill="black"/>
</g>
<path d="M285.67 180.56L282.28 193.62C281.619 196.296 280.234 198.739 278.276 200.68C276.317 202.62 273.862 203.983 271.18 204.62L243.94 211L236.45 211.08V200.77L263.87 193.36C264.855 193.095 265.749 192.566 266.454 191.829C267.159 191.092 267.649 190.176 267.87 189.18L270.51 177.69L285.67 180.56Z" fill="#B78876"/>
<path d="M294.72 149.13C294.72 149.27 283.27 149.39 269.14 149.39C255.01 149.39 243.56 149.27 243.56 149.13C243.56 148.99 255.01 148.87 269.14 148.87C283.27 148.87 294.72 149 294.72 149.13Z" fill="#FAFAFA"/>
<path d="M295 158C295 158.15 282.66 158.26 267.43 158.26C252.2 158.26 239.86 158.15 239.86 158C239.86 157.85 252.2 157.74 267.43 157.74C282.66 157.74 295 157.84 295 158Z" fill="#FAFAFA"/>
<path d="M294.33 167.55C294.33 167.7 281.33 167.92 265.33 168.04C249.33 168.16 236.33 168.15 236.33 168.04C236.33 167.93 249.33 167.68 265.33 167.55C281.33 167.42 294.32 167.41 294.33 167.55Z" fill="#FAFAFA"/>
<path d="M293.92 177.69C293.92 177.83 283.53 177.95 270.71 177.95C257.89 177.95 247.5 177.83 247.5 177.69C247.5 177.55 257.89 177.43 270.71 177.43C283.53 177.43 293.92 177.55 293.92 177.69Z" fill="#FAFAFA"/>
<path d="M290.34 181.65C290.325 181.578 290.325 181.503 290.34 181.43L290.43 180.8C290.52 180.21 290.65 179.4 290.8 178.38C291.13 176.26 291.61 173.19 292.14 169.38C292.67 165.57 293.28 160.91 293.59 155.69C293.69 153.1 293.91 150.24 292.59 147.69C291.938 146.409 290.971 145.315 289.78 144.51C288.545 143.681 287.141 143.138 285.67 142.92H285.61C283.927 142.519 282.162 142.641 280.55 143.27C278.846 143.819 277.259 144.68 275.87 145.81C275.591 146.043 275.348 146.316 275.15 146.62C274.955 146.943 274.778 147.277 274.62 147.62C274.313 148.301 274.056 149.002 273.85 149.72C273.465 151.152 273.158 152.604 272.93 154.07C272.41 156.96 271.93 159.78 271.42 162.49C270.42 167.91 269.55 172.91 268.75 177.34L268.6 177.11L284 180.34L288.23 181.28L289.34 181.54C289.467 181.564 289.591 181.601 289.71 181.65L289.32 181.6L288.21 181.4L283.95 180.57L268.51 177.45H268.33V177.25C269.11 172.82 269.98 167.81 270.93 162.38C271.41 159.67 271.93 156.85 272.42 153.95C272.646 152.47 272.956 151.004 273.35 149.56C273.555 148.814 273.819 148.085 274.14 147.38C274.31 147.038 274.497 146.704 274.7 146.38C274.926 146.038 275.199 145.728 275.51 145.46C276.955 144.282 278.606 143.383 280.38 142.81C282.098 142.153 283.975 142.038 285.76 142.48H285.71C287.265 142.71 288.749 143.288 290.05 144.17C291.32 145.02 292.352 146.18 293.05 147.54C293.38 148.195 293.641 148.882 293.83 149.59C293.992 150.284 294.096 150.989 294.14 151.7L294.2 152.7C294.2 153.04 294.2 153.38 294.2 153.7C294.2 154.38 294.15 155.04 294.11 155.7C293.77 160.95 293.11 165.57 292.55 169.42C291.99 173.27 291.44 176.33 291.06 178.42C290.87 179.42 290.71 180.24 290.6 180.83L290.47 181.45C290.433 181.521 290.39 181.588 290.34 181.65Z" fill="#263238"/>
<path d="M247.93 192.79C247.989 192.329 248.012 191.864 248 191.4C248 190.4 248 189.15 248 187.6C248 184.4 248 179.98 247.91 175.09C247.82 170.2 247.78 165.78 247.7 162.58C247.65 161.03 247.61 159.76 247.58 158.78C247.582 158.315 247.548 157.85 247.48 157.39C247.415 157.85 247.391 158.316 247.41 158.78C247.41 159.78 247.41 161.03 247.41 162.58C247.41 165.78 247.41 170.21 247.5 175.09C247.59 179.97 247.64 184.41 247.72 187.61C247.72 189.15 247.81 190.43 247.84 191.4C247.828 191.865 247.858 192.33 247.93 192.79Z" fill="#263238"/>
<path d="M264.61 213.28L265.08 211.05L244.45 208.85L235.45 183L193.43 182.71L207.2 212.69L264.61 213.28Z" fill="#455A64"/>
<path d="M220.36 199.24C220.705 199.02 220.978 198.703 221.143 198.329C221.308 197.955 221.359 197.54 221.288 197.137C221.218 196.734 221.029 196.36 220.747 196.064C220.465 195.768 220.101 195.563 219.701 195.473C219.302 195.384 218.885 195.415 218.503 195.562C218.122 195.71 217.792 195.967 217.557 196.302C217.321 196.636 217.19 197.033 217.18 197.442C217.17 197.851 217.281 198.254 217.5 198.6C217.646 198.83 217.835 199.029 218.058 199.186C218.28 199.343 218.532 199.454 218.797 199.513C219.063 199.573 219.338 199.579 219.606 199.532C219.874 199.485 220.13 199.386 220.36 199.24Z" fill="white"/>
<path d="M249 95.41C247.867 95.588 246.817 96.1105 245.992 96.9065C245.167 97.7024 244.607 98.7333 244.388 99.8587C244.17 100.984 244.303 102.15 244.771 103.197C245.238 104.244 246.016 105.121 247 105.71C247.406 105.99 247.875 106.166 248.365 106.222C248.855 106.278 249.351 106.212 249.81 106.03C250.197 105.783 250.531 105.461 250.792 105.083C251.053 104.705 251.236 104.279 251.33 103.83C252.199 100.985 251.96 97.916 250.66 95.24" fill="#263238"/>
<path d="M266.29 146.45C265.102 146.45 263.926 146.215 262.83 145.758C261.733 145.302 260.738 144.632 259.901 143.789C259.065 142.946 258.403 141.946 257.955 140.846C257.507 139.746 257.281 138.568 257.29 137.38C257.29 134.27 257.37 131.57 257.37 131.57C257.37 131.57 250.17 130.9 249.64 123.77C249.11 116.64 249.34 100.18 249.34 100.18C253.29 98.1909 257.699 97.2906 262.112 97.5718C266.526 97.8531 270.784 99.3056 274.45 101.78L275.55 102.53L275.21 137.53C275.189 139.889 274.243 142.146 272.574 143.814C270.906 145.483 268.649 146.429 266.29 146.45Z" fill="#B78876"/>
<path d="M257.39 131.47C260.689 131.33 263.872 130.209 266.53 128.25C266.53 128.25 264.65 133.52 257.53 133.32L257.39 131.47Z" fill="#AA6550"/>
<path d="M273.75 110.41C273.89 110.41 278.27 109.79 277.85 114.97C277.43 120.15 272.35 117.97 272.35 117.86C272.35 117.75 273.75 110.41 273.75 110.41Z" fill="#B78876"/>
<path d="M274.08 116.17C274.08 116.17 274.17 116.24 274.32 116.33C274.527 116.437 274.767 116.458 274.99 116.39C275.341 116.207 275.636 115.933 275.845 115.597C276.054 115.261 276.17 114.876 276.18 114.48C276.229 114.034 276.178 113.583 276.03 113.16C275.998 112.994 275.924 112.84 275.815 112.71C275.707 112.581 275.567 112.481 275.41 112.42C275.31 112.382 275.199 112.382 275.098 112.418C274.997 112.455 274.913 112.527 274.86 112.62C274.78 112.76 274.8 112.87 274.77 112.88C274.74 112.89 274.67 112.78 274.77 112.57C274.81 112.444 274.891 112.335 275 112.26C275.075 112.212 275.158 112.179 275.246 112.164C275.334 112.148 275.423 112.15 275.51 112.17C275.718 112.229 275.908 112.342 276.06 112.496C276.213 112.65 276.323 112.841 276.38 113.05C276.57 113.512 276.639 114.014 276.58 114.51C276.569 114.972 276.421 115.421 276.156 115.8C275.891 116.179 275.52 116.471 275.09 116.64C274.947 116.668 274.8 116.665 274.658 116.631C274.516 116.596 274.384 116.531 274.27 116.44C274.08 116.3 274.06 116.18 274.08 116.17Z" fill="#AA6550"/>
<path d="M254.3 103.13C255.5 102.437 256.626 101.622 257.66 100.7C258.093 101.383 258.673 101.961 259.358 102.393C260.042 102.824 260.814 103.097 261.617 103.193C262.421 103.289 263.235 103.204 264.002 102.946C264.769 102.688 265.468 102.262 266.05 101.7C266.08 102.162 266.225 102.61 266.471 103.003C266.717 103.395 267.057 103.721 267.46 103.95C267.867 104.171 268.322 104.287 268.785 104.287C269.248 104.287 269.703 104.171 270.11 103.95L270.22 112.2C270.147 112.996 270.329 113.794 270.74 114.48C270.85 114.636 270.993 114.767 271.159 114.862C271.325 114.957 271.51 115.015 271.7 115.031C271.891 115.048 272.083 115.022 272.262 114.956C272.442 114.89 272.605 114.786 272.74 114.65C272.563 113.643 272.66 112.607 273.02 111.65C273.218 111.184 273.585 110.811 274.047 110.605C274.509 110.399 275.032 110.376 275.51 110.54C275.801 108.931 275.898 107.292 275.8 105.66C275.779 105.155 275.847 104.651 276 104.17C276.28 103.71 276.41 104.06 276.94 103.95C277.696 103.76 278.372 103.335 278.871 102.737C279.37 102.138 279.668 101.397 279.72 100.62C279.75 99.8389 279.582 99.0629 279.232 98.3638C278.883 97.6646 278.363 97.0649 277.72 96.62C276.427 95.7352 274.854 95.3578 273.3 95.56C273.764 95.044 274.022 94.3743 274.022 93.68C274.022 92.9857 273.764 92.316 273.3 91.8C272.818 91.3008 272.23 90.9173 271.578 90.6782C270.927 90.4392 270.23 90.3509 269.54 90.42C268.15 90.51 266.59 91.28 266.42 92.65C266.248 91.3012 265.599 90.0584 264.591 89.1458C263.583 88.2333 262.282 87.7112 260.923 87.6738C259.563 87.6364 258.236 88.0861 257.179 88.9418C256.122 89.7974 255.406 91.0027 255.16 92.34C253.5 91.6 251.16 90.79 249.52 91.54C248.555 91.923 247.72 92.5734 247.112 93.4149C246.505 94.2563 246.15 95.2538 246.09 96.29C246.09 96.29 245.67 101.95 249.26 103.09C252.85 104.23 254.3 103.13 254.3 103.13Z" fill="#263238"/>
<path d="M251.26 111.6C251.26 111.865 251.365 112.12 251.553 112.307C251.74 112.495 251.995 112.6 252.26 112.6C252.509 112.601 252.749 112.51 252.934 112.343C253.119 112.177 253.235 111.947 253.26 111.7C253.26 111.435 253.155 111.18 252.967 110.993C252.78 110.805 252.525 110.7 252.26 110.7C252.011 110.699 251.771 110.79 251.586 110.957C251.401 111.123 251.285 111.352 251.26 111.6Z" fill="#263238"/>
<path d="M251 110.47C251.12 110.6 251.88 110.04 253 110.05C254.12 110.06 254.86 110.59 255 110.46C255.14 110.33 254.93 110.16 254.59 109.91C254.122 109.588 253.568 109.417 253 109.42C252.439 109.421 251.893 109.599 251.44 109.93C251.09 110.18 251 110.42 251 110.47Z" fill="#263238"/>
<path d="M261.8 111.85C261.8 112.115 261.905 112.37 262.093 112.557C262.28 112.745 262.535 112.85 262.8 112.85C263.049 112.851 263.289 112.76 263.474 112.593C263.659 112.427 263.775 112.197 263.8 111.95C263.8 111.685 263.695 111.43 263.507 111.243C263.32 111.055 263.065 110.95 262.8 110.95C262.551 110.949 262.311 111.04 262.126 111.207C261.941 111.373 261.825 111.602 261.8 111.85Z" fill="#263238"/>
<path d="M261.62 110.67C261.74 110.81 262.5 110.24 263.62 110.25C264.74 110.26 265.48 110.79 265.62 110.66C265.76 110.53 265.55 110.36 265.21 110.11C264.742 109.788 264.188 109.617 263.62 109.62C263.059 109.621 262.513 109.799 262.06 110.13C261.67 110.38 261.56 110.62 261.62 110.67Z" fill="#263238"/>
<path d="M257.71 118.66C257.146 118.48 256.561 118.373 255.97 118.34C255.69 118.34 255.43 118.26 255.38 118.07C255.359 117.787 255.425 117.504 255.57 117.26L256.38 115.16C257.134 113.388 257.746 111.559 258.21 109.69C257.311 111.396 256.552 113.172 255.94 115C255.67 115.74 255.41 116.44 255.17 117.11C254.992 117.44 254.938 117.824 255.02 118.19C255.062 118.285 255.124 118.37 255.202 118.438C255.279 118.507 255.371 118.559 255.47 118.59C255.623 118.632 255.781 118.652 255.94 118.65C256.527 118.726 257.122 118.729 257.71 118.66Z" fill="#263238"/>
<path d="M260.88 119.4C260.71 119.4 260.7 120.56 259.7 121.4C258.7 122.24 257.46 122.1 257.45 122.26C257.44 122.42 257.73 122.49 258.25 122.5C258.934 122.515 259.601 122.285 260.13 121.85C260.64 121.433 260.97 120.834 261.05 120.18C261.09 119.68 261 119.39 260.88 119.4Z" fill="#263238"/>
<path d="M261.34 106.46C261.45 106.75 262.52 106.61 263.78 106.76C265.04 106.91 266.07 107.26 266.24 107C266.41 106.74 266.13 106.6 265.72 106.31C265.172 105.958 264.548 105.742 263.9 105.68C263.255 105.597 262.599 105.672 261.99 105.9C261.53 106.09 261.3 106.32 261.34 106.46Z" fill="#263238"/>
<path d="M251.44 107.36C251.63 107.6 252.37 107.36 253.26 107.36C254.15 107.36 254.9 107.52 255.08 107.27C255.26 107.02 255.08 106.9 254.71 106.67C254.266 106.393 253.75 106.254 253.226 106.27C252.703 106.286 252.196 106.456 251.77 106.76C251.46 107 251.35 107.24 251.44 107.36Z" fill="#263238"/>
<path d="M253.48 95.07C253.48 95.07 253.38 95.07 253.2 94.99C253.07 94.9668 252.937 94.9718 252.809 95.0046C252.682 95.0373 252.563 95.0972 252.46 95.18C252.303 95.3058 252.187 95.4762 252.128 95.669C252.069 95.8617 252.07 96.0677 252.13 96.26C252.204 96.5251 252.34 96.7691 252.526 96.9723C252.712 97.1755 252.943 97.3323 253.2 97.43C253.51 97.5505 253.842 97.6021 254.173 97.5814C254.505 97.5607 254.828 97.4681 255.12 97.31C255.447 97.1166 255.723 96.8477 255.925 96.5259C256.126 96.204 256.248 95.8386 256.28 95.46C256.321 95.0389 256.26 94.6142 256.103 94.2211C255.947 93.828 255.699 93.478 255.38 93.2C255.044 92.8908 254.644 92.6583 254.209 92.5184C253.774 92.3786 253.314 92.3348 252.86 92.39C251.928 92.5048 251.063 92.9354 250.41 93.61C249.809 94.2459 249.403 95.0406 249.24 95.9C248.941 97.3905 249.201 98.9388 249.97 100.25C250.467 101.143 251.149 101.92 251.97 102.53C252.56 102.95 252.97 103.13 252.97 103.17C252.591 103.078 252.232 102.919 251.91 102.7C250.992 102.135 250.221 101.361 249.66 100.44C248.796 99.0618 248.482 97.4091 248.78 95.81C248.948 94.8502 249.393 93.9604 250.06 93.25C250.788 92.4849 251.761 91.9999 252.81 91.88C253.337 91.8153 253.872 91.8658 254.378 92.0281C254.884 92.1904 255.349 92.4606 255.74 92.82C256.108 93.1566 256.391 93.5763 256.565 94.0441C256.739 94.5119 256.799 95.0144 256.74 95.51C256.695 95.9619 256.542 96.3962 256.293 96.7759C256.044 97.1555 255.707 97.4692 255.31 97.69C254.959 97.8696 254.573 97.9699 254.179 97.9837C253.785 97.9975 253.393 97.9246 253.03 97.77C252.728 97.6463 252.46 97.4503 252.251 97.1993C252.042 96.9483 251.897 96.6498 251.83 96.33C251.768 96.0853 251.782 95.8273 251.872 95.5911C251.961 95.355 252.121 95.1521 252.33 95.01C252.457 94.9219 252.602 94.8643 252.755 94.8418C252.907 94.8192 253.063 94.8323 253.21 94.88C253.43 95 253.49 95.06 253.48 95.07Z" fill="#455A64"/>
<path d="M86.05 426C86.72 423.34 84.97 420.69 83.05 418.77C81.13 416.85 78.75 415.14 77.72 412.6C76.05 408.48 78.23 403.12 75.4 399.7C73.74 397.7 70.77 397.02 69.3 394.86C68.5952 393.673 68.1203 392.363 67.9 391C66.2879 384.151 62.8692 377.859 58 372.78C57.7274 378.9 59.1092 384.979 62 390.38C63.15 392.54 64.56 394.64 64.95 397.06C65.59 400.98 63.42 405.06 64.4 408.88C65.53 413.28 70.5 416.2 70.76 420.74C70.98 424.57 67.65 427.96 67.93 431.79C68.1371 433.419 68.7302 434.976 69.66 436.33C72.66 441.24 77.03 444.61 83.66 444.46L91.75 444.7L86.05 426Z" fill="#27B0C4"/>
<g opacity="0.3">
<path d="M86.05 426C86.72 423.34 84.97 420.69 83.05 418.77C81.13 416.85 78.75 415.14 77.72 412.6C76.05 408.48 78.23 403.12 75.4 399.7C73.74 397.7 70.77 397.02 69.3 394.86C68.5952 393.673 68.1203 392.363 67.9 391C66.2879 384.151 62.8692 377.859 58 372.78C57.7274 378.9 59.1092 384.979 62 390.38C63.15 392.54 64.56 394.64 64.95 397.06C65.59 400.98 63.42 405.06 64.4 408.88C65.53 413.28 70.5 416.2 70.76 420.74C70.98 424.57 67.65 427.96 67.93 431.79C68.1371 433.419 68.7302 434.976 69.66 436.33C72.66 441.24 77.03 444.61 83.66 444.46L91.75 444.7L86.05 426Z" fill="black"/>
</g>
<path d="M93.32 444.9C94.0577 445.012 94.8095 444.992 95.54 444.84C96.4373 444.703 97.3185 444.475 98.17 444.16C99.3392 443.748 100.431 443.143 101.4 442.37C101.981 441.889 102.438 441.275 102.73 440.58C102.969 439.796 103.09 438.98 103.09 438.16C103.102 437.287 103.162 436.416 103.27 435.55C103.427 434.622 103.767 433.735 104.27 432.94C105.21 431.26 106.79 429.66 107.27 427.39C107.75 425.12 107.4 422.73 107.01 420.3C106.62 417.87 106.24 415.23 107.15 412.7C108.06 410.17 109.77 407.87 110.64 405.02C111.51 402.17 111.07 399.02 111.24 396.02C111.283 394.473 111.623 392.949 112.24 391.53C112.89 390.09 113.79 388.74 114.49 387.23C115.91 384.17 116.14 380.72 116.49 377.33C116.67 375.63 116.86 373.9 117.04 372.16C117.154 370.408 117.446 368.673 117.91 366.98C118.447 365.277 119.085 363.607 119.82 361.98C120.198 361.133 120.506 360.257 120.74 359.36C120.872 358.438 120.955 357.51 120.99 356.58C121.067 354.71 120.983 352.836 120.74 350.98C120.51 349.11 120.16 347.27 119.95 345.4V345.07V344.7L119.62 344.87C117.911 345.754 116.429 347.02 115.29 348.57C114.175 350.082 113.283 351.745 112.64 353.51C111.31 357 110.84 360.64 110.18 364.12C109.695 367.558 108.586 370.879 106.91 373.92C106.04 375.36 104.97 376.68 104.04 378.09C103.039 379.462 102.356 381.041 102.04 382.71C101.58 386.14 103.48 389.13 103.11 392.16C102.934 393.651 102.44 395.087 101.66 396.37C100.93 397.66 100.07 398.87 99.26 400.08C98.4309 401.258 97.7112 402.51 97.11 403.82C96.5402 405.104 96.2017 406.478 96.11 407.88C95.93 410.61 96.33 413.19 96.11 415.64C95.8843 417.966 95.2048 420.225 94.11 422.29C93.11 424.29 92.11 426.09 91.11 427.84C90.66 428.72 90.24 429.57 89.9 430.43C89.5799 431.256 89.3486 432.115 89.21 432.99C88.9858 434.518 88.9858 436.071 89.21 437.6C89.4354 439.739 90.2488 441.775 91.56 443.48C91.7597 443.732 91.9805 443.966 92.22 444.18C92.3823 444.346 92.5598 444.497 92.75 444.63C93.05 444.85 93.22 444.95 93.22 444.95C92.6381 444.496 92.1082 443.98 91.64 443.41C90.3806 441.705 89.6097 439.69 89.41 437.58C89.2185 436.067 89.2454 434.535 89.49 433.03C89.6358 432.175 89.8704 431.337 90.19 430.53C90.5514 429.659 90.9587 428.808 91.41 427.98C92.32 426.24 93.41 424.44 94.41 422.44C95.5165 420.334 96.1962 418.03 96.41 415.66C96.61 413.17 96.22 410.57 96.41 407.91C96.5112 406.552 96.8497 405.221 97.41 403.98C98.0122 402.7 98.7249 401.476 99.54 400.32C100.35 399.12 101.22 397.91 101.96 396.58C102.776 395.25 103.295 393.759 103.48 392.21C103.85 388.98 101.97 385.96 102.43 382.78C102.737 381.183 103.393 379.674 104.35 378.36C105.26 376.98 106.35 375.66 107.24 374.17C108.951 371.067 110.083 367.678 110.58 364.17C111.25 360.67 111.72 357.07 113.02 353.66C113.647 351.939 114.516 350.316 115.6 348.84C116.691 347.355 118.111 346.143 119.75 345.3L119.38 345.09V345.42C119.59 347.31 119.94 349.16 120.17 351C120.404 352.827 120.484 354.67 120.41 356.51C120.36 357.42 120.31 358.36 120.18 359.21C119.952 360.077 119.651 360.923 119.28 361.74C118.543 363.392 117.902 365.084 117.36 366.81C116.888 368.529 116.593 370.291 116.48 372.07C116.3 373.82 116.12 375.54 115.94 377.25C115.57 380.65 115.34 384.05 113.94 387C113.27 388.46 112.37 389.82 111.7 391.3C111.072 392.778 110.732 394.364 110.7 395.97C110.54 399.09 110.96 402.14 110.13 404.91C109.3 407.68 107.56 409.97 106.68 412.58C105.8 415.19 106.15 417.95 106.55 420.37C106.95 422.79 107.36 425.17 106.85 427.32C106.34 429.47 104.85 431.08 103.91 432.8C103.406 433.631 103.067 434.551 102.91 435.51C102.808 436.39 102.758 437.274 102.76 438.16C102.764 438.959 102.65 439.754 102.42 440.52C102.154 441.181 101.728 441.765 101.18 442.22C100.26 442.976 99.2229 443.577 98.11 444C97.2714 444.321 96.4041 444.562 95.52 444.72C94.9785 444.817 94.4301 444.871 93.88 444.88L93.32 444.9Z" fill="#263238"/>
<path d="M118.33 349.49C118.29 349.565 118.263 349.646 118.25 349.73C118.25 349.93 118.15 350.17 118.07 350.46C117.92 351.1 117.73 352.06 117.44 353.26C117.15 354.46 116.44 355.82 115.78 357.5C115.12 359.18 114.49 361.08 113.89 363.24C113.29 365.4 112.75 367.8 112.2 370.37C111.723 373.113 110.865 375.775 109.65 378.28C109 379.6 108.26 380.94 107.65 382.39C107.076 383.886 106.693 385.448 106.51 387.04C106.122 390.331 105.557 393.599 104.82 396.83C103.24 403.47 101.73 409.83 100.35 415.55C98.97 421.27 97.68 426.45 96.61 430.81C95.54 435.17 94.72 438.63 94.13 441.11C93.85 442.29 93.63 443.23 93.48 443.91C93.41 444.21 93.36 444.45 93.32 444.65C93.3067 444.733 93.3067 444.817 93.32 444.9L93.4 444.66C93.46 444.467 93.53 444.227 93.61 443.94L94.35 441.16C94.99 438.69 95.89 435.16 96.99 430.9L100.85 415.66C102.23 409.9 103.76 403.58 105.36 396.94C106.098 393.696 106.659 390.415 107.04 387.11C107.215 385.56 107.584 384.038 108.14 382.58C108.7 381.16 109.43 379.83 110.08 378.5C111.297 375.966 112.152 373.273 112.62 370.5C113.16 367.93 113.62 365.5 114.25 363.38C114.88 361.26 115.44 359.3 116.05 357.64C116.66 355.98 117.34 354.64 117.63 353.36C117.92 352.08 118.05 351.17 118.18 350.52C118.18 350.22 118.27 349.98 118.3 349.78C118.319 349.685 118.329 349.587 118.33 349.49Z" fill="#263238"/>
<path d="M94.74 444.92C100.01 441.75 101.47 432.21 99.23 426.49C96.99 420.77 93.11 415.54 92.48 409.43C92 404.73 93.48 399.9 92.39 395.31C90.88 389.12 84.79 384.31 84.83 377.97C84.83 374.4 86.83 370.97 86.68 367.45C86.46 363.06 83.07 359.61 80.97 355.76C77.74 349.87 77.49 342.88 76.37 336.26C75.25 329.64 72.67 322.56 66.78 319.33C66 325 64.49 328.83 65 336.45C65.18 339.18 68.39 344.4 68.85 350.4C69.13 353.98 69.33 357.57 69.57 361.16C69.81 364.75 70.05 368.16 71.32 371.46C72.32 373.96 73.85 376.22 74.58 378.8C75.94 383.66 74.21 388.93 75.32 393.85C76.26 398.02 79.17 401.6 79.79 405.85C80.65 411.79 76.79 417.99 78.79 423.65C79.79 426.45 82.11 428.7 82.79 431.6C83.31 433.86 82.79 436.25 83.25 438.51C84.01 442.15 90.99 444.95 94.7 444.7" fill="#27B0C4"/>
<path d="M68.27 324.91C68.2589 325.016 68.2589 325.124 68.27 325.23C68.27 325.46 68.35 325.77 68.4 326.15C68.52 326.96 68.67 328.15 68.95 329.7C69.23 331.25 70.06 332.99 70.71 335.09C71.36 337.19 72.08 339.6 72.71 342.31C73.34 345.02 73.85 348.02 74.4 351.24C74.8445 354.717 75.777 358.113 77.17 361.33C77.92 363.02 78.76 364.7 79.39 366.5C80.0113 368.344 80.3977 370.259 80.54 372.2C80.8566 376.326 81.3974 380.432 82.16 384.5C83.82 392.82 85.41 400.75 86.85 407.97L90.85 427.09C92.05 432.5 93 436.9 93.66 440C93.99 441.49 94.25 442.66 94.44 443.5C94.5333 443.867 94.6033 444.167 94.65 444.4C94.6671 444.507 94.6973 444.611 94.74 444.71C94.7555 444.604 94.7555 444.496 94.74 444.39C94.74 444.16 94.65 443.86 94.58 443.48C94.42 442.64 94.19 441.48 93.9 439.96C93.27 436.88 92.39 432.47 91.29 427.05C90.19 421.63 88.84 415.1 87.36 407.9L82.71 384.44C81.9248 380.376 81.3541 376.274 81 372.15C80.8534 370.168 80.4569 368.212 79.82 366.33C79.16 364.5 78.31 362.81 77.56 361.14C76.1745 357.951 75.2389 354.586 74.78 351.14C74.22 347.92 73.67 344.91 73.03 342.2C72.4764 339.767 71.7988 337.364 71 335C70.32 332.89 69.48 331.16 69.16 329.65C68.84 328.14 68.67 326.94 68.51 326.14C68.44 325.76 68.38 325.45 68.34 325.22C68.3255 325.115 68.3021 325.011 68.27 324.91Z" fill="#263238"/>
<path d="M662.9 418.38C661.68 420.12 659.31 419.54 658.21 418.48C657.202 417.319 656.513 415.917 656.21 414.41C655.21 411.05 654.27 407.53 654.99 404.12C655.161 403.084 655.615 402.115 656.3 401.32C656.649 400.93 657.093 400.638 657.59 400.474C658.086 400.309 658.617 400.276 659.13 400.38C659.704 400.611 660.222 400.961 660.649 401.408C661.077 401.854 661.404 402.387 661.61 402.97C663.186 406.258 664.012 409.854 664.03 413.5C664.149 415.206 663.748 416.907 662.88 418.38" fill="#27B0C4"/>
<g opacity="0.2">
<path d="M662.9 418.38C661.68 420.12 659.31 419.54 658.21 418.48C657.202 417.319 656.513 415.917 656.21 414.41C655.21 411.05 654.27 407.53 654.99 404.12C655.161 403.084 655.615 402.115 656.3 401.32C656.649 400.93 657.093 400.638 657.59 400.474C658.086 400.309 658.617 400.276 659.13 400.38C659.704 400.611 660.222 400.961 660.649 401.408C661.077 401.854 661.404 402.387 661.61 402.97C663.186 406.258 664.012 409.854 664.03 413.5C664.149 415.206 663.748 416.907 662.88 418.38" fill="black"/>
</g>
<path d="M658.33 427.19C656.288 426.23 653.992 425.953 651.78 426.4C650.569 426.504 649.428 427.011 648.54 427.84C648.123 428.274 647.889 428.853 647.889 429.455C647.889 430.057 648.123 430.636 648.54 431.07C649.126 431.47 649.833 431.654 650.54 431.59C652.27 431.59 654.2 431.27 655.54 432.31C656.33 432.9 656.85 433.89 657.8 434.18C658.271 434.29 658.766 434.243 659.208 434.047C659.65 433.85 660.016 433.514 660.25 433.09C660.702 432.224 660.802 431.218 660.53 430.28C660.423 429.631 660.169 429.015 659.788 428.48C659.407 427.944 658.908 427.503 658.33 427.19Z" fill="#27B0C4"/>
<path d="M666.25 420.87C665.62 420.055 665.2 419.099 665.026 418.084C664.852 417.07 664.928 416.028 665.25 415.05C665.918 413.098 667.112 411.368 668.7 410.05C670.507 408.443 672.609 407.203 674.89 406.4C675.772 406.046 676.72 405.886 677.67 405.93C678.144 405.957 678.604 406.1 679.01 406.346C679.416 406.591 679.756 406.933 680 407.34C680.65 408.58 680 410.09 679.35 411.34C678.161 413.507 676.804 415.576 675.29 417.53C674.177 419.184 672.635 420.504 670.83 421.35C668.97 422.06 667.04 421.98 666.06 420.69" fill="#27B0C4"/>
<path d="M663 444.64C662.938 444.377 662.901 444.109 662.89 443.84C662.89 443.27 662.77 442.55 662.68 441.69C662.574 440.626 662.413 439.568 662.2 438.52C661.915 437.245 661.53 435.995 661.05 434.78C660.571 433.571 659.928 432.434 659.14 431.4C658.498 430.56 657.674 429.876 656.73 429.4C656.101 429.084 655.426 428.868 654.73 428.76C654.467 428.749 654.206 428.712 653.95 428.65C654.216 428.619 654.484 428.619 654.75 428.65C655.484 428.702 656.203 428.888 656.87 429.2C657.859 429.663 658.728 430.347 659.41 431.2C660.245 432.244 660.919 433.406 661.41 434.65C661.898 435.882 662.279 437.153 662.55 438.45C662.755 439.507 662.895 440.576 662.97 441.65C663.04 442.57 663.07 443.31 663.08 443.83C663.088 444.102 663.061 444.374 663 444.64Z" fill="#263238"/>
<path d="M662.83 443C662.821 442.88 662.821 442.76 662.83 442.64C662.83 442.36 662.83 442.01 662.83 441.59C662.83 440.68 662.83 439.36 662.78 437.73C662.7 434.48 662.42 429.98 661.88 425.04C661.34 420.1 660.61 415.66 659.95 412.47C659.79 411.67 659.64 410.95 659.49 410.32C659.34 409.69 659.23 409.15 659.11 408.71L658.87 407.71C658.83 407.59 658.807 407.466 658.8 407.34C658.858 407.451 658.901 407.568 658.93 407.69L659.24 408.69C659.37 409.13 659.51 409.69 659.67 410.3C659.83 410.91 660 411.64 660.18 412.44C661.064 416.599 661.732 420.802 662.18 425.03C662.72 429.98 662.97 434.48 662.99 437.75C662.99 439.38 662.99 440.7 662.93 441.61C662.93 442.04 662.93 442.38 662.87 442.66C662.81 442.94 662.85 443 662.83 443Z" fill="#263238"/>
<path d="M662.81 434.28C662.782 433.917 662.782 433.553 662.81 433.19C662.872 432.185 662.986 431.183 663.15 430.19C663.4 428.729 663.734 427.283 664.15 425.86C664.631 424.112 665.236 422.401 665.96 420.74C667.214 417.679 669.017 414.873 671.28 412.46C671.67 412.046 672.088 411.658 672.53 411.3C672.72 411.14 672.89 410.98 673.06 410.85L673.55 410.51C673.84 410.288 674.148 410.091 674.47 409.92C673.414 410.755 672.412 411.657 671.47 412.62C669.287 415.056 667.535 417.846 666.29 420.87C665.57 422.517 664.962 424.211 664.47 425.94C664 427.53 663.68 428.94 663.47 430.22C663.26 431.5 663.12 432.47 663.04 433.17C662.991 433.545 662.914 433.916 662.81 434.28Z" fill="#263238"/>
</svg>
