<?xml version="1.0" encoding="utf-8"?>
<!-- Generator: Adobe Illustrator 24.3.0, SVG Export Plug-In . SVG Version: 6.00 Build 0)  -->
<svg version="1.1" id="Layer_1" xmlns="http://www.w3.org/2000/svg" xmlns:xlink="http://www.w3.org/1999/xlink" x="0px" y="0px"
	 viewBox="0 0 512 512" style="enable-background:new 0 0 512 512;" xml:space="preserve">
<style type="text/css">
	.st0{fill:#030303;}
	.st1{fill:#474444;}
	.st2{fill:#747171;}
	.st3{fill:#969393;}
	.st4{fill:#7B7878;}
	.st5{fill:#6D6A6A;}
	.st6{fill:#24B0C4;}
	.st7{fill:#E57E25;}
	.st8{fill:#FFFFFF;}
	.st9{fill:#101213;}
	.st10{fill:#58C3E1;}
	.st11{fill:#040404;}
	.st12{fill:#88C542;}
	.st13{fill:#4DBBEB;}
	.st14{fill:#DB3326;}
	.st15{fill:#FEC411;}
	.st16{fill:#F7911F;}
	.st17{fill:#3978BD;}
	.st18{fill:#2FAE73;}
	.st19{fill:#3A3D40;}
	.st20{fill:#FFFEFD;}
	.st21{fill:#DF2729;}
	.st22{fill:#B63031;}
	.st23{fill:#E23437;}
	.st24{fill:#020303;}
	.st25{fill:#0C0B0B;}
	.st26{fill:#D5B931;}
	.st27{fill:#FDD83F;}
	.st28{fill:#EBEAE9;}
	.st29{fill:#FFFFFE;}
	.st30{fill:#0B0A0A;}
</style>
<g>
	<path class="st6" d="M512.22,188.73c-0.06,25.77-20.66,46.29-46.44,46.26c-25.53-0.02-46.37-20.94-46.33-46.5
		c0.04-25.62,20.81-46.21,46.57-46.17C491.84,142.36,512.28,162.9,512.22,188.73z"/>
	<path class="st6" d="M466.34,260.29c24.49,0.09,44.68,20.5,44.49,45c-0.19,24.74-20.56,44.61-45.57,44.46
		c-24.3-0.14-44.07-20.24-44.06-44.76C421.22,279.99,441.2,260.2,466.34,260.29z"/>
	<path class="st6" d="M364.65,405.32c0.05-23.72,19.38-42.91,43.2-42.89c23.65,0.02,43.07,19.47,43.06,43.14
		c0,23.93-19.5,43.22-43.58,43.12C383.64,448.61,364.6,429.26,364.65,405.32z"/>
	<path class="st6" d="M307.51,422.39c22.71,0.06,41.31,18.78,41.24,41.51c-0.07,22.82-19.2,41.75-41.96,41.52
		c-22.91-0.23-41.22-19.06-41.09-42.25C265.82,440.43,284.38,422.32,307.51,422.39z"/>
	<path class="st6" d="M190.93,501.51c-21.43-0.13-38.01-17.01-37.9-38.6c0.1-21.02,17.19-37.83,38.32-37.69
		c21.07,0.14,38.05,17.12,38.11,38.11C229.51,484.5,212.21,501.64,190.93,501.51z"/>
	<path class="st6" d="M125.66,405.58c0,19.66-16.16,35.77-35.75,35.64c-19.32-0.13-35.29-16.24-35.32-35.63
		c-0.03-19.52,16.35-35.82,35.83-35.65C109.81,370.11,125.66,386.13,125.66,405.58z"/>
	<path class="st6" d="M0.22,304.72c-0.06-17.91,14.36-32.44,32.17-32.43c17.55,0.01,32.1,14.45,32.2,31.97
		c0.1,17.84-14.32,32.59-32.01,32.74C14.87,337.14,0.28,322.6,0.22,304.72z"/>
	<path class="st6" d="M31.33,217.58c-16.11-0.54-29.16-14.19-28.43-29.75c0.75-15.94,13.96-28.65,29.43-28.33
		c15.97,0.34,29.14,13.92,28.68,29.6C60.54,205.24,47.13,218.11,31.33,217.58z"/>
	<path class="st6" d="M64.57,88.15c-0.03-14.39,11.19-25.73,25.49-25.76c14.23-0.03,25.85,11.39,25.95,25.52
		c0.1,13.91-11.74,25.85-25.72,25.93C76.17,113.91,64.6,102.35,64.57,88.15z"/>
	<path class="st6" d="M167.81,29.46c0.11-12.55,10.8-22.98,23.3-22.73c12.52,0.25,23.07,11.13,22.75,23.47
		c-0.33,12.62-10.89,22.8-23.49,22.65C177.75,52.69,167.71,42.28,167.81,29.46z"/>
	<path class="st6" d="M326.76,30.01c-0.05,10.8-8.93,19.66-19.67,19.64c-10.78-0.03-19.54-8.85-19.59-19.73
		c-0.05-11.03,9.13-20.2,19.94-19.94C318.22,10.25,326.81,19.15,326.76,30.01z"/>
	<path class="st6" d="M407.56,104.45c-8.88-0.06-16.43-7.62-16.42-16.44c0.01-9.04,7.73-16.45,16.99-16.3
		c8.94,0.14,16.37,7.79,16.14,16.6C424.02,97.28,416.54,104.51,407.56,104.45z"/>
</g>
</svg>
