<?xml version="1.0" encoding="utf-8"?>
<!-- Generator: Adobe Illustrator 24.3.0, SVG Export Plug-In . SVG Version: 6.00 Build 0)  -->
<svg version="1.1" id="Layer_1" xmlns="http://www.w3.org/2000/svg" xmlns:xlink="http://www.w3.org/1999/xlink" x="0px" y="0px"
	 viewBox="0 0 512 512" style="enable-background:new 0 0 512 512;" xml:space="preserve">
<style type="text/css">
	.st0{fill:#030303;}
	.st1{fill:#474444;}
	.st2{fill:#747171;}
	.st3{fill:#969393;}
	.st4{fill:#7B7878;}
	.st5{fill:#6D6A6A;}
	.st6{fill:#24B0C4;}
	.st7{fill:#E57E25;}
	.st8{fill:#FFFFFF;}
	.st9{fill:#101213;}
	.st10{fill:#58C3E1;}
	.st11{fill:#040404;}
	.st12{fill:#88C542;}
	.st13{fill:#4DBBEB;}
	.st14{fill:#DB3326;}
	.st15{fill:#FEC411;}
	.st16{fill:#F7911F;}
	.st17{fill:#3978BD;}
	.st18{fill:#2FAE73;}
	.st19{fill:#3A3D40;}
	.st20{fill:#FFFEFD;}
	.st21{fill:#DF2729;}
	.st22{fill:#B63031;}
	.st23{fill:#E23437;}
	.st24{fill:#020303;}
	.st25{fill:#0C0B0B;}
	.st26{fill:#D5B931;}
	.st27{fill:#FDD83F;}
	.st28{fill:#EBEAE9;}
	.st29{fill:#FFFFFE;}
	.st30{fill:#0B0A0A;}
</style>
<g>
	<path class="st20" d="M104.54,406.03c-2.33-0.1-4.65-0.2-7.41-0.32c0.31-1.06,0.47-2.01,0.85-2.86
		c51.26-114.11,102.54-228.2,153.84-342.29c0.14-0.3,0.48-0.52,0.72-0.77c9.85,20.73,19.78,41.42,29.55,62.18
		c43.96,93.42,87.89,186.85,131.82,280.28c0.6,1.27,1.17,2.55,1.9,4.15c-11.22,0-22.07,0.05-32.91-0.02
		c-6.12-0.04-12.24-0.52-18.35-0.32c-3.49,0.12-4.93-1.22-6.24-4.29c-9.99-23.46-20.26-46.8-30.23-70.27
		c-1.47-3.45-3.11-4.84-7.04-4.79c-22.86,0.29-45.71,0.26-68.57,0.34c-21.26-0.06-42.53-0.13-63.79-0.14
		c-0.77,0-1.54,0.57-2.31,0.88c0,0-0.05,0.02-0.05,0.02c-0.29,0.73-0.59,1.45-0.88,2.18c-8.57,21.09-17.59,42.02-25.5,63.36
		c-3.21,8.66-6.97,13.78-16.95,11.82c-2.69-0.53-5.66,0.33-8.5,0.55C124.5,405.81,114.52,405.92,104.54,406.03z M252.23,173.18
		c-0.42,0.78-0.91,1.52-1.25,2.33c-14.46,34.23,33.29,60.52,23.85,40.81c-6.73-14.06-13.45-28.12-20.3-42.12
		C254.39,173.91,254.55,169.72,252.23,173.18z"/>
	<path class="st21" d="M252.57,315.91c0.04,30.18,0.09,60.31,0.13,90.49c0,35.13-0.04,70.3-0.04,105.43
		c-8.57-4.56-17.26-8.95-25.74-13.69c-57.64-31.9-115.25-63.93-172.93-95.79c-3.1-1.72-4.13-3.79-4.52-7.23
		c-5.55-49.12-11.32-98.24-17-147.36c-4.95-42.84-9.86-85.67-14.81-128.51c-1.29-11.41-2.63-22.82-4-34.7
		c8.05-2.93,16.06-5.85,24.07-8.7C107.87,50.89,178,25.97,248.17,1c1.42-0.47,2.93-0.77,4.43-1.16c0.04,19.98,0.09,39.95,0.13,59.93
		c-0.26,0.26-0.56,0.47-0.69,0.73C203.1,169.41,154.15,278.29,105.2,387.2c-0.34,0.82-0.52,1.72-0.82,2.71
		c1.52,0.08,4.02,0.2,7.1,0.3c16.33,0.56,17.11-0.34,28.4,0.18c1.31,0.06,4.29,0.21,8.25-0.11c3.93-0.31,6.57-0.52,8.84-1.62
		c4.75-2.31,6.39-7.88,7.37-10.54c7.53-20.36,16.14-40.34,24.32-60.49c0.26-0.69,0.56-1.38,0.82-2.07h0.09
		c0.73-0.3,1.46-0.86,2.2-0.86c20.28,0,40.6,0.09,60.87,0.13C252.62,315.19,252.59,315.55,252.57,315.91z"/>
	<path class="st21" d="M188.67,317.64c0.28-0.69,0.56-1.38,0.84-2.08C189.24,316.26,188.96,316.95,188.67,317.64z"/>
	<path class="st22" d="M252.43,168c0.1-0.66,0.3-1.6,0.69-1.65c0.53-0.06,1.13,1.61,1.5,2.62c1.68,4.51,4.02,8.75,6.02,13.13
		c0.26,0.58,0.71,1.53,1.61,3.43c5.15,10.94,11.74,23.64,11.74,23.64c9.73,18.75,17.21,35.91,27.03,56.45
		c0.64,1.35,1.13,2.77,1.78,4.37c-16.96,0-33.53,0-50.1,0c-0.01-13.4,0.02-26.79-0.02-40.19C252.62,209.21,252.51,188.61,252.43,168
		z"/>
	<path class="st23" d="M252.43,168c0.09,20.6,0.19,41.21,0.26,61.81c0.04,13.4,0.02,26.79,0.02,40.19c-14.24,0-28.48,0-43.01,0
		c0.04-0.54-0.06-1.21,0.16-1.74c13.77-32.69,27.56-65.36,41.37-98.03C251.56,169.46,252.03,168.75,252.43,168z"/>
	<path class="st22" d="M252.59-0.15c20.8,6.98,41.62,13.9,62.4,20.96c59.27,20.14,118.53,40.34,177.79,60.52
		c1.45,0.5,2.89,1.05,4.76,1.73c-1.31,10.55-2.6,21.06-3.92,31.57c-5.39,42.93-10.78,85.86-16.2,128.79
		c-6.04,47.87-12.41,95.7-17.85,143.63c-1.02,9-4.52,13.55-12.14,17.72c-63.97,34.97-127.72,70.36-191.54,105.62
		c-1.03,0.57-2.15,0.97-3.22,1.45c0.01-35.14,0.04-70.28,0.02-105.42c-0.02-30.17-0.08-60.33-0.13-90.5
		c0.03-0.36,0.07-0.71,0.1-1.07c21.82-0.08,43.63-0.05,65.44-0.32c3.75-0.05,5.32,1.27,6.72,4.57c9.52,22.4,19.32,44.67,28.85,67.07
		c1.25,2.94,2.63,4.21,5.96,4.1c5.83-0.19,11.67,0.27,17.51,0.3c10.35,0.07,20.7,0.02,31.41,0.02c-0.7-1.53-1.25-2.75-1.82-3.96
		c-41.93-89.17-83.85-178.34-125.81-267.49c-9.33-19.82-18.8-39.57-28.2-59.35C252.68,39.8,252.64,19.82,252.59-0.15z"/>
</g>
</svg>
