<?xml version="1.0" encoding="utf-8"?>
<!-- Generator: Adobe Illustrator 24.3.0, SVG Export Plug-In . SVG Version: 6.00 Build 0)  -->
<svg version="1.1" id="Layer_1" xmlns="http://www.w3.org/2000/svg" xmlns:xlink="http://www.w3.org/1999/xlink" x="0px" y="0px"
	 viewBox="0 0 512 512" style="enable-background:new 0 0 512 512;" xml:space="preserve">
<style type="text/css">
	.st0{fill:#030303;}
	.st1{fill:#474444;}
	.st2{fill:#747171;}
	.st3{fill:#969393;}
	.st4{fill:#7B7878;}
	.st5{fill:#6D6A6A;}
	.st6{fill:#24B0C4;}
	.st7{fill:#E57E25;}
	.st8{fill:#FFFFFF;}
	.st9{fill:#101213;}
	.st10{fill:#58C3E1;}
	.st11{fill:#040404;}
	.st12{fill:#88C542;}
	.st13{fill:#4DBBEB;}
	.st14{fill:#DB3326;}
	.st15{fill:#FEC411;}
	.st16{fill:#F7911F;}
	.st17{fill:#3978BD;}
	.st18{fill:#2FAE73;}
	.st19{fill:#3A3D40;}
	.st20{fill:#FFFEFD;}
	.st21{fill:#DF2729;}
	.st22{fill:#B63031;}
	.st23{fill:#E23437;}
	.st24{fill:#020303;}
	.st25{fill:#0C0B0B;}
	.st26{fill:#D5B931;}
	.st27{fill:#FDD83F;}
	.st28{fill:#EBEAE9;}
	.st29{fill:#FFFFFE;}
	.st30{fill:#0B0A0A;}
</style>
<g>
	<path class="st8" d="M158.14,323.98c-5.99-46.98-6.35-85.8-0.02-135.9c65.09,0,130.21,0,195.78,0c6.08,45.18,6.05,90.38,0.02,135.9
		C288.8,323.98,223.68,323.98,158.14,323.98z"/>
	<path class="st8" d="M163.92,153.46c10.08-44.39,22.41-87.35,51.72-121.97c5.94-7.02,13.46-12.94,21.13-17.79
		c13.07-8.26,26.77-7.25,39.95,0.52c12.05,7.11,21.27,17.57,29.23,29.31c18.4,27.15,29.25,57.91,37.42,89.92
		c1.66,6.52,3.06,13.13,4.65,20.01C286.54,153.46,225.5,153.46,163.92,153.46z"/>
	<path class="st8" d="M347.92,358.6c-6.34,30.77-14.97,60.35-28.75,88.02c-7.06,14.18-15.16,27.6-26.05,38.75
		c-4.34,4.44-9.07,8.6-14.12,12.04c-15.83,10.79-31.76,10.12-47.35-0.82c-13.67-9.59-23.62-22.92-32.14-37.6
		c-16.84-29.04-26.82-60.97-34.08-94.03c-0.44-2.02-0.81-4.05-1.27-6.36C225.47,358.6,286.5,358.6,347.92,358.6z"/>
	<path class="st8" d="M123.93,324.02c-38.37,0-76.32,0-114.67,0c-12.34-45.26-12.34-90.47-0.02-135.97c38.11,0,76.06,0,114.66,0
		C118.24,233.34,118.18,278.56,123.93,324.02z"/>
	<path class="st8" d="M388.09,323.98c5.68-45.39,5.73-90.51,0-135.91c38.28,0,76.23,0,114.65,0c12.35,45.15,12.32,90.36,0.04,135.91
		C464.74,323.98,426.8,323.98,388.09,323.98z"/>
	<path class="st8" d="M313.34,6.79c81.97,20.89,140.84,69.6,177.32,146.63c-36.34,0-71.77,0-107.77,0
		C370.84,99.5,354.1,47.47,313.34,6.79z"/>
	<path class="st8" d="M199.32,7.93c-11.88,9.31-20.57,21.36-28.48,33.95c-20.79,33.09-32.63,69.62-40.69,107.55
		c-0.18,0.86-0.31,1.74-0.56,2.59c-0.14,0.5-0.46,0.94-0.76,1.52c-35.48,0-70.99,0-108.04,0c6.71-12.03,12.42-23.77,19.45-34.65
		C76.88,62.25,128.11,25.51,193.19,8.02c1.93-0.52,4.11-0.1,6.17-0.12L199.32,7.93z"/>
	<path class="st8" d="M312.79,504.11c11.78-9.44,20.52-21.45,28.45-34.06c19.82-31.52,31.39-66.27,39.53-102.33
		c0.58-2.59,1.09-5.19,1.66-7.78c0.07-0.34,0.31-0.64,0.61-1.25c35.46,0,71.07,0,107.72,0c-4.96,9.36-9.31,18.62-14.58,27.32
		c-36.61,60.42-89.22,99.65-157.39,118.02c-1.9,0.51-4.06,0.09-6.1,0.11L312.79,504.11z"/>
	<path class="st8" d="M199.2,504.14c-1.69,0.06-3.5,0.55-5.06,0.12c-78.86-21.49-136.07-68.96-171.2-142.87
		c-0.3-0.64-0.53-1.31-0.76-1.98c-0.05-0.15,0.06-0.34,0.14-0.77c35.38,0,70.81,0,106.88,0c1.35,5.88,2.67,12.03,4.17,18.13
		c8.86,35.94,21.12,70.54,42.71,101.01c6.71,9.46,15.28,17.6,23,26.35L199.2,504.14z"/>
	<path class="st8" d="M199.36,7.9c-0.38-0.21-0.77-0.42-1.15-0.63c0.36,0.22,0.73,0.45,1.1,0.67C199.32,7.93,199.36,7.9,199.36,7.9z
		"/>
	<path class="st8" d="M199.07,504.13c-0.16,0.36-0.31,0.72-0.47,1.08c-0.13-0.09-0.26-0.17-0.39-0.26c0.31-0.27,0.62-0.54,0.96-0.81
		C199.2,504.14,199.07,504.13,199.07,504.13z"/>
	<path class="st8" d="M312.71,504.14c0.38,0.23,0.76,0.46,1.14,0.69c-0.13,0.11-0.25,0.22-0.38,0.33c-0.21-0.35-0.42-0.7-0.66-1.05
		C312.79,504.11,312.71,504.14,312.71,504.14z"/>
</g>
</svg>
