<?xml version="1.0" encoding="utf-8"?>
<!-- Generator: Adobe Illustrator 24.3.0, SVG Export Plug-In . SVG Version: 6.00 Build 0)  -->
<svg version="1.1" id="Layer_1" xmlns="http://www.w3.org/2000/svg" xmlns:xlink="http://www.w3.org/1999/xlink" x="0px" y="0px"
	 viewBox="0 0 512 512" style="enable-background:new 0 0 512 512;" xml:space="preserve">
<style type="text/css">
	.st0{fill:#030303;}
	.st1{fill:#474444;}
	.st2{fill:#747171;}
	.st3{fill:#969393;}
	.st4{fill:#7B7878;}
	.st5{fill:#6D6A6A;}
	.st6{fill:#24B0C4;}
	.st7{fill:#E57E25;}
	.st8{fill:#FFFFFF;}
	.st9{fill:#101213;}
	.st10{fill:#58C3E1;}
	.st11{fill:#040404;}
	.st12{fill:#88C542;}
	.st13{fill:#4DBBEB;}
	.st14{fill:#DB3326;}
	.st15{fill:#FEC411;}
	.st16{fill:#F7911F;}
	.st17{fill:#3978BD;}
	.st18{fill:#2FAE73;}
	.st19{fill:#3A3D40;}
	.st20{fill:#FFFEFD;}
	.st21{fill:#DF2729;}
	.st22{fill:#B63031;}
	.st23{fill:#E23437;}
	.st24{fill:#020303;}
	.st25{fill:#0C0B0B;}
	.st26{fill:#D5B931;}
	.st27{fill:#FDD83F;}
	.st28{fill:#EBEAE9;}
	.st29{fill:#FFFFFE;}
	.st30{fill:#0B0A0A;}
</style>
<path class="st8" d="M259.74,480.96c-70.53,0-134.56-0.06-195.77-0.19c-20.87-0.04-37.09-9.3-48.22-27.51
	c-3.97-6.49-6.41-13.28-7.69-21.34c-1.29-8.16-1.24-16.78-1.19-25.89c0.01-1.88,0.02-3.79,0.02-5.72V114.51
	c0-3.34-0.2-6.9-0.4-10.34C6.11,97.4,5.71,90.41,6.79,84.75L7.89,79c4.94-25.94,29.44-46.27,55.77-46.27
	c66.12-0.02,132.26-0.04,198.38-0.04c62.47,0,124.92,0.01,187.39,0.04c30.66,0.01,56.58,25.97,56.6,56.67
	c0.06,106.27,0.07,215.64,0,334.37c-0.02,30.9-26.03,57.03-56.82,57.06C376.99,480.92,316.77,480.96,259.74,480.96z M260.44,466.99
	c50.34,0,116.82,0.03,184.67,0.25c0,0,0.18,0,0.18,0c13.01,0,25.01-4.86,33.79-13.68c8.71-8.76,13.47-20.64,13.4-33.46
	c-0.37-69.71-0.31-140.6-0.26-209.15c0.02-25.61,0.04-51.23,0.04-76.84v-10.88H20.7l0,44.83c0,84.83,0,169.67,0.03,254.5
	c0,2.6,0.06,5.62,0.7,8.68c4.6,21.74,22,35.79,44.33,35.79l19.15,0c29.25,0,58.51-0.01,87.77-0.02
	C201.93,467,231.19,466.99,260.44,466.99z M291.8,46.51c-74.24,0-150.39,0.03-226.34,0.08c-4.92,0-9.77,0.7-14.01,2.03
	c-22.58,7.07-34.66,29.4-30.08,55.57l0.87,4.96h470.01v-6c0-1.4,0-2.76,0.01-4.1c0.01-2.87,0.02-5.57-0.02-8.32
	c-0.35-25.59-19.1-44.18-44.59-44.19C395.71,46.52,343.75,46.51,291.8,46.51z"/>
<path class="st8" d="M76.16,357.89c-4.58,0-8.03-1-9.71-2.81c-1.19-1.27-1.69-3.23-1.51-5.83c0.23-3.27,2.79-6.02,5.96-6.38
	c1.65-0.19,3.44-0.21,5.43-0.21h0.97c39.01-0.01,78.03-0.01,117.04-0.01h124.3c38.87,0,77.74,0,116.61,0.02l1.56,0
	c2.04,0,4,0.03,5.54,0.43c2.89,0.75,4.87,3.95,4.71,7.62c-0.15,3.44-2.26,5.99-5.5,6.65c-1.64,0.33-3.53,0.5-5.79,0.5
	c-76.27,0.02-152.56,0.03-228.83,0.03C163.34,357.9,119.75,357.9,76.16,357.89z"/>
<path class="st8" d="M76.16,398.26c-4.58,0-8.03-1-9.71-2.81c-1.19-1.27-1.69-3.23-1.51-5.83c0.23-3.27,2.79-6.02,5.96-6.38
	c1.65-0.19,3.44-0.21,5.43-0.21h0.97c39.01-0.01,78.03-0.01,117.04-0.01h124.3c38.87,0,77.74,0,116.61,0.02l1.56,0
	c2.04,0,4,0.03,5.54,0.43c2.89,0.75,4.87,3.95,4.71,7.62c-0.15,3.44-2.26,5.99-5.5,6.65c-1.64,0.33-3.53,0.5-5.79,0.5
	c-76.27,0.02-152.56,0.03-228.83,0.03C163.34,398.27,119.75,398.27,76.16,398.26z"/>
<path class="st8" d="M162.6,322.45c-29.52,0-59.03-0.02-88.55-0.04c-5.36-0.01-7.09-0.91-7.64-1.45c-0.52-0.51-1.4-2.12-1.42-7.19
	c-0.11-40.9-0.12-83.16-0.01-129.2c0.01-5.46,0.96-6.99,1.36-7.4c0.41-0.4,1.94-1.35,7.42-1.36c12.08-0.02,24.16-0.02,36.24-0.02
	l51.41,0.01l51.51-0.02c11.75,0,23.49,0.01,35.24,0.03c7.21,0.02,8.38,1.2,8.39,8.42c0.05,41.07,0.05,83.35,0,129.25
	c-0.01,7.56-1.35,8.89-8.97,8.9C219.26,322.43,190.92,322.45,162.6,322.45z M75.69,311.65h170.35V186.67H75.69V311.65z"/>
<path class="st8" d="M362.37,195.86l-42.87,0.01c-11.25,0-22.5,0-33.75-0.02c-2.48,0-8.27-0.68-8.36-6.87
	c-0.06-3.95,2.71-6.9,6.73-7.17c0.79-0.05,1.67-0.08,2.77-0.08c0.71,0,1.42,0.01,2.14,0.02c0.77,0.01,1.53,0.02,2.3,0.02l73.63,0
	c24.51,0,49.02,0,73.53,0.01c2.47,0,8.24,0.62,8.55,6.36c0.09,1.59-0.13,3.83-1.67,5.46c-1.38,1.46-3.59,2.24-6.39,2.24
	c-11,0.02-22.01,0.03-33.01,0.03L362.37,195.86z"/>
<path class="st8" d="M361.9,236.2c-25.44,0-50.87-0.02-76.3-0.05c-2.74,0-4.95-0.79-6.39-2.26c-1.23-1.26-1.85-3.04-1.8-5.14
	c0.14-5.74,5.43-6.6,8.57-6.6c11.17-0.01,22.34-0.01,33.51-0.01h86.03c11.06,0,22.11,0,33.17,0.01c3.11,0,8.34,0.87,8.43,6.68
	c0.03,2.14-0.57,3.85-1.79,5.09c-1.44,1.46-3.69,2.23-6.52,2.24C413.16,236.18,387.53,236.2,361.9,236.2z"/>
<path class="st8" d="M362.37,276.6l-42.87,0.01c-11.25,0-22.5,0-33.75-0.02c-2.48,0-8.27-0.68-8.36-6.87
	c-0.06-3.95,2.71-6.9,6.73-7.17c0.79-0.05,1.67-0.08,2.77-0.08c0.71,0,1.42,0.01,2.14,0.02c0.77,0.01,1.53,0.02,2.3,0.02l73.63,0
	c24.51,0,49.02,0,73.53,0.01c2.47,0,8.24,0.62,8.55,6.36c0.09,1.59-0.13,3.83-1.67,5.46c-1.38,1.46-3.59,2.24-6.39,2.24
	c-11,0.02-22.01,0.03-33.01,0.03L362.37,276.6z"/>
<path class="st8" d="M361.9,316.94c-25.44,0-50.87-0.02-76.3-0.05c-2.74,0-4.95-0.79-6.39-2.26c-1.23-1.26-1.85-3.04-1.8-5.14
	c0.14-5.74,5.43-6.6,8.57-6.6c11.17-0.01,22.34-0.01,33.51-0.01h86.03c11.06,0,22.11,0,33.17,0.01c3.11,0,8.34,0.87,8.43,6.68
	c0.03,2.14-0.57,3.85-1.79,5.09c-1.44,1.46-3.69,2.23-6.52,2.24C413.16,316.92,387.53,316.94,361.9,316.94z"/>
</svg>
