<?xml version="1.0" encoding="utf-8"?>
<!-- Generator: Adobe Illustrator 24.3.0, SVG Export Plug-In . SVG Version: 6.00 Build 0)  -->
<svg version="1.1" id="Layer_1" xmlns="http://www.w3.org/2000/svg" xmlns:xlink="http://www.w3.org/1999/xlink" x="0px" y="0px"
	 viewBox="0 0 512 512" style="enable-background:new 0 0 512 512;" xml:space="preserve">
<style type="text/css">
	.st0{fill:#030303;}
	.st1{fill:#474444;}
	.st2{fill:#747171;}
	.st3{fill:#969393;}
	.st4{fill:#7B7878;}
	.st5{fill:#6D6A6A;}
	.st6{fill:#24B0C4;}
	.st7{fill:#E57E25;}
	.st8{fill:#FFFFFF;}
	.st9{fill:#101213;}
	.st10{fill:#58C3E1;}
	.st11{fill:#040404;}
	.st12{fill:#88C542;}
	.st13{fill:#4DBBEB;}
	.st14{fill:#DB3326;}
	.st15{fill:#FEC411;}
	.st16{fill:#F7911F;}
	.st17{fill:#3978BD;}
	.st18{fill:#2FAE73;}
	.st19{fill:#3A3D40;}
	.st20{fill:#FFFEFD;}
	.st21{fill:#DF2729;}
	.st22{fill:#B63031;}
	.st23{fill:#E23437;}
	.st24{fill:#020303;}
	.st25{fill:#0C0B0B;}
	.st26{fill:#D5B931;}
	.st27{fill:#FDD83F;}
	.st28{fill:#EBEAE9;}
	.st29{fill:#FFFFFE;}
	.st30{fill:#0B0A0A;}
	.st31{fill:#636060;}
	.st32{fill:#7D7A7A;}
</style>
<path class="st8" d="M263.32,38.2c5.67-5.03,11.03-10.44,17.05-15.01c24.31-18.43,51.78-25.59,82.78-22.5
	c-19.32,28.37-38.27,56.19-57.38,84.25c7.56,15.83,62.89,54.59,81.13,57.47c3.67,0.58,4.84-1.4,6.4-3.7
	c16.93-24.91,33.9-49.8,50.85-74.7c1.13-1.66,2.26-3.32,3.75-5.51c9.74,16.8,14.57,34.36,14.91,53.22
	c1.02,55.82-44.04,110.7-104.43,113.09c-1.8,0.07-4.16,1.48-5.19,2.99c-40.95,59.89-81.78,119.85-122.53,179.87
	c-1,1.47-1.48,3.73-1.28,5.53c7.49,69.58-62,118.13-124.45,91.28C49.39,480.62,32.1,411.8,67.86,366
	c11.68-14.96,27.04-24.28,44.66-30.52c2.53-0.9,5.23-2.75,6.73-4.94c40.65-59.42,81.18-118.93,121.57-178.53
	c1.28-1.88,1.7-5.17,1.07-7.39c-8.07-28.48-6.64-56.12,6.6-82.86c0.54-1.1,0.8-2.34,1.19-3.51
	C254.22,51.57,258.77,44.88,263.32,38.2z"/>
</svg>
