<?xml version="1.0" encoding="utf-8"?>
<!-- Generator: Adobe Illustrator 24.3.0, SVG Export Plug-In . SVG Version: 6.00 Build 0)  -->
<svg version="1.1" id="Layer_1" xmlns="http://www.w3.org/2000/svg" xmlns:xlink="http://www.w3.org/1999/xlink" x="0px" y="0px"
	 viewBox="0 0 512 512" style="enable-background:new 0 0 512 512;" xml:space="preserve">
<style type="text/css">
	.st0{fill:#030303;}
	.st1{fill:#474444;}
	.st2{fill:#747171;}
	.st3{fill:#969393;}
	.st4{fill:#7B7878;}
	.st5{fill:#6D6A6A;}
	.st6{fill:#24B0C4;}
	.st7{fill:#E57E25;}
	.st8{fill:#FFFFFF;}
	.st9{fill:#101213;}
	.st10{fill:#58C3E1;}
	.st11{fill:#040404;}
	.st12{fill:#88C542;}
	.st13{fill:#4DBBEB;}
	.st14{fill:#DB3326;}
	.st15{fill:#FEC411;}
	.st16{fill:#F7911F;}
	.st17{fill:#3978BD;}
	.st18{fill:#2FAE73;}
	.st19{fill:#3A3D40;}
	.st20{fill:#FFFEFD;}
	.st21{fill:#DF2729;}
	.st22{fill:#B63031;}
	.st23{fill:#E23437;}
	.st24{fill:#020303;}
	.st25{fill:#0C0B0B;}
	.st26{fill:#D5B931;}
	.st27{fill:#FDD83F;}
	.st28{fill:#EBEAE9;}
	.st29{fill:#FFFFFE;}
	.st30{fill:#0B0A0A;}
</style>
<g>
	<path class="st14" d="M159.25,205.52C165.47,122.49,201.58,55.02,266.13,0c15.56,18.4,30.83,35.99,45.59,53.99
		c33.13,40.39,67.18,80.1,98.74,121.69c49.24,64.88,64.67,136.24,31.78,213.42c-20.2,47.41-54.25,82.46-102.03,103.28
		c-29.64-18.22-59.28-36.44-88.92-54.65c-0.19-1.03-0.37-2.06-0.54-3.09c24.74-36.03,27.11-75.89,18.69-116.98
		c-10.51-51.33-61-101.23-109.29-109.49C159.87,207.28,159.56,206.4,159.25,205.52z"/>
	<path class="st15" d="M250.77,434.64c0.17,1.03,0.35,2.06,0.54,3.09c-17.46,26.34-41.7,44.77-69.25,59.34
		c-66.75-21.78-124.03-96.38-128.98-167.08c-2.72-38.81,1.72-76.27,19.93-111c3.27-6.22,11.51-13.42,17.84-13.81
		c22.71-1.37,45.59-0.01,68.4,0.33c0.32,0.88,0.62,1.77,0.91,2.66c0.98,22.83-0.44,46.07,3.4,68.41
		C174.32,338.99,202.78,392.4,250.77,434.64z"/>
	<path class="st16" d="M182.06,497.07c27.54-14.57,51.79-33,69.25-59.34c29.64,18.21,59.28,36.43,88.92,54.65
		C288.18,516.99,235.45,518.32,182.06,497.07z"/>
	<path class="st16" d="M250.77,434.64c-47.99-42.24-76.45-95.65-87.2-158.06c-3.85-22.34-2.42-45.58-3.4-68.41
		c48.3,8.26,98.78,58.16,109.3,109.49C277.87,358.75,275.5,398.61,250.77,434.64z"/>
</g>
</svg>
