<?xml version="1.0" encoding="utf-8"?>
<!-- Generator: Adobe Illustrator 24.3.0, SVG Export Plug-In . SVG Version: 6.00 Build 0)  -->
<svg version="1.1" id="Layer_1" xmlns="http://www.w3.org/2000/svg" xmlns:xlink="http://www.w3.org/1999/xlink" x="0px" y="0px"
	 viewBox="0 0 512 512" style="enable-background:new 0 0 512 512;" xml:space="preserve">
<style type="text/css">
	.st0{fill:#030303;}
	.st1{fill:#474444;}
	.st2{fill:#747171;}
	.st3{fill:#969393;}
	.st4{fill:#7B7878;}
	.st5{fill:#6D6A6A;}
	.st6{fill:#24B0C4;}
	.st7{fill:#E57E25;}
	.st8{fill:#FFFFFF;}
	.st9{fill:#101213;}
	.st10{fill:#58C3E1;}
	.st11{fill:#040404;}
	.st12{fill:#88C542;}
	.st13{fill:#4DBBEB;}
	.st14{fill:#DB3326;}
	.st15{fill:#FEC411;}
	.st16{fill:#F7911F;}
	.st17{fill:#3978BD;}
	.st18{fill:#2FAE73;}
	.st19{fill:#3A3D40;}
	.st20{fill:#FFFEFD;}
	.st21{fill:#DF2729;}
	.st22{fill:#B63031;}
	.st23{fill:#E23437;}
	.st24{fill:#020303;}
	.st25{fill:#0C0B0B;}
	.st26{fill:#D5B931;}
	.st27{fill:#FDD83F;}
	.st28{fill:#EBEAE9;}
	.st29{fill:#FFFFFE;}
	.st30{fill:#0B0A0A;}
</style>
<g>
	<path class="st10" d="M255.45,82.02C273.7,69,290.78,56.26,308.5,44.46c7.36-4.91,15.84-8.42,24.19-11.52
		c42.96-15.98,74.96,5.24,78.52,52.32c1.04,13.79,1,27.76,0.15,41.57c-0.86,13.83-3.35,27.55-5.36,43.16
		c8.4,3.15,17.63,6.34,26.65,10.05c25.51,10.47,50.24,22.25,67.55,44.98c16.91,22.2,15.54,45.19-3.46,66.13
		c-22.23,24.51-51.56,36.8-81.66,47.85c-2.32,0.85-4.61,1.78-8.1,3.13c1.77,12.57,5.12,25.14,4.96,37.68
		c-0.28,22.18,0.17,45-4.87,66.33c-7.59,32.16-34.43,45.13-67.52,34.63c-15.45-4.9-30.35-12.6-44.21-21.13
		c-13.47-8.29-25.3-19.27-37.38-28.71c-18.52,12.75-36.74,26.48-56.18,38.19c-10.44,6.29-22.63,11.16-34.61,13.11
		c-44.53,7.25-62.91-16.19-66.59-57.95c-1.98-22.46,1.78-45.59,4.55-68.22c1.2-9.77-0.25-14.33-10.07-17.36
		c-28.87-8.91-55.63-21.98-76.91-44.21c-24.94-26.07-24.8-58.96,4.18-80.44c21.64-16.04,46.89-27.6,71.54-38.96
		c10.26-4.73,13.17-8.36,10.93-19.44c-6.25-30.91-9.69-62.16,0.97-92.92c9.73-28.08,30.44-38.81,59.84-32.88
		c26.77,5.4,48.57,19.95,69.68,36.01C242.38,71.21,249.18,76.96,255.45,82.02z M258.87,344.51c17.17,1.14,28.23-3.73,33.65-6.75
		c16.47-9.18,28.8-25.95,35.21-41.05c0.39-0.91,1-1.72,1.49-2.58c22.13-39.58,22.13-39.58-1.06-78.46
		c-25.07-42.03-25.07-42.03-73.6-41.86c-47.71,0.17-47.71,0.17-70.63,42.06c-22.6,41.29-21.13,40.52,0.8,82.43
		c9.69,18.53,19.58,31.48,36.96,39.87C236.46,345.3,250.7,345.24,258.87,344.51z M112.35,191.81c-28.9,8.38-56.54,18.98-78.27,40.69
		c-15.63,15.61-16.69,28.34-2.07,44.35c21.66,23.73,50.19,35.75,80.37,44.4c8.28-20.95,16.04-40.25,23.46-59.68
		c1.12-2.95,1.86-6.94,0.79-9.68C128.95,232.07,120.76,212.45,112.35,191.81z M129.91,350.06c-9.61,26.14-11.82,61.8-5.72,86.16
		c5.47,21.84,19.54,30.24,41.52,24.09c29.55-8.27,53.32-25.74,74.75-47.22c-13.16-16.68-25.64-32.74-38.46-48.52
		c-2.37-2.92-5.88-6.32-9.24-6.8C171.76,354.75,150.65,352.51,129.91,350.06z M383.44,163.6c7.11-30.49,11.86-61.22,2.09-92.26
		c-5.21-16.53-16.57-24.28-31.02-21.42c-33.11,6.54-57.83,26.79-81.85,49.46c14.03,17.92,27,34.87,40.53,51.36
		c2.2,2.69,6.75,4.24,10.44,4.79C343.18,158.45,362.81,160.87,383.44,163.6z M239.87,99.6c-20.55-19.9-43.05-37.67-71.19-46.56
		c-25.47-8.05-41.56-0.11-44.21,25.9c-2.47,24.25,1.33,49.12,1.99,73.72c0.27,10.12,5.74,10.95,13.86,9.69
		c16.17-2.5,32.48-4.13,48.58-6.98c4.44-0.79,9.4-3.72,12.3-7.19C214.23,132.55,226.61,116.39,239.87,99.6z M273.53,412.98
		c21.07,21.22,43.8,38.51,72.07,47.16c20.97,6.41,36.01,0.32,40.25-20.67c4.35-21.54,6.28-44.68,3.33-66.31
		c-4.29-31.44,0.59-25.72-29.41-20.89c-4.89,0.79-9.9,0.94-14.73,1.97c-10.86,2.31-24.93,1.58-31.79,8.2
		C298.44,376.73,287.33,394.87,273.53,412.98z M399.87,192.09c-8.24,20.34-16.06,39.09-23.28,58.07c-1.26,3.31-0.91,7.96,0.36,11.37
		c6.26,16.75,12.71,33.46,20.05,49.76c1.43,3.18,7.84,7.02,10.69,6.2c27.05-7.82,52.37-19.58,72.08-40.28
		c14.41-15.13,13.35-29.27-1.86-44.4C456.44,211.47,429.28,200.93,399.87,192.09z M287.14,151.9c-11.51-13.52-20.83-24.47-31.51-37
		c-10.28,13.01-18.84,23.85-29.23,37C247.84,151.9,265.42,151.9,287.14,151.9z M333.53,330.52c0.8,1.21,1.6,2.41,2.39,3.62
		c13.84-2.51,27.68-5.01,43.11-7.81c-5.89-15.54-11.03-29.11-17.2-45.39C351.4,299.23,342.47,314.88,333.53,330.52z M226.06,360.54
		c11.53,13.68,20.61,24.45,31,36.79c10.11-12.63,19.05-23.79,29.45-36.79C265.52,360.54,247.93,360.54,226.06,360.54z
		 M331.07,177.46c10.95,18.93,19.92,34.43,30.27,52.32c4.45-11.12,7.54-19.43,11.08-27.54c5-11.45,4.62-18.99-10.87-19.54
		C352.81,182.4,344.15,179.81,331.07,177.46z M180.64,334.24c-11.02-19.2-19.61-34.16-29.91-52.1c-5.37,14.5-10.02,25.31-13.1,36.54
		c-0.78,2.84,2.89,9.6,5.51,10.21C154.02,331.39,165.28,332.23,180.64,334.24z M151.69,228.65c9.64-17.09,18.38-32.58,29.01-51.42
		c-17.75,3.38-31.3,5.95-46.33,8.81c5.02,13.43,8.93,24.08,13,34.67C148.2,222.89,149.6,224.86,151.69,228.65z"/>
	<path class="st10" d="M254.77,300.5c-25.89-0.39-44.57-19.88-44.18-46.08c0.38-25.46,20.53-44.75,46.24-44.29
		c25.83,0.46,44.26,19.84,44.07,46.33C300.72,282.12,281.05,300.9,254.77,300.5z"/>
</g>
</svg>
