<?xml version="1.0" encoding="utf-8"?>
<!-- Generator: Adobe Illustrator 24.3.0, SVG Export Plug-In . SVG Version: 6.00 Build 0)  -->
<svg version="1.1" id="Layer_1" xmlns="http://www.w3.org/2000/svg" xmlns:xlink="http://www.w3.org/1999/xlink" x="0px" y="0px"
	 viewBox="0 0 512 512" style="enable-background:new 0 0 512 512;" xml:space="preserve">
<style type="text/css">
	.st0{fill:#030303;}
	.st1{fill:#474444;}
	.st2{fill:#747171;}
	.st3{fill:#969393;}
	.st4{fill:#7B7878;}
	.st5{fill:#6D6A6A;}
	.st6{fill:#24B0C4;}
	.st7{fill:#E57E25;}
	.st8{fill:#FFFFFF;}
	.st9{fill:#101213;}
	.st10{fill:#58C3E1;}
	.st11{fill:#040404;}
	.st12{fill:#88C542;}
	.st13{fill:#4DBBEB;}
	.st14{fill:#DB3326;}
	.st15{fill:#FEC411;}
	.st16{fill:#F7911F;}
	.st17{fill:#3978BD;}
	.st18{fill:#2FAE73;}
	.st19{fill:#3A3D40;}
	.st20{fill:#FFFEFD;}
	.st21{fill:#DF2729;}
	.st22{fill:#B63031;}
	.st23{fill:#E23437;}
	.st24{fill:#020303;}
	.st25{fill:#0C0B0B;}
	.st26{fill:#D5B931;}
	.st27{fill:#FDD83F;}
	.st28{fill:#EBEAE9;}
	.st29{fill:#FFFFFE;}
	.st30{fill:#0B0A0A;}
</style>
<g>
	<path class="st25" d="M75.62,306.86c-2.33-1.45-4.06-2.59-5.85-3.63c-20.41-11.79-40.84-23.54-61.23-35.35
		c-11.4-6.6-11.37-16.68,0.05-23.3c20.4-11.81,40.83-23.56,61.23-35.35c1.8-1.04,3.5-2.23,5.82-3.7
		c-20.02-11.55-39.37-22.72-58.72-33.89c-3.04-1.75-6.08-3.49-9.1-5.28c-10.32-6.1-10.39-16.42-0.01-22.43
		c35.91-20.78,71.86-41.48,107.8-62.21c43.87-25.3,87.78-50.54,131.56-75.98c6.06-3.52,11.39-3.71,17.45-0.2
		c79.53,46,159.13,91.88,238.68,137.85c11.75,6.79,11.55,16.77-0.35,23.68c-21.88,12.7-43.8,25.34-66.39,38.4
		c1.98,1.33,3.57,2.53,5.28,3.53c20.38,11.82,40.79,23.57,61.15,35.41c11.83,6.88,11.86,16.81,0.12,23.63
		c-20.21,11.73-40.44,23.41-60.66,35.11c-1.82,1.05-3.61,2.16-6.2,3.72c7.4,4.28,14.17,8.21,20.95,12.12
		c15.52,8.94,31.01,17.92,46.57,26.8c10.63,6.06,10.77,16.53,0.09,22.75c-16.14,9.41-32.37,18.67-48.56,28.01
		c-63.06,36.38-126.18,72.67-189.12,109.26c-7.52,4.37-13.58,4.22-21.08-0.14c-78.33-45.46-156.83-90.64-235.28-135.9
		c-0.67-0.39-1.35-0.77-2.02-1.17c-10.31-6.15-10.36-16.41,0-22.43c20.04-11.65,40.13-23.21,60.2-34.81
		C70.31,310.01,72.6,308.64,75.62,306.86z M35.98,154.97c1.58,1.06,2.5,1.76,3.49,2.34c70.97,40.97,141.96,81.9,212.85,123
		c3.18,1.84,5.11,1.1,7.8-0.45c64.57-37.34,129.18-74.6,193.78-111.89c7.21-4.16,14.38-8.38,22.07-12.87
		c-3.8-2.2-6.96-4.04-10.12-5.87c-68.31-39.43-136.62-78.86-204.93-118.3c-2.69-1.55-4.87-3.09-8.45-1.01
		C180.57,71.59,108.56,113.09,35.98,154.97z M475.41,357.51c-1.74-1.11-3.15-2.08-4.63-2.95c-17.62-10.36-35.34-20.57-52.82-31.17
		c-4.37-2.65-7.54-2.76-12.08-0.11c-46.9,27.35-94.02,54.34-140.93,81.67c-6.66,3.88-12.21,3.94-18.93,0.01
		c-47.24-27.61-94.67-54.88-141.96-82.42c-3.3-1.92-5.62-2.04-8.93-0.06c-17.53,10.5-35.23,20.72-52.86,31.05
		c-1.98,1.16-3.93,2.39-5.97,3.63c0.53,0.61,0.7,0.96,0.98,1.12c71.8,41.43,143.6,82.88,215.5,124.15c1.7,0.98,4.87,0.74,6.74-0.18
		c5.58-2.75,10.85-6.12,16.24-9.25C342.16,434.59,408.55,396.19,475.41,357.51z M476.07,256.25
		c-20.47-11.66-40.11-22.71-59.57-34.08c-3.69-2.15-6.3-2.12-9.96,0.01c-47.43,27.61-94.99,55-142.41,82.62
		c-6.09,3.55-11.21,3.54-17.36-0.05c-47.6-27.76-95.37-55.24-143.01-82.93c-3.09-1.8-5.25-1.9-8.38-0.04
		c-13.04,7.77-26.28,15.2-39.43,22.77c-6.49,3.74-12.96,7.53-19.84,11.54c1.35,0.98,2.05,1.6,2.84,2.06
		c71.12,41.07,142.26,82.11,213.33,123.28c3.11,1.8,5.16,1.12,7.91-0.47c31.5-18.27,63.08-36.39,94.61-54.59
		C394.91,303.2,435.01,279.99,476.07,256.25z"/>
</g>
</svg>
