<?xml version="1.0" encoding="utf-8"?>
<!-- Generator: Adobe Illustrator 24.3.0, SVG Export Plug-In . SVG Version: 6.00 Build 0)  -->
<svg version="1.1" id="Layer_1" xmlns="http://www.w3.org/2000/svg" xmlns:xlink="http://www.w3.org/1999/xlink" x="0px" y="0px"
	 viewBox="0 0 512 512" style="enable-background:new 0 0 512 512;" xml:space="preserve">
<style type="text/css">
	.st0{fill:#030303;}
	.st1{fill:#474444;}
	.st2{fill:#747171;}
	.st3{fill:#969393;}
	.st4{fill:#7B7878;}
	.st5{fill:#6D6A6A;}
	.st6{fill:#24B0C4;}
	.st7{fill:#E57E25;}
	.st8{fill:#FFFFFF;}
	.st9{fill:#101213;}
	.st10{fill:#58C3E1;}
	.st11{fill:#040404;}
	.st12{fill:#88C542;}
	.st13{fill:#4DBBEB;}
	.st14{fill:#DB3326;}
	.st15{fill:#FEC411;}
	.st16{fill:#F7911F;}
	.st17{fill:#3978BD;}
	.st18{fill:#2FAE73;}
	.st19{fill:#3A3D40;}
	.st20{fill:#FFFEFD;}
	.st21{fill:#DF2729;}
	.st22{fill:#B63031;}
	.st23{fill:#E23437;}
	.st24{fill:#020303;}
	.st25{fill:#0C0B0B;}
	.st26{fill:#D5B931;}
	.st27{fill:#FDD83F;}
	.st28{fill:#EBEAE9;}
	.st29{fill:#FFFFFE;}
	.st30{fill:#0B0A0A;}
</style>
<path class="st8" d="M249.53,512l-4.53-0.86c-31.12-5.52-51.26-23.63-61.58-55.35l-1.85-5.7c0,0-47.59,0.02-55.86,0.02
	c-10.44,0-20.87-0.01-31.3-0.03c-29.2-0.06-53.01-23.88-53.06-53.08c-0.04-22.96-0.07-43.66,0.06-64.42
	c0.04-6.16-2.31-10.68-7.38-14.22C7.57,299.9-3.23,275.94,0.98,245.09c4.06-29.77,26.35-54.43,55.46-61.34
	c5.93-1.41,11.98-2.12,17.97-2.12c24.38,0,46.38,11.48,60.34,31.5c3.5,5.02,6.29,10.79,9.24,16.89c1.41,2.93,2.88,5.96,4.46,8.98
	l2.32,4.43h212.4l1.89-5.62c11.97-35.52,35.89-54.02,73.1-56.57l7.7-0.53l0-24.15c0-12.78,0.01-25.52-0.01-38.27
	c-0.03-19.39-12.15-31.44-31.65-31.46c-9.78-0.01-19.56-0.01-29.34-0.01l-54.81,0l-1.82,5.78c-11.06,35.08-38.19,56.02-72.58,56.02
	c-4.09,0-8.31-0.3-12.55-0.88c-31.85-4.41-60.03-35.76-61.54-68.45c-1.75-38.07,23.61-70.84,60.3-77.94
	c4.63-0.9,9.38-1.35,14.1-1.35c33.85,0,62.29,22.04,72.45,56.16l1.76,5.9c0,0,50.39-0.02,58.14-0.02c9.77,0,19.54,0.01,29.31,0.03
	c29.15,0.06,52.91,23.91,52.97,53.17c0.04,20.93,0.09,42.56-0.07,64.41c-0.04,6.22,2.37,10.75,7.61,14.25
	c18.77,12.56,29.51,29.25,32.84,51l0.91,5.64v11.1l-0.84,5.54c-5.22,29.51-21.69,49.32-48.95,58.89c-8.86,3.11-17.6,4.69-25.98,4.69
	c-17.97,0-34.94-7.25-50.41-21.55c-9.51-8.79-16.31-20.4-20.22-34.52l-1.68-6.05H148.51l-1.75,5.92
	c-10,33.84-37.18,54.86-72.73,56.23l-7.94,0.31l0,24.62c0,12.79-0.01,25.58,0.01,38.38c0.03,18.94,12.34,31.19,31.36,31.21
	c10.16,0.01,20.32,0.01,30.48,0.01l53.84-0.01l1.77-5.88c12.08-40.14,44.94-55.28,69.41-56.04c0.91-0.03,1.81-0.04,2.71-0.04
	c15.23,0,29.21,4.2,41.54,12.48c8.21,5.51,13.82,11.55,17.08,15.65c6.36,7.99,10.96,17.13,13.67,27.19
	c1.31,7.07,1.92,14.29,1.82,21.46c-0.08,5.46-0.57,10.97-1.47,16.36c-2.91,9.93-10.15,27.87-26.44,39.84
	c-14.53,10.68-32.97,14.42-35.03,14.82l-4.43,0.84H249.53z M255.91,388.18c-26.67,0-49.32,22.58-49.45,49.32
	c-0.06,13.06,5.09,25.48,14.52,34.96c9.44,9.5,21.86,14.74,34.96,14.76c0,0,0,0,0,0c13.13,0,25.53-5.22,34.98-14.7
	c9.44-9.47,14.62-21.89,14.58-34.96c-0.09-26.99-22.14-49.15-49.16-49.38L255.91,388.18z M74.22,206.55
	c-13.12,0.04-25.53,5.3-34.95,14.81c-9.4,9.49-14.53,21.91-14.44,34.97c0.17,27.01,22.29,49.1,49.3,49.25l0.27,0
	c26.78,0,49.43-22.66,49.46-49.48c0.01-13.07-5.18-25.47-14.62-34.91c-9.43-9.44-21.82-14.64-34.87-14.64H74.22z M437.56,206.55
	c-26.76,0-49.42,22.64-49.47,49.44c-0.03,13.06,5.16,25.47,14.6,34.93c9.44,9.46,21.83,14.67,34.9,14.67
	c27.1-0.06,49.27-22.09,49.53-49.13c0.12-13.05-4.97-25.47-14.34-34.98c-9.41-9.55-21.82-14.85-34.95-14.92L437.56,206.55z
	 M255.58,24.92c-27.02,0.26-49.05,22.43-49.12,49.41c-0.03,13.07,5.15,25.48,14.59,34.95c9.44,9.47,21.84,14.68,34.91,14.68
	c13.17-0.02,25.58-5.27,35.02-14.77c9.43-9.49,14.58-21.91,14.5-34.97c-0.15-26.72-22.79-49.29-49.44-49.29L255.58,24.92z"/>
</svg>
