<?xml version="1.0" encoding="utf-8"?>
<!-- Generator: Adobe Illustrator 24.3.0, SVG Export Plug-In . SVG Version: 6.00 Build 0)  -->
<svg version="1.1" id="Layer_1" xmlns="http://www.w3.org/2000/svg" xmlns:xlink="http://www.w3.org/1999/xlink" x="0px" y="0px"
	 viewBox="0 0 512 512" style="enable-background:new 0 0 512 512;" xml:space="preserve">
<style type="text/css">
	.st0{fill:#030303;}
	.st1{fill:#474444;}
	.st2{fill:#747171;}
	.st3{fill:#969393;}
	.st4{fill:#7B7878;}
	.st5{fill:#6D6A6A;}
	.st6{fill:#24B0C4;}
	.st7{fill:#E57E25;}
	.st8{fill:#FFFFFF;}
	.st9{fill:#101213;}
	.st10{fill:#58C3E1;}
	.st11{fill:#040404;}
	.st12{fill:#88C542;}
	.st13{fill:#4DBBEB;}
	.st14{fill:#DB3326;}
	.st15{fill:#FEC411;}
	.st16{fill:#F7911F;}
	.st17{fill:#3978BD;}
	.st18{fill:#2FAE73;}
	.st19{fill:#3A3D40;}
	.st20{fill:#FFFEFD;}
	.st21{fill:#DF2729;}
	.st22{fill:#B63031;}
	.st23{fill:#E23437;}
	.st24{fill:#020303;}
	.st25{fill:#0C0B0B;}
	.st26{fill:#D5B931;}
	.st27{fill:#FDD83F;}
	.st28{fill:#EBEAE9;}
	.st29{fill:#FFFFFE;}
	.st30{fill:#0B0A0A;}
</style>
<g>
	<path class="st8" d="M255.97,512c-82.09,0-164.17,0-246.26-0.01c-7.07,0-9.7-2.68-9.7-9.87C0,337.95,0,173.77,0.01,9.6
		c0-6.9,2.61-9.58,9.3-9.59C57.08,0,104.85,0,152.61,0c47.77,0,95.53,0,143.3,0.01c6.72,0,9.46,2.74,9.47,9.45
		c0.02,32.91,0.02,65.83,0.01,98.74l0,57.08l166.68,0c9.99,0,19.97,0,29.96,0.01c7.26,0.01,9.96,2.61,9.96,9.62
		c0.01,109.09,0.01,218.18,0,327.27c0,7.24-2.55,9.81-9.76,9.81C420.14,512,338.06,512,255.97,512z M99.16,495.71h107.08V367.75
		H99.16V495.71z M150.58,351.23c20.66,0,41.32,0,61.98,0.01c7.61,0,10.18,2.53,10.19,10.03c0.01,27.33,0.01,54.66,0.01,81.99
		l0,52.45h66.17V16.45H16.41v479.13h66.23l0-51.45c0-27.74-0.01-55.48,0.01-83.21c0-7.14,2.58-9.68,9.86-9.68
		C111.87,351.23,131.22,351.23,150.58,351.23z M305.76,495.71h189.73V181.8H305.76V495.71z"/>
	<g>
		<path class="st8" d="M82.61,98.82c-2.19,0-4.37-0.01-6.56-0.02c-2.22-0.01-4.44-0.02-6.66-0.02c-2.15,0-4.3,0.01-6.45,0.02
			c-2.12,0.01-4.24,0.02-6.35,0.02c-2.55,0-5.09-0.01-7.64-0.05c-4.59-0.07-7.93-3.42-7.95-7.96c-0.02-4.66,3.17-8.07,7.57-8.12
			c7.02-0.07,14.13-0.11,21.15-0.11c7.02,0,14.13,0.04,21.15,0.11c4.34,0.05,7.61,3.54,7.58,8.13c-0.02,4.53-3.37,7.88-7.97,7.95
			C87.87,98.81,85.24,98.82,82.61,98.82z"/>
		<path class="st8" d="M82.71,181.46c-2.16,0-4.32-0.01-6.49-0.02c-2.2-0.01-4.39-0.02-6.59-0.02h-0.12c-2.13,0-4.26,0.01-6.38,0.02
			c-2.14,0.01-4.28,0.02-6.42,0.02c-2.55,0-5.1-0.01-7.65-0.05c-4.87-0.07-8.1-3.41-8.05-8.31c0.05-4.55,3.36-7.75,8.06-7.79
			c7.8-0.06,14.83-0.09,21.48-0.09c7.15,0,13.77,0.03,20.22,0.1c4.39,0.05,7.7,3.51,7.69,8.06c-0.01,4.57-3.32,7.95-7.87,8.02
			C87.96,181.45,85.33,181.46,82.71,181.46z"/>
		<path class="st8" d="M82.48,264.1c-2.18,0-4.36-0.01-6.54-0.02c-2.21-0.01-4.42-0.02-6.63-0.02c-2.08,0-4.16,0.01-6.25,0.01
			c-2.06,0.01-4.12,0.01-6.18,0.01c-2.48,0-4.96-0.01-7.44-0.03c-5.05-0.05-8.44-3.27-8.45-8.02c-0.01-4.88,3.23-8.06,8.24-8.09
			c6.94-0.05,13.89-0.07,20.83-0.07c6.88,0,13.7,0.02,20.27,0.07c4.81,0.04,8.14,3.41,8.11,8.2c-0.03,4.51-3.41,7.83-8.03,7.9
			C87.78,264.09,85.13,264.1,82.48,264.1z"/>
	</g>
	<g>
		<path class="st8" d="M235.29,98.86c-7.1,0-14.12-0.04-20.86-0.12c-4.3-0.05-7.53-3.58-7.49-8.21c0.03-4.39,3.25-7.76,7.48-7.85
			c2.4-0.05,4.98-0.08,8.12-0.08c2.2,0,4.41,0.01,6.61,0.02c2.25,0.01,4.5,0.02,6.75,0.02h0.18c2.11,0,4.23-0.01,6.34-0.02
			c2.16-0.01,4.32-0.02,6.48-0.02c2.54,0,5.08,0.01,7.61,0.05c4.56,0.07,7.87,3.44,7.88,8c0.01,4.63-3.22,8.03-7.68,8.08
			C249.38,98.82,242.18,98.86,235.29,98.86z"/>
		<path class="st8" d="M236.04,181.48c-6.73,0-13.75-0.03-20.86-0.08c-4.95-0.03-8.26-3.3-8.25-8.11c0.01-4.81,3.33-7.94,8.44-7.99
			c2.58-0.02,5.16-0.03,7.74-0.03c2.12,0,4.24,0.01,6.36,0.01c2.14,0.01,4.28,0.01,6.42,0.01h0.13c2.13,0,4.25-0.01,6.38-0.01
			c2.1-0.01,4.19-0.02,6.29-0.02c2.56,0,5.11,0.01,7.67,0.05c4.62,0.06,8,3.38,8.03,7.89c0.03,4.87-3.23,8.16-8.12,8.2
			C249.72,181.45,242.91,181.48,236.04,181.48z"/>
		<path class="st8" d="M235.38,264.15c-7.08,0-14.12-0.04-20.93-0.12c-4.32-0.05-7.55-3.57-7.52-8.19c0.03-4.32,3.3-7.78,7.45-7.87
			c2.4-0.05,4.97-0.08,8.1-0.08c2.19,0,4.39,0.01,6.58,0.02c2.24,0.01,4.48,0.02,6.71,0.02h0.26c2.12,0,4.23-0.01,6.35-0.02
			c2.16-0.01,4.33-0.02,6.49-0.02c2.53,0,5.06,0.01,7.59,0.05c4.57,0.07,7.89,3.43,7.91,7.98c0.01,4.64-3.21,8.05-7.65,8.1
			C249.5,264.11,242.31,264.15,235.38,264.15z"/>
	</g>
	<g>
		<path class="st8" d="M152.32,98.86c-7.1,0-14.12-0.04-20.86-0.12c-4.3-0.05-7.53-3.58-7.49-8.21c0.03-4.39,3.25-7.76,7.48-7.85
			c2.4-0.05,4.98-0.08,8.12-0.08c2.2,0,4.41,0.01,6.61,0.02c2.25,0.01,4.5,0.02,6.75,0.02h0.18c2.11,0,4.23-0.01,6.34-0.02
			c2.16-0.01,4.32-0.02,6.48-0.02c2.54,0,5.08,0.01,7.61,0.05c4.56,0.07,7.87,3.44,7.88,8c0.01,4.63-3.22,8.03-7.68,8.08
			C166.42,98.82,159.21,98.86,152.32,98.86z"/>
		<path class="st8" d="M153.08,181.48c-6.73,0-13.75-0.03-20.86-0.08c-4.95-0.03-8.26-3.3-8.25-8.11c0.01-4.81,3.33-7.94,8.44-7.99
			c2.58-0.02,5.16-0.03,7.74-0.03c2.12,0,4.24,0.01,6.36,0.01c2.14,0.01,4.28,0.01,6.42,0.01h0.13c2.13,0,4.25-0.01,6.38-0.01
			c2.1-0.01,4.19-0.02,6.29-0.02c2.56,0,5.11,0.01,7.67,0.05c4.62,0.06,8,3.38,8.03,7.89c0.03,4.87-3.23,8.16-8.12,8.2
			C166.75,181.45,159.94,181.48,153.08,181.48z"/>
		<path class="st8" d="M152.42,264.15c-7.08,0-14.12-0.04-20.93-0.12c-4.32-0.05-7.55-3.57-7.52-8.19c0.03-4.32,3.3-7.78,7.45-7.87
			c2.4-0.05,4.97-0.08,8.1-0.08c2.19,0,4.39,0.01,6.58,0.02c2.24,0.01,4.48,0.02,6.71,0.02h0.26c2.12,0,4.23-0.01,6.35-0.02
			c2.16-0.01,4.33-0.02,6.49-0.02c2.53,0,5.06,0.01,7.59,0.05c4.57,0.07,7.89,3.43,7.91,7.98c0.01,4.64-3.21,8.05-7.65,8.1
			C166.53,264.11,159.35,264.15,152.42,264.15z"/>
	</g>
	<path class="st8" d="M413.15,264.09c-2.13,0-4.26-0.01-6.4-0.01c-2.15-0.01-4.3-0.01-6.46-0.01c-2.08,0-4.17,0.01-6.25,0.01
		c-2.06,0.01-4.12,0.01-6.19,0.01c-2.48,0-4.96-0.01-7.44-0.03c-5.08-0.05-8.5-3.25-8.52-7.97c-0.02-4.91,3.19-8.11,8.17-8.14
		c6.78-0.05,13.68-0.07,20.5-0.07s13.75,0.02,20.61,0.07c4.92,0.03,8.21,3.31,8.18,8.15c-0.02,4.79-3.37,7.91-8.53,7.96
		C418.26,264.08,415.7,264.09,413.15,264.09z"/>
	<path class="st8" d="M400.65,346.79c-7.03,0-14.16-0.04-21.18-0.12c-4.34-0.05-7.6-3.55-7.58-8.15c0.02-4.6,3.29-7.86,7.94-7.93
		c2.64-0.04,5.29-0.05,7.93-0.05c2.18,0,4.36,0.01,6.54,0.02c2.21,0.01,4.42,0.02,6.63,0.02c2.15,0,4.3-0.01,6.45-0.02
		c2.12-0.01,4.24-0.02,6.36-0.02c2.55,0,5.1,0.01,7.64,0.05c4.59,0.07,7.94,3.41,7.96,7.94c0.02,4.59-3.25,8.09-7.6,8.14
		C414.75,346.75,407.65,346.79,400.65,346.79z"/>
	<path class="st8" d="M401,429.41c-6.76,0-13.78-0.02-20.87-0.07c-4.94-0.03-8.25-3.3-8.24-8.12c0.01-4.8,3.33-7.93,8.46-7.98
		c2.58-0.02,5.16-0.03,7.74-0.03c2.12,0,4.24,0.01,6.36,0.01c2.14,0.01,4.28,0.01,6.42,0.01H401c2.13,0,4.26-0.01,6.38-0.02
		c2.1-0.01,4.2-0.01,6.29-0.01c2.55,0,5.1,0.01,7.65,0.05c4.62,0.06,7.99,3.39,8.02,7.9c0.03,4.86-3.24,8.16-8.13,8.2
		C414.65,429.38,407.84,429.41,401,429.41z"/>
</g>
</svg>
