<?xml version="1.0" encoding="utf-8"?>
<!-- Generator: Adobe Illustrator 24.3.0, SVG Export Plug-In . SVG Version: 6.00 Build 0)  -->
<svg version="1.1" id="Layer_1" xmlns="http://www.w3.org/2000/svg" xmlns:xlink="http://www.w3.org/1999/xlink" x="0px" y="0px"
	 viewBox="0 0 512 512" style="enable-background:new 0 0 512 512;" xml:space="preserve">
<style type="text/css">
	.st0{fill:#030303;}
	.st1{fill:#474444;}
	.st2{fill:#747171;}
	.st3{fill:#969393;}
	.st4{fill:#7B7878;}
	.st5{fill:#6D6A6A;}
	.st6{fill:#24B0C4;}
	.st7{fill:#E57E25;}
	.st8{fill:#FFFFFF;}
	.st9{fill:#101213;}
	.st10{fill:#58C3E1;}
	.st11{fill:#040404;}
	.st12{fill:#88C542;}
	.st13{fill:#4DBBEB;}
	.st14{fill:#DB3326;}
	.st15{fill:#FEC411;}
	.st16{fill:#F7911F;}
	.st17{fill:#3978BD;}
	.st18{fill:#2FAE73;}
	.st19{fill:#3A3D40;}
	.st20{fill:#FFFEFD;}
	.st21{fill:#DF2729;}
	.st22{fill:#B63031;}
	.st23{fill:#E23437;}
	.st24{fill:#020303;}
	.st25{fill:#0C0B0B;}
	.st26{fill:#D5B931;}
	.st27{fill:#FDD83F;}
	.st28{fill:#EBEAE9;}
	.st29{fill:#FFFFFE;}
	.st30{fill:#0B0A0A;}
	.st31{fill:#636060;}
	.st32{fill:#7D7A7A;}
</style>
<path class="st8" d="M469.17,112.91c-2.06,5.41-3.11,9.55-5.12,13.16c-4.8,8.59-10.27,16.81-14.98,25.45
	c-1.13,2.08-1.17,5.51-0.31,7.8c3.62,9.6,7.56,19.09,11.86,28.41c1.09,2.37,3.62,4.97,6.02,5.69c9.39,2.84,19.02,4.91,28.53,7.38
	c11.51,2.99,16.79,9.84,16.81,21.78c0.03,22.45,0.04,44.9,0,67.35c-0.02,11.39-5.45,18.37-16.62,21.28
	c-9.29,2.42-18.62,4.68-27.95,6.94c-3.62,0.88-5.89,2.35-7.28,6.48c-3.13,9.28-7.11,18.3-11.28,27.18
	c-1.76,3.74-1.52,6.41,0.65,9.79c4.96,7.71,9.53,15.68,14.18,23.59c6.5,11.04,5.63,19.62-3.2,28.54
	c-15.64,15.79-31.35,31.51-47.16,47.13c-8.34,8.25-17.33,9.21-27.46,3.26c-8.1-4.77-16.25-9.48-24.15-14.56
	c-3.37-2.17-5.99-2.5-9.78-0.72c-9.08,4.25-18.57,7.63-27.67,11.83c-2.38,1.1-4.99,3.62-5.71,6.03c-2.83,9.4-4.86,19.04-7.33,28.55
	c-2.98,11.48-9.88,16.74-21.83,16.76c-22.22,0.03-44.45,0.03-66.67,0c-12.29-0.02-18.87-5.18-22.02-17.33
	c-2.35-9.08-4.63-18.18-6.79-27.31c-0.88-3.74-2.58-5.9-6.55-7.3c-9.24-3.25-18.09-7.61-27.31-10.95c-2.66-0.96-6.56-0.97-8.99,0.31
	c-8.3,4.36-16.17,9.54-24.27,14.31c-11.04,6.51-19.57,5.59-28.52-3.28c-15.78-15.65-31.5-31.36-47.13-47.16
	c-8.27-8.36-9.23-17.23-3.21-27.43c4.89-8.28,10.19-16.34,14.68-24.83c1.28-2.42,1.28-6.32,0.31-8.98
	c-3.37-9.21-7.82-18.02-11.02-27.28c-1.38-3.99-3.39-5.78-7.15-6.67c-9.34-2.19-18.67-4.47-27.96-6.87
	c-11.51-2.97-16.75-9.84-16.76-21.81c-0.03-22.45-0.04-44.9,0-67.35c0.02-11.43,5.41-18.34,16.64-21.23
	c9.29-2.4,18.62-4.66,27.96-6.87c3.7-0.88,5.84-2.5,7.23-6.57c3.17-9.26,7.13-18.29,11.3-27.16c1.76-3.74,1.53-6.4-0.64-9.78
	c-5.07-7.9-9.77-16.05-14.53-24.15c-6.2-10.55-5.16-19.18,3.53-27.94c15.49-15.62,31.05-31.18,46.66-46.68
	c8.98-8.91,17.55-9.88,28.49-3.43c8.09,4.77,15.97,9.93,24.27,14.3c2.44,1.28,6.33,1.39,8.97,0.43c9.42-3.44,18.68-7.37,27.79-11.59
	c2.38-1.1,5.02-3.6,5.73-6c2.86-9.63,4.89-19.49,7.44-29.22c2.76-10.55,10.06-16.11,21.01-16.13c22.67-0.04,45.35-0.04,68.02,0
	c11.44,0.02,18.38,5.41,21.28,16.59c2.41,9.3,4.67,18.64,6.92,27.97c0.88,3.64,2.35,5.81,6.52,7.21c9.49,3.18,18.48,7.8,27.88,11.31
	c2.46,0.92,6.14,0.84,8.39-0.38c8.46-4.56,16.54-9.84,24.82-14.73c10.5-6.21,19.2-5.18,27.95,3.49
	c15.63,15.48,31.34,30.89,46.56,46.78C464.14,102.37,466.32,108.13,469.17,112.91z M350.3,255.92
	c-0.05-51.57-42.47-94.07-94.04-94.22c-51.82-0.16-94.6,42.54-94.56,94.36c0.04,51.55,42.47,94.08,94.03,94.25
	C307.5,350.48,350.35,307.72,350.3,255.92z"/>
</svg>
