<?xml version="1.0" encoding="utf-8"?>
<!-- Generator: Adobe Illustrator 24.3.0, SVG Export Plug-In . SVG Version: 6.00 Build 0)  -->
<svg version="1.1" id="Layer_1" xmlns="http://www.w3.org/2000/svg" xmlns:xlink="http://www.w3.org/1999/xlink" x="0px" y="0px"
	 viewBox="0 0 512 512" style="enable-background:new 0 0 512 512;" xml:space="preserve">
<style type="text/css">
	.st0{fill:#030303;}
	.st1{fill:#474444;}
	.st2{fill:#747171;}
	.st3{fill:#969393;}
	.st4{fill:#7B7878;}
	.st5{fill:#6D6A6A;}
	.st6{fill:#24B0C4;}
	.st7{fill:#E57E25;}
	.st8{fill:#FFFFFF;}
	.st9{fill:#101213;}
	.st10{fill:#58C3E1;}
	.st11{fill:#040404;}
	.st12{fill:#88C542;}
	.st13{fill:#4DBBEB;}
	.st14{fill:#DB3326;}
	.st15{fill:#FEC411;}
	.st16{fill:#F7911F;}
	.st17{fill:#3978BD;}
	.st18{fill:#2FAE73;}
	.st19{fill:#3A3D40;}
	.st20{fill:#FFFEFD;}
	.st21{fill:#DF2729;}
	.st22{fill:#B63031;}
	.st23{fill:#E23437;}
	.st24{fill:#020303;}
	.st25{fill:#0C0B0B;}
	.st26{fill:#D5B931;}
	.st27{fill:#FDD83F;}
	.st28{fill:#EBEAE9;}
	.st29{fill:#FFFFFE;}
	.st30{fill:#0B0A0A;}
</style>
<path class="st8" d="M229.53,485.8c-41.77,0-83.52-0.01-125.29-0.04c-18.39-0.01-29.82-11.5-29.84-29.98
	c-0.04-42.82-0.03-85.64-0.02-128.46l0-67.3l-6.64,0.71c-2.32,0.25-4.58,0.57-6.77,0.87c-4.24,0.59-8.24,1.15-12.08,1.15
	c-0.23,0-0.46,0-0.69-0.01c-18.86-0.34-34.66-12.33-40.24-30.53c-5.6-18.25,0.9-36.36,17.38-48.43
	c17.99-13.18,36.35-26.49,54.1-39.37c6.92-5.02,13.84-10.04,20.76-15.07l30.05-21.84c32.28-23.46,64.56-46.92,96.87-70.35
	c10.19-7.39,19.64-10.98,28.89-10.98c9.18,0,18.58,3.53,28.71,10.8c9.95,7.13,19.76,14.28,30.15,21.84
	c4.76,3.46,9.59,6.98,14.56,10.59l9.52,6.91V64.57c0-1.61-0.01-3.08-0.02-4.47c-0.02-2.69-0.03-5.01,0.03-7.29
	c0.19-7.2,3.01-10.04,10.05-10.13c6.47-0.09,13.25-0.13,20.14-0.13c6.66,0,13.7,0.04,20.92,0.12c7.58,0.09,10.41,2.92,10.46,10.47
	c0.11,17.31,0.19,37.77-0.07,58.26c-0.09,6.77,2.31,11.54,7.78,15.45c29.22,20.91,55.28,39.84,79.66,57.88
	c16.26,12.03,22.22,31.75,15.19,50.25c-6.48,17.06-22.44,28.08-40.65,28.08c-3.53,0-7.09-0.43-10.57-1.27
	c-1.27-0.31-2.55-0.58-4.1-0.92c-0.79-0.17-1.65-0.36-2.63-0.57l-7.3-1.62l0.01,67.14c0.01,41.91,0.01,85.25-0.03,127.88
	c-0.02,16.54-6.89,26.95-20.43,30.94c-2.5,0.74-5.53,1.09-9.26,1.1C348.61,485.78,289.06,485.8,229.53,485.8z M226.42,144.79
	c-42.57,30.93-86.59,62.91-129.58,94.49c-4.28,3.14-6.54,9.8-6.56,14.75c-0.21,43.08-0.19,86.88-0.18,129.23l0.01,42.27
	c0,9.82,0.01,19.64-0.01,29.46c-0.01,5.01,1.29,8.75,3.96,11.43c2.53,2.54,6.06,3.83,10.49,3.83c13.01-0.03,25.97-0.04,39.02-0.04
	l51.04,0.01v-6c0-11.08-0.01-22.07-0.02-32.98c-0.02-25.91-0.04-50.39,0.05-75.38c0.07-22.04,14.55-39.99,35.22-43.67
	c7.98-1.42,16.37-1.61,24.26-1.61c2.01,0,4.02,0.01,6.02,0.03c2.03,0.01,4.06,0.03,6.08,0.03l2.27,0c30.77,0,49.19,18.54,49.27,49.6
	c0.06,22.25,0.04,44.88,0.03,66.76c-0.01,9.8-0.01,19.6-0.01,29.4v13.84l52.81,0.01c11.35,0,22.62,0,33.9-0.01
	c13.59-0.01,17.1-3.6,17.11-17.44c0-17,0-33.99,0-50.99c0-48.58-0.01-98.82,0.12-148.22c0.02-7.12-2.45-11.93-8.25-16.08
	c-19.95-14.28-40.12-28.98-59.62-43.2c-8.1-5.91-16.2-11.81-24.31-17.71c-16.21-11.78-32.43-23.55-48.67-35.32l-24.79-17.98
	L226.42,144.79z M258.31,326.24c-4.88,0-9.81,0.06-14.59,0.11l-0.3,0c-21.65,0.24-33.12,11.88-33.17,33.66
	c-0.05,21.13-0.04,42.61-0.03,63.39c0,8.91,0.01,17.83,0.01,26.74v19.7h91.19v-6c0-10.33,0.01-20.64,0.01-30.92
	c0.02-24.54,0.03-49.91-0.05-74.8c-0.06-19.67-11.41-31.24-31.14-31.75C266.61,326.28,262.71,326.24,258.31,326.24z M256.04,105.57
	c1.9,0,4.5,1.32,8.96,4.56c36.11,26.23,72.22,52.46,108.33,78.69l17.17,12.48c5.47,3.97,10.93,7.95,16.39,11.92
	c12.8,9.32,26.04,18.95,39.11,28.36c5.25,3.78,10.81,5.7,16.52,5.7c4.5,0,8.96-1.21,13.27-3.59c9.46-5.23,13.92-13.83,14.46-27.91
	l0.08-2.15l-1.3-1.71c-0.53-0.69-1.23-1.82-1.98-3.01c-2.36-3.77-5.58-8.93-10.45-12.5c-60.35-44.32-121.95-89.03-181.53-132.26
	l-20.14-14.62c-7.04-5.11-12.85-7.39-18.85-7.39c-6.08,0-12.05,2.37-19.37,7.69C186.56,86.26,136.4,122.69,86.25,159.12
	c-17.34,12.6-34.67,25.2-51.99,37.82c-9.65,7.03-13.59,16.85-11.4,28.42c1.88,9.94,8.13,16.98,18.06,20.34
	c2.8,0.95,5.64,1.43,8.44,1.43c8.29,0,15-4.19,19.32-7.34c49.1-35.76,99.07-72.06,147.39-107.17l30.79-22.37
	C251.45,106.93,254.1,105.57,256.04,105.57z M356.58,83.72l27.49,26.47V58.86h-27.84L356.58,83.72z"/>
</svg>
