<?xml version="1.0" encoding="utf-8"?>
<!-- Generator: Adobe Illustrator 24.3.0, SVG Export Plug-In . SVG Version: 6.00 Build 0)  -->
<svg version="1.1" id="Layer_1" xmlns="http://www.w3.org/2000/svg" xmlns:xlink="http://www.w3.org/1999/xlink" x="0px" y="0px"
	 viewBox="0 0 512 512" style="enable-background:new 0 0 512 512;" xml:space="preserve">
<style type="text/css">
	.st0{fill:#030303;}
	.st1{fill:#474444;}
	.st2{fill:#747171;}
	.st3{fill:#969393;}
	.st4{fill:#7B7878;}
	.st5{fill:#6D6A6A;}
	.st6{fill:#24B0C4;}
	.st7{fill:#E57E25;}
	.st8{fill:#FFFFFF;}
	.st9{fill:#101213;}
	.st10{fill:#58C3E1;}
	.st11{fill:#040404;}
	.st12{fill:#88C542;}
	.st13{fill:#4DBBEB;}
	.st14{fill:#DB3326;}
	.st15{fill:#FEC411;}
	.st16{fill:#F7911F;}
	.st17{fill:#3978BD;}
	.st18{fill:#2FAE73;}
	.st19{fill:#3A3D40;}
	.st20{fill:#FFFEFD;}
	.st21{fill:#DF2729;}
	.st22{fill:#B63031;}
	.st23{fill:#E23437;}
	.st24{fill:#020303;}
	.st25{fill:#0C0B0B;}
	.st26{fill:#D5B931;}
	.st27{fill:#FDD83F;}
	.st28{fill:#EBEAE9;}
	.st29{fill:#FFFFFE;}
	.st30{fill:#0B0A0A;}
</style>
<g>
	<path class="st12" d="M169.09,464.73c11.9-5.68,21.06-10.7,30.74-14.33c3.39-1.27,8.65-0.19,12.03,1.67
		c13.41,7.36,26.22,15.84,39.71,23.03c3.43,1.83,9.55,2.12,12.8,0.26c59.77-34.23,119.36-68.79,178.72-103.75
		c3.51-2.07,6.69-8.03,6.72-12.2c0.41-69.92,0.44-139.85-0.05-209.77c-0.03-4.36-3.92-10.48-7.79-12.77
		C383.7,102.43,325.08,68.59,266.73,34.3c-5.95-3.5-10.22-3.88-16.39-0.31c-59.57,34.58-119.3,68.89-179.16,102.98
		c-6.8,3.87-9.47,8.21-9.43,16.19c0.33,67.5,0.32,135,0.02,202.49c-0.04,8.3,2.33,13.27,9.91,17.18c13.58,7,26.51,15.27,39.84,22.77
		c4.53,2.55,9.32,4.84,14.25,6.42c19.65,6.27,33.75-4.08,33.78-24.79c0.08-67.5-0.11-135,0.3-202.49
		c0.03-5.58,2.85-15.14,6.08-15.94c9.38-2.31,19.65-1.45,29.5-0.83c1.19,0.08,2.83,6.35,2.83,9.76c0.13,71.54,1.01,143.1-0.3,214.61
		c-0.86,47.06-34.73,64.72-73.51,52.98c-29.41-8.91-56.37-27.05-82.92-43.49c-7.27-4.5-12.79-17.65-12.93-26.91
		c-1.04-73.95-0.77-147.92-0.45-221.88c0.07-16.16,10.25-26.32,23.66-33.99C106.41,77.87,162,48.28,214.94,14.56
		c31.35-19.97,56.52-19.07,87.33,0.7c51.15,32.82,104.55,62.17,157.53,92.07c16.37,9.24,24.15,22.05,24.19,39.97
		c0.17,71.54,0.17,143.08,0,214.62c-0.04,17.45-7.5,30.27-23.32,39.32c-59.43,34.03-118.55,68.61-177.55,103.39
		c-16.71,9.85-32.42,9.87-48.82-0.23c-17.84-10.98-36.03-21.39-54.02-32.12C176.97,470.31,173.88,467.98,169.09,464.73z"/>
	<path class="st12" d="M311.72,151.94c17.19,0.67,34.48,4.35,50.59,9.43c25.89,8.17,38.02,28.29,41.01,54.47
		c0.21,1.88-0.07,5.47-0.54,5.54c-8.46,1.27-16.98,2.7-25.5,2.77c-3,0.02-8.1-2.98-8.72-5.47c-5.43-21.99-20.57-31.31-41.59-31.55
		c-15.95-0.18-32.08,0.82-47.83,3.25c-11.29,1.74-17.93,9.57-17.94,22.26c0,12.66,8.86,15.41,18.1,17.14
		c26.1,4.89,52.32,9.09,78.46,13.79c5.51,0.99,10.86,2.87,16.25,4.46c21.93,6.46,35.43,20.2,37.09,43.74
		c1.61,22.77-6.57,41.1-25.89,53.78c-17.08,11.22-36.56,14.53-56.41,15.52c-25.55,1.27-50.96-0.04-74.66-10.97
		c-23.32-10.76-35.67-29.24-36.64-55.18c-0.26-7.05,1.99-10.87,9.59-10.21c2.41,0.21,4.89,0.34,7.26-0.02
		c11.88-1.83,18.21,1.74,20.39,14.97c2.58,15.66,14.89,24.72,29.8,25.97c20.72,1.74,41.69,0.82,62.54,0.39
		c4.56-0.09,9.33-2.43,13.55-4.6c9.61-4.94,13.42-13.16,12.91-23.96c-0.5-10.63-7.88-15.27-16.16-16.99
		c-19.68-4.09-39.71-6.48-59.49-10.14c-13.79-2.55-27.69-5.13-41.03-9.35c-19.97-6.31-31.3-20.38-32.9-41.78
		c-1.57-20.95,5.16-38.17,22.68-50.28C266.14,155.45,288.84,151.04,311.72,151.94z"/>
</g>
</svg>
