<?xml version="1.0" encoding="utf-8"?>
<!-- Generator: Adobe Illustrator 24.3.0, SVG Export Plug-In . SVG Version: 6.00 Build 0)  -->
<svg version="1.1" id="Layer_1" xmlns="http://www.w3.org/2000/svg" xmlns:xlink="http://www.w3.org/1999/xlink" x="0px" y="0px"
	 viewBox="0 0 512 512" style="enable-background:new 0 0 512 512;" xml:space="preserve">
<style type="text/css">
	.st0{fill:#030303;}
	.st1{fill:#474444;}
	.st2{fill:#747171;}
	.st3{fill:#969393;}
	.st4{fill:#7B7878;}
	.st5{fill:#6D6A6A;}
	.st6{fill:#24B0C4;}
	.st7{fill:#E57E25;}
	.st8{fill:#FFFFFF;}
	.st9{fill:#101213;}
	.st10{fill:#58C3E1;}
	.st11{fill:#040404;}
	.st12{fill:#88C542;}
	.st13{fill:#4DBBEB;}
	.st14{fill:#DB3326;}
	.st15{fill:#FEC411;}
	.st16{fill:#F7911F;}
	.st17{fill:#3978BD;}
	.st18{fill:#2FAE73;}
	.st19{fill:#3A3D40;}
	.st20{fill:#FFFEFD;}
	.st21{fill:#DF2729;}
	.st22{fill:#B63031;}
	.st23{fill:#E23437;}
	.st24{fill:#020303;}
	.st25{fill:#0C0B0B;}
	.st26{fill:#D5B931;}
	.st27{fill:#FDD83F;}
	.st28{fill:#EBEAE9;}
	.st29{fill:#FFFFFE;}
	.st30{fill:#0B0A0A;}
	.st31{fill:#636060;}
	.st32{fill:#7D7A7A;}
</style>
<g>
	<path class="st8" d="M234.04,512c-6.94-3.25-14.54-5.57-20.66-9.96c-11.78-8.46-17.04-20.84-17.25-35.33
		c-0.07-4.66-0.01-9.32-0.01-14.35c39.82,0,79.58,0,119.52,0c0.98,15.63,0.72,30.87-10.42,43.66c-6.78,7.79-15.11,12.77-25.12,15.05
		c-0.75,0.17-1.43,0.61-2.15,0.92C263.32,512,248.68,512,234.04,512z"/>
	<path class="st8" d="M259.99,0c8.28,3.65,11.34,9.95,11.12,19.01c-0.45,18.48-0.12,36.98-0.14,55.47
		C270.95,84.5,264.85,91.1,255.75,91c-8.8-0.1-14.71-6.69-14.72-16.52c-0.02-18.49,0.31-36.99-0.14-55.47
		C240.67,9.95,243.73,3.66,252.01,0C254.67,0,257.33,0,259.99,0z"/>
	<path class="st8" d="M511.5,260c-3.65,8.3-9.93,11.36-18.97,11.14c-18.44-0.45-36.91-0.12-55.36-0.14
		c-10.01-0.01-16.59-6.13-16.49-15.24c0.1-8.82,6.68-14.73,16.49-14.74c18.46-0.02,36.92,0.31,55.36-0.14
		c9.04-0.22,15.32,2.84,18.97,11.14C511.5,254.67,511.5,257.33,511.5,260z"/>
	<path class="st8" d="M255.8,422c-19.46,0-38.91,0.02-58.37-0.01c-10.45-0.01-16.18-5.82-16.28-16.39
		c-0.21-21.85-7.26-40.59-22.63-56.72c-53.1-55.72-49.43-143.83,8.33-194.65c31.5-27.71,68.86-37.78,110.18-31.29
		c45.66,7.17,78.92,32.29,99.79,73.3c12.84,25.24,16.58,52.31,12.29,80.45c-4.4,28.88-17.17,53.52-37.23,74.46
		c-14.47,15.1-20.64,33.32-21,53.86c-0.2,11.54-5.63,16.99-17.2,16.99C294.38,422.01,275.09,422,255.8,422z"/>
	<path class="st8" d="M45.92,271c-9.97,0-19.95,0.05-29.92-0.01c-9.12-0.06-15.59-6.48-15.49-15.23
		c0.09-8.47,6.56-14.72,15.48-14.74c19.95-0.05,39.9-0.06,59.85,0c9.12,0.03,15.59,6.48,15.49,15.22
		c-0.09,8.47-6.56,14.69-15.48,14.74C65.87,271.05,55.89,271,45.92,271z"/>
	<path class="st8" d="M88.43,70.91c2.11,1.15,6.28,2.42,9.07,5.12c14.19,13.76,28.12,27.79,41.95,41.92
		c6.35,6.49,6.18,15.33,0.13,21.39c-6.05,6.06-14.87,6.24-21.35-0.12C104,125.25,89.93,111.12,75.97,96.9
		c-4.55-4.64-5.85-10.39-3.14-16.53C75.4,74.53,80.2,71.65,88.43,70.91z"/>
	<path class="st8" d="M440.72,88.2c-1.2,2.16-2.51,6.31-5.21,9.1c-13.62,14.1-27.52,27.93-41.48,41.68
		c-6.68,6.58-15.59,6.49-21.71,0.24c-5.98-6.11-6.04-14.87,0.35-21.39c13.84-14.12,27.82-28.09,41.88-41.99
		c4.77-4.72,10.58-6.15,16.89-3.3C437.25,75.18,440.04,80.02,440.72,88.2z"/>
</g>
</svg>
