<?xml version="1.0" encoding="utf-8"?>
<!-- Generator: Adobe Illustrator 24.3.0, SVG Export Plug-In . SVG Version: 6.00 Build 0)  -->
<svg version="1.1" id="Layer_1" xmlns="http://www.w3.org/2000/svg" xmlns:xlink="http://www.w3.org/1999/xlink" x="0px" y="0px"
	 viewBox="0 0 512 512" style="enable-background:new 0 0 512 512;" xml:space="preserve">
<style type="text/css">
	.st0{fill:#030303;}
	.st1{fill:#474444;}
	.st2{fill:#747171;}
	.st3{fill:#969393;}
	.st4{fill:#7B7878;}
	.st5{fill:#6D6A6A;}
	.st6{fill:#24B0C4;}
	.st7{fill:#E57E25;}
	.st8{fill:#FFFFFF;}
	.st9{fill:#101213;}
	.st10{fill:#58C3E1;}
	.st11{fill:#040404;}
	.st12{fill:#88C542;}
	.st13{fill:#4DBBEB;}
	.st14{fill:#DB3326;}
	.st15{fill:#FEC411;}
	.st16{fill:#F7911F;}
	.st17{fill:#3978BD;}
	.st18{fill:#2FAE73;}
	.st19{fill:#3A3D40;}
	.st20{fill:#FFFEFD;}
	.st21{fill:#DF2729;}
	.st22{fill:#B63031;}
	.st23{fill:#E23437;}
	.st24{fill:#020303;}
	.st25{fill:#0C0B0B;}
	.st26{fill:#D5B931;}
	.st27{fill:#FDD83F;}
	.st28{fill:#EBEAE9;}
	.st29{fill:#FFFFFE;}
	.st30{fill:#0B0A0A;}
	.st31{fill:#636060;}
	.st32{fill:#7D7A7A;}
</style>
<g>
	<path class="st8" d="M512,402.3c-3.67,7.85-9.8,10.6-18.43,10.36c-16.81-0.48-33.63-0.1-50.45-0.15
		c-11.15-0.03-16.55-5.3-16.55-16.48c-0.04-93.25-0.04-186.51,0-279.76c0-11.35,5.6-16.82,16.89-16.83
		c16.82-0.03,33.64,0.2,50.46-0.09c8.61-0.15,14.82,2.75,18.09,10.97C512,207.63,512,304.97,512,402.3z"/>
	<path class="st8" d="M142.06,270.24c0-41.48,0-82.97,0-124.45c0-12.53,5.06-17.69,17.39-17.7c17.16-0.02,34.32-0.03,51.48,0.01
		c11.44,0.03,16.86,5.4,16.86,16.8c0.02,83.64,0.02,167.27,0,250.91c0,11.13-5.47,16.66-16.47,16.69c-17.66,0.06-35.32,0.06-52.98,0
		c-10.76-0.04-16.27-5.59-16.27-16.3C142.05,354.21,142.06,312.23,142.06,270.24z"/>
	<path class="st8" d="M369.94,298.63c0,32.17,0.01,64.33,0,96.5c0,12.14-5.17,17.37-17.21,17.39c-17.33,0.02-34.67,0.05-52-0.01
		c-11.01-0.04-16.51-5.56-16.51-16.65c-0.03-64.66-0.02-129.33,0-193.99c0-11.35,5.48-16.93,16.79-16.99c17.5-0.09,35-0.1,52.5,0.01
		c11.03,0.07,16.43,5.67,16.43,16.76C369.95,233.96,369.94,266.3,369.94,298.63z"/>
	<path class="st8" d="M0,327.12c0-23.15-0.01-46.3,0.01-69.45c0.01-9.87,5.27-15.83,15.1-15.99c18.31-0.29,36.64-0.28,54.96-0.01
		c10.34,0.16,15.38,6.15,15.39,17.34c0.03,35.14,0.01,70.28,0.01,105.42c0,10.49,0.07,20.98-0.02,31.48
		c-0.09,11.25-5.36,16.55-16.46,16.58c-17.49,0.05-34.97,0.05-52.46,0c-11.23-0.03-16.51-5.32-16.51-16.43
		C0,373.09,0,350.11,0,327.12z"/>
</g>
</svg>
