<?xml version="1.0" encoding="utf-8"?>
<!-- Generator: Adobe Illustrator 24.3.0, SVG Export Plug-In . SVG Version: 6.00 Build 0)  -->
<svg version="1.1" id="Layer_1" xmlns="http://www.w3.org/2000/svg" xmlns:xlink="http://www.w3.org/1999/xlink" x="0px" y="0px"
	 viewBox="0 0 512 512" style="enable-background:new 0 0 512 512;" xml:space="preserve">
<style type="text/css">
	.st0{fill:#030303;}
	.st1{fill:#474444;}
	.st2{fill:#747171;}
	.st3{fill:#969393;}
	.st4{fill:#7B7878;}
	.st5{fill:#6D6A6A;}
	.st6{fill:#24B0C4;}
	.st7{fill:#E57E25;}
	.st8{fill:#FFFFFF;}
	.st9{fill:#101213;}
	.st10{fill:#58C3E1;}
	.st11{fill:#040404;}
	.st12{fill:#88C542;}
	.st13{fill:#4DBBEB;}
	.st14{fill:#DB3326;}
	.st15{fill:#FEC411;}
	.st16{fill:#F7911F;}
	.st17{fill:#3978BD;}
	.st18{fill:#2FAE73;}
	.st19{fill:#3A3D40;}
	.st20{fill:#FFFEFD;}
	.st21{fill:#DF2729;}
	.st22{fill:#B63031;}
	.st23{fill:#E23437;}
	.st24{fill:#020303;}
	.st25{fill:#0C0B0B;}
	.st26{fill:#D5B931;}
	.st27{fill:#FDD83F;}
	.st28{fill:#EBEAE9;}
	.st29{fill:#FFFFFE;}
	.st30{fill:#0B0A0A;}
</style>
<g>
	<path class="st8" d="M74.37,298.58c-14.4,0-28.05-8-34.78-20.38c-5.52-10.15-6.61-21.49-3.07-31.92
		c3.5-10.32,11.15-18.54,21.54-23.16c6.94-3.09,7.43-9.02,7.69-12.2c2.12-25.92,9.82-51.17,22.88-75.05
		c14.9-27.25,35.44-49.82,61.03-67.08c0.76-0.51,1.5-1.04,2.43-1.71l1.54-1.1l15.59-11.03H82.04v6.07c0,1.43,0,2.88,0.01,4.35
		c0.01,3.25,0.02,6.56-0.02,9.87c-0.06,6.17-3.65,9.71-9.83,9.73c-9.85,0.02-19.71,0.04-29.57,0.04c-9.86,0-19.73-0.01-29.59-0.04
		c-6.47-0.01-9.9-3.51-9.91-10.11C3.11,68.88,3.14,62.89,3.17,56.9c0.06-12.38,0.12-25.18-0.2-37.81C2.8,12.34,4.66,8.58,9.54,6.07
		h66.19c6.41,2.99,6.59,7.71,6.36,16.83c-0.06,2.44-0.13,4.95,0.03,7.47l0.28,4.47l4.35,1.05c0.21,0.05,0.36,0.09,0.49,0.13
		c0.52,0.15,1.31,0.37,2.34,0.37l28.15,0c30.15,0,61.33,0,92,0.12c6.98,0,9.3-4.85,10.42-7.17c6.04-12.62,15.44-19.97,28.73-22.49
		l4.66-0.79h5.05l4.71,0.8c13.05,2.4,22.39,9.62,28.48,22.07c1.83,3.75,4.64,7.58,11.54,7.58c22.83-0.09,45.21-0.11,71.82-0.11
		h44.88c1.14,0,2.18-0.09,3.18-0.19c0.39-0.04,0.78-0.07,1.19-0.1l5.33-0.38l0.3-5.33c0.14-2.5,0.08-4.98,0.03-7.37
		c-0.21-9.2-0.02-13.96,6.37-16.96h66.15c2.82,1.51,4.95,3.64,6.46,6.46v66.04c-2.42,4.71-5.95,6.57-12.23,6.57
		c-0.26,0-0.52,0-0.79-0.01c-6.66-0.17-13.88-0.25-22.73-0.25c-5.12,0-10.25,0.02-15.37,0.05c-5.1,0.03-10.21,0.05-15.31,0.05
		l-1.87,0c-7.21-0.01-10.58-3.32-10.62-10.43c-0.01-2.99-0.01-5.98-0.01-9.08l0-10.47h-85.26l13.95,10.86
		c2.34,1.82,4.7,3.6,7.05,5.38c5.06,3.82,9.84,7.43,14.38,11.39c36.4,31.73,58.34,72.01,65.2,119.72c0.02,0.14,0.05,0.29,0.08,0.43
		c-0.63,13.1,7.41,19.68,15.4,24.39c15.06,8.88,21.31,31.23,13.39,47.83c-6.92,14.51-20.62,23.52-35.73,23.52
		c-3.74,0-7.48-0.56-11.11-1.68c-16.48-5.05-27.44-18.44-28.6-34.95c-1.16-16.48,7.76-31.61,22.73-38.52
		c7.44-3.44,6.73-9.81,6.42-12.53c-3.49-31.26-14.53-59.74-32.82-84.63c-24.35-33.15-56.83-55.4-96.53-66.12l-4.5-1.21l-2.34,4.03
		c-8.57,14.76-20.2,21.97-35.56,22.03l-0.21,0c-15.31,0-26.94-7.12-35.54-21.77l-2.28-3.88l-4.37,1.05
		C143.29,77.21,87.52,144.16,84.13,216.07l-0.2,4.26l3.93,1.64c11,4.58,18.45,11.94,22.77,22.49c7.94,19.4-0.95,41.18-20.69,50.65
		C85.14,297.41,79.9,298.58,74.37,298.58z M73.92,237.83c-11.38,0-21.07,9.64-21.18,21.05c-0.05,5.42,2.22,10.86,6.22,14.91
		c3.99,4.04,9.4,6.39,14.83,6.44l0.17,0c11.38,0,21.07-9.64,21.18-21.05c0.05-5.42-2.22-10.86-6.22-14.91
		c-3.99-4.04-9.4-6.39-14.83-6.44H73.92z M438.14,237.83c-5.43,0.02-10.84,2.35-14.85,6.38c-4.01,4.04-6.3,9.47-6.28,14.89
		c0.05,11.45,9.75,21.13,21.19,21.13c5.52-0.02,10.93-2.35,14.94-6.38c4.01-4.04,6.3-9.46,6.28-14.89
		c-0.05-11.45-9.75-21.13-21.19-21.13h-0.01H438.14z M256.04,24.33c-11.32,0-21.01,9.6-21.16,20.97
		c-0.15,11.26,9.64,21.27,20.97,21.43l0.27,0c11.32,0,21.01-9.6,21.16-20.97c0.15-11.26-9.64-21.27-20.97-21.43L256.04,24.33z
		 M21.62,66.67h41.91V24.58H21.62V66.67z M448.63,66.48h41.9V24.41h-41.9V66.48z"/>
	<path class="st8" d="M247.82,0.88c0.09-0.29,0.15-0.58,0.16-0.88c1.69,0,3.37,0,5.06,0C251.3,0.29,249.56,0.59,247.82,0.88z"/>
	<path class="st8" d="M247.82,0.88c0.09-0.29,0.15-0.58,0.16-0.88c1.69,0,3.37,0,5.06,0C251.3,0.29,249.56,0.59,247.82,0.88z"/>
	<path class="st8" d="M264.17,0c0.01,0.3,0.07,0.6,0.16,0.88c-1.74-0.29-3.48-0.59-5.22-0.88C260.8,0,262.48,0,264.17,0z"/>
	<path class="st8" d="M264.17,0c0.01,0.3,0.07,0.6,0.16,0.88c-1.74-0.29-3.48-0.59-5.22-0.88C260.8,0,262.48,0,264.17,0z"/>
	<path class="st8" d="M206.32,512c-13.18,0-26.35,0-39.52-0.01c-3.9,0-6.75-0.9-8.47-2.66c-1.68-1.73-2.48-4.53-2.38-8.32
		c0.53-19.68,8.08-36.44,22.44-49.8c4.7-4.38,6.26-9.12,5.2-15.84c-4.7-29.78-15.77-57.27-32.88-81.71
		c-5.72-8.18-12.33-15.74-18.71-23.05l-1.81-2.07c-5.81-6.66-6.06-9.61-1.41-16.59c39.37-59.08,78.75-118.15,118.13-177.21
		c2.77-4.15,6.03-6.44,9.17-6.44c3.14,0,6.39,2.28,9.15,6.42c39.19,58.79,78.37,117.59,117.56,176.38c5.54,8.31,5.34,10.82-1.4,17.9
		c-25.56,26.88-42.74,59.18-51.05,96.01c-0.52,2.31-0.87,4.59-1.21,6.79c-0.33,2.14-0.64,4.16-1.08,6.09
		c-1.49,6.53,2.51,10.21,4.66,12.18l0.37,0.34c15.11,14.04,22.67,30.73,23.13,51.04c0.05,2.4-0.32,5.71-2.43,7.86
		c-2.13,2.18-5.48,2.64-7.91,2.64C333,512,320.12,512,307.25,512L206.32,512z M256.29,450.15c-9.73,0-19.68,0.06-29.57,0.17
		c-22.73,0.26-42.46,14.47-49.08,35.36l-2.51,7.91h161.74l-2.38-7.84c-6.25-20.59-26.4-35.15-49.02-35.43
		C275.87,450.21,266.05,450.15,256.29,450.15z M146.43,318.67l3.1,3.5c26.92,30.44,44.31,66.14,51.7,106.11l0.97,5.26l5.34-0.3
		c16.31-0.93,32.14-1.38,48.4-1.38c16.05,0,31.99,0.44,48.72,1.34l5.33,0.29l0.97-5.25c7.33-39.86,24.71-75.54,51.66-106.07
		l3.09-3.5L265.18,167.89l0,34.25c-0.01,24.87-0.01,48.37,0.13,72.13c0.02,4.03,3.29,7.75,6.36,9.2
		c10.88,5.17,18.72,13.77,22.1,24.21c3.32,10.27,2.04,21.58-3.61,31.84c-6.72,12.23-19.3,19.54-33.64,19.54
		c-7.12,0-14.28-1.9-20.71-5.49c-8.43-4.71-14.86-13.16-17.65-23.17c-2.84-10.2-1.63-21.01,3.3-29.65
		c4.85-8.49,12.02-14.65,21.31-18.29l3.86-1.51V168.39L146.43,318.67z M256.05,298.54c-11.35,0-21.05,9.63-21.17,21.02
		c-0.06,5.42,2.2,10.86,6.2,14.92c3.99,4.05,9.39,6.4,14.82,6.46l0.21,0c11.35,0,21.05-9.63,21.17-21.02
		c0.12-11.27-9.7-21.26-21.02-21.38L256.05,298.54z"/>
</g>
</svg>
