<?xml version="1.0" encoding="utf-8"?>
<!-- Generator: Adobe Illustrator 24.3.0, SVG Export Plug-In . SVG Version: 6.00 Build 0)  -->
<svg version="1.1" id="Layer_1" xmlns="http://www.w3.org/2000/svg" xmlns:xlink="http://www.w3.org/1999/xlink" x="0px" y="0px"
	 viewBox="0 0 512 512" style="enable-background:new 0 0 512 512;" xml:space="preserve">
<style type="text/css">
	.st0{fill:#030303;}
	.st1{fill:#474444;}
	.st2{fill:#747171;}
	.st3{fill:#969393;}
	.st4{fill:#7B7878;}
	.st5{fill:#6D6A6A;}
	.st6{fill:#24B0C4;}
	.st7{fill:#E57E25;}
	.st8{fill:#FFFFFF;}
	.st9{fill:#101213;}
	.st10{fill:#58C3E1;}
	.st11{fill:#040404;}
	.st12{fill:#88C542;}
	.st13{fill:#4DBBEB;}
	.st14{fill:#DB3326;}
	.st15{fill:#FEC411;}
	.st16{fill:#F7911F;}
	.st17{fill:#3978BD;}
	.st18{fill:#2FAE73;}
	.st19{fill:#3A3D40;}
	.st20{fill:#FFFEFD;}
	.st21{fill:#DF2729;}
	.st22{fill:#B63031;}
	.st23{fill:#E23437;}
	.st24{fill:#020303;}
	.st25{fill:#0C0B0B;}
	.st26{fill:#D5B931;}
	.st27{fill:#FDD83F;}
	.st28{fill:#EBEAE9;}
	.st29{fill:#FFFFFE;}
	.st30{fill:#0B0A0A;}
</style>
<g>
	<path class="st0" d="M256.82,480.81c-10.19,0-20.38-0.01-30.57-0.04c-5.65-0.01-8.77-3.18-8.8-8.92
		c-0.03-5.19-0.02-10.38-0.01-15.52l0.01-11.66l-22.83-9.39l-3.4,3.48c-1.52,1.55-3.03,3.11-4.55,4.68
		c-3.28,3.39-6.68,6.89-10.06,10.25c-2.63,2.61-5.09,3.94-7.31,3.94c-2.2,0-4.62-1.3-7.2-3.87c-3.04-3.02-6.06-6.06-9.09-9.09
		c-6.66-6.69-13.55-13.6-20.51-20.27c-3.18-3.04-8.01-5.03-12.33-5.07c-15.46-0.13-31.04-0.15-44.24-0.15l-26.97,0.01l-7.87,0
		c-11.06-0.01-23.73-5.61-32.27-14.27c-4.79-4.86-7.16-9.73-7.91-16.31c-0.45-3.95-0.34-8.18-0.21-13.09
		c0.06-2.43,0.13-4.95,0.13-7.61V97.87c0-10.28-1.84-12.62-0.07-32.4c1.9-21.17,23.14-34.28,41.74-34.28h0.1
		c60.94,0.16,126.37,0.23,212.13,0.23c34.28,0,68.56-0.01,102.84-0.02c34.28-0.01,68.56-0.02,102.84-0.02h11.19
		c23.77,0,40.38,16.51,40.38,40.14c0.02,122.47,0.02,185.26,0,307.72c0,23.13-16.86,39.93-40.07,39.95l-5.12,0.01
		c-10.2,0.01-20.41,0.02-30.61,0.02c-16.79,0-30.53-0.03-43.24-0.1h-0.12c-5.23,0-9.37,1.76-13.05,5.54
		c-7.02,7.22-14.31,14.47-21.35,21.48c-2.15,2.14-4.31,4.29-6.46,6.44c-3.42,3.41-6.26,5.14-8.45,5.14c-2.15,0-4.91-1.68-8.21-4.98
		l-1.25-1.25c-0.93-0.94-1.86-1.87-2.8-2.79c-0.74-0.73-1.57-1.72-2.44-2.77c-2.72-3.27-6.11-7.34-11.3-8.29
		c-0.78-0.14-1.58-0.22-2.39-0.22c-4.21,0-7.94,1.89-11.23,3.55c-1.24,0.63-2.41,1.22-3.42,1.61c-1.25,0.49-2.9,1.52-3.98,3.69
		l-0.24,0.39l-0.17,0.52c-0.21,0.52-0.6,1.58-0.6,2.95c-0.01,2.58-0.01,5.14-0.02,7.7c-0.01,4.78-0.02,9.56-0.06,14.34
		c-0.05,5.37-3.28,8.59-8.64,8.6C276.78,480.8,266.79,480.81,256.82,480.81z M193.52,416.46c1.42,0,3.15,0.45,5.13,1.34
		c9.81,4.4,19,8.23,28.08,11.7c5.48,2.1,7.07,4.3,7.09,9.83c0.01,4.07,0.01,8.13,0.01,12.14l0,12.6h31.98h13.22l0-12.74
		c0-3.96,0-7.82,0-11.67c0.01-5.89,1.78-8.32,7.57-10.41c9.77-3.52,18.44-7.07,26.51-10.85c2.78-1.3,4.9-1.93,6.48-1.93
		c1.38,0,3.25,0.45,6.67,3.82c2.72,2.68,5.41,5.43,8.02,8.08c1.17,1.2,2.33,2.37,3.46,3.52l5.11,5.17l32.1-32.29l-5.23-5.08
		c-1.26-1.22-2.56-2.46-3.88-3.72c-2.94-2.8-5.98-5.7-8.83-8.67c-2.77-2.89-3.82-5.49-1.41-10.89c4.23-9.47,8.23-19.06,11.9-28.5
		c1.95-5.03,4.17-6.65,9.1-6.68c2.31-0.01,4.61-0.02,6.91-0.02l11.17,0.01h7.2v-45.2l-18.27,0.01c-2.22,0-4.42,0-6.62-0.01
		c-5.39-0.02-7.67-1.7-9.74-7.19c-3.54-9.37-7.41-18.68-11.49-27.68c-2.39-5.26-2.02-7.86,1.63-11.62c2.81-2.89,5.74-5.73,8.58-8.48
		c1.28-1.24,2.54-2.46,3.77-3.66l5.21-5.1l-32.63-32.51l-5.07,5.6c-0.54,0.59-1.1,1.22-1.67,1.86c-1.34,1.49-2.72,3.04-4.13,4.52
		c-2.48,2.59-4.4,4.51-6.23,6.2c-2.71,2.5-4.58,2.82-5.91,2.82c-1.42,0-3.14-0.44-5.1-1.32c-9.67-4.31-19.26-8.32-28.5-11.9
		c-4.98-1.93-6.67-4.23-6.69-9.1c-0.02-4.22-0.02-8.44-0.01-12.62l0.01-12.68h-45.2l0,12.74c0,3.94,0,7.79,0,11.63
		c-0.01,5.94-1.72,8.28-7.59,10.45c-9.81,3.62-18.6,7.23-26.87,11.05c-2.53,1.16-4.51,1.73-6.06,1.73c-1.39,0-3.22-0.41-6.33-3.45
		c-2.82-2.76-5.59-5.61-8.28-8.37c-1.18-1.22-2.35-2.42-3.5-3.58l-5.09-5.18l-32.35,32.33l5.3,5.09c1.29,1.23,2.61,2.48,3.95,3.74
		c2.95,2.78,6.01,5.66,8.84,8.61c2.77,2.89,3.82,5.49,1.41,10.89c-4.21,9.44-8.21,19.02-11.9,28.5c-1.95,5.02-4.17,6.64-9.13,6.67
		c-2.35,0.01-4.69,0.02-7.03,0.02l-11.01-0.01h-7.2v45.2l18.06,0c2.13,0,4.24,0,6.35,0.01c5.94,0.01,8.28,1.71,10.41,7.59
		c3.6,9.9,7.14,18.57,10.85,26.49c2.97,6.34,2.65,8.55-1.89,13.15c-2.69,2.72-5.45,5.41-8.12,8.02c-1.19,1.16-2.35,2.3-3.49,3.42
		l-5.2,5.12l32.36,32.06l5.07-5.3l1.56-1.64c1.28-1.35,2.67-2.81,4.08-4.25c2.2-2.24,4.24-4.32,6.36-6.35
		C190.22,416.81,192.16,416.46,193.52,416.46z M373.15,380.26l3.44,3.4c1.33,1.32,2.65,2.65,3.97,3.99
		c3.39,3.43,6.89,6.97,10.64,10.28c2.56,2.26,6.97,4.7,11.65,4.75c13.33,0.13,26.6,0.15,36.68,0.15c5.19,0,10.38-0.01,15.57-0.01
		c4.67-0.01,9.35-0.01,14.02-0.01c17.56,0,26.47-8.92,26.47-26.5l0-264.84H17.23l0,147.46c0,39.66,0,79.32,0.01,118.98
		c0.01,15.34,9.57,24.87,24.96,24.89c9.21,0.01,18.42,0.02,27.63,0.02c13.38,0,26.76-0.01,40.13-0.04h0.26c2.38,0,6.35,0,9.37-2.79
		c4.41-4.05,8.62-8.23,12.69-12.28c1.34-1.33,2.67-2.65,3.99-3.94l3.47-3.41l-9.46-22.75h-4.8c-2.43,0-4.84,0.01-7.22,0.01
		c-2.33,0.01-4.63,0.01-6.93,0.01c-2.9,0-5.79-0.01-8.68-0.04c-5.08-0.05-8.37-3.32-8.39-8.33c-0.06-18.71-0.06-38.67-0.01-61.03
		c0.01-5.34,3.24-8.55,8.63-8.59c2.89-0.02,5.77-0.03,8.67-0.03c2.3,0,11.56,0.02,13.9,0.02h4.79l1.85-4.42
		c0.45-1.06,0.9-2.11,1.35-3.14c1.22-2.81,2.49-5.72,3.5-8.81c1.19-3.64,0.1-8.39-2.6-11.29c-2.88-3.11-5.89-6.09-8.79-8.97
		c-1.45-1.44-2.9-2.88-4.33-4.33c-5.04-5.11-5.09-9.2-0.18-14.14c14.63-14.69,28.15-28.22,41.35-41.34c1.65-1.65,4.2-3.61,6.92-3.61
		c2.16,0,4.46,1.19,6.82,3.55c3.52,3.5,6.96,7.17,10.29,10.72c1.49,1.59,2.95,3.15,4.4,4.67l3.38,3.55l4.55-1.84
		c1.39-0.56,2.67-1.1,3.88-1.6c2.49-1.04,4.63-1.93,6.72-2.65c7-2.42,8.29-7.76,8.15-11.81c-0.23-6.32-0.16-12.64-0.05-19.64
		c0.07-4.63,3.3-8,7.68-8.03c10.3-0.06,20.8-0.09,31.2-0.09c10.34,0,20.88,0.03,31.33,0.09c4.37,0.02,7.63,3.41,7.73,8.05
		c0.04,1.78,0.03,3.57,0.02,5.46c-0.01,1.4-0.02,2.8,0,4.19c0.01,0.98-0.1,2.2-0.21,3.5c-0.37,4.13-0.82,9.26,2.1,13.53
		c2.9,4.23,7.75,5.85,11.65,7.14c1.26,0.42,2.45,0.81,3.38,1.23c1.39,0.62,2.61,0.68,3.27,0.71c0.11,0.01,0.25,0.01,0.43,0.03
		l3.44,0.34l2.42-2.47c1.51-1.54,3.04-3.11,4.58-4.7c3.43-3.53,6.98-7.19,10.56-10.71c1.49-1.46,3.83-3.21,6.54-3.21
		c2.71,0,5.04,1.74,6.51,3.2c13.31,13.18,27.06,26.94,42.05,42.05c4.4,4.44,4.35,8.84-0.16,13.47c-1.72,1.77-3.47,3.5-5.23,5.24
		c-2.72,2.7-5.53,5.48-8.23,8.38c-2.71,2.91-3.82,7.66-2.63,11.3c1.01,3.09,2.28,6,3.51,8.82c0.45,1.03,0.91,2.08,1.35,3.14
		l1.85,4.42h4.79c2.34,0,11.63-0.02,13.93-0.02c2.88,0,5.76,0.01,8.64,0.03c5.38,0.04,8.6,3.26,8.62,8.61
		c0.05,18.66,0.05,38.45,0,60.52c-0.01,5.66-3.17,8.8-8.9,8.83c-2.88,0.02-5.75,0.02-8.62,0.02c-2.31,0-13.72-0.01-13.72-0.01h-4.82
		L373.15,380.26z M41.36,47.74c-0.99,0-1.81,0.03-2.59,0.09c-12.1,0.94-21.31,10.4-21.42,21.99c-0.18,18.51-0.14,10.61-0.11,28.84
		c0.01,7.19,0.02-18.52,0.02-11.29v7.2H495.6l0-20.1c0-17.97-8.75-26.71-26.75-26.71l-424.9,0c-0.4,0-0.8-0.01-1.2-0.01
		C42.29,47.74,41.82,47.74,41.36,47.74z"/>
	<path class="st0" d="M256.11,388.41c-38.3-0.02-69.47-31.3-69.48-69.71c0-18.76,7.23-36.33,20.37-49.47
		c13.14-13.14,30.7-20.38,49.45-20.38c18.74,0,36.28,7.25,49.4,20.41c13.12,13.16,20.35,30.76,20.34,49.55
		c-0.01,18.68-7.27,36.19-20.44,49.28c-13.18,13.11-30.8,20.33-49.6,20.33H256.11z M256.35,265.25
		c-29.22,0.05-53.13,23.88-53.3,53.12c-0.08,14.09,5.47,27.49,15.65,37.73c10.19,10.25,23.58,15.9,37.7,15.9
		c29.3-0.04,53.22-23.88,53.38-53.13c0.08-14.1-5.47-27.5-15.64-37.73c-10.18-10.24-23.57-15.88-37.7-15.88h-0.01H256.35z"/>
</g>
</svg>
