<?xml version="1.0" encoding="utf-8"?>
<!-- Generator: Adobe Illustrator 24.3.0, SVG Export Plug-In . SVG Version: 6.00 Build 0)  -->
<svg version="1.1" id="Layer_1" xmlns="http://www.w3.org/2000/svg" xmlns:xlink="http://www.w3.org/1999/xlink" x="0px" y="0px"
	 viewBox="0 0 512 512" style="enable-background:new 0 0 512 512;" xml:space="preserve">
<style type="text/css">
	.st0{fill:#030303;}
	.st1{fill:#474444;}
	.st2{fill:#747171;}
	.st3{fill:#969393;}
	.st4{fill:#7B7878;}
	.st5{fill:#6D6A6A;}
	.st6{fill:#24B0C4;}
	.st7{fill:#E57E25;}
	.st8{fill:#FFFFFF;}
	.st9{fill:#101213;}
	.st10{fill:#58C3E1;}
	.st11{fill:#040404;}
	.st12{fill:#88C542;}
	.st13{fill:#4DBBEB;}
	.st14{fill:#DB3326;}
	.st15{fill:#FEC411;}
	.st16{fill:#F7911F;}
	.st17{fill:#3978BD;}
	.st18{fill:#2FAE73;}
	.st19{fill:#3A3D40;}
	.st20{fill:#FFFEFD;}
	.st21{fill:#DF2729;}
	.st22{fill:#B63031;}
	.st23{fill:#E23437;}
	.st24{fill:#020303;}
	.st25{fill:#0C0B0B;}
	.st26{fill:#D5B931;}
	.st27{fill:#FDD83F;}
	.st28{fill:#EBEAE9;}
	.st29{fill:#FFFFFE;}
	.st30{fill:#0B0A0A;}
</style>
<g>
	<path class="st8" d="M256.28,486.11c-2.43,0-5.39-1.73-8.81-5.15c-19.5-19.49-39.39-39.24-58.62-58.34
		c-48.64-48.31-98.93-98.27-147.4-148.33C1.73,233.25-9.73,182.5,8.31,127.5c8.85-26.97,22.93-49.03,41.86-65.56
		c18.87-16.48,42.72-27.62,70.89-33.12c9.96-1.94,19.86-2.93,29.43-2.93c33.87,0,65.6,12.3,94.31,36.55
		c0.9,0.76,1.79,1.52,2.68,2.28c1.3,1.11,2.59,2.22,3.9,3.31c1.52,1.26,3.11,1.46,3.88,1.56c0.17,0.02,0.38,0.05,0.68,0.1l3.04,0.55
		l2.25-2.11c16.78-15.74,35.38-27.18,55.27-33.98c15.7-5.37,31.94-8.09,48.27-8.09c34.53,0,68.19,12.23,94.75,34.45
		c27.19,22.73,45.12,54.65,50.5,89.87c7.43,48.67-6.03,90.84-40,125.36c-49.92,50.74-101.2,101.83-150.78,151.25
		c-18.04,17.97-36.07,35.95-54.09,53.94C261.71,484.36,258.72,486.11,256.28,486.11z M147.67,44.73c-23.32,0-46.11,6.4-65.91,18.51
		C47.49,84.2,25.08,118.67,20.29,157.8c-4.75,38.84,8.54,77.37,36.48,105.71c44.52,45.15,90.17,90.66,134.31,134.67
		c19.03,18.97,38.06,37.93,57.05,56.93c0.87,0.87,1.74,1.63,2.66,2.43c0.4,0.35,0.83,0.72,1.27,1.12l3.92,3.52l4.07-3.34
		c0.39-0.32,0.75-0.6,1.09-0.86c0.82-0.64,1.66-1.3,2.49-2.13c17.33-17.33,34.67-34.65,52.01-51.96
		c46.41-46.35,94.4-94.28,141.35-141.67c23.52-23.74,35.51-52.97,35.64-86.9c0.19-50-22.11-89.22-64.49-113.41
		c-20.68-11.8-41.98-17.78-63.31-17.78c-22.57,0-45.12,6.68-67.02,19.86c-9.16,5.51-17.04,12.84-24.67,19.94
		c-2.94,2.74-5.99,5.57-9.01,8.2c-2.96,2.57-5.64,3.88-7.99,3.88c-2.31,0-4.76-1.23-7.49-3.75c-2.19-2.02-4.27-4.13-6.48-6.35
		c-2.08-2.1-4.23-4.27-6.47-6.36C211.66,57.09,180.4,44.73,147.67,44.73z"/>
	<path class="st8" d="M254.28,346.92c-8.49,0-16.97-0.01-25.46-0.05c-8.31-0.03-10.23-2.01-10.26-10.56
		c-0.04-9.44-0.03-18.87-0.02-28.68c0-4.39,0.01-20.57,0.01-20.57l-32.72,0.02c-5.47,0-10.92-0.01-16.37-0.03
		c-8.9-0.03-10.71-1.89-10.73-11.02c-0.04-16.1-0.07-35.12,0.01-54.13c0.03-8.31,2-10.22,10.55-10.26
		c5.39-0.02,10.79-0.03,16.25-0.03c4.11,0,33.02,0.02,33.02,0.02v-7.16c0-4.6-0.01-9.1-0.01-13.53c-0.02-10.11-0.03-19.66,0.04-29.3
		c0.05-7.77,2.12-9.79,10.06-9.82c9.69-0.04,19.39-0.07,29.08-0.07c9.6,0,18.39,0.03,26.88,0.08c7.12,0.04,9.31,2.29,9.36,9.61
		c0.08,9.66,0.06,19.25,0.04,29.4c-0.01,4.46-0.02,8.99-0.02,13.64v7.16l32.56-0.02c5.51,0,11.01,0.01,16.5,0.03
		c8.93,0.03,10.74,1.88,10.76,10.99c0.04,15.93,0.07,34.83-0.01,54.12c-0.03,8.24-2.1,10.26-10.55,10.29
		c-5.35,0.02-10.71,0.03-16.13,0.03c-4.13,0-21.4-0.02-25.98-0.02h-7.16c0,0,0,15.82,0.01,20.11c0.01,9.73,0.02,19.34-0.02,28.97
		c-0.04,8.91-1.89,10.72-11.02,10.74C273.39,346.91,263.83,346.92,254.28,346.92z M207.6,271.43c5.4,0,10.77,0.01,16.14,0.03
		c8.41,0.04,10.36,1.99,10.4,10.44c0.05,9.66,0.04,19.54,0.03,29.09c0,4.26-0.01,20-0.01,20h44.22l0-20.04
		c0-9.38-0.01-18.54,0.01-27.71c0.02-10.34,1.45-11.77,11.81-11.79c5.2-0.01,10.41-0.01,15.59-0.01l31.81,0.01v-44.22
		c0,0-28.55,0.02-32.69,0.02c-5.39,0-10.73-0.01-16.08-0.03c-8.43-0.04-10.38-1.99-10.42-10.42c-0.05-9.67-0.03-19.52-0.02-29.06
		c0-4.24,0.01-19.89,0.01-19.89h-44.22l0,19.82c0,9.35,0.01,18.55-0.01,27.74c-0.02,10.24-1.57,11.79-11.82,11.81
		c-5.17,0.01-10.33,0.01-15.48,0.01l-31.9-0.01v44.22C174.94,271.45,203.46,271.43,207.6,271.43z"/>
</g>
</svg>
