<?xml version="1.0" encoding="utf-8"?>
<!-- Generator: Adobe Illustrator 24.3.0, SVG Export Plug-In . SVG Version: 6.00 Build 0)  -->
<svg version="1.1" id="Layer_1" xmlns="http://www.w3.org/2000/svg" xmlns:xlink="http://www.w3.org/1999/xlink" x="0px" y="0px"
	 viewBox="0 0 512 493.86" style="enable-background:new 0 0 512 493.86;" xml:space="preserve">
<style type="text/css">
	.st0{fill:#030303;}
	.st1{fill:#474444;}
	.st2{fill:#747171;}
	.st3{fill:#969393;}
	.st4{fill:#7B7878;}
	.st5{fill:#6D6A6A;}
	.st6{fill:#24B0C4;}
	.st7{fill:#E57E25;}
	.st8{fill:#FFFFFF;}
	.st9{fill:#101213;}
	.st10{fill:#58C3E1;}
	.st11{fill:#040404;}
	.st12{fill:#88C542;}
	.st13{fill:#4DBBEB;}
	.st14{fill:#DB3326;}
	.st15{fill:#FEC411;}
	.st16{fill:#F7911F;}
	.st17{fill:#3978BD;}
	.st18{fill:#2FAE73;}
	.st19{fill:#3A3D40;}
	.st20{fill:#FFFEFD;}
	.st21{fill:#DF2729;}
	.st22{fill:#B63031;}
	.st23{fill:#E23437;}
	.st24{fill:#020303;}
	.st25{fill:#0C0B0B;}
	.st26{fill:#D5B931;}
	.st27{fill:#FDD83F;}
	.st28{fill:#EBEAE9;}
	.st29{fill:#FFFFFE;}
	.st30{fill:#0B0A0A;}
</style>
<path class="st8" d="M415.35,493.86c-22.98,0-44.67-17.66-49.37-40.2c-3.02-14.47-0.47-27.66,7.8-40.32l5.14-7.89H218.52l4.52,7.69
	c0.31,0.53,0.62,1.04,0.94,1.55c0.6,0.98,1.16,1.9,1.62,2.8c9.4,18.27,8.83,35.93-1.68,52.46c-9.99,15.72-24.53,23.7-43.21,23.7
	c-0.89,0-1.78-0.02-2.69-0.05c-21.54-0.86-40.67-16.27-46.53-37.47c-5.95-21.53,2.59-44.11,21.26-56.19
	c5.29-3.43,6.83-7.53,5.12-13.72c-21.74-79.08-47.03-171.14-71.9-262.89c-6.5-23.96-12.79-48.46-18.87-72.14
	c-2.82-11-5.65-22-8.51-33.01l-0.99-3.82H0V0.07l7.92-0.02C18.89,0.02,29.87,0,40.84,0c7.19,0,14.37,0.01,21.56,0.04
	c3.76,0.01,6.26,1.18,7.87,7.12C75.92,27.97,81.56,48.78,87.2,69.6l8.57,31.63c0.3,1.1,0.61,2.19,0.96,3.41l1.59,5.58l150.7,0.01
	c78.95,0,163.95-0.01,250.56-0.13c6.34,0,9.85,1.29,12.42,4.68v3.83l-0.71,2.48l-8.65,32.44c-6.5,24.37-12.99,48.74-19.53,73.09
	c-1.66,6.17-3.31,12.35-4.96,18.52c-6.5,24.3-13.22,49.42-20.06,74.06c-5.44,19.6-21.41,31.79-41.66,31.82
	c-29.01,0.04-60.31,0.06-95.66,0.06c-38.01,0-76.02-0.02-114.03-0.05l-25.54-0.01c-2,0-4.05-0.2-6.43-0.42
	c-1.22-0.12-2.48-0.24-3.81-0.34l-7.18-0.54l11.09,41.16l142.4-0.01c32.5,0,64.99,0,97.49,0.01c14.38,0,27.68,5.45,37.45,15.34
	c9.75,9.86,15.02,23.17,14.86,37.47c-0.3,25.9-20.67,47.38-47.38,49.95C418.25,493.79,416.79,493.86,415.35,493.86z M415.97,405.12
	c-9.84,0-19.15,3.9-26.22,10.97c-7.11,7.12-11.01,16.51-11,26.45c0.02,20.83,16.46,37.14,37.42,37.14h0.14
	c20.68-0.07,36.87-16.42,36.86-37.21c-0.01-20.43-16.57-37.18-36.9-37.35L415.97,405.12z M180.78,405.11
	c-9.88,0.03-19.21,3.97-26.28,11.1c-7.11,7.18-11,16.63-10.94,26.62c0.12,20.32,16.84,36.85,37.25,36.85
	c20.46-0.01,37.16-16.58,37.25-36.92c0.05-10-3.86-19.46-11.01-26.64c-7.07-7.1-16.36-11.01-26.18-11.01h-0.01H180.78z
	 M103.42,131.07c0.1,0.5,0.18,0.98,0.26,1.45c0.19,1.12,0.38,2.27,0.72,3.48c16.07,58.3,32.15,116.59,48.24,174.88l1.16,4.22
	c4.04,14.66,14.62,22.73,29.79,22.74c37.48,0.01,74.97,0.01,112.46,0.01c39.57,0,79.14-0.01,118.71-0.02
	c15.28,0,25.86-8.09,29.79-22.77c7.16-26.71,14.27-53.43,21.39-80.15l9.22-34.61l20.09-75.3H102.27L103.42,131.07z"/>
<path class="st8" d="M511.11,124.92c0.3-1.04,0.6-2.07,0.89-3.11c0,1,0,2,0,3C511.7,124.82,511.4,124.85,511.11,124.92z"/>
<path class="st8" d="M511.11,124.92c0.3-1.04,0.6-2.07,0.89-3.11c0,1,0,2,0,3C511.7,124.82,511.4,124.85,511.11,124.92z"/>
</svg>
