<?xml version="1.0" encoding="utf-8"?>
<!-- Generator: Adobe Illustrator 24.3.0, SVG Export Plug-In . SVG Version: 6.00 Build 0)  -->
<svg version="1.1" id="Layer_1" xmlns="http://www.w3.org/2000/svg" xmlns:xlink="http://www.w3.org/1999/xlink" x="0px" y="0px"
	 viewBox="0 0 512 512" style="enable-background:new 0 0 512 512;" xml:space="preserve">
<style type="text/css">
	.st0{fill:#030303;}
	.st1{fill:#474444;}
	.st2{fill:#747171;}
	.st3{fill:#969393;}
	.st4{fill:#7B7878;}
	.st5{fill:#6D6A6A;}
	.st6{fill:#24B0C4;}
	.st7{fill:#E57E25;}
	.st8{fill:#FFFFFF;}
	.st9{fill:#101213;}
	.st10{fill:#58C3E1;}
	.st11{fill:#040404;}
	.st12{fill:#88C542;}
	.st13{fill:#4DBBEB;}
	.st14{fill:#DB3326;}
	.st15{fill:#FEC411;}
	.st16{fill:#F7911F;}
	.st17{fill:#3978BD;}
	.st18{fill:#2FAE73;}
	.st19{fill:#3A3D40;}
	.st20{fill:#FFFEFD;}
	.st21{fill:#DF2729;}
	.st22{fill:#B63031;}
	.st23{fill:#E23437;}
	.st24{fill:#020303;}
	.st25{fill:#0C0B0B;}
	.st26{fill:#D5B931;}
	.st27{fill:#FDD83F;}
	.st28{fill:#EBEAE9;}
	.st29{fill:#FFFFFE;}
	.st30{fill:#0B0A0A;}
</style>
<g>
	<path class="st8" d="M198.71,473.85c-50.62,0-101.23-0.01-151.85-0.04c-26.24-0.01-46.81-20.57-46.82-46.79
		c-0.05-121.64-0.05-233.62,0-342.34C0.06,58.63,20.49,38.21,46.57,38.2c50.26-0.03,100.53-0.04,150.79-0.04
		c51.17,0,102.33,0.01,153.51,0.04c26.15,0.01,46.69,20.6,46.76,46.87c0.05,19.47,0.06,39.28,0.06,58.44
		c0,10.31-0.12,19.12,0.01,29.51c0.14,10.89,0.42,20.02,0.65,26.59c7.79-7.33,13.74-13.29,17.79-17.42
		c0.54-0.55,0.65-0.64,6.57-6.75c4.57-4.71,8.89-9.16,13.3-13.52c6.54-6.47,13.89-9.89,21.24-9.89c7.27,0,14.53,3.35,20.98,9.69
		c8.01,7.87,16.17,16.03,24.26,24.25c12.72,12.93,12.69,28.94-0.07,41.78c-35.68,35.9-71.05,71.16-97.89,97.88
		c-4.8,4.78-7.02,10.09-6.98,16.71c0.18,29.18,0.13,58.82,0.08,84.31c-0.06,26.88-20.29,47.16-47.06,47.17
		C299.95,473.83,249.33,473.85,198.71,473.85z M17.4,160.55c-0.02,0.43-0.04,0.8-0.06,1.12c-0.05,0.89-0.08,1.57-0.08,2.25l0,50.58
		c-0.01,70.29-0.01,140.58,0.02,210.87c0.01,18.66,12.76,31.21,31.72,31.21c50.48,0.01,100.97,0.02,151.45,0.02
		c49.35,0,98.69-0.01,148.04-0.02c19.64,0,31.88-12.34,31.93-32.19c0.02-9.22,0.02-18.45,0.01-27.67l-0.01-48.37l-17.94,18.84
		c-1.65,1.73-3.1,3.35-4.39,4.77c-2.39,2.65-4.27,4.75-6.17,6.26c-3.92,3.12-8.08,6.29-12.05,7.83
		c-13.11,5.11-26.74,9.8-39.92,14.34l-6.4,2.21c-1.55,0.53-3.1,1.1-4.66,1.67c-4.79,1.76-9.32,3.41-13.49,3.91
		c-0.76,0.09-1.52,0.14-2.27,0.14c-5.54,0-10.57-2.6-13.82-7.13c-3.6-5.03-4.45-11.52-2.31-17.79c7.89-23.2,14.65-42.19,21.28-59.78
		c1.43-3.8,3.9-7.66,6.76-10.57c4.49-4.57,8.97-9.15,13.46-13.74c20.17-20.62,41.03-41.94,62.41-61.79
		c3.51-3.26,13.79-12.18,18.16-26.89c0.3-1,0.51-1.82,0.63-2.35c0.82-8.41,0.22-29.54,0.5-37.87c0.1-3.04,0.21-6.19,0.21-9.37
		v-10.41H17.88L17.4,160.55z M450.25,172.69c-0.17,0.14-0.34,0.29-0.52,0.43c-0.62,0.51-1.39,1.15-2.2,1.96
		c-49.3,49.29-98.59,98.58-147.86,147.89l-0.29,0.29c-1.5,1.48-3.76,3.73-5.02,7.18c-3.7,10.15-7.28,20.25-11.07,30.94l-10.63,29.92
		l20.55-7.22c3.57-1.26,7.06-2.47,10.48-3.65c8.9-3.09,17.31-6.01,25.73-9.2c4.86-1.84,9.46-4.77,12.94-8.24
		c31.76-31.63,63.99-63.85,95.15-95c16.49-16.48,32.97-32.96,49.47-49.43c0.21-0.19,0.99-0.69,1.5-1.02
		c0.66-0.42,1.3-0.84,1.91-1.27l4.44-4.61c2.22-2.31,2.18-5.98-0.09-8.24l-32.54-32.44c-2.62-2.61-6.8-2.75-9.59-0.34L450.25,172.69
		z M48.35,55.38c-1.06,0-1.94,0.03-2.79,0.08c-15.62,1.02-27.44,12.59-28.09,27.5c-0.41,9.34-0.32,18.76-0.23,27.86
		c0.04,3.93,0.08,7.86,0.08,11.82v10.41h363.08l0-21.12c0-7.81,0-15.44,0-23.07c-0.01-21.58-11.96-33.46-33.64-33.47H51
		c-0.4,0-0.8-0.01-1.2-0.01C49.31,55.39,48.83,55.38,48.35,55.38z"/>
	<path class="st8" d="M117.43,220.66c-19.25,0-38.5-0.01-57.76-0.04c-4.44-0.01-8.7-3.42-9.31-7.45c-0.76-5.06,1.99-9.56,6.69-10.94
		c0.97-0.29,3.03-0.29,3.8-0.29c48.88-0.02,97.77-0.03,146.65-0.03c33.21,0,66.4,0,99.61,0.01c6.23,0,10.27,3.66,10.27,9.32
		c0,2.73-0.89,5.04-2.6,6.69c-1.82,1.76-4.45,2.7-7.59,2.7c-18.51,0.02-37.02,0.02-55.53,0.02l-69.81-0.01L117.43,220.66z"/>
	<path class="st8" d="M143.17,303.42c-27.79,0-55.58-0.01-83.37-0.03c-4.55,0-8.78-3.34-9.44-7.43c-0.81-5.02,1.92-9.51,6.63-10.92
		c1.08-0.33,3.32-0.33,4.4-0.33c15.64-0.03,31.29-0.04,46.94-0.04l81.13,0c11.38,0,22.75,0,34.12,0.01c2.58,0,11.01,0.67,11.06,9.24
		c0.01,2.74-0.8,4.95-2.42,6.59c-1.86,1.87-4.8,2.9-8.26,2.9C197.02,303.41,170.09,303.42,143.17,303.42z"/>
	<path class="st8" d="M121.42,386.19c-20.33,0-40.66-0.01-60.99-0.03c-3.14,0-5.74-0.96-7.54-2.77c-1.65-1.66-2.52-3.98-2.51-6.71
		c0.03-5.77,3.91-9.22,10.38-9.24c8.45-0.02,16.89-0.02,25.34-0.02l36.03,0.01l36.04-0.01c8.23,0,16.45,0,24.68,0.02
		c6.29,0.01,10.38,3.64,10.4,9.24c0.01,2.71-0.86,5.03-2.51,6.69c-1.81,1.82-4.42,2.78-7.55,2.78
		C162.6,386.17,142.01,386.19,121.42,386.19z"/>
</g>
</svg>
