<?xml version="1.0" encoding="utf-8"?>
<!-- Generator: Adobe Illustrator 24.3.0, SVG Export Plug-In . SVG Version: 6.00 Build 0)  -->
<svg version="1.1" id="Layer_1" xmlns="http://www.w3.org/2000/svg" xmlns:xlink="http://www.w3.org/1999/xlink" x="0px" y="0px"
	 viewBox="0 0 512 512" style="enable-background:new 0 0 512 512;" xml:space="preserve">
<style type="text/css">
	.st0{fill:#030303;}
	.st1{fill:#474444;}
	.st2{fill:#747171;}
	.st3{fill:#969393;}
	.st4{fill:#7B7878;}
	.st5{fill:#6D6A6A;}
	.st6{fill:#24B0C4;}
	.st7{fill:#E57E25;}
	.st8{fill:#FFFFFF;}
	.st9{fill:#101213;}
	.st10{fill:#58C3E1;}
	.st11{fill:#040404;}
	.st12{fill:#88C542;}
	.st13{fill:#4DBBEB;}
	.st14{fill:#DB3326;}
	.st15{fill:#FEC411;}
	.st16{fill:#F7911F;}
	.st17{fill:#3978BD;}
	.st18{fill:#2FAE73;}
	.st19{fill:#3A3D40;}
	.st20{fill:#FFFEFD;}
	.st21{fill:#DF2729;}
	.st22{fill:#B63031;}
	.st23{fill:#E23437;}
	.st24{fill:#020303;}
	.st25{fill:#0C0B0B;}
	.st26{fill:#D5B931;}
	.st27{fill:#FDD83F;}
	.st28{fill:#EBEAE9;}
	.st29{fill:#FFFFFE;}
	.st30{fill:#0B0A0A;}
	.st31{fill:#636060;}
	.st32{fill:#7D7A7A;}
</style>
<g>
	<path class="st8" d="M120.17,441.4c-15.46-0.13-31.04-0.15-44.24-0.15l-26.97,0.01l-7.87,0c-11.06-0.01-23.73-5.61-32.27-14.27
		c-4.79-4.86-7.16-9.73-7.91-16.31c-0.45-3.95-0.34-8.18-0.21-13.09c0.06-2.43,0.13-4.95,0.13-7.61V119.93
		c0-10.28-1.84-12.62-0.07-32.4c1.9-21.17,23.14-34.28,41.74-34.28h0.1c60.94,0.16,126.37,0.23,212.13,0.23
		c34.28,0,68.56-0.01,102.84-0.02c34.28-0.01,68.56-0.02,102.84-0.02h11.19c23.77,0,40.38,16.51,40.38,40.14
		c0.02,122.47,0.02,185.26,0,307.72c0,23.13-16.86,39.93-40.07,39.95l-5.12,0.01c-10.2,0.01-20.41,0.02-30.61,0.02
		c-16.79,0-30.53-0.03-43.24-0.1h-0.12 M402.86,424.75c13.33,0.13,26.6,0.15,36.68,0.15c5.19,0,10.38-0.01,15.57-0.01
		c4.67-0.01,9.35-0.01,14.02-0.01c17.56,0,26.47-8.92,26.47-26.5l0-264.84H17.23l0,147.46c0,39.66,0,79.32,0.01,118.98
		c0.01,15.34,9.57,24.87,24.96,24.89c9.21,0.01,18.42,0.02,27.63,0.02c13.38,0,26.76-0.01,40.13-0.04h0.26 M41.36,69.8
		c-0.99,0-1.81,0.03-2.59,0.09c-12.1,0.94-21.31,10.4-21.42,21.99c-0.18,18.51-0.14,10.61-0.11,28.84
		c0.01,7.19,0.02-18.52,0.02-11.29v7.2H495.6l0-20.1c0-17.97-8.75-26.71-26.75-26.71l-424.9,0c-0.4,0-0.8-0.01-1.2-0.01
		C42.29,69.81,41.82,69.8,41.36,69.8z"/>
</g>
<g>
	<path class="st8" d="M51.67,167.86l-0.01,114.1c0,30.68,0,61.36,0.01,92.05c0.01,11.87,8.19,19.24,21.36,19.25
		c7.88,0.01,15.77,0.02,23.65,0.02c11.45,0,22.9-0.01,34.35-0.03h0.22l250.42-0.08c11.41,0.1,22.77,0.12,31.39,0.12
		c4.44,0,8.89-0.01,13.33-0.01c4-0.01,8-0.01,12-0.01c15.03,0,22.65-6.9,22.65-20.5V167.86H51.67z M160.17,251.58
		c-0.45,10.8-0.67,18.9-0.67,24.29c0,1.49,0.03,3.74,0.07,6.74c0.05,3,0.07,5.25,0.07,6.74c0,11.87-1.42,19.97-4.26,24.3
		c-5.21,7.91-18.22,11.87-39.03,11.87c-9.4,0-16.64-0.73-21.71-2.17c-8.1-2.32-13.36-6.77-15.78-13.33
		c-1.21-3.22-1.82-8.94-1.82-17.18c0-1.91,0.07-4.75,0.21-8.52c0.14-3.77,0.21-6.58,0.21-8.45c0-5.39-0.25-13.49-0.76-24.29
		c-0.52-10.8-0.77-18.88-0.77-24.23c0-1.12,0.49-1.68,1.46-1.68c2.84,0,7.14,0.12,12.89,0.35c5.74,0.24,10.04,0.35,12.88,0.35
		c1.16,0,1.74,0.51,1.74,1.54c0,6.14-0.2,15.35-0.59,27.61c-0.4,12.27-0.59,21.47-0.59,27.62c0,7.3,0.76,12.24,2.3,14.8
		c2.05,3.49,6.33,5.23,12.85,5.23c9.54,0,14.31-4.63,14.31-13.89c0-6.75-0.16-16.87-0.49-30.37c-0.32-13.5-0.49-23.62-0.49-30.37
		c0-1.45,0.58-2.17,1.75-2.17c2.74,0,6.89-0.11,12.43-0.35c5.54-0.23,9.68-0.35,12.43-0.35c1.34,0,2.02,0.56,2.02,1.68
		C160.83,232.7,160.61,240.78,160.17,251.58z M202.16,296.82c0.28,11.03,0.42,19.3,0.42,24.79c0,0.93-0.21,1.51-0.63,1.74
		c-0.09,0.05-0.69,0.14-1.81,0.28c-3.03,0.37-7.08,0.56-12.15,0.56c-6.8,0-11.13-0.19-12.99-0.56c-1.33-0.28-2-0.98-2.02-2.11
		c0.05-0.45,0.26-4.55,0.63-12.34c0.83-18.85,1.25-31.23,1.25-37.15c0-4.98-0.16-12.45-0.48-22.41c-0.33-9.96-0.49-17.43-0.49-22.41
		c0-1.02,0.53-1.54,1.6-1.54c1.44,0,3.62,0.07,6.53,0.21c2.91,0.14,5.09,0.21,6.53,0.21c1.44,0,3.57-0.07,6.39-0.21
		c2.81-0.14,4.94-0.21,6.39-0.21c1.35,0,2.02,0.52,2.02,1.54c0,4.98-0.27,12.45-0.8,22.41c-0.54,9.96-0.8,17.43-0.8,22.41
		C201.75,277.53,201.88,285.79,202.16,296.82z M248.04,254.65c-4.66,16.62-7.15,25.51-7.47,26.67c-1.77,6.94-4.54,17.97-8.31,33.1
		c-0.8,3.86-2.21,9.51-4.26,16.96c-0.33,1.03-0.82,1.54-1.47,1.54c-0.23,0-0.56-0.1-0.98-0.28c-3.77-1.35-8.14-3.07-13.12-5.17
		c-0.33-0.18-0.49-0.58-0.49-1.18c0-0.47,0.07-0.98,0.21-1.54c6.47-22.25,11.19-39.17,14.17-50.76l8.73-33.86
		c0.65-3.12,1.74-7.75,3.28-13.9c0.28-1.02,0.77-1.53,1.47-1.53c1.44,0,4.16,0.79,8.17,2.37c4.28,1.72,6.42,3.12,6.42,4.19
		C254.39,231.68,252.27,239.47,248.04,254.65z M347.22,251.58c-0.45,10.8-0.67,18.9-0.67,24.29c0,1.49,0.03,3.74,0.07,6.74
		c0.05,3,0.07,5.25,0.07,6.74c0,11.87-1.42,19.97-4.26,24.3c-5.21,7.91-18.22,11.87-39.03,11.87c-9.4,0-16.64-0.73-21.71-2.17
		c-8.1-2.32-13.36-6.77-15.78-13.33c-1.21-3.22-1.82-8.94-1.82-17.18c0-1.91,0.07-4.75,0.21-8.52c0.14-3.77,0.21-6.58,0.21-8.45
		c0-5.39-0.25-13.49-0.76-24.29c-0.52-10.8-0.77-18.88-0.77-24.23c0-1.12,0.49-1.68,1.46-1.68c2.84,0,7.14,0.12,12.89,0.35
		c5.74,0.24,10.04,0.35,12.88,0.35c1.16,0,1.74,0.51,1.74,1.54c0,6.14-0.2,15.35-0.59,27.61c-0.4,12.27-0.59,21.47-0.59,27.62
		c0,7.3,0.76,12.24,2.3,14.8c2.05,3.49,6.33,5.23,12.85,5.23c9.54,0,14.31-4.63,14.31-13.89c0-6.75-0.16-16.87-0.49-30.37
		c-0.32-13.5-0.49-23.62-0.49-30.37c0-1.45,0.58-2.17,1.75-2.17c2.75,0,6.89-0.11,12.43-0.35c5.54-0.23,9.68-0.35,12.43-0.35
		c1.34,0,2.02,0.56,2.02,1.68C347.88,232.7,347.66,240.78,347.22,251.58z M436.9,322.45c-0.51,1.02-2.09,1.53-4.75,1.53h-2.79
		c-1.4-0.05-2.57-0.07-3.52-0.07c-0.96,0-2.38-0.05-4.26-0.14c-1.89-0.09-3.3-0.14-4.23-0.14c-0.74,0-4.09-4.47-10.05-13.4
		c-5.96-8.94-9.06-13.43-9.29-13.48c-0.98,0.79-4.33,5.49-10.05,14.1c-5.5,8.24-8.71,12.5-9.64,12.78c-0.65,0.19-2.4,0.28-5.23,0.28
		c-9.55,0-14.32-0.49-14.32-1.46c0-0.98-0.06-2.38-0.17-4.19c-0.12-1.82-0.18-3.17-0.18-4.05c0-5.78,0.35-9.17,1.05-10.2
		c0.05-0.04,3.89-5.14,11.52-15.29c6.19-8.19,9.29-12.87,9.29-14.03c0-1.17-3.1-5.77-9.29-13.83c-3.91-4.98-7.8-9.98-11.66-15.01
		c-0.42-0.6-0.67-1.6-0.77-3c-0.04-0.98-0.04-2.31,0-3.98c0.14-2,0.21-3.12,0.21-3.35c0-0.93-0.08-2.38-0.24-4.33
		c-0.17-1.96-0.25-3.4-0.25-4.33c0-0.88,0.82-1.33,2.45-1.33c1.07,0,2.65,0.07,4.75,0.21c2.09,0.14,3.65,0.21,4.67,0.21
		c0.93,0,2.31-0.04,4.12-0.14c1.82-0.09,3.17-0.14,4.05-0.14c0.75,0,4.13,4.53,10.16,13.58c6.03,9.06,9.18,13.58,9.46,13.58
		c0.93-0.56,4.35-5.3,10.27-14.24c5.63-8.61,8.86-12.92,9.7-12.92h16.62c1.63,0,2.44,0.4,2.44,1.19v16.97
		c0,1.21-3.59,6.49-10.79,15.85c-7.19,9.35-10.78,14.31-10.78,14.87c0,0.79,3.16,5.37,9.49,13.75c7.45,9.82,11.34,14.97,11.66,15.43
		c0.65,1.03,0.98,4.56,0.98,10.62C437.53,318.91,437.32,321.61,436.9,322.45z"/>
</g>
</svg>
