<?xml version="1.0" encoding="utf-8"?>
<!-- Generator: Adobe Illustrator 24.3.0, SVG Export Plug-In . SVG Version: 6.00 Build 0)  -->
<svg version="1.1" id="Layer_1" xmlns="http://www.w3.org/2000/svg" xmlns:xlink="http://www.w3.org/1999/xlink" x="0px" y="0px"
	 viewBox="0 0 512 512" style="enable-background:new 0 0 512 512;" xml:space="preserve">
<style type="text/css">
	.st0{fill:#030303;}
	.st1{fill:#474444;}
	.st2{fill:#747171;}
	.st3{fill:#969393;}
	.st4{fill:#7B7878;}
	.st5{fill:#6D6A6A;}
	.st6{fill:#24B0C4;}
	.st7{fill:#E57E25;}
	.st8{fill:#FFFFFF;}
	.st9{fill:#101213;}
	.st10{fill:#58C3E1;}
	.st11{fill:#040404;}
	.st12{fill:#88C542;}
	.st13{fill:#4DBBEB;}
	.st14{fill:#DB3326;}
	.st15{fill:#FEC411;}
	.st16{fill:#F7911F;}
	.st17{fill:#3978BD;}
	.st18{fill:#2FAE73;}
	.st19{fill:#3A3D40;}
	.st20{fill:#FFFEFD;}
	.st21{fill:#DF2729;}
	.st22{fill:#B63031;}
	.st23{fill:#E23437;}
	.st24{fill:#020303;}
	.st25{fill:#0C0B0B;}
	.st26{fill:#D5B931;}
	.st27{fill:#FDD83F;}
	.st28{fill:#EBEAE9;}
	.st29{fill:#FFFFFE;}
	.st30{fill:#0B0A0A;}
</style>
<g>
	<path class="st8" d="M0,252.73c4.48-8.78,11.67-11.55,21.37-11.37c24.78,0.48,49.6-0.27,74.36,0.57
		c4.84,0.16,10.98,4.28,13.78,8.42c2.07,3.06,1.23,10.18-1.1,13.57c-2.36,3.42-8.13,6.16-12.47,6.25
		c-26.55,0.56-53.12,0.04-79.68,0.42C7.84,270.71,4.37,264.96,0,259.81C0,257.45,0,255.09,0,252.73z"/>
	<path class="st8" d="M339.07,429.11c-95.43,0.2-173.07-77.56-172.94-173.19c0.13-95.33,77.16-172.71,172.25-173.04
		C433.6,82.56,511.85,160.44,512,255.67C512.15,351.1,434.56,428.92,339.07,429.11z M462.64,256.51
		c0.07-68.58-54.93-124.17-123.01-124.33c-68.8-0.16-124.58,55.24-124.63,123.78c-0.06,68.06,55.66,123.98,123.66,124.09
		C406.74,380.17,462.57,324.54,462.64,256.51z"/>
	<path class="st8" d="M107.23,392.7c-13.26,0-26.53,0.1-39.79-0.03c-9.7-0.09-15.71-5.43-16.02-13.86
		c-0.31-8.46,5.36-14.91,14.88-15.04c26.81-0.36,53.64-0.35,80.45-0.02c9.56,0.12,15.45,6.5,15.24,14.77
		c-0.21,8.32-6.43,14.04-15.87,14.14C133.17,392.81,120.2,392.7,107.23,392.7z"/>
	<path class="st8" d="M107.05,119.71c12.96,0,25.93-0.1,38.89,0.04c9.92,0.1,16.31,6.09,16.07,14.72
		c-0.23,8.28-6.38,13.85-15.98,13.89c-26.22,0.12-52.45,0.12-78.67,0c-10.2-0.05-16.16-5.78-15.94-14.7
		c0.21-8.5,6.08-13.81,15.85-13.91C80.53,119.61,93.79,119.71,107.05,119.71z"/>
	<path class="st8" d="M353.54,241.52c18.16,0,35.21-0.02,52.27,0.02c3.53,0.01,7.11-0.06,10.59,0.46
		c7.88,1.19,11.71,6.45,12.17,13.98c0.43,7.14-5.59,14.19-12.9,14.28c-26.25,0.31-52.51,0.44-78.76-0.09
		c-7.64-0.16-12.34-5.91-12.43-13.62c-0.28-25.37-0.27-50.74-0.02-76.11c0.08-7.86,6.84-14.03,14.23-14.16
		c7.75-0.14,14.34,5.84,14.59,14.69c0.47,17.1,0.21,34.21,0.24,51.32C353.54,234.91,353.54,237.53,353.54,241.52z"/>
</g>
</svg>
