<?xml version="1.0" encoding="utf-8"?>
<!-- Generator: Adobe Illustrator 24.3.0, SVG Export Plug-In . SVG Version: 6.00 Build 0)  -->
<svg version="1.1" id="Layer_1" xmlns="http://www.w3.org/2000/svg" xmlns:xlink="http://www.w3.org/1999/xlink" x="0px" y="0px"
	 viewBox="0 0 512 512" style="enable-background:new 0 0 512 512;" xml:space="preserve">
<style type="text/css">
	.st0{fill:#030303;}
	.st1{fill:#474444;}
	.st2{fill:#747171;}
	.st3{fill:#969393;}
	.st4{fill:#7B7878;}
	.st5{fill:#6D6A6A;}
	.st6{fill:#24B0C4;}
	.st7{fill:#E57E25;}
	.st8{fill:#FFFFFF;}
	.st9{fill:#101213;}
	.st10{fill:#58C3E1;}
	.st11{fill:#040404;}
	.st12{fill:#88C542;}
	.st13{fill:#4DBBEB;}
	.st14{fill:#DB3326;}
	.st15{fill:#FEC411;}
	.st16{fill:#F7911F;}
	.st17{fill:#3978BD;}
	.st18{fill:#2FAE73;}
	.st19{fill:#3A3D40;}
	.st20{fill:#FFFEFD;}
	.st21{fill:#DF2729;}
	.st22{fill:#B63031;}
	.st23{fill:#E23437;}
	.st24{fill:#020303;}
	.st25{fill:#0C0B0B;}
	.st26{fill:#D5B931;}
	.st27{fill:#FDD83F;}
	.st28{fill:#EBEAE9;}
	.st29{fill:#FFFFFE;}
	.st30{fill:#0B0A0A;}
</style>
<g>
	<path class="st8" d="M256.99,512c-60.05,0-119.37-22.34-167.02-62.91c-48.2-41.03-79.15-96.49-87.16-156.16
		c-7.07-52.66,1.46-104.98,24.66-151.32c21.77-43.48,56.7-81.14,98.37-106.05c15.88-9.49,32.72-17.2,50.08-22.91
		c15.01-4.94,37.25-11.59,57.13-12.26C240.77,0.13,247.49,0,253.59,0c13.02,0,24.41,0.59,34.82,1.8
		c13.02,1.52,24.88,4.03,36.27,7.69c52.35,16.81,94.34,42.88,124.82,77.48c30.95,35.13,50.83,79.99,59.07,133.33
		c10.14,65.58-5.92,131.32-45.23,185.13c-38.58,52.81-95.28,89.02-159.66,101.94C288.39,510.44,272.68,512,256.99,512z
		 M256.07,21.86c-128.77,0-233.62,104.65-233.72,233.28c-0.1,128.92,104.59,233.89,233.36,233.99h0.18
		c128.66,0.01,233.51-104.15,233.74-232.19c0.22-129.15-104.16-234.6-232.7-235.07L256.07,21.86z"/>
	<path class="st8" d="M251.07,413.3c-3.49,0-6.58-1.2-8.5-3.3c-1.51-1.65-2.13-3.68-1.9-6.2c1.24-13.91-0.86-25.72-6.26-35.12
		c-3.64-6.34-7.8-8.56-11.82-10.71c-2.46-1.31-5.83-3.11-11.42-7.08c-8.42-5.97-13.4-9.66-17.58-15.99
		c-3.18-4.81-4.45-6.99-4.28-9.4c0.22-3.28,2.41-5.82,4.21-7.37c2.16-1.87,4.32-2.77,6.6-2.77c2.95,0,6.2,1.51,9.41,4.36l1.38,1.23
		c6.63,5.92,13.48,12.05,21.78,16.83c6.06,3.49,12.71,5.34,19.22,5.34c10.04,0,18.96-4.28,25.13-12.05
		c7.03-8.85,11.12-21.84,10.42-33.1c-0.99-16.04-13.16-27.81-31.75-30.72c-2.87-0.45-5.66-0.77-8.37-1.08
		c-4.65-0.53-9.04-1.03-12.84-2.09c-22.55-6.28-40.58-26.84-42.88-48.89c-2.79-26.79,8.7-49.39,30.76-60.46
		c13.74-6.9,19.61-17.43,17.96-32.2c-0.33-2.93-0.2-6.33-0.07-9.94c0.03-0.93,0.07-1.86,0.09-2.79c0.1-3.51,1.34-11.7,10.62-11.78
		h0.13c6.48,0,10.51,4.25,10.76,11.37c0.11,3.09,0.08,6.24,0.06,9.57c-0.01,1.53-0.02,3.07-0.02,4.6l0,17.99l5.9,4.09
		c4.06,2.81,7.97,5.41,11.76,7.91c7.75,5.14,15.07,9.99,21.45,15.31c2.95,2.46,4.62,5.25,4.84,8.09c0.26,3.36-1.53,6.15-3.08,7.9
		c-1.99,2.25-4.51,3.4-7.49,3.4c-3.01,0-6.15-1.17-9.08-3.38c-1.04-0.78-2.08-1.6-3.11-2.41c-4.07-3.19-8.68-6.8-14.26-9.42
		c-6-2.81-12.04-4.24-17.94-4.24c-9.53,0-18.4,3.73-25.64,10.8c-11.78,11.49-15.1,25.8-9.36,40.29c4.23,10.67,13.8,23.63,35.36,24.8
		c27.53,1.5,48.8,16.89,56.88,41.17c9.28,27.88-3.19,58.58-29.01,71.43c-12.87,6.4-18.35,15.91-17.25,29.93
		c0.31,3.95,0.18,8.2,0.05,12.69l-0.05,1.72c-0.12,4.33-1.67,11.6-10.62,11.69L251.07,413.3z"/>
</g>
</svg>
