<?xml version="1.0" encoding="utf-8"?>
<!-- Generator: Adobe Illustrator 24.3.0, SVG Export Plug-In . SVG Version: 6.00 Build 0)  -->
<svg version="1.1" id="Layer_1" xmlns="http://www.w3.org/2000/svg" xmlns:xlink="http://www.w3.org/1999/xlink" x="0px" y="0px"
	 viewBox="0 0 512 512" style="enable-background:new 0 0 512 512;" xml:space="preserve">
<style type="text/css">
	.st0{fill:#030303;}
	.st1{fill:#474444;}
	.st2{fill:#747171;}
	.st3{fill:#969393;}
	.st4{fill:#7B7878;}
	.st5{fill:#6D6A6A;}
	.st6{fill:#24B0C4;}
	.st7{fill:#E57E25;}
	.st8{fill:#FFFFFF;}
	.st9{fill:#101213;}
	.st10{fill:#58C3E1;}
	.st11{fill:#040404;}
	.st12{fill:#88C542;}
	.st13{fill:#4DBBEB;}
	.st14{fill:#DB3326;}
	.st15{fill:#FEC411;}
	.st16{fill:#F7911F;}
	.st17{fill:#3978BD;}
	.st18{fill:#2FAE73;}
	.st19{fill:#3A3D40;}
	.st20{fill:#FFFEFD;}
	.st21{fill:#DF2729;}
	.st22{fill:#B63031;}
	.st23{fill:#E23437;}
	.st24{fill:#020303;}
	.st25{fill:#0C0B0B;}
	.st26{fill:#D5B931;}
	.st27{fill:#FDD83F;}
	.st28{fill:#EBEAE9;}
	.st29{fill:#FFFFFE;}
	.st30{fill:#0B0A0A;}
</style>
<path class="st8" d="M228.89,491.31c-42.77,0-85.52-0.01-128.29-0.04c-18.83-0.01-30.53-11.77-30.55-30.69
	c-0.04-43.85-0.03-87.69-0.02-131.54l0-68.91l-6.8,0.73c-2.38,0.26-4.69,0.58-6.93,0.89c-4.34,0.61-8.44,1.18-12.37,1.18
	c-0.24,0-0.47,0-0.71-0.01c-19.31-0.35-35.49-12.62-41.2-31.26c-5.73-18.69,0.92-37.23,17.8-49.59
	c18.42-13.49,37.22-27.13,55.39-40.32c7.09-5.14,14.17-10.28,21.26-15.43l30.77-22.36c33.06-24.02,66.11-48.04,99.19-72.03
	c10.43-7.57,20.11-11.24,29.59-11.24c9.4,0,19.02,3.62,29.4,11.06c10.18,7.3,20.23,14.62,30.87,22.36
	c4.87,3.54,9.82,7.15,14.91,10.84l9.75,7.08V59.98c0-1.65-0.01-3.16-0.02-4.57c-0.02-2.75-0.03-5.13,0.03-7.46
	c0.19-7.37,3.08-10.28,10.29-10.37c6.63-0.09,13.57-0.13,20.63-0.13c6.82,0,14.02,0.04,21.42,0.13c7.76,0.09,10.66,2.99,10.71,10.72
	c0.12,17.73,0.2,38.68-0.07,59.66c-0.09,6.93,2.37,11.81,7.96,15.82c29.92,21.41,56.6,40.8,81.57,59.26
	c16.65,12.32,22.75,32.51,15.55,51.46c-6.64,17.47-22.98,28.75-41.63,28.75c-3.62,0-7.26-0.44-10.82-1.3
	c-1.3-0.31-2.61-0.6-4.2-0.94c-0.81-0.18-1.69-0.37-2.69-0.59l-7.47-1.65l0.01,68.74c0.01,42.92,0.01,87.3-0.03,130.95
	c-0.02,16.94-7.06,27.6-20.92,31.68c-2.56,0.75-5.66,1.12-9.48,1.12C350.82,491.28,289.85,491.31,228.89,491.31z M225.7,142.12
	c-43.59,31.67-88.67,64.41-132.69,96.75c-4.38,3.22-6.7,10.03-6.72,15.1c-0.21,44.11-0.2,88.96-0.19,132.33l0.01,43.28
	c0,10.05,0.01,20.11-0.01,30.16c-0.01,5.13,1.32,8.96,4.05,11.7c2.59,2.6,6.21,3.92,10.75,3.92c13.33-0.03,26.59-0.04,39.95-0.04
	l52.27,0.01v-6.14c0-11.35-0.01-22.6-0.02-33.77c-0.02-26.53-0.04-51.59,0.05-77.19c0.07-22.57,14.9-40.95,36.06-44.71
	c8.17-1.45,16.76-1.65,24.84-1.65c2.06,0,4.11,0.01,6.17,0.03c2.08,0.01,4.15,0.03,6.22,0.03l2.32-0.01
	c31.51,0,50.37,18.99,50.45,50.79c0.06,22.78,0.04,45.95,0.03,68.36c-0.01,10.04-0.01,20.07-0.01,30.11v14.17l54.07,0.01
	c11.62,0,23.16,0,34.71-0.01c13.91-0.02,17.51-3.69,17.52-17.86c0-17.4,0-34.81,0-52.21c0-49.75-0.01-101.18,0.12-151.77
	c0.02-7.29-2.51-12.21-8.45-16.46c-20.43-14.62-41.08-29.68-61.05-44.24c-8.29-6.05-16.59-12.1-24.89-18.13
	c-16.6-12.06-33.21-24.11-49.84-36.17l-25.38-18.41L225.7,142.12z M258.36,327.92c-4.99,0-10.05,0.06-14.94,0.11l-0.31,0
	c-22.16,0.25-33.91,12.17-33.97,34.47c-0.05,21.64-0.04,43.64-0.03,64.91c0.01,9.13,0.01,18.25,0.01,27.38v20.17h93.37v-6.14
	c0-10.58,0.01-21.13,0.01-31.66c0.02-25.12,0.03-51.1-0.05-76.59c-0.06-20.14-11.68-31.99-31.88-32.51
	C266.86,327.96,262.86,327.92,258.36,327.92z M256.03,101.96c1.95,0,4.61,1.35,9.17,4.67c36.98,26.85,73.95,53.71,110.92,80.57
	l17.59,12.78c5.6,4.07,11.19,8.14,16.79,12.21c13.11,9.54,26.66,19.41,40.05,29.04c5.38,3.87,11.07,5.83,16.91,5.83
	c4.6,0,9.17-1.23,13.59-3.67c9.69-5.35,14.26-14.16,14.8-28.58l0.08-2.2l-1.33-1.75c-0.54-0.71-1.26-1.86-2.02-3.08
	c-2.41-3.86-5.72-9.14-10.7-12.8C420.08,149.61,357,103.83,296,59.55l-20.62-14.97c-7.21-5.23-13.16-7.57-19.3-7.57
	c-6.22,0-12.34,2.43-19.84,7.87c-51.36,37.3-102.72,74.6-154.07,111.91c-17.75,12.9-35.5,25.81-53.24,38.73
	c-9.88,7.19-13.92,17.26-11.68,29.1c1.93,10.18,8.32,17.38,18.5,20.83c2.87,0.97,5.78,1.46,8.64,1.46c8.49,0,15.36-4.29,19.79-7.51
	c50.27-36.62,101.44-73.79,150.92-109.73l31.53-22.9C251.33,103.36,254.05,101.96,256.03,101.96z M358.99,79.59l28.15,27.1V54.14
	h-28.51L358.99,79.59z"/>
</svg>
