<?xml version="1.0" encoding="utf-8"?>
<!-- Generator: Adobe Illustrator 24.3.0, SVG Export Plug-In . SVG Version: 6.00 Build 0)  -->
<svg version="1.1" id="Layer_1" xmlns="http://www.w3.org/2000/svg" xmlns:xlink="http://www.w3.org/1999/xlink" x="0px" y="0px"
	 viewBox="0 0 512 512" style="enable-background:new 0 0 512 512;" xml:space="preserve">
<style type="text/css">
	.st0{fill:#030303;}
	.st1{fill:#474444;}
	.st2{fill:#747171;}
	.st3{fill:#969393;}
	.st4{fill:#7B7878;}
	.st5{fill:#6D6A6A;}
	.st6{fill:#24B0C4;}
	.st7{fill:#E57E25;}
	.st8{fill:#FFFFFF;}
	.st9{fill:#101213;}
	.st10{fill:#58C3E1;}
	.st11{fill:#040404;}
	.st12{fill:#88C542;}
	.st13{fill:#4DBBEB;}
	.st14{fill:#DB3326;}
	.st15{fill:#FEC411;}
	.st16{fill:#F7911F;}
	.st17{fill:#3978BD;}
	.st18{fill:#2FAE73;}
	.st19{fill:#3A3D40;}
	.st20{fill:#FFFEFD;}
	.st21{fill:#DF2729;}
	.st22{fill:#B63031;}
	.st23{fill:#E23437;}
	.st24{fill:#020303;}
	.st25{fill:#0C0B0B;}
	.st26{fill:#D5B931;}
	.st27{fill:#FDD83F;}
	.st28{fill:#EBEAE9;}
	.st29{fill:#FFFFFE;}
	.st30{fill:#0B0A0A;}
</style>
<path class="st8" d="M252.76,480.73c-50.51,0-98.42-18.4-142.39-54.68c-41.24-34.03-66.75-79.87-75.83-136.23
	c-1.25-7.77-1.59-15.69-1.94-24.08c-0.14-3.31-0.3-7.06-0.52-10.67c-0.1-1.6-0.08-3.31-0.05-5.49l0-0.22
	c0.02-1.17,0.03-2.43,0.03-3.84v-19.65l-10.05,10.08l-0.08-0.08c-0.91,0.91-1.95,1.95-3.34,3.32c-2.3,2.29-5.78,5.01-9.28,5.01
	c-3.11,0-6.27-2.53-8.91-7.11l-0.4-0.7v-4.81l2.09-2.47c2.87-3.41,5.58-6.63,8.5-9.61l2.28-2.33c3.74-3.82,3.74-3.82,4.07-4.13
	c0.26-0.24,0.87-0.82,6.03-6c0,0,8.14-8.16,11.25-11.29c2.29-2.3,4.93-3.52,7.65-3.52c2.56,0,5.03,1.11,7.14,3.21
	c6.67,6.63,10.4,10.29,13.69,13.51c5.05,4.95,8.71,8.53,19.64,19.61c4.53,4.59,4.77,10.25,0.62,14.43
	c-1.93,1.94-4.26,2.97-6.72,2.97c-2.39,0-4.82-0.99-6.95-2.8c-0.6-0.35-1.39-1.03-2.48-2.35c-2.42-2.45-4.83-4.91-7.35-7.44l-7-6.9
	l-0.83,18.65c-1.34,30.34,3.99,61.04,15.43,88.79c8.66,21.01,20.71,40.39,35.79,57.61c24.21,27.65,57.4,48.27,95.96,59.64
	c29.68,8.75,53.06,9.24,55.63,9.26c0.66,0.01,1.33,0.01,1.99,0.01c84.86,0,138.59-52.24,153.04-68.25l0.25-0.27l0.31-0.42l0.1-0.11
	c5.44-5.91,10.69-11.87,15.6-17.73l0.57-0.68c4.51-5.39,8.41-10.04,12.7-10.04c0.61,0,1.22,0.1,1.79,0.29
	c1.28,0.43,3.06,1.55,4.3,4.49c1.85,4.37,0.01,9.07-1.23,10.95c-27.13,41.17-62.71,70.07-105.75,85.9
	C308.94,475.29,280.21,480.73,252.76,480.73L252.76,480.73z"/>
<path class="st8" d="M252.76,477.69c-49.79,0-97.04-18.16-140.45-53.98c-40.65-33.55-65.81-78.76-74.76-134.37
	c-1.22-7.59-1.55-15.43-1.91-23.73c-0.15-3.5-0.3-7.12-0.53-10.72c-0.09-1.49-0.07-3.17-0.04-5.29c0.02-1.23,0.03-2.57,0.03-4.06
	v-27.02l-15.25,15.3l6.93-7.12c-4.9,4.92-5.69,5.74-10.34,10.35c-2.64,2.62-5.24,4.13-7.13,4.13c-1.94,0-4.25-2.07-6.27-5.58v-2.88
	c0.46-0.54,0.91-1.08,1.37-1.62c2.83-3.37,5.51-6.55,8.35-9.44c11.22-11.45,1.22-1.26,12.37-12.44c3.75-3.76,7.51-7.53,11.26-11.29
	c1.71-1.71,3.6-2.62,5.49-2.62c2.19,0,3.93,1.27,4.99,2.33c16.95,16.86,15.31,14.85,33.32,33.1c3.34,3.39,3.57,7.18,0.62,10.14
	c-1.37,1.37-2.9,2.07-4.56,2.07c-1.87,0-3.84-0.93-5.56-2.61c-4.93-4.83,3.5,3.65-1.67-1.6c-2.38-2.42-4.83-4.91-7.38-7.48
	l-11.9-11.74l-1.13,25.49c-1.36,30.78,4.05,61.93,15.66,90.08c8.79,21.32,21.01,40.99,36.31,58.46
	c24.6,28.08,58.27,49.02,97.39,60.56c30.11,8.88,53.85,9.36,56.46,9.39c0.68,0.01,1.35,0.01,2.02,0.01
	c86.12,0,140.64-53.01,155.3-69.26l0.34-0.37l0.3-0.4c6.78-7.36,12.05-13.49,15.69-17.83c4.4-5.24,8.65-10.53,11.75-9.49
	c1.49,0.5,2.26,2.31,2.46,2.79c1.36,3.22-0.16,6.86-0.97,8.09c-26.76,40.61-61.84,69.11-104.26,84.71
	C308.22,472.31,279.85,477.69,252.76,477.69z"/>
<path class="st8" d="M470.12,319.78c-2.56,0-5.03-1.11-7.14-3.21c-6.67-6.63-10.4-10.29-13.7-13.51
	c-5.05-4.95-8.71-8.53-19.64-19.61c-4.53-4.59-4.77-10.25-0.61-14.43c1.93-1.94,4.25-2.97,6.72-2.97c2.38,0,4.81,0.98,6.93,2.78
	c0.59,0.34,1.37,1.02,2.49,2.36c2.42,2.46,4.84,4.92,7.36,7.45l7,6.9l0.83-18.65c1.34-30.34-3.99-61.04-15.43-88.79
	c-8.66-21.01-20.7-40.39-35.79-57.61c-24.21-27.65-57.4-48.27-95.96-59.64c-29.71-8.76-53.06-9.24-55.63-9.26
	c-0.67-0.01-1.33-0.01-1.99-0.01c-84.86,0-138.6,52.24-153.04,68.25l-0.24,0.27l-0.31,0.42l-0.1,0.11
	c-5.43,5.9-10.68,11.86-15.6,17.73l-0.57,0.68c-4.51,5.38-8.41,10.04-12.7,10.04c-0.61,0-1.22-0.1-1.79-0.29
	c-1.28-0.43-3.06-1.55-4.3-4.49c-1.85-4.37-0.01-9.08,1.23-10.95c27.13-41.17,62.71-70.07,105.75-85.9
	c29.19-10.74,57.92-16.18,85.37-16.18c50.51,0,98.42,18.39,142.39,54.68c41.24,34.03,66.75,79.87,75.83,136.23
	c1.25,7.77,1.59,15.69,1.94,24.08c0.14,3.31,0.3,7.06,0.52,10.67c0.1,1.59,0.08,3.3,0.05,5.47l0,0.25
	c-0.02,1.17-0.03,2.43-0.03,3.83v19.65l10.05-10.08l0.08,0.08c0.91-0.91,1.95-1.95,3.34-3.32c2.3-2.29,5.78-5.01,9.28-5.01
	c3.11,0,6.27,2.53,8.91,7.11l0.4,0.7v4.81l-2.09,2.47c-2.87,3.41-5.58,6.63-8.5,9.61l-2.35,2.4c-3.67,3.75-3.67,3.75-4.01,4.06
	c-0.26,0.25-0.87,0.82-6.03,6l-1.15,1.15c-3.37,3.38-6.74,6.76-10.11,10.14C475.48,318.56,472.83,319.78,470.12,319.78z"/>
<path class="st8" d="M259.24,34.31c49.79,0,97.04,18.16,140.45,53.98c40.65,33.55,65.81,78.76,74.76,134.37
	c1.22,7.59,1.55,15.43,1.91,23.73c0.15,3.5,0.3,7.12,0.53,10.72c0.09,1.49,0.07,3.17,0.04,5.29c-0.02,1.23-0.03,2.57-0.03,4.06
	v27.02l15.25-15.3l-6.93,7.12c4.9-4.92,5.69-5.74,10.34-10.35c2.64-2.62,5.24-4.13,7.13-4.13c1.94,0,4.25,2.07,6.27,5.58v2.88
	c-0.46,0.54-0.91,1.08-1.37,1.62c-2.83,3.37-5.51,6.55-8.35,9.44c-11.22,11.45-1.22,1.26-12.37,12.44
	c-3.75,3.76-7.51,7.53-11.26,11.29c-1.71,1.71-3.6,2.62-5.49,2.62c-2.19,0-3.93-1.27-4.99-2.33c-16.95-16.86-15.31-14.85-33.32-33.1
	c-3.34-3.39-3.57-7.18-0.62-10.14c1.37-1.37,2.9-2.07,4.56-2.07c1.87,0,3.84,0.93,5.56,2.61c4.93,4.83-3.5-3.65,1.67,1.6
	c2.38,2.42,4.83,4.91,7.38,7.48l11.9,11.74l1.13-25.49c1.36-30.78-4.05-61.93-15.66-90.08c-8.79-21.32-21.01-40.99-36.31-58.46
	c-24.6-28.08-58.27-49.02-97.39-60.56c-30.11-8.88-53.85-9.36-56.46-9.39c-0.68-0.01-1.35-0.01-2.02-0.01
	c-86.12,0-140.64,53.01-155.3,69.26l-0.34,0.37l-0.3,0.4c-6.78,7.36-12.05,13.49-15.69,17.83c-4.4,5.24-8.65,10.53-11.75,9.49
	c-1.49-0.5-2.26-2.31-2.46-2.79c-1.36-3.22,0.16-6.86,0.97-8.09C97.42,94.41,132.5,65.9,174.92,50.31
	C203.78,39.69,232.14,34.31,259.24,34.31z"/>
</svg>
