<?xml version="1.0" encoding="utf-8"?>
<!-- Generator: Adobe Illustrator 24.3.0, SVG Export Plug-In . SVG Version: 6.00 Build 0)  -->
<svg version="1.1" id="Layer_1" xmlns="http://www.w3.org/2000/svg" xmlns:xlink="http://www.w3.org/1999/xlink" x="0px" y="0px"
	 viewBox="0 0 512 512" style="enable-background:new 0 0 512 512;" xml:space="preserve">
<style type="text/css">
	.st0{fill:#030303;}
	.st1{fill:#474444;}
	.st2{fill:#747171;}
	.st3{fill:#969393;}
	.st4{fill:#7B7878;}
	.st5{fill:#6D6A6A;}
	.st6{fill:#24B0C4;}
	.st7{fill:#E57E25;}
	.st8{fill:#FFFFFF;}
	.st9{fill:#101213;}
	.st10{fill:#58C3E1;}
	.st11{fill:#040404;}
	.st12{fill:#88C542;}
	.st13{fill:#4DBBEB;}
	.st14{fill:#DB3326;}
	.st15{fill:#FEC411;}
	.st16{fill:#F7911F;}
	.st17{fill:#3978BD;}
	.st18{fill:#2FAE73;}
	.st19{fill:#3A3D40;}
	.st20{fill:#FFFEFD;}
	.st21{fill:#DF2729;}
	.st22{fill:#B63031;}
	.st23{fill:#E23437;}
	.st24{fill:#020303;}
	.st25{fill:#0C0B0B;}
	.st26{fill:#D5B931;}
	.st27{fill:#FDD83F;}
	.st28{fill:#EBEAE9;}
	.st29{fill:#FFFFFE;}
	.st30{fill:#0B0A0A;}
</style>
<g>
	<path class="st8" d="M274.85,511.93c-12.33,0-24.65,0-36.98,0c-1.41-0.33-2.8-0.76-4.23-0.96c-8.56-1.16-17.21-1.82-25.67-3.48
		c-47.34-9.3-89.18-29.85-124.74-62.57c-42.45-39.07-68.94-87.08-79.22-143.91C2.4,292.07,1.33,283.04,0,274.05
		c0-11.66,0-23.32,0-34.98c1.08-8.36,1.82-16.78,3.3-25.07c10.32-57.83,36.23-107.47,80.05-146.78
		C144.64,12.24,216.79-9.15,297.93,3.69C363.7,14.1,417.6,46.72,458.15,99.59c48.91,63.77,64.37,135.79,46.93,214.08
		c-13.15,59.03-44.6,107.26-92.28,144.52c-34.95,27.31-74.54,44.25-118.48,50.81C287.82,509.96,281.34,510.95,274.85,511.93z
		 M254.9,425.12c34.91-0.49,66.68-8.44,94.86-28.1c25.98-18.13,43.19-42.34,49.73-73.67c1.32-6.34-0.36-11.74-5.87-13.81
		c-4.08-1.53-9.39-2.5-13.33-1.21c-31.76,10.44-64.31,16.13-97.63,17.97c-41.4,2.29-82.42-0.12-122.8-10.06
		c-10.28-2.53-20.32-6.05-30.62-8.53c-11.07-2.66-18.92,5.49-16.67,16.52c5.55,27.19,19.75,49.1,41.04,66.43
		C183.32,414.84,218.1,424.46,254.9,425.12z M129.68,196.77c-0.14,18.13,14.04,32.56,32.27,32.85
		c17.88,0.28,32.87-14.38,32.97-32.26c0.1-18.04-14.28-32.91-32.14-33.22C144.68,163.82,129.82,178.47,129.68,196.77z
		 M382.12,196.95c-0.02-18.11-14.52-32.79-32.43-32.82c-18.09-0.03-32.94,14.9-32.87,33.05c0.08,17.92,14.83,32.5,32.83,32.43
		C367.75,229.54,382.14,215.08,382.12,196.95z"/>
</g>
</svg>
