<?xml version="1.0" encoding="utf-8"?>
<!-- Generator: Adobe Illustrator 24.3.0, SVG Export Plug-In . SVG Version: 6.00 Build 0)  -->
<svg version="1.1" id="Layer_1" xmlns="http://www.w3.org/2000/svg" xmlns:xlink="http://www.w3.org/1999/xlink" x="0px" y="0px"
	 viewBox="0 0 512 512" style="enable-background:new 0 0 512 512;" xml:space="preserve">
<style type="text/css">
	.st0{fill:#030303;}
	.st1{fill:#474444;}
	.st2{fill:#747171;}
	.st3{fill:#969393;}
	.st4{fill:#7B7878;}
	.st5{fill:#6D6A6A;}
	.st6{fill:#24B0C4;}
	.st7{fill:#E57E25;}
	.st8{fill:#FFFFFF;}
	.st9{fill:#101213;}
	.st10{fill:#58C3E1;}
	.st11{fill:#040404;}
	.st12{fill:#88C542;}
	.st13{fill:#4DBBEB;}
	.st14{fill:#DB3326;}
	.st15{fill:#FEC411;}
	.st16{fill:#F7911F;}
	.st17{fill:#3978BD;}
	.st18{fill:#2FAE73;}
	.st19{fill:#3A3D40;}
	.st20{fill:#FFFEFD;}
	.st21{fill:#DF2729;}
	.st22{fill:#B63031;}
	.st23{fill:#E23437;}
	.st24{fill:#020303;}
	.st25{fill:#0C0B0B;}
	.st26{fill:#D5B931;}
	.st27{fill:#FDD83F;}
	.st28{fill:#EBEAE9;}
	.st29{fill:#FFFFFE;}
	.st30{fill:#0B0A0A;}
</style>
<g>
	<path class="st8" d="M298.31,298.18c23.4,0,46.06-0.2,68.72,0.05c30.71,0.34,52.94,29.26,45.02,58.85
		c-9.85,36.79-20.05,73.5-30.38,110.16c-6.02,21.35-23.5,35.1-45.8,35.27c-46.86,0.37-93.73,0.12-140.6,0.11
		c-0.72,0-1.44-0.22-2.78-0.43c0-2.16,0-4.2,0-6.23c0-64.01-0.05-128.02,0.13-192.04c0.01-3.32,1.2-7.14,3.09-9.87
		c18.55-26.7,37.35-53.23,56.12-79.78c8.68-12.29,20.46-18.06,35.46-15.46c13.29,2.31,21.99,10.47,26.45,23.18
		c2.42,6.89,2.22,13.76,0.23,20.73C308.77,260.93,303.68,279.16,298.31,298.18z"/>
	<path class="st8" d="M165.29,298.17c0,68.38,0,136.12,0,203.43c-13.96,0-27.74,1.25-41.18-0.34c-14.5-1.72-25.31-16.15-25.38-31.65
		c-0.21-46.31-0.28-92.62,0.03-138.93c0.12-18.38,14.64-32.24,32.92-32.49C142.72,298.04,153.76,298.17,165.29,298.17z"/>
	<path class="st8" d="M400.99,200.24c1.5-8.75,2.79-17.78,4.66-26.7c1.25-5.99,0.13-10.59-4.59-14.76
		c-6.42-5.67-12.37-11.86-18.5-17.84c-2.87-2.8-4.81-5.93-3.24-10.16c1.57-4.25,4.73-5.93,9.14-6.48c9.23-1.16,18.5-2.31,27.55-4.37
		c3.17-0.72,6.72-3.51,8.38-6.36c4.67-8,8.08-16.73,12.78-24.71c1.67-2.84,5.61-6.01,8.52-6.01c2.9,0,6.82,3.18,8.49,6.02
		c4.69,8,8.08,16.75,12.76,24.75c1.67,2.85,5.28,5.61,8.48,6.32c9.25,2.06,18.82,2.65,28.07,4.7c3.18,0.71,7.17,3.5,8.24,6.31
		c0.97,2.53-0.64,7.21-2.71,9.51c-6.22,6.93-13.15,13.22-19.92,19.65c-3.49,3.31-4.67,6.94-3.65,11.79
		c1.87,8.91,3.59,17.9,4.52,26.94c0.32,3.1-0.99,7.65-3.22,9.37c-2.23,1.73-7.08,1.95-9.87,0.73c-8.67-3.79-16.95-8.48-25.29-13.01
		c-4.05-2.2-7.67-2.23-11.78,0.05c-8.28,4.6-16.72,8.95-25.23,13.12C407.47,212.56,400.44,207.96,400.99,200.24z"/>
	<path class="st8" d="M32.35,210.32c-6.86,0.07-11.16-4.76-10.24-10.56c1.45-9.18,2.78-18.41,4.84-27.47
		c1.22-5.39-0.23-9.15-4.03-12.71c-6.38-5.99-12.52-12.25-18.89-18.27c-3.17-2.99-4.98-6.39-3.52-10.66
		c1.44-4.21,4.77-5.85,9.19-6.38c9.05-1.08,18.02-2.81,27.06-3.97c4.71-0.6,7.42-3.11,9.36-7.23c3.63-7.72,7.62-15.26,11.25-22.97
		c1.99-4.24,4.56-7.73,9.59-7.66c4.73,0.07,7.27,3.32,9.17,7.41c3.51,7.56,7.55,14.88,10.91,22.5c2.35,5.34,6.17,7.74,11.74,8.41
		c8.67,1.04,17.4,1.95,25.9,3.86c3.15,0.71,7.06,3.6,8.12,6.43c0.94,2.52-0.69,7.13-2.74,9.43c-5.93,6.67-12.45,12.86-19.13,18.8
		c-4.45,3.95-5.21,8.4-4.19,13.84c1.61,8.58,3.37,17.17,4.2,25.84c0.3,3.09-1.02,7.8-3.25,9.27c-2.53,1.67-7.4,1.69-10.4,0.42
		c-7.83-3.33-15.32-7.52-22.68-11.84c-5.56-3.26-10.36-3.1-15.88,0.25c-6.95,4.23-14.37,7.68-21.64,11.38
		C35.28,209.38,33.29,209.96,32.35,210.32z"/>
	<path class="st8" d="M211.71,125.98c1.25-7.19,2.42-15.47,4.2-23.63c1.55-7.08,0.8-12.77-5.3-17.76
		c-6.17-5.05-11.42-11.2-17.26-16.66c-3.27-3.05-4.72-6.52-3.25-10.71c1.39-3.99,4.61-5.58,8.79-6.1
		c9.05-1.13,18.02-2.81,27.07-3.94c4.93-0.61,7.76-3.2,9.77-7.53c3.68-7.91,7.75-15.64,11.49-23.53c1.86-3.91,4.5-6.81,8.96-6.85
		c4.47-0.04,7.19,2.79,9.06,6.7c3.93,8.22,7.64,16.58,12.22,24.43c1.66,2.85,5.27,5.61,8.45,6.32c9.25,2.06,18.81,2.7,28.08,4.68
		c3.08,0.66,7.23,3.19,8.04,5.77c0.9,2.88-0.44,7.64-2.55,10.06c-5.99,6.87-12.78,13.06-19.44,19.32
		c-3.48,3.28-5.03,6.74-4.02,11.65c1.73,8.36,2.9,16.84,4.39,25.25c0.79,4.47,1.17,8.86-3.05,11.94c-4.14,3.01-8.14,1.74-12.23-0.53
		c-6.97-3.86-14.21-7.24-21.1-11.24c-5.3-3.08-10.01-3.26-15.42-0.06c-7.5,4.44-15.33,8.34-23.14,12.23
		C217.96,139.54,211.37,135.25,211.71,125.98z"/>
</g>
</svg>
