<?xml version="1.0" encoding="utf-8"?>
<!-- Generator: Adobe Illustrator 24.3.0, SVG Export Plug-In . SVG Version: 6.00 Build 0)  -->
<svg version="1.1" id="Layer_1" xmlns="http://www.w3.org/2000/svg" xmlns:xlink="http://www.w3.org/1999/xlink" x="0px" y="0px"
	 viewBox="0 0 512 512" style="enable-background:new 0 0 512 512;" xml:space="preserve">
<style type="text/css">
	.st0{fill:#030303;}
	.st1{fill:#474444;}
	.st2{fill:#747171;}
	.st3{fill:#969393;}
	.st4{fill:#7B7878;}
	.st5{fill:#6D6A6A;}
	.st6{fill:#24B0C4;}
	.st7{fill:#E57E25;}
	.st8{fill:#FFFFFF;}
	.st9{fill:#101213;}
	.st10{fill:#58C3E1;}
	.st11{fill:#040404;}
	.st12{fill:#88C542;}
	.st13{fill:#4DBBEB;}
	.st14{fill:#DB3326;}
	.st15{fill:#FEC411;}
	.st16{fill:#F7911F;}
	.st17{fill:#3978BD;}
	.st18{fill:#2FAE73;}
	.st19{fill:#3A3D40;}
	.st20{fill:#FFFEFD;}
	.st21{fill:#DF2729;}
	.st22{fill:#B63031;}
	.st23{fill:#E23437;}
	.st24{fill:#020303;}
	.st25{fill:#0C0B0B;}
	.st26{fill:#D5B931;}
	.st27{fill:#FDD83F;}
	.st28{fill:#EBEAE9;}
	.st29{fill:#FFFFFE;}
	.st30{fill:#0B0A0A;}
</style>
<g>
	<path class="st0" d="M143.95,1.11c18.22,4.05,31.57,19.28,31.96,37.73c0.67,32.44,5.3,64.15,15.15,95.13
		c4.47,14.08,0.7,26.75-8.21,38.29c-14.34,18.57-28.47,37.29-42.51,56.09c-0.86,1.15-0.83,3.79-0.11,5.16
		c27.65,52.75,66.15,95.45,117.38,126.29c6.68,4.02,13.58,7.68,20.25,11.72c2.47,1.5,4.15,1.51,6.57-0.35
		c18.98-14.62,38.01-29.17,57.2-43.52c10.6-7.93,22.57-9.99,35.44-6.88c16.1,3.88,32.07,8.58,48.36,11.33
		c14.37,2.43,29.11,3.75,43.68,3.66c24.43-0.15,43.45,19.91,42.9,43.41c-0.71,30.47-0.13,60.97-0.19,91.46
		c-0.04,23.34-18.09,41.43-41.51,41.27c-118.15-0.84-221.97-40.08-310.71-117.92C87.13,330.42,39.04,251.42,14.65,158.12
		C7.11,129.28,2.45,99.95,0.9,70.15c-0.02-1.66-0.05-3.32-0.07-4.99c0.02-1.34,0.05-2.67,0.07-4.01C0.6,58.8,0.3,56.45,0,54.09
		c0-5.66,0-11.33,0-16.99c0.29-1.37,0.59-2.74,0.88-4.11c2.98-15.99,15.99-29,31.99-31.99c1.37-0.29,2.74-0.58,4.11-0.88
		c33.99,0,67.98,0,101.96,0C140.62,0.44,142.28,0.77,143.95,1.11z"/>
	<path class="st1" d="M0,54.09c0.3,2.36,0.6,4.71,0.9,7.07c-0.3-0.05-0.6-0.08-0.9-0.07C0,58.75,0,56.42,0,54.09z"/>
	<path class="st2" d="M143.95,1.11c-1.67-0.33-3.33-0.66-5-1c1.67,0,3.33,0,5,0c-0.08,0.22-0.2,0.44-0.24,0.67
		C143.7,0.87,143.87,1,143.95,1.11z"/>
	<path class="st3" d="M0.83,65.17c0.02,1.66,0.05,3.32,0.07,4.99c0,0-0.44-0.12-0.44-0.12L0,70.08c0-1.67,0-3.33,0-5
		C0.28,65.13,0.55,65.15,0.83,65.17z"/>
	<path class="st4" d="M32.87,0.99c0.12-0.28,0.16-0.57,0.12-0.88c1.33,0,2.67,0,4,0C35.62,0.4,34.24,0.69,32.87,0.99z"/>
	<path class="st4" d="M0,33.1c0.29-0.06,0.58-0.09,0.88-0.12C0.59,34.35,0.29,35.72,0,37.1C0,35.76,0,34.43,0,33.1z"/>
	<path class="st5" d="M0.83,65.17C0.55,65.15,0.28,65.13,0,65.09c0-1.33,0-2.67,0-4c0.3,0,0.6,0.02,0.9,0.07
		C0.88,62.5,0.85,63.83,0.83,65.17z"/>
</g>
</svg>
