<?xml version="1.0" encoding="utf-8"?>
<!-- Generator: Adobe Illustrator 24.3.0, SVG Export Plug-In . SVG Version: 6.00 Build 0)  -->
<svg version="1.1" id="Layer_1" xmlns="http://www.w3.org/2000/svg" xmlns:xlink="http://www.w3.org/1999/xlink" x="0px" y="0px"
	 viewBox="0 0 512 512" style="enable-background:new 0 0 512 512;" xml:space="preserve">
<style type="text/css">
	.st0{fill:#030303;}
	.st1{fill:#474444;}
	.st2{fill:#747171;}
	.st3{fill:#969393;}
	.st4{fill:#7B7878;}
	.st5{fill:#6D6A6A;}
	.st6{fill:#24B0C4;}
	.st7{fill:#E57E25;}
	.st8{fill:#FFFFFF;}
	.st9{fill:#101213;}
	.st10{fill:#58C3E1;}
	.st11{fill:#040404;}
	.st12{fill:#88C542;}
	.st13{fill:#4DBBEB;}
	.st14{fill:#DB3326;}
	.st15{fill:#FEC411;}
	.st16{fill:#F7911F;}
	.st17{fill:#3978BD;}
	.st18{fill:#2FAE73;}
	.st19{fill:#3A3D40;}
	.st20{fill:#FFFEFD;}
	.st21{fill:#DF2729;}
	.st22{fill:#B63031;}
	.st23{fill:#E23437;}
	.st24{fill:#020303;}
	.st25{fill:#0C0B0B;}
	.st26{fill:#D5B931;}
	.st27{fill:#FDD83F;}
	.st28{fill:#EBEAE9;}
	.st29{fill:#FFFFFE;}
	.st30{fill:#0B0A0A;}
</style>
<g>
	<path class="st17" d="M469.02,0.49c-0.52-0.07-1.01-0.32-1.51-0.49H44.49c-4.4,1.22-9.01,1.98-13.17,3.75
		C14.22,11.01,4.09,23.98,0.79,42.29c-0.12,0.67-0.35,1.31-0.52,1.97v423.47c0.72,3.06,1.18,6.22,2.21,9.18
		c6.75,19.41,20.21,31.05,40.52,34.59c0.51,0.09,1,0.34,1.5,0.5h423.03c2.99-0.71,6.05-1.27,8.99-2.17
		c21.05-6.48,35.23-25.71,35.23-47.71V49.62C511.73,24.97,493.46,3.98,469.02,0.49z M118.23,284.23V243.2h178.63v41.01h-64.03
		v182.68h-50.77V284.23H118.23z M463.98,431.96c-7.3,15.04-19.48,24.61-34.81,30.41c-15.15,5.72-30.98,7.46-47.04,7.58
		c-18.29,0.13-36.32-1.73-53.75-7.61c-3.44-1.16-6.74-2.7-10.05-4.2c-0.65-0.29-1.46-1.2-1.46-1.82
		c-0.08-16.07-0.06-32.15-0.06-48.73c1.02,0.71,1.73,1.16,2.38,1.66c20.13,15.75,42.91,22.69,68.36,20.55
		c7.21-0.62,14.18-2.39,20.3-6.55c9.85-6.72,11.66-19.07,4.21-28.4c-4.48-5.61-10.23-9.69-16.56-12.74
		c-10.29-4.97-20.8-9.48-31.23-14.16c-12.15-5.45-23.47-12.16-32.69-21.98c-10.97-11.69-15.66-25.73-15.68-41.55
		c-0.01-18.2,6.1-33.75,20-45.82c10.88-9.44,23.79-14.59,37.71-17.54c16.48-3.49,33.1-3.63,49.8-2.27
		c11.82,0.96,23.36,3.1,34.55,7.07c1.28,0.44,2.08,0.91,2.07,2.53c-0.07,14.58-0.03,29.15-0.05,43.73c-0.01,0.24-0.12,0.49-0.2,0.82
		c-3.89-2.05-7.59-4.31-11.51-6.06c-17.48-7.8-35.69-10.99-54.75-7.92c-5.73,0.92-11.18,2.81-15.97,6.23
		c-10.07,7.18-11.35,19.3-2.99,28.41c5.51,6.01,12.5,9.91,19.73,13.34c11.54,5.45,23.27,10.5,34.75,16.07
		c9.05,4.41,17.31,10.1,24.4,17.36c10.34,10.6,15.56,23.35,16.2,38.06C470.14,410,469.13,421.35,463.98,431.96z"/>
	<path class="st8" d="M463.98,431.96c-7.3,15.04-19.48,24.61-34.81,30.41c-15.15,5.72-30.98,7.46-47.04,7.58
		c-18.29,0.13-36.32-1.73-53.75-7.61c-3.44-1.16-6.74-2.7-10.05-4.2c-0.65-0.29-1.46-1.2-1.46-1.82
		c-0.08-16.07-0.06-32.15-0.06-48.73c1.02,0.71,1.73,1.16,2.38,1.66c20.13,15.75,42.91,22.69,68.36,20.55
		c7.21-0.62,14.18-2.39,20.3-6.55c9.85-6.72,11.66-19.07,4.21-28.4c-4.48-5.61-10.23-9.69-16.56-12.74
		c-10.29-4.97-20.8-9.48-31.23-14.16c-12.15-5.45-23.47-12.16-32.69-21.98c-10.97-11.69-15.66-25.73-15.68-41.55
		c-0.01-18.2,6.1-33.75,20-45.82c10.88-9.44,23.79-14.59,37.71-17.54c16.48-3.49,33.1-3.63,49.8-2.27
		c11.82,0.96,23.36,3.1,34.55,7.07c1.28,0.44,2.08,0.91,2.07,2.53c-0.07,14.58-0.03,29.15-0.05,43.73c-0.01,0.24-0.12,0.49-0.2,0.82
		c-3.89-2.05-7.59-4.31-11.51-6.06c-17.48-7.8-35.69-10.99-54.75-7.92c-5.73,0.92-11.18,2.81-15.97,6.23
		c-10.07,7.18-11.35,19.3-2.99,28.41c5.51,6.01,12.5,9.91,19.73,13.34c11.54,5.45,23.27,10.5,34.75,16.07
		c9.05,4.41,17.31,10.1,24.4,17.36c10.34,10.6,15.56,23.35,16.2,38.06C470.14,410,469.13,421.35,463.98,431.96z"/>
	<polygon class="st8" points="296.87,243.2 296.87,284.2 232.83,284.2 232.83,466.89 182.07,466.89 182.07,284.23 118.23,284.23 
		118.23,243.2 	"/>
</g>
</svg>
