<?xml version="1.0" encoding="utf-8"?>
<!-- Generator: Adobe Illustrator 24.3.0, SVG Export Plug-In . SVG Version: 6.00 Build 0)  -->
<svg version="1.1" id="Layer_1" xmlns="http://www.w3.org/2000/svg" xmlns:xlink="http://www.w3.org/1999/xlink" x="0px" y="0px"
	 viewBox="0 0 512 512" style="enable-background:new 0 0 512 512;" xml:space="preserve">
<style type="text/css">
	.st0{fill:#030303;}
	.st1{fill:#474444;}
	.st2{fill:#747171;}
	.st3{fill:#969393;}
	.st4{fill:#7B7878;}
	.st5{fill:#6D6A6A;}
	.st6{fill:#24B0C4;}
	.st7{fill:#E57E25;}
	.st8{fill:#FFFFFF;}
	.st9{fill:#101213;}
	.st10{fill:#58C3E1;}
	.st11{fill:#040404;}
	.st12{fill:#88C542;}
	.st13{fill:#4DBBEB;}
	.st14{fill:#DB3326;}
	.st15{fill:#FEC411;}
	.st16{fill:#F7911F;}
	.st17{fill:#3978BD;}
	.st18{fill:#2FAE73;}
	.st19{fill:#3A3D40;}
	.st20{fill:#FFFEFD;}
	.st21{fill:#DF2729;}
	.st22{fill:#B63031;}
	.st23{fill:#E23437;}
	.st24{fill:#020303;}
	.st25{fill:#0C0B0B;}
	.st26{fill:#D5B931;}
	.st27{fill:#FDD83F;}
	.st28{fill:#EBEAE9;}
	.st29{fill:#FFFFFE;}
	.st30{fill:#0B0A0A;}
</style>
<path class="st8" d="M256.47,511.99c-14.46,0-28.91-0.01-43.37-0.04c-8.79-0.02-12.65-3.84-12.89-12.79
	c-0.08-2.92-0.05-5.9-0.03-8.79c0.04-4.32,0.07-8.4-0.19-12.64l-0.04-0.71l-0.17-0.7c-0.55-2.32-2.09-4.2-2.39-4.55l-1.31-1.53
	l-1.87-0.76c-12.83-5.21-25.56-10.14-39.04-15.34l-13.87-5.37l-5.59,5.92c-3.35,3.56-7.51,7.98-11.68,12.12
	c-5.21,5.18-8.61,5.18-9.72,5.18c0,0-0.01,0-0.01,0c-1.11,0-4.44-0.02-9.48-5.03c-19.16-19.05-39.29-39.19-59.82-59.85
	c-6.89-6.93-6.9-12.3-0.03-19.17c4.12-4.12,8.41-8.11,12.19-11.63l5.89-5.5l-5.23-13.7c-5.26-13.79-10.23-26.82-15.4-39.76
	l-1.1-2.76l-2.61-1.42c-0.74-0.41-2.24-1.12-3.97-1.32l-0.29-0.04l-0.29-0.01c-2.32-0.11-4.8-0.17-8.04-0.17
	c-1.42,0-2.83,0.01-4.25,0.02l-0.9,0.01c-1.1,0.01-2.2,0.01-3.3,0.01c-1.62,0-3.25-0.01-4.87-0.05
	c-8.95-0.22-12.78-4.07-12.79-12.85c-0.05-29.55-0.04-58.5,0.02-86.05c0.02-8.36,3.95-12.39,12.37-12.69
	c1.57-0.06,3.28-0.08,5.39-0.08c1.36,0,2.71,0.01,4.07,0.02c1.4,0.01,2.78,0.02,4.16,0.02c3.12,0,5.52-0.06,7.77-0.19l0.25-0.02
	c2.45-0.22,4.56-1.45,5.15-1.82l2.25-1.42l1-2.47c5.14-12.69,10.04-25.49,15.23-39.04l5.47-14.25l-5.81-5.33
	c-3.78-3.46-8.06-7.37-12.2-11.49c-5.14-5.11-5.15-8.48-5.16-9.59c0-1.1-0.01-4.46,5.08-9.58c20.39-20.49,40.52-40.62,59.84-59.83
	c5.14-5.11,8.48-5.11,9.57-5.11c1.1,0,4.45,0,9.6,5.16c4.07,4.07,7.99,8.33,11.46,12.08l5.44,5.9l14.17-5.43
	c13.63-5.22,26.5-10.14,39.24-15.24l1.99-0.8l1.35-1.66c0.79-0.97,1.46-2.18,1.85-3.31l0.37-1.09l0.06-1.16
	c0.21-4.12,0.18-8.24,0.15-12.23c-0.02-3.25-0.04-6.52,0.06-9.7c0.26-8.41,4.27-12.33,12.61-12.35c14.22-0.03,28.44-0.04,42.65-0.04
	c14.47,0,28.93,0.01,43.4,0.04c8.79,0.02,12.64,3.84,12.88,12.79c0.2,7.4,0.19,14.09-0.03,20.44c-0.03,0.78,0,1.46,0.07,2.1
	l0.45,3.98l3.4,2.11c0.71,0.44,1.55,0.84,2.56,1.24c15.46,5.99,30.33,12.16,44.21,18.33c1.18,0.53,2.22,0.88,3.17,1.07l3.62,0.74
	l2.96-2.21c0.67-0.5,1.34-1.12,2.05-1.91c4.57-5.03,9.42-9.71,14.4-14.46c3.06-2.92,6.1-4.4,9.04-4.4c3.44,0,6.34,2.15,8.17,3.96
	c21.5,21.21,42.48,42.18,62.34,62.32c6.56,6.65,3.51,12.78-0.21,16.75c-2.13,2.28-4.38,4.48-6.55,6.6c-2.94,2.88-5.98,5.86-8.8,9.06
	l-0.83,0.95l-0.51,1.16c-0.7,1.59-1.31,4.39-0.7,7l0.14,0.58l0.22,0.56c6,15.26,12.27,30.41,18.64,45.02l0.32,0.74l0.46,0.66
	c1.41,2.03,3.91,3.58,5.64,4.15l0.99,0.33l1.04,0.07c2.37,0.17,4.89,0.25,8.18,0.25c1.46,0,2.92-0.01,4.39-0.03l0.27,0
	c1.35-0.01,2.7-0.03,4.05-0.03c1.65,0,3.1,0.02,4.41,0.06c8.84,0.28,12.61,4.21,12.62,13.14c0.05,27.85,0.05,56.57,0,85.34
	c-0.01,8.95-3.76,12.87-12.54,13.12c-1.4,0.04-2.9,0.06-4.71,0.06c-1.43,0-2.86-0.01-4.28-0.02l-0.61,0
	c-1.24-0.01-2.48-0.02-3.72-0.02c-3.25,0-5.74,0.06-8.09,0.2l-0.32,0.02l-0.32,0.04c-2.4,0.33-4.41,1.66-4.97,2.05l-1.96,1.4
	l-0.9,2.23c-5.13,12.69-10.03,25.48-15.22,39.01l-5.4,14.06l5.65,5.3c3.66,3.44,7.79,7.31,11.78,11.29
	c7.58,7.55,7.66,12.85,0.31,20.23c-20.4,20.49-40.36,40.46-59.34,59.33c-5.21,5.18-8.59,5.18-9.71,5.18c-1.1,0-4.44,0-9.5-5.04
	c-4.13-4.1-8.15-8.39-11.7-12.18l-5.6-5.97l-13.72,5.26c-13.66,5.23-26.57,10.17-39.55,15.37l-2.43,0.97l-1.42,2.19
	c-0.47,0.72-1.29,2.18-1.61,3.93l-0.1,0.53l-0.03,0.54c-0.19,3.99-0.16,7.92-0.14,12.09c0.02,3.31,0.04,6.64-0.06,9.88
	c-0.27,8.42-4.27,12.35-12.6,12.37C284.93,511.97,270.7,511.99,256.47,511.99z M141.45,421.39c2.09,0,4.44,0.83,7.18,2.54
	c19.48,12.18,41,21.14,63.94,26.61c7.76,1.85,10.39,5.39,10.45,14.02c0.03,4.83,0.03,9.66,0.02,14.51l-0.01,10.23h65.81l0.04-8.21
	c0.01-2.53,0.07-15.91,0.07-15.91c0.05-9.61,2.71-13,11.85-15.09c21.22-4.84,41.89-13.4,61.43-25.45c4.58-2.82,6.95-3.19,8.49-3.19
	c2.81,0,5.61,1.57,9.38,5.26c3.59,3.52,7.05,7.09,10.41,10.54l6.28,6.44l47.71-47.21l-7.26-6.72c-3.76-3.48-7.64-7.08-11.28-10.78
	c-5.25-5.35-5.8-9.57-2.01-15.57c12.28-19.45,21.09-40.58,26.93-64.61c1.75-7.21,5.14-9.79,12.92-9.86
	c2.89-0.03,5.78-0.03,8.66-0.03l16.6,0.02v-65.97l-8.29,0.03c-0.54,0-6.02,0.02-8.2,0.02c-2.7,0-5.37-0.01-8.05-0.04
	c-8.43-0.1-11.92-2.81-13.85-10.71c-5.73-23.49-14.36-44.21-26.39-63.33c-4.24-6.74-3.73-10.8,2.12-16.69
	c3.54-3.56,7.34-7.09,10.69-10.2l6.64-6.15l-47.43-47.83l-6.38,6.71c-3.27,3.46-6.63,7.04-10.14,10.48
	c-4.43,4.36-7.27,4.92-9.25,4.92c-2.3,0-4.94-0.96-8.08-2.92c-18.73-11.75-39.83-20.52-62.72-26.07
	c-7.99-1.94-10.71-5.39-10.79-13.69c-0.04-4.98-0.03-10.05-0.02-14.96l0.01-9.61h-65.81l-0.06,11.22
	c-0.02,3.9-0.05,10.18-0.06,12.62c-0.06,9.27-2.63,12.56-11.45,14.68c-22.17,5.33-43.04,14-62.03,25.78
	c-4.26,2.64-6.72,2.95-8.2,2.95c-1.98,0-4.79-0.56-9.1-4.9c-3.5-3.53-6.86-7.29-10.1-10.93l-6.47-7.22L67.4,115.57l6.92,5.78
	c1.33,1.11,2.39,2.03,3.32,2.89c3.01,2.78,5.81,5.68,7.91,7.89c5.77,6.08,6.29,10.17,2.12,16.81
	c-11.99,19.12-20.79,40.21-26.16,62.68c-2.09,8.74-5.41,11.29-14.8,11.35C44,222.99,41.29,223,38.59,223l-15.65-0.02v65.94
	l16.31-0.01c2.77,0,5.52,0.01,8.28,0.02c8.59,0.04,11.81,2.52,13.78,10.61c5.71,23.45,14.35,44.16,26.41,63.32
	c4.21,6.69,3.67,10.75-2.23,16.7c-3.58,3.61-7.29,7.02-10.88,10.32l-6.86,6.29l47.69,47.59l6.5-6.82c3.41-3.56,6.94-7.25,10.56-10.8
	C136.82,421.93,139.55,421.39,141.45,421.39z"/>
<path class="st8" d="M255.43,367.3c-29.35-0.12-57.11-11.84-78.14-32.99c-21.04-21.15-32.61-48.98-32.6-78.36
	c0.01-29.5,11.66-57.38,32.8-78.5c21.14-21.12,49.04-32.75,78.55-32.75h0.18c29.5,0.05,57.38,11.75,78.48,32.96
	c21.12,21.22,32.69,49.17,32.6,78.71c-0.2,61.16-50.16,110.92-111.37,110.93L255.43,367.3z M255.78,167.12
	c-23.82,0.07-46.15,9.35-62.88,26.15c-16.72,16.8-25.89,39.15-25.81,62.94c0.16,48.89,40.02,88.66,88.84,88.67h0.27
	c23.85-0.08,46.18-9.37,62.91-26.18c16.73-16.81,25.9-39.16,25.81-62.93c-0.19-48.88-40.06-88.65-88.87-88.65h-0.25H255.78z"/>
</svg>
