<?xml version="1.0" encoding="utf-8"?>
<!-- Generator: Adobe Illustrator 24.3.0, SVG Export Plug-In . SVG Version: 6.00 Build 0)  -->
<svg version="1.1" id="Layer_1" xmlns="http://www.w3.org/2000/svg" xmlns:xlink="http://www.w3.org/1999/xlink" x="0px" y="0px"
	 viewBox="0 0 512 512" style="enable-background:new 0 0 512 512;" xml:space="preserve">
<style type="text/css">
	.st0{fill:#030303;}
	.st1{fill:#474444;}
	.st2{fill:#747171;}
	.st3{fill:#969393;}
	.st4{fill:#7B7878;}
	.st5{fill:#6D6A6A;}
	.st6{fill:#24B0C4;}
	.st7{fill:#E57E25;}
	.st8{fill:#FFFFFF;}
	.st9{fill:#101213;}
	.st10{fill:#58C3E1;}
	.st11{fill:#040404;}
	.st12{fill:#88C542;}
	.st13{fill:#4DBBEB;}
	.st14{fill:#DB3326;}
	.st15{fill:#FEC411;}
	.st16{fill:#F7911F;}
	.st17{fill:#3978BD;}
	.st18{fill:#2FAE73;}
	.st19{fill:#3A3D40;}
	.st20{fill:#FFFEFD;}
	.st21{fill:#DF2729;}
	.st22{fill:#B63031;}
	.st23{fill:#E23437;}
	.st24{fill:#020303;}
	.st25{fill:#0C0B0B;}
	.st26{fill:#D5B931;}
	.st27{fill:#FDD83F;}
	.st28{fill:#EBEAE9;}
	.st29{fill:#FFFFFE;}
	.st30{fill:#0B0A0A;}
</style>
<g>
	<path class="st7" d="M123.91,512c-1.31-0.65-2.56-1.47-3.93-1.93c-15.12-5.07-25.55-18.55-27.02-34.44
		c-3.18-34.3-6.58-68.58-9.81-102.88c-3.14-33.3-6.14-66.62-9.31-99.92c-3.16-33.13-6.43-66.26-9.7-99.38
		c-0.96-9.73,3.04-14.24,13.05-14.24c81.33-0.01,162.65-0.01,243.98-0.01c1.99,0,3.97,0,5.96,0c0.04-0.28,0.08-0.56,0.12-0.84
		c-11.98-2.79-23.95-5.6-35.94-8.36c-58.85-13.52-117.69-27.02-176.54-40.52c-15.52-3.56-31.04-7.11-46.58-10.6
		c-8.99-2.02-11.91-6.6-9.8-15.57c2.13-9.04,4.16-18.1,6.37-27.13c6.13-25.04,26.63-38.38,51.77-33.02
		c24.33,5.19,48.5,11.09,73.11,16.77c0.44-1.67,0.94-3.37,1.32-5.09C196.49,9.57,218.59-4.5,243.77,1.3
		c23.92,5.51,47.82,11.11,71.73,16.64c25.46,5.88,38.98,27.47,33.15,52.99c-0.36,1.58-0.7,3.17-1.15,5.22
		c10.16,2.35,19.97,4.6,29.78,6.88c15.66,3.65,31.45,6.86,46.95,11.09c21.02,5.75,33.76,27.79,29.08,49.12
		c-2.06,9.4-4.31,18.75-6.4,28.15c-2.35,10.55-6.1,13.02-16.95,10.64c-1.36,14.1-2.72,28.15-4.07,42.21
		c-2.21,23.03-4.43,46.05-6.63,69.08c-1.79,18.72-3.56,37.44-5.35,56.16c-2.23,23.36-4.46,46.72-6.7,70.07
		c-1.74,18.22-3.6,36.44-5.22,54.67c-1.64,18.5-11.77,31.26-29.42,36.68c-0.6,0.19-1.1,0.72-1.65,1.09
		C288.58,512,206.25,512,123.91,512z M85.32,179.99c2.26,24.47,4.44,48.64,6.75,72.8c3.51,36.61,7.17,73.2,10.66,109.81
		c3.49,36.61,6.83,73.24,10.26,109.86c1.11,11.9,8.6,19.48,19.95,19.49c76.32,0.09,152.65,0.08,228.97,0
		c11.42-0.01,19.27-7.87,20.02-19.35c0.12-1.83,0.25-3.65,0.42-5.48c2.19-22.86,4.41-45.72,6.58-68.58
		c1.81-19.05,3.56-38.11,5.37-57.16c2.2-23.19,4.43-46.38,6.66-69.57c1.85-19.22,3.72-38.43,5.56-57.64
		c1.09-11.35,2.12-22.71,3.18-34.18C301.4,179.99,193.49,179.99,85.32,179.99z M428.51,160.81c1.77-7.55,3.69-14.77,5.06-22.09
		c0.56-3.01,0.42-6.37-0.28-9.36c-2.47-10.55-10.14-15.14-20.15-17.42C353.8,98.42,294.5,84.69,235.17,71.08
		c-41.54-9.53-83.1-19.01-124.67-28.41c-11.17-2.52-22.52,4.41-25.48,15.49c-1.96,7.35-3.45,14.83-5.22,22.54
		C196.11,107.42,312.25,134.1,428.51,160.81z M327.61,71.6c0.63-2.88,1.13-5.13,1.61-7.39c2.58-12.1-4.28-23.34-16.31-26.16
		c-24.67-5.78-49.45-11.1-74.05-17.17c-13.57-3.35-28.31,5.18-28.72,23.77C249.12,53.59,288.16,62.55,327.61,71.6z"/>
	<path class="st7" d="M237.28,336.04c0-40.47,0-80.94,0-121.41c0-9.32,3.54-14.32,10.16-14.37c6.58-0.06,10.31,5.08,10.31,14.23
		c0,81.1,0,162.21,0,243.31c0,8.46-3.64,13.15-10.17,13.2c-4.79,0.03-8.67-2.88-9.72-7.62c-0.46-2.09-0.56-4.29-0.56-6.43
		C237.27,416.65,237.28,376.35,237.28,336.04z"/>
	<path class="st7" d="M338.29,335.8c-1.13,22.96-2.26,45.91-3.4,68.87c-0.93,18.63-1.8,37.26-2.84,55.89
		c-0.39,6.97-4.52,10.79-10.71,10.44c-5.75-0.33-9.63-4.73-9.35-11.31c1.01-23.46,2.19-46.92,3.34-70.37
		c1.17-23.79,2.4-47.57,3.58-71.36c1.58-31.94,3.15-63.88,4.71-95.82c0.19-3.83,0.15-7.67,0.43-11.49
		c0.46-6.22,5.1-10.65,10.62-10.35c5.76,0.31,9.91,4.89,9.61,11.22c-1.93,41.43-3.97,82.85-5.97,124.27
		C338.31,335.8,338.3,335.8,338.29,335.8z"/>
	<path class="st7" d="M150.77,218.35c0-2.5-0.03-5,0.01-7.49c0.08-5.94,4.2-10.4,9.72-10.58c5.36-0.17,10.02,4.26,10.35,10.08
		c0.7,12.3,1.32,24.61,1.92,36.92c2.3,46.91,4.62,93.81,6.87,140.72c1.16,24.12,2.26,48.24,3.23,72.37
		c0.24,6.01-3.54,10.16-8.93,10.61c-5.31,0.44-10.22-3.01-10.88-8.13c-0.61-4.78-0.75-9.63-0.98-14.45
		c-2.11-44.58-4.15-89.17-6.3-133.75c-1.55-32.1-3.25-64.2-4.89-96.3C150.86,218.35,150.82,218.35,150.77,218.35z"/>
</g>
</svg>
