<?xml version="1.0" encoding="utf-8"?>
<!-- Generator: Adobe Illustrator 24.3.0, SVG Export Plug-In . SVG Version: 6.00 Build 0)  -->
<svg version="1.1" id="Layer_1" xmlns="http://www.w3.org/2000/svg" xmlns:xlink="http://www.w3.org/1999/xlink" x="0px" y="0px"
	 viewBox="0 0 512 512" style="enable-background:new 0 0 512 512;" xml:space="preserve">
<style type="text/css">
	.st0{fill:#030303;}
	.st1{fill:#474444;}
	.st2{fill:#747171;}
	.st3{fill:#969393;}
	.st4{fill:#7B7878;}
	.st5{fill:#6D6A6A;}
	.st6{fill:#24B0C4;}
	.st7{fill:#E57E25;}
	.st8{fill:#FFFFFF;}
	.st9{fill:#101213;}
	.st10{fill:#58C3E1;}
	.st11{fill:#040404;}
	.st12{fill:#88C542;}
	.st13{fill:#4DBBEB;}
	.st14{fill:#DB3326;}
	.st15{fill:#FEC411;}
	.st16{fill:#F7911F;}
	.st17{fill:#3978BD;}
	.st18{fill:#2FAE73;}
	.st19{fill:#3A3D40;}
	.st20{fill:#FFFEFD;}
	.st21{fill:#DF2729;}
	.st22{fill:#B63031;}
	.st23{fill:#E23437;}
	.st24{fill:#020303;}
	.st25{fill:#0C0B0B;}
	.st26{fill:#D5B931;}
	.st27{fill:#FDD83F;}
	.st28{fill:#EBEAE9;}
	.st29{fill:#FFFFFE;}
	.st30{fill:#0B0A0A;}
</style>
<g>
	<path class="st13" d="M383.22,313.32c-5.19,20.22-13.84,38.8-27.33,55.05c-21.68,26.11-50.29,37.63-83.52,40.49
		c-34.29,2.95-66.74-1.95-95.69-21.19c-12.06-8.02-22.62-18.34-33.54-27.98c-9.82-8.67-18.63-18.54-28.85-26.67
		c-26.92-21.41-64.87-20.68-91.66,1.35c-7.29,6-13.84,12.9-22.63,18.75c4.66-11.47,8.38-23.44,14.14-34.33
		c18.88-35.74,48.94-55.63,89.12-60.74c38.83-4.95,76.07-0.81,108.24,22.88c17.64,13,32.16,30.15,49.27,43.97
		c10.43,8.42,22.33,16.66,34.94,20.41c26.46,7.88,50.67,0.55,71.04-18.15c5.18-4.76,9.63-10.31,14.42-15.49
		C381.85,312.22,382.53,312.77,383.22,313.32z"/>
	<path class="st13" d="M129.89,202.22c11.73-46.7,36.09-82.51,85.09-94.27c54.42-13.06,104.19-4.19,145.75,36.12
		c10.91,10.59,21.61,21.44,33.06,31.42c30.75,26.82,73.21,25.45,102.81-2.93c4.7-4.51,9.15-9.28,15.4-13.25
		c-1.18,3.91-2.23,7.87-3.57,11.73c-15.6,44.87-45.06,74.51-93.17,82.53c-50.47,8.41-96.03-1.49-133.79-38.12
		c-10.7-10.38-21.38-20.79-32.32-30.91c-34.53-31.92-82.12-25.4-113.04,10.25C133.99,197.24,131.96,199.75,129.89,202.22z"/>
</g>
</svg>
