<?xml version="1.0" encoding="utf-8"?>
<!-- Generator: Adobe Illustrator 24.3.0, SVG Export Plug-In . SVG Version: 6.00 Build 0)  -->
<svg version="1.1" id="Layer_1" xmlns="http://www.w3.org/2000/svg" xmlns:xlink="http://www.w3.org/1999/xlink" x="0px" y="0px"
	 viewBox="0 0 512 512" style="enable-background:new 0 0 512 512;" xml:space="preserve">
<style type="text/css">
	.st0{fill:#030303;}
	.st1{fill:#474444;}
	.st2{fill:#747171;}
	.st3{fill:#969393;}
	.st4{fill:#7B7878;}
	.st5{fill:#6D6A6A;}
	.st6{fill:#24B0C4;}
	.st7{fill:#E57E25;}
	.st8{fill:#FFFFFF;}
	.st9{fill:#101213;}
	.st10{fill:#58C3E1;}
	.st11{fill:#040404;}
	.st12{fill:#88C542;}
	.st13{fill:#4DBBEB;}
	.st14{fill:#DB3326;}
	.st15{fill:#FEC411;}
	.st16{fill:#F7911F;}
	.st17{fill:#3978BD;}
	.st18{fill:#2FAE73;}
	.st19{fill:#3A3D40;}
	.st20{fill:#FFFEFD;}
	.st21{fill:#DF2729;}
	.st22{fill:#B63031;}
	.st23{fill:#E23437;}
	.st24{fill:#020303;}
	.st25{fill:#0C0B0B;}
	.st26{fill:#D5B931;}
	.st27{fill:#FDD83F;}
	.st28{fill:#EBEAE9;}
	.st29{fill:#FFFFFE;}
	.st30{fill:#0B0A0A;}
</style>
<path class="st8" d="M99.5,480.84c-0.94,0-2.01-0.28-3.19-0.82c-2.12-0.98-3.26-2.18-3.25-5.66c0.04-9.37-0.07-18.86-0.17-28.04
	c-0.21-19.2-0.43-39.04,0.68-58.29c0.78-13.55,3.34-26.67,7.63-39.01c9.25-26.62,25.52-44.63,39.88-60.52
	c9.67-10.71,20.31-20.74,31.62-29.84l4.75-3.82l-5.33-40.27c-1.04-18.21-0.35-36.6,2.06-54.66c1.32-9.88,4.4-33.02,15.19-61.4
	c11.97-31.51,30.38-61.07,54.7-87.86c1.56-1.72,4.4-3.35,7.4-5.08l0.1-0.06c0.86-0.49,1.73-1,2.6-1.52h9.3
	c10.96,6.47,18.59,17.12,26.67,28.39l0.1,0.14c1.09,1.52,2.18,3.04,3.28,4.55c27.12,37.27,43.52,79.3,48.74,124.91
	c1.87,16.33,0.66,67.26-1.91,80.15l-0.05,0.25l-0.91,13.45l1.18,1.27c1.28,1.37,2.36,2.55,3.32,3.6c1.86,2.02,3.29,3.58,4.82,5.13
	c3.56,3.63,7.21,7.25,10.74,10.75c15.29,15.15,29.7,29.43,39.75,47.36c13,23.2,19.49,46.12,19.84,70.09
	c0.21,14.43,0.19,29.13,0.17,43.35v0.13c-0.02,11.44-0.03,23.28,0.07,34.94c0.06,6.19-1.9,7.02-3.47,7.69
	c-1.02,0.43-1.92,0.64-2.76,0.64c-1.73,0-3.63-0.96-5.81-2.94c-18.45-16.77-37.21-33.67-55.35-50.01l-12.93-11.65
	c-1.17-1.05-2.35-1.95-3.3-2.68c-0.36-0.27-0.72-0.55-1.07-0.83l-7.58-6l-6.81,6.86c-6.99,7.04-16.6,8.34-27.74,9.84
	c-2.07,0.28-4.12,0.56-6.16,0.87c-10.45,1.61-21.01,2.43-31.38,2.44h-0.14c-9.85,0-19.68-0.85-28.43-2.45
	c-5.94-1.09-13.96-2.95-18.47-5.66c-5.26-3.16-9.67-7.63-13.09-13.26l-2.22-3.65l-13.71,9.64l-20.48,18.45
	c-12.84,11.57-26.08,23.5-39.33,35.42l-2.89,2.61c-4.34,3.91-8.79,7.93-13.23,11.63C101.38,480.69,100.23,480.84,99.5,480.84z
	 M162.86,286.36c-45.29,34.58-63.3,82.34-56.69,150.3l2.07,21.32l27.69-24.89c15.53-13.95,31.59-28.38,47.21-42.62
	c3.9-3.55,6.16-9.5,5.63-14.8c-2.17-21.71-4.44-42.98-6.85-65.5l-3.78-35.49L162.86,286.36z M332.27,308.65
	c-3.02,23.5-5.87,45.7-8.66,68.4c-0.69,5.64,2.41,10.68,5.55,13.53c15.74,14.27,31.91,28.8,47.54,42.85l27.3,24.54l2.08-21.31
	c6.53-66.85-10.82-114.12-54.61-148.76l-15.01-11.88L332.27,308.65z M249.93,22.86c-41.08,46.99-62.92,100.35-64.88,158.58
	c-0.82,24.22,1.53,48.61,3.81,72.19l0.04,0.36c0.46,4.81,0.93,9.62,1.36,14.42c2.15,23.65,4.68,47.61,7.14,70.79
	c1.88,17.72,3.82,36.05,5.56,54.07c1.03,10.62,7.27,16.92,17.13,17.28c5.14,0.19,10.4,0.44,15.49,0.68l0.37,0.02
	c11.02,0.53,22.42,1.07,33.78,1.07c3.73,0,7.21-0.06,10.65-0.17c21.96-0.75,26.01-6.24,29.42-26.11l0.11-0.66
	c0.3-1.77,0.49-3.43,0.66-5.03l0.01-0.11c0.07-0.67,0.15-1.35,0.23-2.02c1.39-11.02,2.77-22.04,4.15-33.06l0.19-1.55
	c3.24-25.86,6.59-52.61,9.99-78.88l0.4-3.12c4.25-32.77,8.64-66.67,3.9-101.17c-7.16-52.11-27.85-97.12-63.24-137.58l-8.15-9.31
	L249.93,22.86z"/>
<path class="st8" d="M224.42,500.63c-3.91-0.06-4.52-3.25-4.54-5.14c-0.13-15.65-0.13-31.05,0-45.79c0.03-3.18,1.7-5.01,4.6-5.03
	c2.88,0,4.61,1.85,4.68,4.96c0.12,5.34,0.09,10.83,0.06,16.13c-0.01,2.42-0.02,4.83-0.02,7.25c0,2.25,0.01,4.51,0.02,6.76
	c0.02,5.09,0.04,10.36-0.05,15.5c-0.04,2.45-0.88,5.37-4.65,5.37H224.42z"/>
<path class="st8" d="M294.9,500.63c-3.91-0.06-4.52-3.25-4.54-5.14c-0.13-15.65-0.13-31.05,0-45.79c0.03-3.18,1.7-5.01,4.6-5.03
	c2.88,0,4.61,1.85,4.68,4.96c0.12,5.34,0.09,10.83,0.06,16.13c-0.01,2.42-0.02,4.83-0.02,7.25c0,2.25,0.01,4.51,0.02,6.76
	c0.02,5.09,0.04,10.36-0.05,15.5c-0.04,2.45-0.88,5.37-4.65,5.37H294.9z"/>
<path class="st8" d="M259.66,512c-3.91-0.06-4.52-3.25-4.54-5.14c-0.13-15.65-0.13-31.05,0-45.79c0.03-3.18,1.7-5.01,4.6-5.03
	c2.88,0,4.61,1.85,4.68,4.96c0.12,5.34,0.09,10.83,0.06,16.13c-0.01,2.42-0.02,4.83-0.02,7.25c0,2.25,0.01,4.51,0.02,6.76
	c0.02,5.09,0.04,10.36-0.05,15.5c-0.04,2.45-0.88,5.37-4.65,5.37H259.66z"/>
</svg>
