<?xml version="1.0" encoding="utf-8"?>
<!-- Generator: Adobe Illustrator 24.3.0, SVG Export Plug-In . SVG Version: 6.00 Build 0)  -->
<svg version="1.1" id="Layer_1" xmlns="http://www.w3.org/2000/svg" xmlns:xlink="http://www.w3.org/1999/xlink" x="0px" y="0px"
	 viewBox="0 0 512 512" style="enable-background:new 0 0 512 512;" xml:space="preserve">
<style type="text/css">
	.st0{fill:#030303;}
	.st1{fill:#474444;}
	.st2{fill:#747171;}
	.st3{fill:#969393;}
	.st4{fill:#7B7878;}
	.st5{fill:#6D6A6A;}
	.st6{fill:#24B0C4;}
	.st7{fill:#E57E25;}
	.st8{fill:#FFFFFF;}
	.st9{fill:#101213;}
	.st10{fill:#58C3E1;}
	.st11{fill:#040404;}
	.st12{fill:#88C542;}
	.st13{fill:#4DBBEB;}
	.st14{fill:#DB3326;}
	.st15{fill:#FEC411;}
	.st16{fill:#F7911F;}
	.st17{fill:#3978BD;}
	.st18{fill:#2FAE73;}
	.st19{fill:#3A3D40;}
	.st20{fill:#FFFEFD;}
	.st21{fill:#DF2729;}
	.st22{fill:#B63031;}
	.st23{fill:#E23437;}
	.st24{fill:#020303;}
	.st25{fill:#0C0B0B;}
	.st26{fill:#D5B931;}
	.st27{fill:#FDD83F;}
	.st28{fill:#EBEAE9;}
	.st29{fill:#FFFFFE;}
	.st30{fill:#0B0A0A;}
</style>
<g>
	<path class="st8" d="M235.04,512c-29.12,0-58.24-0.01-87.36-0.03c-27.72-0.02-44.94-17.31-44.94-45.14l0-37.23
		c0-128.72-0.01-257.44,0.01-386.16c0-21.32,12.38-37.49,32.3-42.22c3.26-0.77,7.02-1.15,11.5-1.16C187.49,0.02,230.77,0,278.86,0
		c28.76,0,57.52,0.01,86.28,0.02c26.37,0.01,44.09,17.78,44.1,44.22c0.01,50.95,0.01,101.9,0.01,152.85l0,59.12l0.01,60.3
		c0.01,50.07,0.01,101.85-0.03,152.77c-0.02,20.35-12.61,36.55-32.08,41.28c-3.72,0.9-8,1.35-13.09,1.35
		C322.71,511.97,280.5,512,235.04,512z M147.62,12.86c-9.12,0-21.31,4.25-26.52,13.6c-2.98,5.34-4.7,12.12-4.72,18.61
		c-0.19,56.3-0.18,113.54-0.17,168.89l0.01,41.42l-0.01,42.03c-0.01,55.51-0.03,112.92,0.18,169.38c0.02,6.43,1.86,13.37,5.03,19.05
		c6.19,11.08,17.69,12.37,25.8,12.37h0.1c43.39-0.06,86.99-0.07,123.93-0.07l93.54,0c1.47,0,2.89-0.06,4.26-0.11l0.44-0.02
		c9.72-0.37,17.59-5.09,21.61-12.94c2.85-5.57,4.49-12.29,4.5-18.45c0.19-141.6,0.16-283.71,0.12-421.13c0-3.81-0.3-7.15-0.91-10.2
		c-2.37-11.8-12.9-20.79-25.04-21.37c-0.67-0.03-1.34-0.04-2.01-0.04c-0.66,0-1.32,0.01-1.98,0.02c-0.57,0.01-1.14,0.02-1.71,0.02
		c-0.9,0-1.59-0.03-2.18-0.09c-0.63-0.07-1.25-0.1-1.84-0.1c-3.85,0-9.09,1.47-12.18,8.45c-2.34,5.31-4.86,10.69-7.3,15.89
		c-2.69,5.76-5.48,11.71-8.08,17.68c-2.05,4.69-4.55,6.35-9.56,6.35c-22.01-0.06-44.5-0.09-66.9-0.09
		c-22.03,0-44.61,0.03-67.12,0.09c-4.92,0-7.34-1.58-9.33-6.04c-4.79-10.76-9.86-21.57-14.77-32.03l-0.98-2.09
		c-0.88-1.87-2.7-5.75-6.64-7.35C154.37,13.44,151.14,12.86,147.62,12.86z M180,24.52c0.76,1.64,1.5,3.24,2.22,4.82
		c2.05,4.46,3.98,8.67,6.13,12.86c1.8,3.52,6.09,6.18,9.98,6.19c19.36,0.06,39.78,0.09,60.71,0.09c18.14,0,36.27-0.02,54.41-0.06
		c3.41-0.01,7.96-1.75,9.89-5.57c2.28-4.51,4.33-8.98,6.5-13.72c0.7-1.52,1.4-3.06,2.12-4.62l4.73-10.22H175.24L180,24.52z"/>
	<path class="st8" d="M239.84,307.18c-3.18-0.97-5-3.65-4.64-6.83c0.12-1.11,0.49-2.38,0.83-3.48
		c10.7-34.53,20.35-65.68,30.17-97.17c1.02-3.28,3.09-7.13,7.12-6.84c0.73,0.05,1.43,0.18,2.07,0.37c3.85,1.17,5.41,4.73,4.06,9.29
		c-3.11,10.51-6.44,21.17-9.67,31.48c-0.98,3.15-1.97,6.29-2.95,9.44c-2.06,6.63-4.14,13.25-6.22,19.88
		c-3.89,12.41-7.91,25.25-11.79,37.91c-0.62,2.02-2.02,5.46-4.54,6.15C242.68,307.67,241.19,307.59,239.84,307.18z"/>
	<path class="st8" d="M203.67,289.04c-2.1,0-4.47-1.2-6.69-3.39c-10.67-10.54-19.45-19.33-27.65-27.67
		c-4.5-4.58-4.5-7.52,0.01-12.08l3.07-3.11c8.25-8.36,16.78-17,25.34-25.25c1.8-1.74,3.89-2.69,5.87-2.69c3.05,0,5.37,2.1,6.22,5.62
		c0.41,1.69,0.37,3.66-2.62,6.62c-4.53,4.5-9.07,8.92-13.86,13.6c-2.04,1.99-4.11,4.01-6.22,6.07l-5.25,5.14l5.25,5.14
		c2.11,2.07,4.18,4.09,6.21,6.07c4.54,4.43,8.83,8.61,13.08,12.88c2.36,2.36,3.65,4.79,3.63,6.84c-0.01,1.49-0.71,2.89-2.14,4.29
		C206.63,288.39,205.19,289.04,203.67,289.04z"/>
	<path class="st8" d="M307.39,289.04c-3.05,0-5.55-2.21-6.37-5.64c-0.4-1.68-0.35-3.63,2.65-6.58c4.61-4.53,9.25-9.03,14.05-13.68
		l11.41-11.09l-5.28-5.16c-2.17-2.12-4.28-4.17-6.36-6.18c-4.54-4.41-8.84-8.58-13.07-12.82c-2.35-2.35-3.63-4.76-3.61-6.77
		c0.01-1.47,0.75-2.92,2.19-4.33c1.31-1.28,2.75-1.93,4.26-1.93c2.1,0,4.47,1.21,6.68,3.39c9.21,9.12,18.39,18.31,27.29,27.3
		c4.87,4.92,4.93,7.71,0.26,12.45l-2.89,2.93c-8.42,8.55-17.12,17.39-25.91,25.75C311.07,288.23,309.24,289.04,307.39,289.04z"/>
	<path class="st8" d="M256.19,467.95c-12.4,0-24.79-0.01-37.19-0.04c-2.53-0.01-4.69-0.78-6.07-2.19c-1.15-1.17-1.75-2.78-1.72-4.65
		c0.07-4.74,4.05-6.45,7.76-6.47c4.94-0.03,9.88-0.04,14.82-0.04c3.69,0,18.48,0.02,22.18,0.02c3.69,0,18.45-0.02,22.13-0.02
		c4.96,0,9.91,0.01,14.87,0.04c3.72,0.02,7.72,1.72,7.81,6.45c0.04,1.87-0.56,3.48-1.72,4.66c-1.38,1.41-3.52,2.19-6.02,2.19
		C280.76,467.94,268.47,467.95,256.19,467.95z"/>
</g>
</svg>
