<?xml version="1.0" encoding="utf-8"?>
<!-- Generator: Adobe Illustrator 24.3.0, SVG Export Plug-In . SVG Version: 6.00 Build 0)  -->
<svg version="1.1" id="Layer_1" xmlns="http://www.w3.org/2000/svg" xmlns:xlink="http://www.w3.org/1999/xlink" x="0px" y="0px"
	 viewBox="0 0 512 512" style="enable-background:new 0 0 512 512;" xml:space="preserve">
<style type="text/css">
	.st0{fill:#030303;}
	.st1{fill:#474444;}
	.st2{fill:#747171;}
	.st3{fill:#969393;}
	.st4{fill:#7B7878;}
	.st5{fill:#6D6A6A;}
	.st6{fill:#24B0C4;}
	.st7{fill:#E57E25;}
	.st8{fill:#FFFFFF;}
	.st9{fill:#101213;}
	.st10{fill:#58C3E1;}
	.st11{fill:#040404;}
	.st12{fill:#88C542;}
	.st13{fill:#4DBBEB;}
	.st14{fill:#DB3326;}
	.st15{fill:#FEC411;}
	.st16{fill:#F7911F;}
	.st17{fill:#3978BD;}
	.st18{fill:#2FAE73;}
	.st19{fill:#3A3D40;}
	.st20{fill:#FFFEFD;}
	.st21{fill:#DF2729;}
	.st22{fill:#B63031;}
	.st23{fill:#E23437;}
	.st24{fill:#020303;}
	.st25{fill:#0C0B0B;}
	.st26{fill:#D5B931;}
	.st27{fill:#FDD83F;}
	.st28{fill:#EBEAE9;}
	.st29{fill:#FFFFFE;}
	.st30{fill:#0B0A0A;}
</style>
<path class="st8" d="M255.51,480.86c-64.82,0-129.62,0-194.44-0.01c-24.15,0-40.37-16.17-40.38-40.22l0-36.15
	c0-41.74,0-84.91-0.13-127.37c-0.01-4.57-1.94-9.68-5.01-13.34C4.96,251.2-0.12,238.08,0,223.66c0.11-12.84,0.09-25.88,0.06-38.49
	c-0.02-11.57-0.04-23.53,0.04-35.28c0.13-18.75,16.23-35.63,34.45-36.11c14.68-0.39,29.26-0.44,41.59-0.44
	c4.79,0,9.57,0.01,14.36,0.02c4.8,0.01,9.59,0.02,14.39,0.02c3.31,0,6.61,0,9.91-0.02l14.19,0v-8.26l-0.01-3.32
	c-0.01-2.17-0.01-4.2,0.01-6.23c0.04-3.33-0.04-6.66-0.11-9.89c-0.16-6.98-0.31-13.58,0.67-19.81c3.3-21,19.62-34.58,41.57-34.6
	l8.94,0c15.34,0,30.67,0.02,46,0.04c15.34,0.02,30.68,0.04,46.03,0.04c26.37,0,47.89-0.07,67.74-0.21l0.36,0
	c12.31,0,23.52,4.66,31.55,13.11c7.63,8.03,11.68,18.89,11.12,29.81c-0.37,7.15-0.27,14.37-0.18,21.35
	c0.04,3.21,0.09,6.44,0.09,9.71v8.26h14.37c2.4,0.01,4.8,0.01,7.21,0.01c5.51,0,11.01-0.01,16.52-0.03
	c5.49-0.01,10.99-0.03,16.48-0.03c10.59,0,24.54,0.04,38.52,0.37c8.91,0.21,17.36,3.69,23.8,9.79c3.19,3.03,5.85,6.62,7.89,10.69
	c2.55,5.06,2.84,9.63,3.09,13.67l0.03,0.47c0.77,11.98,0.75,20.05,0.73,28.6c-0.01,5.67-0.03,11.54,0.17,18.95
	c0.06,2.13,0.12,4.05,0.19,5.89c0.2,5.85,0.36,10.46,0.11,17.83c-0.27,8.1-0.45,13.46-0.98,15.51l-0.29,1.11
	c-2.73,10.65-3.86,15.06-14.54,27.73c-2.98,3.53-4.84,8.48-4.85,12.91c-0.13,43.04-0.13,86.79-0.13,129.11l0,34.41
	c0,24.22-16.33,40.49-40.62,40.49C385.48,480.86,320.49,480.86,255.51,480.86z M35.12,337.72c0,33.93,0,67.86,0,101.8
	c0,16.94,9.67,26.65,26.52,26.65c64.84,0.01,129.68,0.01,194.52,0.01c64.6,0,129.21,0,193.81-0.01c16.94,0,26.66-9.66,26.67-26.51
	c0.01-34.07,0.01-68.14,0.01-102.2l0-55.49l-11.95,5.98c-46.94,23.47-96.6,31.89-156.74,37.31l-5.7,0.51l-1.52,5.51
	c-6.34,22.93-21.74,35.06-44.55,35.07c-23.22,0-38.84-12.18-45.21-35.22l-1.53-5.53l-5.71-0.5
	c-48.88-4.27-105.33-11.03-156.58-37.44l-12.04-6.2L35.12,337.72z M224.94,303.55c0,1.76,0.03,3.48,0.07,5.18
	c0.06,3.33,0.12,6.47-0.1,9.43c-0.73,9.65,1.99,18.33,7.66,24.45c5.55,5.99,13.44,9.16,22.79,9.16c0,0,0,0,0,0
	c2.57,0,5.28-0.24,8.04-0.73c12-2.11,20.31-9.99,22.21-21.1c1.07-6.24,1.22-12.45,1.36-18.45c0.06-2.47,0.12-5.03,0.25-7.5
	l0.45-8.68h-62.71V303.55z M255.61,280.49c13.22,0,26.48,0.07,39.44,0.22c4.52,0.05,6.18,3.9,6.22,7.49
	c0.03,2.98,0.02,5.96,0.02,9.15c0,1.53-0.01,3.11-0.01,4.77v9.18l17.26-1.83c5.72-0.6,11.21-1.18,16.69-1.77
	c32.65-3.49,61.3-9.42,87.56-18.12c18.38-6.09,39.53-14.45,57.04-30.27c11.94-10.79,17.85-24.02,17.57-39.32
	c-0.28-14.99-0.22-30.28-0.16-45.07c0.03-6.75,0.05-13.51,0.05-20.26c-0.01-16.9-9.65-26.6-26.44-26.6l-215.01,0l-215.01,0
	c-16.71,0-26.31,9.55-26.32,26.2c-0.01,6.53,0.06,13.16,0.12,19.57c0.14,14.14,0.28,28.75-0.32,42.99
	c-0.82,19.35,6.98,34.96,23.84,47.69c12.02,9.08,25.9,16.18,45.02,23.01c23.55,8.41,49.62,14.42,82.05,18.9
	c8.25,1.14,16.66,1.95,24.79,2.74c3.77,0.36,7.56,0.73,11.38,1.13l9.12,0.96v-9.17c0-1.68,0-3.29-0.01-4.84
	c-0.01-3.21-0.02-6.19,0.02-9.17c0.04-3.37,1.73-7.32,6.35-7.37C229.85,280.56,242.89,280.49,255.61,280.49z M173.43,45.95
	c-2.08,0-4.66,0-7.32,0.38c-13.05,1.85-22.11,11.67-22.54,24.44c-0.27,7.93-0.21,15.97-0.15,23.75c0.03,3.41,0.05,6.83,0.05,10.29
	v8.26h224.85v-8.26c0-2.88-0.04-5.72-0.09-8.55c-0.09-6.07-0.18-11.8,0.17-17.47c0.64-10.32-1.76-18.46-7.14-24.18
	c-5.53-5.89-13.93-8.87-24.95-8.87l-0.65,0c-20.73,0.21-43.46,0.31-71.53,0.31c-14.54,0-29.09-0.03-43.63-0.05
	c-14.55-0.03-29.1-0.05-43.66-0.05H173.43z"/>
</svg>
