<?xml version="1.0" encoding="utf-8"?>
<!-- Generator: Adobe Illustrator 24.3.0, SVG Export Plug-In . SVG Version: 6.00 Build 0)  -->
<svg version="1.1" id="Layer_1" xmlns="http://www.w3.org/2000/svg" xmlns:xlink="http://www.w3.org/1999/xlink" x="0px" y="0px"
	 viewBox="0 0 512 512" style="enable-background:new 0 0 512 512;" xml:space="preserve">
<style type="text/css">
	.st0{fill:#030303;}
	.st1{fill:#474444;}
	.st2{fill:#747171;}
	.st3{fill:#969393;}
	.st4{fill:#7B7878;}
	.st5{fill:#6D6A6A;}
	.st6{fill:#24B0C4;}
	.st7{fill:#E57E25;}
	.st8{fill:#FFFFFF;}
	.st9{fill:#101213;}
	.st10{fill:#58C3E1;}
	.st11{fill:#040404;}
	.st12{fill:#88C542;}
	.st13{fill:#4DBBEB;}
	.st14{fill:#DB3326;}
	.st15{fill:#FEC411;}
	.st16{fill:#F7911F;}
	.st17{fill:#3978BD;}
	.st18{fill:#2FAE73;}
	.st19{fill:#3A3D40;}
	.st20{fill:#FFFEFD;}
	.st21{fill:#DF2729;}
	.st22{fill:#B63031;}
	.st23{fill:#E23437;}
	.st24{fill:#020303;}
	.st25{fill:#0C0B0B;}
	.st26{fill:#D5B931;}
	.st27{fill:#FDD83F;}
	.st28{fill:#EBEAE9;}
	.st29{fill:#FFFFFE;}
	.st30{fill:#0B0A0A;}
	.st31{fill:#636060;}
	.st32{fill:#7D7A7A;}
</style>
<g>
	<path class="st8" d="M510.99,86.41c-1.8,8.71-6.29,15.93-12.38,22.28c-74.93,78.23-149.86,156.46-224.79,234.69
		c-0.68,0.71-1.44,1.35-2.5,2.34c-12.63-35.17-35.57-59.5-72.29-70.13c1.11-1.18,2.05-2.29,3.09-3.29
		c78.47-74.93,156.92-149.89,235.46-224.75c22.64-21.58,55.9-16.25,70.06,11.1c1.57,3.03,2.26,6.52,3.36,9.8
		c0.33,2.33,0.67,4.66,1,6.98c0,1.66,0,3.33,0,4.99C511.66,82.43,511.33,84.42,510.99,86.41z"/>
	<path class="st8" d="M0,416.77c10.6-3.78,21.36-7.14,31.75-11.43C55,395.76,72.31,379.36,85.29,358
		c4.73-7.78,9.84-15.46,15.71-22.4c19.45-23.01,44.93-33.76,74.72-33.33c30.22,0.44,56.37,20.88,66.3,50.24
		c13.8,40.77-2.07,82.05-40.42,104.56c-29.85,17.52-62.42,22.63-96.46,20.07c-16.63-1.25-32.81-4.99-48.35-11.01
		C32.26,456.63,11.39,442.7,0,417.77C0,417.44,0,417.11,0,416.77z"/>
	<path class="st8" d="M512,75.44c-0.33-2.33-0.67-4.66-1-6.98c0.33,0,0.67,0,1,0C512,70.78,512,73.11,512,75.44z"/>
	<path class="st8" d="M510.99,86.41c0.34-1.99,0.67-3.99,1.01-5.98c0,2,0,3.99,0,5.99C511.66,86.42,511.33,86.42,510.99,86.41z"/>
</g>
</svg>
