<?xml version="1.0" encoding="utf-8"?>
<!-- Generator: Adobe Illustrator 24.3.0, SVG Export Plug-In . SVG Version: 6.00 Build 0)  -->
<svg version="1.1" id="Layer_1" xmlns="http://www.w3.org/2000/svg" xmlns:xlink="http://www.w3.org/1999/xlink" x="0px" y="0px"
	 viewBox="0 0 512 512" style="enable-background:new 0 0 512 512;" xml:space="preserve">
<style type="text/css">
	.st0{fill:#030303;}
	.st1{fill:#474444;}
	.st2{fill:#747171;}
	.st3{fill:#969393;}
	.st4{fill:#7B7878;}
	.st5{fill:#6D6A6A;}
	.st6{fill:#24B0C4;}
	.st7{fill:#E57E25;}
	.st8{fill:#FFFFFF;}
	.st9{fill:#101213;}
	.st10{fill:#58C3E1;}
	.st11{fill:#040404;}
	.st12{fill:#88C542;}
	.st13{fill:#4DBBEB;}
	.st14{fill:#DB3326;}
	.st15{fill:#FEC411;}
	.st16{fill:#F7911F;}
	.st17{fill:#3978BD;}
	.st18{fill:#2FAE73;}
	.st19{fill:#3A3D40;}
	.st20{fill:#FFFEFD;}
	.st21{fill:#DF2729;}
	.st22{fill:#B63031;}
	.st23{fill:#E23437;}
	.st24{fill:#020303;}
	.st25{fill:#0C0B0B;}
	.st26{fill:#D5B931;}
	.st27{fill:#FDD83F;}
	.st28{fill:#EBEAE9;}
	.st29{fill:#FFFFFE;}
	.st30{fill:#0B0A0A;}
	.st31{fill:#636060;}
	.st32{fill:#7D7A7A;}
</style>
<g>
	<path class="st8" d="M403.43,34.42c-0.01-4.02-0.32-7.54-0.97-10.76c-2.5-12.45-13.61-21.93-26.4-22.54
		c-0.71-0.04-1.41-0.05-2.12-0.05c-0.7,0-1.39,0.01-2.09,0.03c-0.6,0.01-1.2,0.02-1.8,0.02c-0.95,0-1.68-0.03-2.31-0.09
		c-0.66-0.07-1.32-0.11-1.94-0.11c-4.06,0-9.59,1.54-12.84,8.91c-2.48,5.6-5.13,11.28-7.7,16.76c-2.84,6.08-5.78,12.35-8.52,18.65
		c-2.16,4.95-4.8,6.7-10.08,6.7c-23.23-0.06-46.94-0.09-70.57-0.09c-23.24,0-47.06,0.03-70.81,0.09c-5.18,0-7.74-1.67-9.83-6.37
		c-5.05-11.35-10.41-22.75-15.58-33.79l-1.03-2.2c-0.93-1.97-2.85-6.07-7-7.75C148.8,0.61,145.4,0,141.68,0
		c-9.62,0-22.48,4.48-27.97,14.34c-3.14,5.63-4.96,12.79-4.98,19.63c-0.21,59.39-0.19,119.77-0.18,178.16l0.01,43.69l-0.01,44.34
		c-0.02,58.57-0.03,119.12,0.19,178.69c0.02,6.77,1.96,14.1,5.31,20.1c6.53,11.69,18.66,13.05,27.22,13.05h0.12
		c45.76-0.06,91.77-0.07,130.72-0.07h98.69c1.54,0,3.04-0.05,4.49-0.11l0.45-0.02c10.25-0.4,18.57-5.37,22.81-13.65
		c3.01-5.88,4.74-12.98,4.74-19.47C403.5,329.3,403.46,179.39,403.43,34.42z M234.07,303.28c0.13-1.16,0.52-2.5,0.88-3.66
		c11.28-36.44,21.47-69.29,31.82-102.51c1.09-3.46,3.26-7.52,7.51-7.22c0.78,0.05,1.51,0.19,2.18,0.39c4.07,1.24,5.71,5,4.28,9.8
		c-3.27,11.09-6.79,22.34-10.19,33.22c-1.04,3.31-2.08,6.64-3.11,9.96c-2.18,6.99-4.37,13.98-6.56,20.97
		c-4.1,13.09-8.34,26.64-12.43,39.99c-0.65,2.13-2.13,5.76-4.79,6.49c-1.7,0.27-3.27,0.2-4.69-0.23
		C235.61,309.46,233.69,306.63,234.07,303.28z M205.31,289.31c-1.38,1.35-2.9,2.04-4.5,2.04c-2.22,0-4.72-1.28-7.05-3.58
		c-11.26-11.12-20.52-20.39-29.17-29.19c-4.75-4.84-4.75-7.93,0.01-12.75l3.24-3.28c8.7-8.82,17.7-17.93,26.74-26.64
		c1.9-1.84,4.09-2.84,6.19-2.84c3.22,0,5.66,2.22,6.56,5.93c0.43,1.78,0.39,3.86-2.76,6.98c-4.78,4.75-9.56,9.42-14.62,14.36
		c-2.15,2.1-4.34,4.23-6.56,6.4l-5.54,5.42l5.54,5.42c2.23,2.18,4.4,4.31,6.55,6.4c4.79,4.67,9.31,9.09,13.8,13.59
		c2.49,2.49,3.85,5.05,3.83,7.22C207.56,286.37,206.82,287.84,205.31,289.31z M301.45,477.73c-1.46,1.48-3.71,2.3-6.36,2.31
		c-12.95,0.03-25.92,0.04-38.87,0.04c-13.08,0-26.15-0.01-39.23-0.04c-2.67-0.01-4.95-0.82-6.4-2.31c-1.21-1.23-1.85-2.93-1.81-4.89
		c0.07-5,4.27-6.81,8.19-6.84c5.21-0.02,10.42-0.03,15.63-0.03c3.9,0,19.49,0.02,23.4,0.02c3.89,0,19.46-0.02,23.35-0.02
		c5.23,0,10.45,0.01,15.69,0.03c3.92,0.02,8.14,1.82,8.24,6.8C303.29,474.77,302.66,476.47,301.45,477.73z M346.2,258.6l-3.05,3.1
		c-8.88,9.01-18.06,18.33-27.34,27.16c-1.7,1.62-3.63,2.48-5.58,2.48c-3.23,0-5.87-2.34-6.72-5.95c-0.42-1.77-0.38-3.83,2.8-6.94
		c4.86-4.78,9.76-9.53,14.81-14.43l12.04-11.7l-5.57-5.44c-2.29-2.23-4.51-4.4-6.71-6.52c-4.79-4.65-9.31-9.05-13.78-13.52
		c-2.48-2.48-3.83-5.02-3.82-7.14c0.01-1.55,0.79-3.09,2.31-4.57c1.38-1.35,2.9-2.03,4.49-2.03c2.22,0,4.72,1.27,7.05,3.58
		c9.72,9.62,19.41,19.32,28.8,28.8C351.06,250.67,351.12,253.61,346.2,258.6z"/>
	<path class="st8" d="M341.13,1.5l-4.99,10.78c-0.76,1.65-1.5,3.26-2.24,4.87c-2.29,5-4.45,9.72-6.86,14.47
		c-2.03,4.03-6.83,5.87-10.42,5.88c-19.14,0.04-38.27,0.06-57.41,0.06c-22.08,0-43.63-0.03-64.04-0.09
		c-4.1-0.01-8.63-2.82-10.53-6.53c-2.27-4.42-4.31-8.87-6.47-13.57c-0.76-1.66-1.54-3.35-2.34-5.08L170.82,1.5H341.13z"/>
</g>
</svg>
