<?xml version="1.0" encoding="utf-8"?>
<!-- Generator: Adobe Illustrator 24.3.0, SVG Export Plug-In . SVG Version: 6.00 Build 0)  -->
<svg version="1.1" id="Layer_1" xmlns="http://www.w3.org/2000/svg" xmlns:xlink="http://www.w3.org/1999/xlink" x="0px" y="0px"
	 viewBox="0 0 512 512" style="enable-background:new 0 0 512 512;" xml:space="preserve">
<style type="text/css">
	.st0{fill:#030303;}
	.st1{fill:#474444;}
	.st2{fill:#747171;}
	.st3{fill:#969393;}
	.st4{fill:#7B7878;}
	.st5{fill:#6D6A6A;}
	.st6{fill:#24B0C4;}
	.st7{fill:#E57E25;}
	.st8{fill:#FFFFFF;}
	.st9{fill:#101213;}
	.st10{fill:#58C3E1;}
	.st11{fill:#040404;}
	.st12{fill:#88C542;}
	.st13{fill:#4DBBEB;}
	.st14{fill:#DB3326;}
	.st15{fill:#FEC411;}
	.st16{fill:#F7911F;}
	.st17{fill:#3978BD;}
	.st18{fill:#2FAE73;}
	.st19{fill:#3A3D40;}
	.st20{fill:#FFFEFD;}
	.st21{fill:#DF2729;}
	.st22{fill:#B63031;}
	.st23{fill:#E23437;}
	.st24{fill:#020303;}
	.st25{fill:#0C0B0B;}
	.st26{fill:#D5B931;}
	.st27{fill:#FDD83F;}
	.st28{fill:#EBEAE9;}
	.st29{fill:#FFFFFE;}
	.st30{fill:#0B0A0A;}
</style>
<g>
	<path class="st7" d="M164.83,305.11c-39.88,0-78.73-0.39-117.56,0.14C20.63,305.61,2.95,285.66,0.52,266
		c-2.32-18.78,4.86-33.39,18.93-45.18c1.71-1.43,3.6-2.66,5.84-4.29c-9.92-14.47-13.7-30.02-7.04-46.95
		c4.67-11.87,13.02-20.23,25.1-25.47c-8.98-12.01-11.4-25.46-7.63-39.75c3.8-14.4,12.98-24.55,26.63-30.6
		c-15.59-22.12-8.9-46.49,3.32-59.33C74.44,5.21,85.22,0.19,97.94,0.15c40.41-0.12,80.81-0.31,121.22,0.09
		c31.16,0.31,61.4,6.97,91.4,14.89c18.01,4.76,36.12,9.17,54.19,13.7c1.46,0.37,2.98,0.49,4.37,0.7c1.24-3.57,1.93-7.04,3.58-9.96
		c4.06-7.21,10.61-10.9,18.81-10.95c22.54-0.15,45.1-0.45,67.63,0.06c29.95,0.68,52.66,24.28,52.7,54.35
		c0.09,75.44,0.1,150.87,0,226.31c-0.04,31.15-23.09,54.04-54.16,54.14c-21.33,0.06-42.66,0.02-63.99,0.01
		c-14.13-0.01-21.7-6.53-23.92-20.57c-0.1-0.66-0.22-1.32-0.34-2.03c-39.04,17.04-76.79,35.4-102.14,71.79
		c-12.19,17.51-20.25,36.84-27.92,56.48c-3.83,9.8-7.63,19.61-11.6,29.35c-8.18,20.07-27.03,33.43-47.08,33.51
		c-26.86,0.11-50.24-20.65-51.35-47.76c-0.95-23.34-0.91-46.89,1.13-70.14c2.68-30.58,13.87-58.64,31.24-84.09
		C162.63,308.65,163.48,307.23,164.83,305.11z M369.69,52.89c-27.39-7-54.3-13.8-81.16-20.76c-21.84-5.66-43.96-9.91-66.53-10.15
		c-41.28-0.43-82.57-0.18-123.85-0.16c-9.64,0.01-17.7,5.63-21.36,14.58c-7.07,17.31,5.7,36.1,24.79,36.3
		c15.44,0.16,30.88-0.01,46.31,0.15c5.39,0.05,8.84,3.16,9.92,8.17c1.04,4.82-1.09,10.04-5.42,11.78c-2.48,0.99-5.37,1.31-8.07,1.32
		c-20.29,0.1-40.59,0-60.88,0.11c-3.43,0.02-7.01,0.19-10.25,1.17c-11.4,3.45-17.8,14.67-16.09,27.48
		c1.51,11.28,11.15,19.77,23.02,19.89c15.44,0.15,30.88-0.01,46.31,0.08c7.99,0.04,12.33,4.02,12.31,10.91
		c-0.02,6.89-4.37,10.68-12.39,10.69c-21.34,0.02-42.67-0.17-64.01,0.15c-4.32,0.06-9.02,1.2-12.84,3.19
		c-9.58,5-13.87,16.54-11.12,27.72c2.53,10.29,11.85,17.73,22.79,17.83c15.61,0.14,31.22-0.02,46.83,0.08
		c6.01,0.04,9.94,3.74,10.45,9.38c0.56,6.14-2.52,10.52-8.48,11.75c-2.01,0.42-4.13,0.44-6.2,0.44c-19.43,0.03-38.86,0.1-58.28-0.02
		c-7.45-0.04-13.61,2.57-18.21,8.3c-6.56,8.17-7.63,17.39-3.25,26.79c4.27,9.17,11.87,13.49,22.1,13.48
		c44.58-0.07,89.16-0.03,133.74-0.03c1.56,0,3.12-0.03,4.68,0.02c4.63,0.15,8.47,1.75,10.66,6.12c2.21,4.4,1.08,8.38-1.69,12.12
		c-3.29,4.46-6.62,8.89-9.82,13.42c-21.07,29.73-32.69,62.64-33.03,99.25c-0.14,15.26-0.14,30.53,0.01,45.79
		c0.14,14.67,10.65,27.13,24.81,29.79c13.07,2.46,26.14-5.28,31.63-18.89c5.61-13.92,11.22-27.83,16.58-41.84
		c16.12-42.08,42.12-76.34,81.13-99.42c19.26-11.4,39.74-20.76,59.83-30.73c3.83-1.9,5.12-3.94,5.11-8.17
		c-0.14-77.54-0.1-155.08-0.1-232.61C369.69,56.5,369.69,54.63,369.69,52.89z M391.64,30.23c0,97.95,0,195.26,0,292.61
		c23.09,0,45.8,0.29,68.5-0.1c17.07-0.29,29.94-13.72,29.96-30.82c0.09-76.8,0.08-153.6,0.01-230.4
		c-0.02-16.84-12.49-30.66-29.23-31.14C437.88,29.75,414.83,30.23,391.64,30.23z"/>
</g>
</svg>
