<?xml version="1.0" encoding="utf-8"?>
<!-- Generator: Adobe Illustrator 24.3.0, SVG Export Plug-In . SVG Version: 6.00 Build 0)  -->
<svg version="1.1" id="Layer_1" xmlns="http://www.w3.org/2000/svg" xmlns:xlink="http://www.w3.org/1999/xlink" x="0px" y="0px"
	 viewBox="0 0 512 512" style="enable-background:new 0 0 512 512;" xml:space="preserve">
<style type="text/css">
	.st0{fill:#030303;}
	.st1{fill:#474444;}
	.st2{fill:#747171;}
	.st3{fill:#969393;}
	.st4{fill:#7B7878;}
	.st5{fill:#6D6A6A;}
	.st6{fill:#24B0C4;}
	.st7{fill:#E57E25;}
	.st8{fill:#FFFFFF;}
	.st9{fill:#101213;}
	.st10{fill:#58C3E1;}
	.st11{fill:#040404;}
	.st12{fill:#88C542;}
	.st13{fill:#4DBBEB;}
	.st14{fill:#DB3326;}
	.st15{fill:#FEC411;}
	.st16{fill:#F7911F;}
	.st17{fill:#3978BD;}
	.st18{fill:#2FAE73;}
	.st19{fill:#3A3D40;}
	.st20{fill:#FFFEFD;}
	.st21{fill:#DF2729;}
	.st22{fill:#B63031;}
	.st23{fill:#E23437;}
	.st24{fill:#020303;}
	.st25{fill:#0C0B0B;}
	.st26{fill:#D5B931;}
	.st27{fill:#FDD83F;}
	.st28{fill:#EBEAE9;}
	.st29{fill:#FFFFFE;}
	.st30{fill:#0B0A0A;}
</style>
<path class="st8" d="M245.72,507.53l-6.09-0.83l-5.84-0.12c-3.78-0.58-7.61-1.09-11.32-1.58c-8.09-1.08-16.46-2.19-24.41-4.06
	c-58.92-13.89-107.49-45.74-144.36-94.66C25.34,368.66,8.93,325.47,4.91,277.92l-0.05-4.05L4,267.8v-22.45l0.87-8.09l-0.01-2.98
	C10.68,171.04,37,116.77,83.1,72.99c36.43-34.61,80.27-56.46,130.28-64.94c13.98-2.37,28.14-3.57,42.09-3.57
	c23.63,0,47.5,3.45,70.94,10.25c3.4,0.98,6.15,3.14,7.75,6.08c1.54,2.82,1.87,6.11,0.92,9.25c-1.49,4.98-6.14,8.32-11.56,8.32
	c-1.25,0-2.51-0.18-3.76-0.53c-21.77-6.11-43.42-9.21-64.34-9.21c-7.31,0-14.68,0.38-21.9,1.12c-47.44,4.88-89.53,22.76-125.1,53.15
	c-40.49,34.59-65.96,77.76-75.69,128.33c-13.78,71.57,2.96,136.17,49.75,192.02c33.66,40.19,76.68,65.58,127.85,75.49
	c16.22,3.14,32.3,4.73,47.79,4.73c52.86,0,101.54-18.36,144.67-54.58c39.43-33.11,64.83-76.14,75.47-127.89
	c7.18-34.9,5.91-70.67-3.78-106.33c-1.05-3.86-1.37-7.03-0.95-9.42c0.92-5.27,5.33-8.94,10.95-9.14c0.18-0.01,0.36-0.01,0.54-0.01
	c5.83,0,10.26,3.24,11.56,8.44c3.04,12.21,6.17,24.84,8.03,37.47c3.05,20.73,3.19,42.61,0.42,65.01
	c-5.7,46.23-23.02,87.94-51.46,123.96c-37.57,47.58-86.53,78.24-145.51,91.13c-6.89,1.51-14.14,2.41-21.14,3.28
	c-3.2,0.4-6.51,0.81-9.78,1.28l-2.66,0.01l-5.21,0.02l-5.17,0.84H245.72z"/>
<path class="st8" d="M0.87,237.05c-0.29,2.69-0.58,5.39-0.87,8.08c0-2.66,0-5.32,0-7.98C0.3,237.16,0.59,237.13,0.87,237.05z"/>
<path class="st8" d="M0.87,237.05c-0.29,2.69-0.58,5.39-0.87,8.08c0-2.66,0-5.32,0-7.98C0.3,237.16,0.59,237.13,0.87,237.05z"/>
<path class="st8" d="M0,268.08c0.29,2.03,0.57,4.06,0.86,6.09c-0.28-0.05-0.57-0.08-0.86-0.1C0,272.07,0,270.08,0,268.08z"/>
<path class="st8" d="M0,268.08c0.29,2.03,0.57,4.06,0.86,6.09c-0.28-0.05-0.57-0.08-0.86-0.1C0,272.07,0,270.08,0,268.08z"/>
<path class="st8" d="M0,274.07c0.29,0.02,0.57,0.05,0.86,0.1c0.02,1.31,0.03,2.63,0.05,3.94l-0.45-0.12L0,278.06
	C0,276.73,0,275.4,0,274.07z"/>
<path class="st8" d="M0,274.07c0.29,0.02,0.57,0.05,0.86,0.1c0.02,1.31,0.03,2.63,0.05,3.94l-0.45-0.12L0,278.06
	C0,276.73,0,275.4,0,274.07z"/>
<path class="st8" d="M0.87,237.05c-0.29,0.07-0.58,0.11-0.87,0.1c0-1,0-2,0-2.99c0.29,0,0.58-0.02,0.87-0.05
	C0.87,235.09,0.87,236.07,0.87,237.05z"/>
<path class="st8" d="M0.87,237.05c-0.29,0.07-0.58,0.11-0.87,0.1c0-1,0-2,0-2.99c0.29,0,0.58-0.02,0.87-0.05
	C0.87,235.09,0.87,236.07,0.87,237.05z"/>
<path class="st8" d="M254.95,428.34c-38.72,0-76.77-13.42-107.15-37.8c-30.29-24.3-51.64-58.42-60.13-96.06
	c-10.25-45.46-2.24-91.96,22.56-130.93c24.79-38.95,63.49-65.88,108.97-75.84c11.9-2.6,24.04-3.92,36.07-3.92
	c14.51,0,29.29,1.92,43.94,5.7c7.98,2.06,11.99,8.01,10.21,15.17c-1.38,5.53-5.77,8.83-11.75,8.84c-1.44,0-2.95-0.2-4.48-0.58
	c-12.37-3.14-25.02-4.73-37.61-4.73c-62.74,0-117.4,38.1-139.24,97.07c-14.74,39.79-11.32,84.25,9.38,121.96
	c20.73,37.77,56.48,64.56,98.06,73.51c10.38,2.23,20.98,3.37,31.5,3.37c70.99,0,132.19-50.46,145.51-119.97
	c4.14-21.6,3.45-43.62-2.07-65.44c-1.13-4.47-0.76-8.59,1.04-11.6c1.49-2.49,3.98-4.23,7.18-5.02c1.11-0.27,2.21-0.41,3.28-0.41
	c5.93,0,10.42,4.21,11.71,10.99c1.94,10.16,3.53,20.6,5.06,30.7c0.47,3.11,0.94,6.21,1.43,9.32l-0.68,0.11l-0.03,3.38
	c-0.31,40.35-14.5,79.46-39.95,110.13c-25.51,30.74-61.31,51.72-100.8,59.08C276.37,427.34,265.6,428.34,254.95,428.34z"/>
<path class="st8" d="M255.54,268.17c-1.08,0-2.22-0.16-3.39-0.49c-4.03-1.12-7.03-4.03-8.24-7.98c-1.21-3.98-0.29-8.27,2.47-11.49
	c0.76-0.88,1.62-1.73,2.53-2.63l0.73-0.72c7.13-7.13,14.25-14.28,21.37-21.42c19.64-19.71,39.94-40.09,60.18-59.84
	c6.99-6.82,10.42-14.09,11.12-23.56c1.11-14.96,2.63-30.17,4.1-44.88c0.67-6.66,1.33-13.31,1.96-19.97
	c0.44-4.61,2.18-8.28,5.48-11.54c16.36-16.18,33.52-33.32,53.98-53.96c3.45-3.48,6.6-5.1,9.91-5.1c1.36,0,2.74,0.27,4.24,0.82
	c5.3,1.95,7.75,5.75,8.19,12.71c0.63,9.84,1.43,19.82,2.2,29.46c0.57,7.12,1.16,14.48,1.68,21.72c0.36,5.08,3.11,7.84,8.17,8.2
	c11.64,0.81,23.47,1.73,34.91,2.62c6.07,0.47,12.14,0.94,18.21,1.4c6.39,0.48,11.2,5.11,12.52,11.92c-0.43,0.88-0.83,1.76-1.23,2.62
	c-1.09,2.4-2.12,4.66-3.54,6.12c-22.44,22.96-39.93,40.42-56.73,56.61c-2.16,2.09-6.31,3.74-10.57,4.22
	c-14.13,1.59-28.54,2.99-42.48,4.34c-10.26,0.99-20.86,2.02-31.29,3.12c-3.7,0.39-6.94,3.12-8.54,4.71
	c-31.39,31.23-60.23,60.06-88.17,88.13C262.06,266.58,258.87,268.17,255.54,268.17z M403.13,49.86c-0.21,0.09-0.39,0.15-0.54,0.21
	c-0.6,0.21-1.5,0.54-2.32,1.35l-3.62,3.6c-7.16,7.12-14.57,14.48-21.75,21.83c-2.01,2.06-2.62,5.08-2.81,6.7
	c-1.22,10.7-2.47,22.37-3.82,35.67c-0.5,4.97-0.94,10.04-1.37,14.94c-0.2,2.25-0.39,4.5-0.6,6.77l-0.43,4.81l4.8-0.47
	c4.98-0.49,9.93-0.97,14.85-1.46c13.07-1.29,25.41-2.51,38.03-3.63c6.47-0.57,11.37-2.98,15.43-7.58c3.65-4.14,7.74-8.12,11.7-11.97
	c1.77-1.73,3.55-3.45,5.29-5.2c1.13-1.13,2.24-2.26,3.56-3.59l8.19-8.28l-8.59-0.67c-3.53-0.28-6.94-0.57-10.27-0.85
	c-7.29-0.62-14.17-1.21-21.11-1.56c-12.18-0.61-16.08-4.54-16.7-16.8c-0.35-6.99-0.96-14.09-1.56-20.96
	c-0.27-3.14-0.54-6.3-0.79-9.49l-0.44-5.57L403.13,49.86z"/>
<path class="st8" d="M254.95,348.25c-22.08-0.23-43.37-8.38-59.97-22.95c-16.67-14.63-27.49-34.77-30.49-56.72
	c-3.34-24.47,3.01-48.68,17.86-68.17c14.78-19.4,36.31-31.88,60.62-35.14c4.22-0.57,8.79-0.84,13.97-0.84c1.97,0,4,0.04,6.21,0.12
	c4.25,0.15,7.91,1.73,10.32,4.44c2.1,2.37,3.07,5.36,2.8,8.66c-0.52,6.36-6.31,11.15-13.48,11.15c-0.64,0-1.3-0.04-1.94-0.12
	c-2.28-0.28-4.6-0.42-6.91-0.42c-31.69,0-61.14,26.1-65.64,58.18c-4.91,34.97,18.4,68.35,53.06,75.99
	c4.49,0.99,9.11,1.49,13.74,1.49c33.87,0,63.42-25.67,67.26-58.45c0.34-2.92,0.72-6.32,0.87-9.7c0.3-6.74,5.36-11.63,12.04-11.63
	c6.69,0.03,11.78,5.12,11.91,11.84c0.87,44.8-34.44,85.6-78.71,90.95c-3.07,0.37-6.24,0.65-9.3,0.92
	C257.77,347.99,256.36,348.11,254.95,348.25z"/>
</svg>
