<?xml version="1.0" encoding="utf-8"?>
<!-- Generator: Adobe Illustrator 24.3.0, SVG Export Plug-In . SVG Version: 6.00 Build 0)  -->
<svg version="1.1" id="Layer_1" xmlns="http://www.w3.org/2000/svg" xmlns:xlink="http://www.w3.org/1999/xlink" x="0px" y="0px"
	 viewBox="0 0 512 512" style="enable-background:new 0 0 512 512;" xml:space="preserve">
<style type="text/css">
	.st0{fill:#030303;}
	.st1{fill:#474444;}
	.st2{fill:#747171;}
	.st3{fill:#969393;}
	.st4{fill:#7B7878;}
	.st5{fill:#6D6A6A;}
	.st6{fill:#24B0C4;}
	.st7{fill:#E57E25;}
	.st8{fill:#FFFFFF;}
	.st9{fill:#101213;}
	.st10{fill:#58C3E1;}
	.st11{fill:#040404;}
	.st12{fill:#88C542;}
	.st13{fill:#4DBBEB;}
	.st14{fill:#DB3326;}
	.st15{fill:#FEC411;}
	.st16{fill:#F7911F;}
	.st17{fill:#3978BD;}
	.st18{fill:#2FAE73;}
	.st19{fill:#3A3D40;}
	.st20{fill:#FFFEFD;}
	.st21{fill:#DF2729;}
	.st22{fill:#B63031;}
	.st23{fill:#E23437;}
	.st24{fill:#020303;}
	.st25{fill:#0C0B0B;}
	.st26{fill:#D5B931;}
	.st27{fill:#FDD83F;}
	.st28{fill:#EBEAE9;}
	.st29{fill:#FFFFFE;}
	.st30{fill:#0B0A0A;}
</style>
<g>
	<path class="st8" d="M126.59,197.83c12.76-7.23,25.13-13.56,36.78-21.03c12.01-7.7,18.53-3.98,18.06,10.4
		c-0.8,24.12-0.22,48.29-0.22,73.01c1.73-0.83,3.19-1.43,4.55-2.2c48.42-27.43,96.83-54.87,145.24-82.32
		c0.65-0.37,1.29-0.77,1.95-1.13c7.77-4.2,13.5-0.92,13.52,7.84c0.05,23.96,0.02,47.92,0.02,71.88c0,1.84,0,3.69,0,6.28
		c6.19-3.5,11.86-6.69,17.52-9.89c44.33-25.12,88.77-50.04,132.9-75.52c8.67-5.01,15.12-0.71,15.08,8.6
		c-0.37,84.71-0.21,169.42-0.22,254.13c0,8.32-2.27,10.57-10.76,10.57c-163.39,0.01-326.77,0.01-490.16,0
		c-8.51,0-10.77-2.23-10.77-10.55C0.09,384.34,0.16,330.76,0,277.18c-0.02-5.39,1.55-9.11,6.52-11.26c0.69-0.3,1.28-0.84,1.97-1.08
		c10.83-3.73,14.84-11.03,15.44-22.69c1.41-27.27,4.42-54.46,6.82-81.67c2.62-29.66,5.25-59.31,7.99-88.96
		c0.46-5.01,3.55-7.9,8.63-7.92c19.05-0.09,38.11-0.1,57.17,0c5.28,0.03,8.24,2.84,8.8,8.29c3.75,36.73,7.56,73.45,11.37,110.17
		C125.23,187.06,125.9,192.05,126.59,197.83z M495.69,432.37c0-79.46,0-158.38,0-237.94c-15.31,8.65-30.14,17.03-44.96,25.42
		c-35.14,19.91-70.27,39.84-105.42,59.74c-9.04,5.12-14.61,1.93-14.64-8.28c-0.02-6.6,0-13.2,0-19.8c0-18.8,0-37.6,0-57.09
		c-2.19,1.15-3.82,1.95-5.39,2.84c-48.56,27.49-97.11,55.01-145.68,82.48c-8.68,4.91-14.21,1.66-14.22-8.28
		c-0.02-23.95,0-47.91-0.02-71.86c0-1.56-0.16-3.12-0.28-5.23c-50.11,28.39-99.59,56.43-148.93,84.39c0,51.28,0,102.34,0,153.62
		C176.06,432.37,335.73,432.37,495.69,432.37z M39.07,247.29c2.39-1.28,3.86-2.02,5.29-2.82c20.76-11.75,41.46-23.61,62.32-35.17
		c3.73-2.07,4.73-4.31,4.28-8.41c-3.51-32.36-6.79-64.75-10.17-97.13c-0.83-7.97-1.8-15.93-2.72-24.03c-14.75,0-29.03,0-44.03,0
		C49.08,135.22,44.13,190.65,39.07,247.29z"/>
	<path class="st8" d="M164.79,330.62c10.18,0,20.37-0.02,30.55,0.01c7.48,0.02,10.2,2.61,10.26,10.18c0.1,13.2,0.12,26.4-0.01,39.6
		c-0.07,7.06-3.06,9.96-10.05,9.98c-20.55,0.06-41.11,0.06-61.66,0c-6.72-0.02-9.92-2.94-9.99-9.49
		c-0.16-13.58-0.15-27.15-0.01-40.73c0.07-6.79,3.01-9.51,9.8-9.54C144.05,330.58,154.42,330.62,164.79,330.62z M189.29,346.79
		c-16.57,0-32.85,0-48.91,0c0,9.33,0,18.3,0,27.36c16.5,0,32.61,0,48.91,0C189.29,364.97,189.29,356.13,189.29,346.79z"/>
	<path class="st8" d="M285.12,390.41c-10,0-19.99,0.03-29.99-0.01c-7.96-0.03-10.64-2.59-10.67-10.31c-0.05-13.2-0.06-26.41,0-39.61
		c0.03-7.25,2.65-9.84,9.84-9.85c20.56-0.03,41.12-0.03,61.67,0c7.06,0.01,9.98,2.86,10.02,9.88c0.07,13.39,0.08,26.78-0.01,40.17
		c-0.04,6.57-3.13,9.64-9.74,9.71C305.87,390.48,295.5,390.41,285.12,390.41z M309.82,346.66c-16.67,0-32.84,0-49.07,0
		c0,9.33,0,18.42,0,27.53c16.53,0,32.66,0,49.07,0C309.82,364.95,309.82,356,309.82,346.66z"/>
	<path class="st8" d="M405.46,390.41c-10.18,0-20.37,0.05-30.55-0.02c-7.4-0.05-10.22-2.9-10.24-10.27
		c-0.04-13.2-0.04-26.41,0-39.61c0.02-7.09,2.82-9.87,9.94-9.88c20.56-0.03,41.12-0.03,61.68,0c7.17,0.01,9.82,2.68,9.84,9.85
		c0.03,13.39,0.03,26.78,0,40.17c-0.02,6.77-2.8,9.66-9.53,9.73C426.21,390.48,415.84,390.41,405.46,390.41z M430.07,346.76
		c-16.77,0-33.06,0-49.34,0c0,9.3,0,18.26,0,27.45c16.54,0,32.83,0,49.34,0C430.07,364.97,430.07,356,430.07,346.76z"/>
</g>
</svg>
