<?xml version="1.0" encoding="utf-8"?>
<!-- Generator: Adobe Illustrator 24.3.0, SVG Export Plug-In . SVG Version: 6.00 Build 0)  -->
<svg version="1.1" id="Layer_1" xmlns="http://www.w3.org/2000/svg" xmlns:xlink="http://www.w3.org/1999/xlink" x="0px" y="0px"
	 viewBox="0 0 512 512" style="enable-background:new 0 0 512 512;" xml:space="preserve">
<style type="text/css">
	.st0{fill:#030303;}
	.st1{fill:#474444;}
	.st2{fill:#747171;}
	.st3{fill:#969393;}
	.st4{fill:#7B7878;}
	.st5{fill:#6D6A6A;}
	.st6{fill:#24B0C4;}
	.st7{fill:#E57E25;}
	.st8{fill:#FFFFFF;}
	.st9{fill:#101213;}
	.st10{fill:#58C3E1;}
	.st11{fill:#040404;}
	.st12{fill:#88C542;}
	.st13{fill:#4DBBEB;}
	.st14{fill:#DB3326;}
	.st15{fill:#FEC411;}
	.st16{fill:#F7911F;}
	.st17{fill:#3978BD;}
	.st18{fill:#2FAE73;}
	.st19{fill:#3A3D40;}
	.st20{fill:#FFFEFD;}
	.st21{fill:#DF2729;}
	.st22{fill:#B63031;}
	.st23{fill:#E23437;}
	.st24{fill:#020303;}
	.st25{fill:#0C0B0B;}
	.st26{fill:#D5B931;}
	.st27{fill:#FDD83F;}
	.st28{fill:#EBEAE9;}
	.st29{fill:#FFFFFE;}
	.st30{fill:#0B0A0A;}
</style>
<path class="st8" d="M459.99,416.39c-16.15-0.3-29.25-13.46-29.3-29.42c-0.04-11.44,6.84-22,17.51-26.91l4.69-6.53v-12.03
	c0.09-33.86,0.07-69.57,0.06-104.22l0-10.51c0-1.29-0.25-2.28-0.42-2.94c-0.03-0.14-0.08-0.29-0.12-0.49l-1.89-8.99l-8.65,3.11
	c-2.62,0.94-5.23,1.87-7.83,2.8c-8.72,3.11-17.74,6.33-26.53,9.76c-5.74,2.24-7.28,9.24-7.29,12.62c-0.14,32.12-0.24,61.07,0.01,90
	c0.05,5.92-1.63,9.92-5.8,13.79c-13.97,12.98-31.5,22.36-55.19,29.52c-25.04,7.57-52.25,11.09-85.64,11.09
	c-3.75,0-7.66-0.05-11.64-0.13c-35.29-0.79-63.74-5.82-89.53-15.82c-16.05-6.23-29.02-14.05-39.64-23.93
	c-4.6-4.27-6.44-8.49-6.35-14.55c0.25-18.14,0.23-36.56,0.22-54.37c-0.01-12-0.02-24.41,0.05-36.6c0.04-6.87-3.07-11.36-9.51-13.71
	c-21.73-7.95-43.8-16.14-65.15-24.05l-17.28-6.41c-6.24-2.31-6.77-4.89-6.78-7.56c-0.01-2.76,0.48-5.43,6.56-7.62
	c24.43-8.85,48.85-17.69,73.28-26.52c53.83-19.48,109.49-39.62,164.21-59.5c1.22-0.44,2.4-0.66,3.62-0.66c1.7,0,3.65,0.42,6.13,1.32
	c49.5,17.95,99.01,35.89,148.52,53.82c11.4,4.13,22.8,8.25,34.2,12.38c17.39,6.29,34.77,12.58,52.16,18.89
	c3.4,1.23,5.81,3.09,6.8,5.24c0.71,1.54,0.69,3.23-0.04,5.19c-0.57,1.52-1.68,3.43-5.22,4.72l-4.03,1.47
	c-5.61,2.05-11.41,4.16-17.12,6c-6.43,2.07-9.69,6.55-9.67,13.32c0.06,20.4,0.08,42.27,0.09,63.43c0.01,21.36,0.03,43.38,0.09,64.23
	l-0.03,7.33l4.82,6.96c10.67,4.72,17.69,15.09,17.9,26.44c0.14,7.8-2.88,15.25-8.51,20.98c-5.66,5.77-13.43,9.08-21.3,9.08
	C460.46,416.39,459.99,416.39,459.99,416.39z M121.27,265.11c-0.01,21.65-0.02,42.09,0.15,62.96c0.04,4.95,3,9.7,5.92,12.21
	c10.63,9.15,23.72,15.71,41.19,20.66c27.5,7.79,55.82,11.74,84.18,11.74c23.48,0,47.55-2.71,71.57-8.05
	c20.96-4.66,38.24-12.1,52.81-22.73c3.62-2.64,8.41-7.19,8.21-16.2c-0.26-11.8-0.22-23.87-0.17-35.53
	c0.02-4.51,0.03-9.02,0.03-13.53v-38.08l-10.41,3.29c-0.61,0.19-1.17,0.36-1.69,0.52c-1.13,0.34-2.2,0.67-3.31,1.07
	c-8.58,3.09-17.17,6.18-25.75,9.27c-27.66,9.96-56.26,20.25-84.35,30.53c-2.49,0.91-4.75,1.35-6.91,1.35c-2.21,0-4.5-0.46-7-1.41
	c-22.54-8.57-45.52-17.03-67.75-25.21c-8.06-2.96-16.11-5.93-24.17-8.9l-32.54-12.01L121.27,265.11z M255.92,111.97
	c-2.75,0-5.5,0.51-8.41,1.57c-46.05,16.77-92.92,33.71-138.25,50.08c-14.32,5.17-28.64,10.35-42.96,15.52
	c-1.93,0.7-3.79,1.44-5.77,2.23c-0.93,0.37-1.9,0.76-2.92,1.16l-16.85,6.61l16.23,8.01c0.42,0.21,0.76,0.38,1.04,0.53
	c0.67,0.35,1.37,0.71,2.22,1.02l11.9,4.41c57.35,21.25,116.65,43.23,175.02,64.73c1.6,0.59,3.38,0.89,5.27,0.89
	c2.11,0,4.29-0.37,6.3-1.06c8.16-2.8,16.37-5.78,24.31-8.66c2.71-0.98,5.43-1.97,8.14-2.95l181.24-65.31l-18.22-8.08
	c-0.75-0.33-1.39-0.63-1.97-0.89c-1.23-0.57-2.29-1.06-3.51-1.5c-14.79-5.35-29.57-10.69-44.36-16.03
	c-45.85-16.57-93.27-33.7-139.86-50.66C261.53,112.51,258.71,111.97,255.92,111.97z"/>
</svg>
