<?xml version="1.0" encoding="utf-8"?>
<!-- Generator: Adobe Illustrator 24.3.0, SVG Export Plug-In . SVG Version: 6.00 Build 0)  -->
<svg version="1.1" id="Layer_1" xmlns="http://www.w3.org/2000/svg" xmlns:xlink="http://www.w3.org/1999/xlink" x="0px" y="0px"
	 viewBox="0 0 512 512" style="enable-background:new 0 0 512 512;" xml:space="preserve">
<style type="text/css">
	.st0{fill:#030303;}
	.st1{fill:#474444;}
	.st2{fill:#747171;}
	.st3{fill:#969393;}
	.st4{fill:#7B7878;}
	.st5{fill:#6D6A6A;}
	.st6{fill:#24B0C4;}
	.st7{fill:#E57E25;}
	.st8{fill:#FFFFFF;}
	.st9{fill:#101213;}
	.st10{fill:#58C3E1;}
	.st11{fill:#040404;}
	.st12{fill:#88C542;}
	.st13{fill:#4DBBEB;}
	.st14{fill:#DB3326;}
	.st15{fill:#FEC411;}
	.st16{fill:#F7911F;}
	.st17{fill:#3978BD;}
	.st18{fill:#2FAE73;}
	.st19{fill:#3A3D40;}
	.st20{fill:#FFFEFD;}
	.st21{fill:#DF2729;}
	.st22{fill:#B63031;}
	.st23{fill:#E23437;}
	.st24{fill:#020303;}
	.st25{fill:#0C0B0B;}
	.st26{fill:#D5B931;}
	.st27{fill:#FDD83F;}
	.st28{fill:#EBEAE9;}
	.st29{fill:#FFFFFE;}
	.st30{fill:#0B0A0A;}
</style>
<g>
	<g>
		<path class="st8" d="M351.56,513.64l-12.2-3.5c-6.57-1.89-13.2-3.71-19.61-5.48c-14.86-4.09-30.23-8.32-45.05-13.38
			c-12.43-4.24-23.79-4.19-36.84,0.17c-14.26,4.77-28.89,8.8-43.04,12.69c-5.8,1.6-11.79,3.25-17.65,4.92
			c-1.24,0.35-2.36,0.54-3.45,0.71c-0.44,0.07-0.93,0.15-1.5,0.25l-11.28,2.06v-11.47c0-2.78-0.01-5.54-0.01-8.29
			c-0.02-8.85-0.04-18.01,0.17-27c0.15-6.2,5.27-10.08,7.19-11.54c5.34-4.05,10.7-8.07,16.06-12.1
			c8.32-6.24,16.91-12.69,25.27-19.13c0.15-36.74,0.13-74.08,0.12-110.2l0-6.36L13.98,367.12v-13.01c0-3.47,0.1-6.83,0.2-10.09
			c0.2-6.74,0.39-13.11-0.36-19.04c-2.72-21.38,8.79-31.45,20.4-38.49c39.97-24.23,80.28-49.48,119.26-73.91
			c18.22-11.42,37.07-23.23,55.64-34.78c0.34-0.21,0.57-0.38,0.71-0.49c0.02-0.18,0.04-0.45,0.04-0.85
			c-0.2-43.99-0.15-88.55-0.09-126.86c0.02-14.58,5.55-27.51,15.55-36.42C235.27,4.32,248.64,0.35,262.97,2
			c19.86,2.29,37.06,19.64,39.16,39.5c0.38,3.59,0.57,7.4,0.58,11.3l0.01,8.8c0.03,37.75,0.07,76.78-0.08,115.19
			c0,0.14,0,0.27,0,0.37c0.05,0.03,0.1,0.07,0.16,0.1c30.73,19.14,61.95,38.64,92.13,57.5c30.85,19.28,62.75,39.21,94.15,58.76
			c6.66,4.15,9.68,9.64,9.5,17.3c-0.23,10.03-0.19,20.01-0.15,30.57c0.02,4.14,0.03,8.33,0.03,12.59v13.01l-195.74-61.12l0,19.93
			c0.01,31.56,0.02,64.2-0.1,96.31c0,0.16,0,0.28,0.01,0.38c0.1,0.08,0.23,0.19,0.4,0.32c7.1,5.19,14.22,10.55,21.1,15.72
			c6.48,4.87,13.17,9.91,19.8,14.76c5.31,3.9,7.83,8.95,7.69,15.46c-0.16,7.39-0.13,14.79-0.1,22.63c0.01,3.13,0.02,6.31,0.02,9.55
			V513.64z M180.16,468.79c-0.12,6.47-0.12,12.91-0.11,19.58c3.26-0.91,6.51-1.8,9.69-2.68c13.9-3.83,28.28-7.79,42.05-12.39
			c17.05-5.71,32.65-5.75,49.09-0.14c14.27,4.87,28.69,8.84,43.95,13.04c2.49,0.69,5.02,1.38,7.57,2.09
			c-0.02-6.71-0.02-13.15,0.11-19.67c-6.67-4.9-13.37-9.93-19.85-14.81c-6.84-5.14-13.91-10.46-20.9-15.57
			c-5.65-4.14-8.27-9.29-8.25-16.21c0.12-32.07,0.11-64.69,0.1-96.24l-0.01-45.95l195.7,61.11c-0.04-10.51-0.07-20.47,0.16-30.59
			c0-0.11,0-0.21,0-0.3c-0.13-0.09-0.29-0.2-0.49-0.32c-31.42-19.56-63.32-39.49-94.18-58.77c-30.18-18.86-61.39-38.36-92.11-57.48
			c-6.3-3.92-9.21-9.26-9.18-16.79c0.15-38.36,0.12-77.37,0.08-115.09l-0.01-8.8c0-3.24-0.16-6.37-0.47-9.31
			c-1.16-10.93-11.38-21.24-22.33-22.5c-8.84-1.02-16.91,1.27-22.74,6.45c-5.88,5.23-9.12,13.1-9.14,22.16
			c-0.06,38.28-0.1,82.81,0.09,126.75c0.04,7.89-3.07,13.5-9.77,17.67c-18.55,11.54-37.38,23.34-55.59,34.75
			c-39.04,24.46-79.4,49.76-119.5,74.06c-9.97,6.04-12.52,10.47-11.34,19.72c0.79,6.19,0.76,12.39,0.61,18.44l193.71-60.49
			l1.38,11.41c0.06,0.5,0.11,0.88,0.16,1.18c0.11,0.78,0.22,1.59,0.22,2.6l0.01,16.62c0.01,36.5,0.03,74.24-0.12,111.37
			c-0.02,4.95-2.74,10.37-6.78,13.48c-8.67,6.68-17.54,13.35-26.13,19.79C190.61,460.91,185.37,464.84,180.16,468.79z M332.5,467.97
			L332.5,467.97L332.5,467.97z M302.68,422.8L302.68,422.8L302.68,422.8z M302.42,422.29L302.42,422.29
			C302.42,422.29,302.42,422.29,302.42,422.29z M302.19,176.83C302.19,176.83,302.19,176.83,302.19,176.83
			C302.19,176.83,302.19,176.83,302.19,176.83z"/>
	</g>
</g>
</svg>
