<?xml version="1.0" encoding="utf-8"?>
<!-- Generator: Adobe Illustrator 24.3.0, SVG Export Plug-In . SVG Version: 6.00 Build 0)  -->
<svg version="1.1" id="Layer_1" xmlns="http://www.w3.org/2000/svg" xmlns:xlink="http://www.w3.org/1999/xlink" x="0px" y="0px"
	 viewBox="0 0 512 512" style="enable-background:new 0 0 512 512;" xml:space="preserve">
<style type="text/css">
	.st0{fill:#030303;}
	.st1{fill:#474444;}
	.st2{fill:#747171;}
	.st3{fill:#969393;}
	.st4{fill:#7B7878;}
	.st5{fill:#6D6A6A;}
	.st6{fill:#24B0C4;}
	.st7{fill:#E57E25;}
	.st8{fill:#FFFFFF;}
	.st9{fill:#101213;}
	.st10{fill:#58C3E1;}
	.st11{fill:#040404;}
	.st12{fill:#88C542;}
	.st13{fill:#4DBBEB;}
	.st14{fill:#DB3326;}
	.st15{fill:#FEC411;}
	.st16{fill:#F7911F;}
	.st17{fill:#3978BD;}
	.st18{fill:#2FAE73;}
	.st19{fill:#3A3D40;}
	.st20{fill:#FFFEFD;}
	.st21{fill:#DF2729;}
	.st22{fill:#B63031;}
	.st23{fill:#E23437;}
	.st24{fill:#020303;}
	.st25{fill:#0C0B0B;}
	.st26{fill:#D5B931;}
	.st27{fill:#FDD83F;}
	.st28{fill:#EBEAE9;}
	.st29{fill:#FFFFFE;}
	.st30{fill:#0B0A0A;}
</style>
<path class="st11" d="M510.84,232.62c3.68,38.38-1.36,77.32-15.1,114.17c-9.5,25.49-23.09,49.36-40.26,70.46
	c-4.38,5.38-58.13,58.36-60.48,54.8c-44.46-67.32-88.54-134.1-132.67-200.86c-22.49-34.02-45.27-67.85-67.46-102.07
	c-7.44-11.47-18.06-7.9-27.55-6.76c-9.23,1.11-7.55,9.8-7.56,16.46c-0.08,59.89-0.13,119.79-0.17,179.68
	c-0.01,14.81,2.21,17.22,15.55,17.24c14.52,0.02,16.04-1.51,16.07-16.54c0.07-33.36,0.1-66.72,0.13-100.08
	c0.01-12.27,0-24.55,0-38.97c62.49,89.01,123.4,175.78,185.01,263.54c-13.81,5.44-28.51,12.34-43.89,17
	C191.37,543.46,40.15,458.14,6.63,314.06c-6.72-28.87-8.32-58.85-4.86-88.28C15.3,110.64,110.19,8.94,239.64,0.78
	c112.85-7.11,213.74,57.69,254.8,163.06C503.13,186.15,508.6,209.28,510.84,232.62z M347.59,340.28c0.7-0.3,1.39-0.6,2.09-0.9
	c0-57.14,0.1-114.28-0.08-171.41c-0.04-11.66-3.32-13.55-16.93-13.82c-10.5-0.21-15,3.76-14.93,14.69
	c0.25,39.41-0.16,78.82-0.18,118.24c0,3.31,0.08,7.22,1.73,9.84C328.45,311.55,338.11,325.86,347.59,340.28z"/>
</svg>
