<?xml version="1.0" encoding="utf-8"?>
<!-- Generator: Adobe Illustrator 24.3.0, SVG Export Plug-In . SVG Version: 6.00 Build 0)  -->
<svg version="1.1" id="Layer_1" xmlns="http://www.w3.org/2000/svg" xmlns:xlink="http://www.w3.org/1999/xlink" x="0px" y="0px"
	 viewBox="0 0 512 512" style="enable-background:new 0 0 512 512;" xml:space="preserve">
<style type="text/css">
	.st0{fill:#030303;}
	.st1{fill:#474444;}
	.st2{fill:#747171;}
	.st3{fill:#969393;}
	.st4{fill:#7B7878;}
	.st5{fill:#6D6A6A;}
	.st6{fill:#24B0C4;}
	.st7{fill:#E57E25;}
	.st8{fill:#FFFFFF;}
	.st9{fill:#101213;}
	.st10{fill:#58C3E1;}
	.st11{fill:#040404;}
	.st12{fill:#88C542;}
	.st13{fill:#4DBBEB;}
	.st14{fill:#DB3326;}
	.st15{fill:#FEC411;}
	.st16{fill:#F7911F;}
	.st17{fill:#3978BD;}
	.st18{fill:#2FAE73;}
	.st19{fill:#3A3D40;}
	.st20{fill:#FFFEFD;}
	.st21{fill:#DF2729;}
	.st22{fill:#B63031;}
	.st23{fill:#E23437;}
	.st24{fill:#020303;}
	.st25{fill:#0C0B0B;}
	.st26{fill:#D5B931;}
	.st27{fill:#FDD83F;}
	.st28{fill:#EBEAE9;}
	.st29{fill:#FFFFFE;}
	.st30{fill:#0B0A0A;}
	.st31{fill:#636060;}
	.st32{fill:#7D7A7A;}
</style>
<g>
	<path class="st8" d="M198.68,431.41c-5.33-1.7-10.67-6.37-9.66-14.36c0.37-2.97,1.54-6.8,2.52-9.81
		c35.99-110.85,68.43-210.76,101.11-310.84c2.22-6.81,5.33-12.05,8.74-14.75c2.09-1.65,4.1-2.22,6.95-1.98
		c1.83,0.16,3.53,0.49,5.06,0.98c11.89,3.8,9.52,15.96,7.96,21.02c-10.44,33.62-21.62,67.76-32.44,100.77
		c-3.28,10.02-6.57,20.04-9.83,30.06c-6.91,21.19-13.86,42.37-20.81,63.54c-13.04,39.74-26.52,80.82-39.53,121.37
		c-2.54,7.92-6.23,13.59-9.51,14.69C205.36,432.64,201.81,432.41,198.68,431.41z"/>
	<path class="st8" d="M113.93,373.57c-4.77,0-10.75-3.21-16.41-8.8c-34.23-33.82-62.43-62.05-88.76-88.84
		c-5.57-5.67-8.77-10.91-8.76-14.38c0.01-3.46,3.2-8.68,8.78-14.32l9.92-10.05c26.46-26.8,53.81-54.52,81.25-80.96
		c4.44-4.28,9.36-6.63,13.87-6.63c6.32,0,11.05,4.57,12.98,12.55c0.62,2.58,1.57,6.49-6.48,14.48
		c-14.58,14.47-29.16,28.7-44.6,43.77c-6.52,6.36-13.14,12.82-19.89,19.42L33.7,261.45l22.11,21.68
		c6.85,6.72,13.56,13.25,20.15,19.68c14.51,14.15,28.22,27.52,41.8,41.13c6.02,6.04,9.59,12.33,9.56,16.82
		c-0.01,1.02-0.03,4.11-4.71,8.66C118.36,373.57,115.03,373.57,113.93,373.57z"/>
	<path class="st8" d="M398.63,373.56c-6.55,0-11.58-4.7-13.46-12.57c-0.64-2.7-1.52-6.4,6.55-14.32
		c14.69-14.42,29.31-28.6,44.79-43.63c6.55-6.36,13.2-12.81,19.96-19.39l22.31-21.7l-22.26-21.75c-6.96-6.8-13.75-13.39-20.4-19.85
		c-14.59-14.17-28.37-27.55-41.94-41.15c-5.99-6-9.54-12.21-9.5-16.61c0.02-2.72,1.65-5.68,4.85-8.79c4.26-4.14,7.58-4.14,8.68-4.14
		c4.75,0,10.72,3.21,16.38,8.82c29.48,29.2,58.97,58.69,87.65,87.65c6.07,6.13,9.72,11.9,9.77,15.44c0.04,3.3-3.3,8.69-8.95,14.42
		l-9.2,9.34c-27.04,27.45-54.99,55.84-83.18,82.67C406.86,371.64,402.7,373.56,398.63,373.56z"/>
</g>
</svg>
