<?xml version="1.0" encoding="utf-8"?>
<!-- Generator: Adobe Illustrator 24.3.0, SVG Export Plug-In . SVG Version: 6.00 Build 0)  -->
<svg version="1.1" id="Layer_1" xmlns="http://www.w3.org/2000/svg" xmlns:xlink="http://www.w3.org/1999/xlink" x="0px" y="0px"
	 viewBox="0 0 512 512" style="enable-background:new 0 0 512 512;" xml:space="preserve">
<style type="text/css">
	.st0{fill:#030303;}
	.st1{fill:#474444;}
	.st2{fill:#747171;}
	.st3{fill:#969393;}
	.st4{fill:#7B7878;}
	.st5{fill:#6D6A6A;}
	.st6{fill:#24B0C4;}
	.st7{fill:#E57E25;}
	.st8{fill:#FFFFFF;}
	.st9{fill:#101213;}
	.st10{fill:#58C3E1;}
	.st11{fill:#040404;}
	.st12{fill:#88C542;}
	.st13{fill:#4DBBEB;}
	.st14{fill:#DB3326;}
	.st15{fill:#FEC411;}
	.st16{fill:#F7911F;}
	.st17{fill:#3978BD;}
	.st18{fill:#2FAE73;}
	.st19{fill:#3A3D40;}
	.st20{fill:#FFFEFD;}
	.st21{fill:#DF2729;}
	.st22{fill:#B63031;}
	.st23{fill:#E23437;}
	.st24{fill:#020303;}
	.st25{fill:#0C0B0B;}
	.st26{fill:#D5B931;}
	.st27{fill:#FDD83F;}
	.st28{fill:#EBEAE9;}
	.st29{fill:#FFFFFE;}
	.st30{fill:#0B0A0A;}
</style>
<g>
	<path class="st6" d="M437.92,362.35c-61.12-61.11-121.56-121.54-182.34-182.3c-1.29,1.22-2.84,2.6-4.3,4.06
		c-28.45,28.43-56.87,56.89-85.33,85.31c-10.84,10.83-22.4,10.98-33.12,0.28c-41.81-41.73-83.58-83.49-125.3-125.3
		c-12.76-12.79-8.76-31.41,7.79-36.68c8.71-2.77,15.89,0.2,22.12,6.45c20.03,20.09,40.11,40.13,60.17,60.18
		c17.15,17.15,34.3,34.31,51.62,51.62c15.57-15.57,30.95-30.95,46.33-46.33c14.29-14.29,28.57-28.59,42.87-42.86
		c11.91-11.88,22.91-11.93,34.74-0.11c44.66,44.64,89.3,89.3,133.96,133.96c18.96,18.96,37.92,37.92,56.89,56.87
		c1.35,1.35,2.75,2.64,4.77,4.57c0.11-2.38,0.26-4.01,0.26-5.64c0.02-23.12-0.07-46.24,0.04-69.36c0.08-15.81,9.96-24.15,25.71-22
		c8.14,1.11,14.75,7.17,16.33,15.19c0.52,2.65,0.81,5.39,0.81,8.1c0.05,41.19,0.08,82.38,0.01,123.57
		c-0.02,12.51-5,19.86-15.13,22.61c-2.39,0.65-4.97,0.75-7.47,0.75c-41.97,0.04-83.94,0.04-125.91,0.02
		c-13.57-0.01-22.17-7.91-22.43-20.52c-0.28-13.46,8.04-22.23,21.94-22.37c22.93-0.23,45.85-0.07,68.78-0.07
		C433.61,362.35,435.48,362.35,437.92,362.35z"/>
</g>
</svg>
