<?xml version="1.0" encoding="utf-8"?>
<!-- Generator: Adobe Illustrator 24.3.0, SVG Export Plug-In . SVG Version: 6.00 Build 0)  -->
<svg version="1.1" id="Layer_1" xmlns="http://www.w3.org/2000/svg" xmlns:xlink="http://www.w3.org/1999/xlink" x="0px" y="0px"
	 viewBox="0 0 512 512" style="enable-background:new 0 0 512 512;" xml:space="preserve">
<style type="text/css">
	.st0{fill:#030303;}
	.st1{fill:#474444;}
	.st2{fill:#747171;}
	.st3{fill:#969393;}
	.st4{fill:#7B7878;}
	.st5{fill:#6D6A6A;}
	.st6{fill:#24B0C4;}
	.st7{fill:#E57E25;}
	.st8{fill:#FFFFFF;}
	.st9{fill:#101213;}
	.st10{fill:#58C3E1;}
	.st11{fill:#040404;}
	.st12{fill:#88C542;}
	.st13{fill:#4DBBEB;}
	.st14{fill:#DB3326;}
	.st15{fill:#FEC411;}
	.st16{fill:#F7911F;}
	.st17{fill:#3978BD;}
	.st18{fill:#2FAE73;}
	.st19{fill:#3A3D40;}
	.st20{fill:#FFFEFD;}
	.st21{fill:#DF2729;}
	.st22{fill:#B63031;}
	.st23{fill:#E23437;}
	.st24{fill:#020303;}
	.st25{fill:#0C0B0B;}
	.st26{fill:#D5B931;}
	.st27{fill:#FDD83F;}
	.st28{fill:#EBEAE9;}
	.st29{fill:#FFFFFE;}
	.st30{fill:#0B0A0A;}
</style>
<path class="st9" d="M485.37,476.09c0.01-0.08,5.17,0.13,5.5,0.14c2.92,0.09,5.85,0.2,8.77,0.3c0.6,0.02,1.19,0.03,1.79,0.07
	c1.46,0.09,3.17-0.02,4.27,1.13c0.67,0.71,1.19,1.57,1.63,2.45c0.63,1.26,0.87,2.42,0.96,3.21c0.06,0.98,0.09,3.78-1.83,5.61
	c-0.81,0.77-1.68,1.08-2.16,1.26c-3.55,1.29-7.86,0.54-11.84,0.54c-158.57-0.03-317.14-0.08-475.71-0.13c-2.28,0-4.55-0.11-6.83-0.1
	c-4.9,0.02-9.76-0.84-9.9-6.78c-0.15-6.07,4.15-8.03,9.8-7.89c6.49,0.17,12.98,0.04,20.42,0.04"/>
<path class="st9" d="M428.31,475.89c0.04-0.74,0.09-1.47,0.14-2.21c0.13-1.95,0.28-4.16,0.28-6.5
	c0.02-55.91,0.01-111.83,0.01-167.75l0-44.03l9.42-0.01c5.95-0.01,11.9-0.01,17.85-0.01c4.77,0,9.55,0,14.32,0.01
	c0.03,52.72,0.04,105.45,0.05,158.18l0.01,62.33C456.35,475.9,442.33,475.9,428.31,475.89z M332.68,475.87v-10.02l-0.02-40.83
	c-0.02-33.43-0.03-66.87-0.04-100.3c7.56-0.08,15.28-0.12,23.51-0.12c5.84,0,11.79,0.02,18.08,0.06
	c0.02,34.31,0.02,68.62,0.02,102.92l0,48.3C360.38,475.88,346.54,475.88,332.68,475.87z M236.76,475.84v-9.01
	c0-8.94,0.01-17.87,0.02-26.81c0.02-22.69,0.05-46.11-0.15-69.25c5.45,0.06,11.07,0.09,17.07,0.09c7.5,0,15.42-0.05,24.61-0.14
	c-0.12,23.18-0.08,46.65-0.05,69.38c0.01,8.82,0.02,17.63,0.03,26.45v9.32C264.44,475.85,250.6,475.85,236.76,475.84z
	 M140.64,475.82c0.04-0.79,0.09-1.57,0.14-2.35c0.13-2.07,0.27-4.21,0.28-6.54c0.01-5.66,0.02-11.32,0.04-16.97
	c0.05-17.75,0.1-36.05-0.05-54.18c4.38,0.05,9.14,0.08,14.8,0.08c3.83,0,7.66-0.01,11.5-0.02c3.8-0.01,7.61-0.02,11.41-0.02
	c1.27,0,2.53,0,3.8,0c-0.01,16.27-0.06,32.54-0.11,48.81l-0.06,22.14c0,1.88,0,3.75,0,5.76l0,3.31
	C168.48,475.82,154.56,475.82,140.64,475.82z M45.22,475.78c0-3.32,0.02-6.52,0.04-9.65c0.04-5.5,0.07-10.77,0-16.03
	c7.02,0.08,13.98,0.13,20.76,0.13c6.97,0,13.94-0.04,20.77-0.13c-0.02,5.2-0.01,10.39,0,15.8c0.01,3.05,0.01,6.14,0.01,9.27v0.63
	C72.95,475.79,59.08,475.79,45.22,475.78z"/>
<path class="st9" d="M402.28,147.7c-6.1-4.76-12.57-9.34-18.41-14.62c-2.47-2.23-4.95-5.93-4.91-8.94c0.02-1.87,4.49-4.46,7.39-5.4
	c27.47-8.88,55.02-17.52,82.58-26.12c8.63-2.69,11.17-0.95,11.14,7.78c-0.1,29.03-0.08,58.06-0.77,87.08
	c-0.05,2.01-0.23,10.66-3.61,11.68c-1.35,0.41-2.95-0.47-5.78-2.02c-3.49-1.91-5.76-3.88-5.78-3.9c-2.79-2.43-7.78-6.23-17.17-12.58
	c-1.02,1.48-1.88,2.96-2.96,4.27c-45.15,55.17-102.46,95.49-162.33,132.64c-9.89,6.14-20.14,11.73-29.77,18.23
	c-6.99,4.72-12.55,4.25-19.13-0.89c-10.07-7.86-20.9-14.73-31.18-22.33c-4.24-3.14-7.42-3.67-11.96-0.13
	c-53,41.3-110.78,75.21-168.71,108.89c-0.98,0.57-1.94,1.54-2.96,1.61c-2.2,0.15-4.44-0.17-6.66-0.29c0.53-2.19,0.33-5.2,1.72-6.45
	c7.81-7.04,16.24-13.4,24.03-20.47c49.49-44.93,98.91-89.95,148.25-135.05c8.28-7.57,10.45-7.92,19.43-0.74
	c11.33,9.05,22.74,18,33.94,27.2c4.14,3.4,7.66,3.75,12.15,0.52c55.63-40.09,106.22-85.65,150.66-137.94
	C401.81,149.35,401.88,148.74,402.28,147.7z"/>
<path class="st9" d="M65,383.88c42.86-38.95,85.5-77.81,127.05-115.79c1.51-1.38,2.51-2.23,3.19-2.75c0.69,0.46,1.72,1.21,3.26,2.44
	c3.28,2.62,6.56,5.23,9.85,7.84c7.9,6.28,16.08,12.78,23.98,19.27c4.12,3.39,8.26,5.03,12.67,5.03c0,0,0,0,0,0
	c4,0,7.81-1.35,11.67-4.13c57.88-41.71,109.16-88.67,152.44-139.57c1.53-1.8,2.09-3.59,2.39-4.56c0.04-0.12,0.08-0.26,0.14-0.43
	l2.61-6.89l-5.8-4.53c-1.79-1.39-3.6-2.77-5.42-4.16c-3.72-2.82-7.26-5.51-10.59-8.36c26.48-8.54,52.89-16.83,77.64-24.55
	l-0.03,10.7c-0.07,23.33-0.14,47.43-0.67,71.13c-3.7-3.06-9.23-7.07-16.8-12.19l-8.22-5.55l-5.62,8.17
	c-0.37,0.54-0.73,1.08-1.08,1.62c-0.53,0.81-0.99,1.51-1.38,1.99c-45.72,55.86-103.85,95.72-159.87,130.48
	c-3.59,2.23-7.34,4.45-10.96,6.59c-6.31,3.74-12.84,7.6-19.13,11.85c-1.47,0.99-2.74,1.56-3.49,1.56c-0.81,0-2.23-0.74-3.9-2.04
	c-6.02-4.7-12.29-9.05-18.36-13.26c-4.32-3-8.79-6.1-13.02-9.23c-2.63-1.95-6.75-4.54-12.1-4.54c-4.11,0-8.02,1.49-11.96,4.55
	C145.55,334.15,104.51,360.24,65,383.88z"/>
</svg>
