<?xml version="1.0" encoding="utf-8"?>
<!-- Generator: Adobe Illustrator 24.3.0, SVG Export Plug-In . SVG Version: 6.00 Build 0)  -->
<svg version="1.1" id="Layer_1" xmlns="http://www.w3.org/2000/svg" xmlns:xlink="http://www.w3.org/1999/xlink" x="0px" y="0px"
	 viewBox="0 0 512 512" style="enable-background:new 0 0 512 512;" xml:space="preserve">
<style type="text/css">
	.st0{fill:#030303;}
	.st1{fill:#474444;}
	.st2{fill:#747171;}
	.st3{fill:#969393;}
	.st4{fill:#7B7878;}
	.st5{fill:#6D6A6A;}
	.st6{fill:#24B0C4;}
	.st7{fill:#E57E25;}
	.st8{fill:#FFFFFF;}
	.st9{fill:#101213;}
	.st10{fill:#58C3E1;}
	.st11{fill:#040404;}
	.st12{fill:#88C542;}
	.st13{fill:#4DBBEB;}
	.st14{fill:#DB3326;}
	.st15{fill:#FEC411;}
	.st16{fill:#F7911F;}
	.st17{fill:#3978BD;}
	.st18{fill:#2FAE73;}
	.st19{fill:#3A3D40;}
	.st20{fill:#FFFEFD;}
	.st21{fill:#DF2729;}
	.st22{fill:#B63031;}
	.st23{fill:#E23437;}
	.st24{fill:#020303;}
	.st25{fill:#0C0B0B;}
	.st26{fill:#D5B931;}
	.st27{fill:#FDD83F;}
	.st28{fill:#EBEAE9;}
	.st29{fill:#FFFFFE;}
	.st30{fill:#0B0A0A;}
	.st31{fill:#636060;}
	.st32{fill:#7D7A7A;}
</style>
<g>
	<path class="st8" d="M512,82.68c-0.21,2.64-0.6,5.27-0.6,7.91c-0.03,83.67-0.03,167.34-0.03,251.01c0,2.65,0,5.29,0,8.37
		c-106.1,0-118.27,0-223.16,0c-4.09-6.79-8.18-13.58-12.27-20.37c-1.66-1.76-3.82-3.77-6.53-5.74c-2.71-1.97-5.29-3.4-7.48-4.43
		c-14.49-7.98-28.9-15.46-42.72-23.9c-2.77-1.69-4.65-7.04-4.68-10.72c-0.33-39.94-0.23-79.87-0.2-119.81
		c0.02-27.44,0.13-54.88,0.19-82.32C344.84,82.68,381.69,82.68,512,82.68z M470.73,318.94c0-65.75,0-130.76,0-195.7
		c-5.81,0-11.22,0-16.24,0c0,65.52,0,130.54,0,195.7C460.08,318.94,465.14,318.94,470.73,318.94z M300.66,203.37
		c0,38.83,0,77.06,0,115.36c5.81,0,11.24,0,16.62,0c0-38.71,0-76.94,0-115.36C311.62,203.37,306.34,203.37,300.66,203.37z
		 M408.75,319.69c0-36.29,0-72.23,0-108.11c-5.8,0-11.23,0-16.69,0c0,36.23,0,72,0,108.11
		C397.64,319.69,402.91,319.69,408.75,319.69z M363.35,318.9c0-24.5,0-48.83,0-73.07c-5.7,0-10.96,0-16.4,0c0,24.5,0,48.63,0,73.07
		C352.58,318.9,357.83,318.9,363.35,318.9z"/>
	<path class="st8" d="M153.72,429.32c-37.39,0-74.1,0-111.48,0c0-2.7,0-5.09,0-7.48c0-35.03,0-70.05,0-105.08
		c0-1.78,0.59-3.92-0.18-5.28c-0.2-0.35-0.49-0.79-1.13-1.64c-2.14-2.84-5.7-3.23-7.18-1.18c-1.08,1.49-1.92,2.76-1.95,3.18
		c-0.65,7.3-0.25,14.7-0.26,22.06c0,16.73,0.03,33.46-0.01,50.2c-0.03,11-5.97,17.86-15.42,17.98c-9.5,0.12-16.16-6.69-16.1-17.4
		c0.13-22.96-0.14-45.97,1.24-68.87c1.41-23.32,10.37-44.47,23.52-63.66c8.5-12.42,21.51-17.17,35.86-17.45
		c25.2-0.49,50.43-0.72,75.62-0.01c15.28,0.43,26.91,8.98,34.98,21.63c9.27,14.53,17.78,29.55,26.75,44.27
		c0.72,1.18,2.37,1.88,3.7,2.59c17.24,9.21,34.45,18.49,51.78,27.52c11.61,6.05,15.77,17.66,10.02,29.01
		c-6.19,12.22-19.36,16.82-30.84,10.58c-20.89-11.35-41.65-22.95-62.65-34.12c-4.15-2.21-16.01-14.41-16.01-12.41
		c-0.01,33.46-0.01,66.93-0.02,100.39C153.96,425.71,153.82,427.26,153.72,429.32z"/>
	<path class="st8" d="M147.31,164.14c-0.1,27.41-22.29,49.73-49.58,49.89c-27.7,0.16-50.06-22.65-49.88-50.87
		c0.18-27.23,22.78-49.36,50.19-49.14C125.33,114.23,147.41,136.69,147.31,164.14z"/>
</g>
</svg>
