<?xml version="1.0" encoding="utf-8"?>
<!-- Generator: Adobe Illustrator 24.3.0, SVG Export Plug-In . SVG Version: 6.00 Build 0)  -->
<svg version="1.1" id="Layer_1" xmlns="http://www.w3.org/2000/svg" xmlns:xlink="http://www.w3.org/1999/xlink" x="0px" y="0px"
	 viewBox="0 0 512 512" style="enable-background:new 0 0 512 512;" xml:space="preserve">
<style type="text/css">
	.st0{fill:#030303;}
	.st1{fill:#474444;}
	.st2{fill:#747171;}
	.st3{fill:#969393;}
	.st4{fill:#7B7878;}
	.st5{fill:#6D6A6A;}
	.st6{fill:#24B0C4;}
	.st7{fill:#E57E25;}
	.st8{fill:#FFFFFF;}
	.st9{fill:#101213;}
	.st10{fill:#58C3E1;}
	.st11{fill:#040404;}
	.st12{fill:#88C542;}
	.st13{fill:#4DBBEB;}
	.st14{fill:#DB3326;}
	.st15{fill:#FEC411;}
	.st16{fill:#F7911F;}
	.st17{fill:#3978BD;}
	.st18{fill:#2FAE73;}
	.st19{fill:#3A3D40;}
	.st20{fill:#FFFEFD;}
	.st21{fill:#DF2729;}
	.st22{fill:#B63031;}
	.st23{fill:#E23437;}
	.st24{fill:#020303;}
	.st25{fill:#0C0B0B;}
	.st26{fill:#D5B931;}
	.st27{fill:#FDD83F;}
	.st28{fill:#EBEAE9;}
	.st29{fill:#FFFFFE;}
	.st30{fill:#0B0A0A;}
</style>
<g>
	<path class="st26" d="M30.79,0c150.42,0,300.25,0,450.42,0c-1,11.46-1.95,22.62-2.96,33.77c-2.44,27.12-4.9,54.23-7.36,81.35
		c-3.34,36.89-6.71,73.78-10.04,110.67c-2.67,29.64-5.28,59.28-7.95,88.92c-3.66,40.68-7.35,81.35-11.02,122.02
		c-0.6,6.62-1.27,13.24-1.66,19.88c-0.19,3.18-1.47,4.48-4.61,5.36c-57.8,16.23-115.57,32.58-173.3,49.06
		c-4.59,1.31-8.68,1.3-13.27-0.01c-56.97-16.25-113.98-32.37-171.03-48.36c-3.89-1.09-5.51-2.52-5.88-6.83
		c-3.9-45.26-8.06-90.5-12.18-135.75c-5.23-57.38-10.52-114.75-15.72-172.14C40.27,104.27,36.4,60.6,32.47,16.92
		C31.98,11.42,31.38,5.92,30.79,0z M440.74,40.57c-2.57,0-4.42,0-6.27,0c-56.92,0-113.84-0.01-170.76,0.01
		c-8.04,0-7.18-0.95-7.18,6.99c-0.01,140.63-0.01,281.27-0.01,421.9c0,0.95,0.04,1.9-0.01,2.85c-0.15,3.47,0.91,5.29,4.74,3.7
		c1.01-0.42,2.14-0.53,3.2-0.82c31.42-8.65,62.85-17.29,94.27-25.96c14.41-3.98,28.84-7.93,43.19-12.13
		c1.72-0.51,4.05-2.34,4.31-3.87c0.84-4.94,0.79-10.03,1.19-15.06c0.63-8,1.32-16.01,2.04-24c1.18-13,2.46-26,3.61-39
		c0.77-8.79,1.31-17.59,2.08-26.38c1.16-13.32,2.46-26.63,3.64-39.95c0.74-8.31,1.32-16.64,2.09-24.95
		c1.14-12.37,2.45-24.73,3.57-37.1c0.79-8.78,1.3-17.59,2.09-26.37c1.13-12.53,2.48-25.04,3.6-37.58
		c1.08-12.07,1.93-24.17,2.98-36.25c1.17-13.48,2.44-26.95,3.7-40.42c0.86-9.24,1.84-18.47,2.66-27.71
		C439.98,52.73,440.29,46.97,440.74,40.57z M194.05,98.91c0,78.65,0,157.04,0,236.23c-29.57-8.05-58.13-15.83-86.86-23.66
		c-0.17,1.09-0.35,1.7-0.35,2.31c0.03,16.15,0.16,32.3,0.04,48.44c-0.03,3.37,1.93,3.74,4.32,4.39
		c34.6,9.34,69.19,18.74,103.78,28.1c7.88,2.13,15.78,4.17,24.03,6.34c0-101.03,0-201.47,0-302.16
		C224.12,98.91,209.52,98.91,194.05,98.91z"/>
	<path class="st27" d="M440.74,40.57c-0.45,6.4-0.76,12.17-1.27,17.91c-0.82,9.24-1.79,18.47-2.66,27.71
		c-1.26,13.47-2.52,26.94-3.7,40.42c-1.05,12.08-1.91,24.17-2.98,36.25c-1.12,12.53-2.47,25.05-3.6,37.58
		c-0.79,8.78-1.3,17.59-2.09,26.37c-1.12,12.37-2.43,24.73-3.57,37.1c-0.77,8.31-1.35,16.64-2.09,24.95
		c-1.19,13.32-2.48,26.63-3.64,39.95c-0.77,8.79-1.3,17.59-2.08,26.38c-1.14,13.01-2.43,26-3.61,39c-0.73,8-1.41,16-2.04,24
		c-0.4,5.03-0.35,10.12-1.19,15.06c-0.26,1.52-2.58,3.36-4.31,3.87c-14.35,4.2-28.77,8.15-43.19,12.13
		c-31.42,8.67-62.84,17.31-94.27,25.96c-1.06,0.29-2.19,0.4-3.2,0.82c-3.83,1.59-4.89-0.23-4.74-3.7c0.04-0.95,0.01-1.9,0.01-2.85
		c0-140.63,0-281.27,0.01-421.9c0-7.94-0.85-6.98,7.18-6.99c56.92-0.02,113.84-0.01,170.76-0.01
		C436.32,40.57,438.16,40.57,440.74,40.57z M362.97,280.61c0,2.33,0.04,3.88-0.01,5.42c-0.31,11.24-0.82,22.47-0.84,33.71
		c-0.01,3.81-1.45,5.03-4.88,5.92c-26.29,6.84-52.51,13.94-78.79,20.8c-3.16,0.82-4.27,2.08-4.18,5.45
		c0.36,14.72,0.39,29.46,0.58,44.18c0.02,1.5,0.24,3,0.37,4.39c0.79,0.11,1.12,0.25,1.39,0.18c38.97-10.13,77.95-20.24,116.87-30.56
		c1.38-0.37,3.03-2.73,3.17-4.28c1.85-20.96,3.42-41.95,5.14-62.92c1.73-21.13,3.58-42.25,5.33-63.38
		c0.48-5.75,0.79-11.51,1.21-17.66c-30.15,3.36-59.54,6.63-88.98,9.91c0-26.74,0-52.63,0-79.03c31.75,0,63.16,0,95.12,0
		c1.28-18.19,2.52-35.89,3.75-53.4c-48.35,0-95.86,0-144,0c0.62,65.64,1.24,130.63,1.86,196.15
		C305.32,290.48,333.75,285.62,362.97,280.61z"/>
	<path class="st28" d="M194.05,98.91c15.47,0,30.07,0,44.96,0c0,100.69,0,201.12,0,302.16c-8.25-2.17-16.15-4.21-24.03-6.34
		c-34.6-9.36-69.18-18.76-103.78-28.1c-2.39-0.64-4.35-1.02-4.32-4.39c0.12-16.15-0.01-32.3-0.04-48.44c0-0.61,0.18-1.22,0.35-2.31
		c28.73,7.83,57.29,15.61,86.86,23.66C194.05,255.95,194.05,177.56,194.05,98.91z"/>
	<path class="st29" d="M362.97,280.61c-29.22,5-57.65,9.87-86.9,14.87c-0.62-65.52-1.24-130.51-1.86-196.15c48.13,0,95.64,0,144,0
		c-1.23,17.52-2.47,35.22-3.75,53.4c-31.96,0-63.37,0-95.12,0c0,26.41,0,52.29,0,79.03c29.44-3.28,58.84-6.55,88.98-9.91
		c-0.42,6.15-0.73,11.91-1.21,17.66c-1.75,21.13-3.6,42.25-5.33,63.38c-1.72,20.97-3.29,41.96-5.14,62.92
		c-0.14,1.55-1.79,3.92-3.17,4.28c-38.92,10.32-77.9,20.43-116.87,30.56c-0.27,0.07-0.6-0.07-1.39-0.18
		c-0.12-1.39-0.35-2.89-0.37-4.39c-0.18-14.73-0.22-29.46-0.58-44.18c-0.08-3.37,1.02-4.62,4.18-5.45
		c26.28-6.86,52.5-13.96,78.79-20.8c3.43-0.89,4.88-2.11,4.88-5.92c0.02-11.24,0.53-22.47,0.84-33.71
		C363.01,284.49,362.97,282.94,362.97,280.61z"/>
</g>
</svg>
