<?xml version="1.0" encoding="utf-8"?>
<!-- Generator: Adobe Illustrator 24.3.0, SVG Export Plug-In . SVG Version: 6.00 Build 0)  -->
<svg version="1.1" id="Layer_1" xmlns="http://www.w3.org/2000/svg" xmlns:xlink="http://www.w3.org/1999/xlink" x="0px" y="0px"
	 viewBox="0 0 512 512" style="enable-background:new 0 0 512 512;" xml:space="preserve">
<style type="text/css">
	.st0{fill:#030303;}
	.st1{fill:#474444;}
	.st2{fill:#747171;}
	.st3{fill:#969393;}
	.st4{fill:#7B7878;}
	.st5{fill:#6D6A6A;}
	.st6{fill:#24B0C4;}
	.st7{fill:#E57E25;}
	.st8{fill:#FFFFFF;}
	.st9{fill:#101213;}
	.st10{fill:#58C3E1;}
	.st11{fill:#040404;}
	.st12{fill:#88C542;}
	.st13{fill:#4DBBEB;}
	.st14{fill:#DB3326;}
	.st15{fill:#FEC411;}
	.st16{fill:#F7911F;}
	.st17{fill:#3978BD;}
	.st18{fill:#2FAE73;}
	.st19{fill:#3A3D40;}
	.st20{fill:#FFFEFD;}
	.st21{fill:#DF2729;}
	.st22{fill:#B63031;}
	.st23{fill:#E23437;}
	.st24{fill:#020303;}
	.st25{fill:#0C0B0B;}
	.st26{fill:#D5B931;}
	.st27{fill:#FDD83F;}
	.st28{fill:#EBEAE9;}
	.st29{fill:#FFFFFE;}
	.st30{fill:#0B0A0A;}
</style>
<g>
	<path class="st8" d="M52.72,483.71c-16.48-2.57-30.43-4.91-40.65-15.06c-5.65-5.61-10.65-14.02-11.27-22.16
		c-1.67-21.77-0.16-43.98-0.39-65.83c-0.26-25.36-0.2-38.72-0.08-65.33c0.08-17.59,0.19-41.67,0.24-78.96
		c0.04-25.9,0.08-34.67,0.12-44.84c0.04-8.68,0.09-18.34,0.14-40.53c0.04-18.39,0.08-36.79,0.14-55.18
		c0.01-4.05-0.17-8.08-0.34-11.99C0.24,75.15-0.12,66.97,1.55,59.3c0.92-4.24,2.39-7.98,4.49-11.42
		c8.17-13.47,23.1-21.84,38.95-21.85C110.12,26.01,175.24,26,240.39,26c75.42,0,150.87,0.01,226.3,0.04
		c24.96,0.01,45.27,20.32,45.27,45.28c0.07,138.79,0.06,221.02,0.01,363.33c-0.01,36.6-29.43,41.99-33.03,43.36
		c-6.86,2.62-15.15,3.01-31.71,3.8c-18.61,0.88-32.64,0.13-35.09,0c-0.77-0.04-24.69-0.03-72.53,0
		c-78.36,0.04-117.53,0.07-145.64,1.17c-19.59,0.77-39.19,1.21-58.78,2.05c-11.14,0.48-27.38,1.23-49.13,0.88
		C67,485.6,59.03,484.69,52.72,483.71z M169.29,240.35c-0.18,0.14-0.35,0.26-0.53,0.39c-0.6,0.44-1.34,0.98-2.09,1.73
		c-49.11,49.07-97.15,97.08-144.91,144.99c-2.3,2.3-3.82,6.04-3.87,9.54c-0.14,8.25-0.13,16.62-0.11,24.71
		c0.01,2.73,0.01,5.46,0.01,8.18c0,20.54,10.93,31.4,31.6,31.4h412.52l2.4,0.01c0.45,0,0.89,0,1.34-0.01
		c8.3-0.2,15.74-3.53,20.94-9.38c5.15-5.78,7.57-13.44,6.82-21.57c-0.25-2.7-1.63-5.54-3.7-7.61
		c-36.78-36.85-73.11-73.14-111.56-111.55l-5.89-5.89l-4.22,5.86c-0.45,0.63-0.86,1.24-1.24,1.83c-0.5,0.76-0.97,1.47-1.32,1.83
		c-12.89,12.95-25.8,25.86-38.71,38.77l-6.56,6.56c-0.46,0.45-0.94,0.94-1.43,1.42c-0.48,0.48-0.96,0.96-1.44,1.44
		c-3.46,3.44-6.47,5.17-8.94,5.17c-2.46,0-5.42-1.72-8.8-5.1c-27.13-27.12-54.26-54.25-81.41-81.41l-44.62-44.62L169.29,240.35z
		 M373.74,283.95c2.54,0,5.57,1.79,9.26,5.48l29.91,29.91c21.92,21.92,43.84,43.84,65.76,65.76c0.88,0.88,1.75,1.66,2.67,2.48
		c0.51,0.46,1.04,0.94,1.6,1.46l10.31,9.57l0.26-266.19V75.93c0-20.57-10.91-31.44-31.56-31.44H49.47c0,0-2.11-0.01-2.55-0.01
		c-1.18,0-2.09,0.02-2.96,0.08c-14.63,0.99-25.81,12.41-26.03,26.55c-0.23,14.38-0.18,29.05-0.14,43.23
		c0.02,6,0.04,12.03,0.04,18.08l0.18,219.02c0.06,4.8,0.11,9.59,0.17,14.39c2.45-2.41,4.9-4.83,7.35-7.24
		c1.54-1.71,3.08-3.41,4.63-5.12c0.4-0.52,0.77-1.06,1.15-1.6c0.58-0.83,1.14-1.62,1.64-2.12c37.07-37.12,74.17-74.21,111.26-111.3
		l19.55-19.55c3.56-3.55,6.51-5.28,9.03-5.28c2.5,0,5.56,1.8,9.1,5.34c33.34,33.33,66.68,66.66,100,100.02
		c5.62,5.62,11.23,11.26,16.92,16.98l9.57,9.62l56.16-56.17C368.19,285.73,371.21,283.95,373.74,283.95z"/>
	<path class="st8" d="M373.36,237.85c-12.37-0.03-23.94-4.83-32.58-13.53c-8.65-8.7-13.4-20.33-13.39-32.76
		c0.01-12.4,4.79-24,13.46-32.66c8.67-8.66,20.28-13.43,32.69-13.43c12.44,0,24.06,4.76,32.73,13.41
		c8.67,8.65,13.46,20.23,13.48,32.61c0.02,12.51-4.74,24.18-13.41,32.87c-8.68,8.69-20.35,13.48-32.86,13.48
		C373.47,237.85,373.36,237.85,373.36,237.85z M373.57,163.98c-15.18,0-27.6,12.35-27.68,27.53c-0.04,7.31,2.82,14.25,8.06,19.55
		c5.24,5.3,12.15,8.24,19.46,8.28h0.16c14.92,0,27.59-12.61,27.66-27.53c0.07-15.25-12.28-27.74-27.53-27.83H373.57z"/>
</g>
</svg>
