<?xml version="1.0" encoding="utf-8"?>
<!-- Generator: Adobe Illustrator 24.3.0, SVG Export Plug-In . SVG Version: 6.00 Build 0)  -->
<svg version="1.1" id="Layer_1" xmlns="http://www.w3.org/2000/svg" xmlns:xlink="http://www.w3.org/1999/xlink" x="0px" y="0px"
	 viewBox="0 0 512 512" style="enable-background:new 0 0 512 512;" xml:space="preserve">
<style type="text/css">
	.st0{fill:#030303;}
	.st1{fill:#474444;}
	.st2{fill:#747171;}
	.st3{fill:#969393;}
	.st4{fill:#7B7878;}
	.st5{fill:#6D6A6A;}
	.st6{fill:#24B0C4;}
	.st7{fill:#E57E25;}
	.st8{fill:#FFFFFF;}
	.st9{fill:#101213;}
	.st10{fill:#58C3E1;}
	.st11{fill:#040404;}
	.st12{fill:#88C542;}
	.st13{fill:#4DBBEB;}
	.st14{fill:#DB3326;}
	.st15{fill:#FEC411;}
	.st16{fill:#F7911F;}
	.st17{fill:#3978BD;}
	.st18{fill:#2FAE73;}
	.st19{fill:#3A3D40;}
	.st20{fill:#FFFEFD;}
	.st21{fill:#DF2729;}
	.st22{fill:#B63031;}
	.st23{fill:#E23437;}
	.st24{fill:#020303;}
	.st25{fill:#0C0B0B;}
	.st26{fill:#D5B931;}
	.st27{fill:#FDD83F;}
	.st28{fill:#EBEAE9;}
	.st29{fill:#FFFFFE;}
	.st30{fill:#0B0A0A;}
</style>
<g>
	<path class="st8" d="M314.02,326.81c0.01-36.58,0.03-73.15,0.04-109.73c0-6.03,1.26-7.28,7.32-7.28c11.68,0,23.37-0.01,35.05,0
		c4.81,0,6.4,1.58,6.41,6.37c0.02,36.88,0.03,73.76,0.05,110.64C346.6,326.81,330.31,326.81,314.02,326.81z"/>
	<path class="st8" d="M231.1,326.8c0.01-25.3,0.03-50.59,0.04-75.89c0-5.62,1.35-6.96,7.02-6.96c11.78,0,23.57-0.01,35.35,0
		c4.83,0,6.4,1.56,6.41,6.35c0.02,25.5,0.03,51,0.04,76.5C263.67,326.8,247.38,326.8,231.1,326.8z"/>
	<path class="st8" d="M356.86,160.75c-5.1-1.52-10.19-3.04-15.56-4.64c0.95-3.3,1.84-6.38,2.81-9.74c7.01,2.14,13.86,4.21,20.7,6.31
		c3,0.92,6.02,1.81,8.98,2.86c3.4,1.21,4.74,4.2,3.05,7.28c-4.92,8.97-10.02,17.86-15.23,27.11c-2.89-1.65-5.64-3.22-8.52-4.87
		c2.72-4.89,5.33-9.57,8.35-15c-75.94,30.49-151.18,60.7-226.78,91.06c-1.22-2.93-2.4-5.77-3.76-9.02
		c75.43-30.26,150.72-60.47,226.02-90.68C356.9,161.2,356.88,160.98,356.86,160.75z"/>
	<path class="st8" d="M231.1,326.8c16.29,0,32.58,0,48.86,0c11.35,0,22.71,0.01,34.06,0.01c16.29,0,32.58,0,48.87,0
		c12.88,0,25.75,0,38.8,0c0,3.31,0,6.32,0,9.58c-97.35,0-194.77,0-292.35,0c0-3.03,0-6.04,0-9.59c12.92,0,25.87,0,38.82,0
		c16.29,0,32.58,0,48.87,0C208.39,326.79,219.74,326.79,231.1,326.8z"/>
	<path class="st8" d="M197.03,326.79c-16.29,0-32.58,0-48.87,0c0.01-14.12,0.02-28.24,0.05-42.36c0.01-4.8,1.56-6.33,6.41-6.34
		c11.99-0.01,23.97-0.01,35.96,0c4.84,0,6.4,1.54,6.41,6.34C197.01,298.55,197.02,312.67,197.03,326.79z"/>
</g>
<path class="st8" d="M28.23,430.63c-17.09,0-24.42-10.18-25.51-18.89c-0.95-7.62-0.64-15.58-0.24-23.08c0.04-0.72,0.1-1.92,2.7-1.92
	c2.34,0,12.3,0,12.3,0l10.84,0l0-80.65c0-65.9,0-131.81,0.01-197.71c0-8.71,2.77-19.87,15.96-23.62c2.92-0.83,6.26-0.94,8.83-0.94
	c28.41-0.01,56.85-0.01,85.26-0.01l82.06,0c72.7,0,157.26-0.02,240.7-0.2c7.21,0,13.4,2.43,17.97,7.02
	c4.6,4.62,7.11,11.1,7.08,18.24c-0.33,65.83-0.29,132.76-0.24,197.49c0.02,22.85,0.03,45.7,0.03,68.54v11.83h5.1
	c1.74,0,10.12-0.01,10.12-0.01c2.07,0,4.12,0.01,6.18,0.02c3.07,0.02,3.85,0.66,3.98,0.79c0.32,0.33,0.66,1.42,0.63,3.49
	c-0.02,1.79-0.02,3.6-0.02,5.4c0.01,6.01,0.02,11.69-0.96,17.12c-1.71,9.48-9.52,16.08-19.9,16.82c-1.7,0.12-3.45,0.14-5.1,0.14
	h-13.7c-32.84,0-65.69,0-98.53-0.01c-32.84-0.01-65.68-0.01-98.52-0.01c-72.39,0-158.34,0.02-246.99,0.18H28.23z M7.59,402.13
	c-0.02,7.94,0.79,14.06,4.83,18.11c4.04,4.05,10.16,4.88,18.11,4.88l455.49,0c14.47,0,20.66-6.23,20.7-20.84c0-1.56,0-3.11,0-4.7
	l0-7.42H318.02l-0.35,4.72c-0.52,6.91-0.52,6.91-7.02,6.91l-46.81,0.01c-15.96,0-36.98-0.01-58.03-0.1
	c-1.68-0.01-6.11-0.02-7.79-1.15c-0.43-0.51-1.02-2.35-1.42-3.57c-0.4-1.24-0.81-2.52-1.37-3.81l-1.33-3.07H7.59L7.59,402.13z
	 M201.39,387.11c0.59,0.86,1.39,4.47,1.92,6.88l0.88,4h106.46l0.64-4.36c0.21-1.4,0.83-5.65,1.49-6.42c0.8-0.49,5.08-0.49,6.48-0.49
	h161.54c0,0,0-212.67,0-277.53c0-13.68-6.47-20.05-20.36-20.05H54.04c-14.39,0-20.53,6.11-20.53,20.42l0,277.17h160.82
	C196.77,386.72,200.42,386.72,201.39,387.11z"/>
<path class="st8" d="M64.42,362.45c-4.74,0-5.88-0.46-6.15-0.65c-0.1-0.16-0.58-1.18-0.58-5.82c-0.01-78.83-0.01-157.65,0-236.48
	c0-6.53,0-6.53,6.35-6.53c66.08,0,132.18-0.01,198.27-0.01c62.63,0,125.23,0,187.85,0.01c6.46,0,6.46,0,6.47,6.42
	c0.01,79.01,0.01,158.01,0,237.02c0,4.39-0.53,5.28-0.64,5.41c-0.12,0.09-1.01,0.63-5.44,0.63l-107.98,0L64.42,362.45z
	 M63.22,356.99h387.87V118.76H63.22V356.99z"/>
</svg>
