<?xml version="1.0" encoding="utf-8"?>
<!-- Generator: Adobe Illustrator 24.3.0, SVG Export Plug-In . SVG Version: 6.00 Build 0)  -->
<svg version="1.1" id="Layer_1" xmlns="http://www.w3.org/2000/svg" xmlns:xlink="http://www.w3.org/1999/xlink" x="0px" y="0px"
	 viewBox="0 0 512 512" style="enable-background:new 0 0 512 512;" xml:space="preserve">
<style type="text/css">
	.st0{fill:#030303;}
	.st1{fill:#474444;}
	.st2{fill:#747171;}
	.st3{fill:#969393;}
	.st4{fill:#7B7878;}
	.st5{fill:#6D6A6A;}
	.st6{fill:#24B0C4;}
	.st7{fill:#E57E25;}
	.st8{fill:#FFFFFF;}
	.st9{fill:#101213;}
	.st10{fill:#58C3E1;}
	.st11{fill:#040404;}
	.st12{fill:#88C542;}
	.st13{fill:#4DBBEB;}
	.st14{fill:#DB3326;}
	.st15{fill:#FEC411;}
	.st16{fill:#F7911F;}
	.st17{fill:#3978BD;}
	.st18{fill:#2FAE73;}
	.st19{fill:#3A3D40;}
	.st20{fill:#FFFEFD;}
	.st21{fill:#DF2729;}
	.st22{fill:#B63031;}
	.st23{fill:#E23437;}
	.st24{fill:#020303;}
	.st25{fill:#0C0B0B;}
	.st26{fill:#D5B931;}
	.st27{fill:#FDD83F;}
	.st28{fill:#EBEAE9;}
	.st29{fill:#FFFFFE;}
	.st30{fill:#0B0A0A;}
</style>
<g>
	<path class="st18" d="M415.15,35.59c5.46-0.03,10.93-0.08,16.39-0.08c24.18-0.01,48.37,0.02,72.55-0.03
		c3.1-0.01,5.49,0.93,7.04,3.68c1.54,2.73,0.82,5.26-0.64,7.74c-8.86,15.13-17.74,30.24-26.58,45.38
		c-13.83,23.71-27.63,47.44-41.45,71.16c-17.81,30.57-35.63,61.13-53.46,91.69c-15.78,27.05-31.6,54.08-47.38,81.14
		c-19.37,33.21-38.7,66.43-58.06,99.63c-7.08,12.14-14.16,24.27-21.31,36.37c-3.39,5.73-9.39,5.67-12.76-0.11
		c-16.41-28.13-32.77-56.3-49.18-84.42c-9-15.42-18.13-30.76-27.11-46.18c-10.52-18.06-20.92-36.21-31.44-54.27
		c-8.03-13.78-16.22-27.47-24.25-41.25c-10.49-17.99-20.87-36.04-31.35-54.03c-8.03-13.78-16.15-27.5-24.19-41.27
		c-9.46-16.19-18.86-32.42-28.31-48.62C24.5,86.4,15.31,70.72,6.15,55.03c-1.83-3.14-3.71-6.25-5.34-9.49
		c-2.36-4.71,0.68-9.94,5.86-9.95c29.98-0.05,59.96,0,89.94,0.01c0.21,0.45,0.38,0.92,0.63,1.34
		c10.55,18.13,21.11,36.25,31.67,54.38c12.3,21.11,24.59,42.22,36.89,63.32c6.27,10.76,12.58,21.5,18.83,32.27
		c6.79,11.71,13.51,23.46,20.32,35.16c5.27,9.05,10.69,18.02,15.98,27.07c10.24,17.53,20.42,35.09,30.64,52.62
		c1.34,2.3,2.78,4.54,4.35,7.09c0.61-0.88,1-1.39,1.33-1.94c6.9-11.82,13.79-23.64,20.69-35.46c5.23-8.96,10.48-17.92,15.7-26.89
		c7.63-13.1,15.23-26.22,22.85-39.32c3.85-6.62,7.77-13.21,11.62-19.82c10.07-17.29,20.09-34.6,30.18-51.87
		c8.26-14.16,16.62-28.26,24.88-42.42c7.54-12.92,15.02-25.87,22.5-38.82C408.87,46.75,411.99,41.16,415.15,35.59z"/>
	<path class="st19" d="M415.15,35.59c-3.16,5.57-6.28,11.16-9.48,16.71c-7.48,12.95-14.96,25.91-22.5,38.82
		c-8.26,14.16-16.62,28.26-24.88,42.42c-10.09,17.27-20.11,34.58-30.18,51.87c-3.85,6.62-7.77,13.21-11.62,19.82
		c-7.63,13.1-15.23,26.22-22.85,39.32c-5.22,8.97-10.47,17.92-15.7,26.89c-6.9,11.82-13.79,23.64-20.69,35.46
		c-0.32,0.55-0.72,1.06-1.33,1.94c-1.57-2.55-3.01-4.79-4.35-7.09c-10.22-17.54-20.4-35.1-30.64-52.62
		c-5.28-9.05-10.7-18.02-15.98-27.07c-6.81-11.7-13.53-23.45-20.32-35.16c-6.25-10.77-12.56-21.51-18.83-32.27
		c-12.3-21.1-24.59-42.21-36.89-63.32c-10.56-18.12-21.12-36.25-31.67-54.38c-0.25-0.43-0.42-0.9-0.63-1.34
		c5.46-0.02,10.93-0.07,16.39-0.07c25.09-0.01,50.18,0.02,75.26-0.05c1.81,0,2.78,0.55,3.68,2.1c14.28,24.59,28.61,49.14,42.94,73.7
		c6.96,11.92,13.93,23.83,21.06,36.03c3.25-5.54,6.4-10.86,9.51-16.2c18.25-31.26,36.48-62.53,54.77-93.76
		c0.48-0.81,1.66-1.72,2.52-1.72C353.55,35.54,384.35,35.57,415.15,35.59z"/>
</g>
</svg>
