<svg width="281" height="187" viewBox="0 0 281 187" fill="none" xmlns="http://www.w3.org/2000/svg">
<path d="M270.884 94.895L268.557 90.852L264.919 91.3869L261.922 87.6169L263.469 83.8769L259.412 81.1879L256.381 84.236L252.39 83.5403L250.776 78.8541L245.924 79.3665L245.65 83.4618L242.035 85.272L238.209 82.5679L234.328 85.3917L236.343 89.7263L234.036 93.2008L229.843 92.9764L228.745 98.1413L232.735 99.6747L233.08 104.013L228.959 106.388L230.937 110.876L235.219 110.21L238.056 113.479L236.557 117.556L240.48 120.32L243.541 117.013L247.79 118.162L249.112 122.537L253.833 122.219L254.44 118.289L258.49 115.97L261.802 118.607L265.991 115.491L263.866 111.826L265.931 108.135L270.18 108.445L271.48 103.639L267.834 101.672L267.351 97.2923L270.884 94.895ZM254.436 109.036C252.799 109.974 250.92 110.406 249.037 110.278C247.154 110.15 245.352 109.468 243.857 108.317C242.363 107.166 241.244 105.599 240.642 103.814C240.039 102.028 239.981 100.104 240.474 98.2859C240.967 96.4673 241.99 94.8355 243.412 93.5968C244.834 92.3581 246.592 91.5682 248.464 91.327C250.335 91.0857 252.237 91.404 253.928 92.2414C255.618 93.0789 257.022 94.398 257.962 96.0319C259.221 98.2233 259.557 100.824 258.896 103.262C258.234 105.701 256.63 107.778 254.436 109.036Z" fill="#F5F5F5"/>
<path d="M49.7745 142.614C56.9531 136.42 57.6725 126.229 56.4361 117.256C56.23 115.76 56.23 114.16 55.3795 112.914C54.529 111.669 52.7568 110.943 51.4792 111.714C50.4152 112.353 50.063 113.703 49.5497 114.84C48.8639 116.362 47.7612 117.658 46.3688 118.58C45.4583 119.175 44.3044 119.601 43.304 119.179C41.9327 118.595 41.5955 116.823 41.4307 115.327L40.6401 106.964C40.494 105.468 40.3404 103.946 39.7297 102.573C39.119 101.201 37.95 99.9926 36.4851 99.742C35.0201 99.4914 33.3454 100.49 33.1955 101.986C33.1318 102.611 33.3229 103.228 33.3454 103.856C33.3678 104.484 33.1505 105.199 32.596 105.431C32.0415 105.662 31.3746 105.307 30.88 104.914C29.1791 103.564 27.9314 101.728 26.7587 99.8954C25.586 98.0628 24.4245 96.1853 22.8509 94.6818C21.2773 93.1783 19.2054 92.0638 17.0474 92.176C14.8893 92.2882 12.7424 93.8328 12.4202 95.9908C12.098 98.1488 13.5442 100.161 15.0616 101.728C17.3103 104.055 19.8847 106.044 22.7048 107.633C23.2106 107.918 23.7576 108.228 23.9974 108.755C24.4245 109.717 23.5815 110.805 22.6299 111.235C21.5509 111.717 20.3294 111.729 19.1755 111.983C18.0215 112.237 16.8113 112.884 16.4854 114.029C16.0283 115.622 17.4745 117.088 18.842 118.008C21.5866 119.85 24.6283 121.206 27.834 122.017C28.958 122.305 30.1719 122.541 31.1386 123.222C32.1052 123.902 32.7796 125.189 32.3525 126.296C31.9254 127.403 30.5841 127.886 29.4076 127.792C28.2312 127.699 27.1371 127.179 25.9944 126.879C23.855 126.315 21.2136 126.73 20.0784 128.641C19.3291 129.898 19.4265 131.528 20.0072 132.875C20.588 134.221 21.5996 135.328 22.6599 136.334C26.3541 139.857 30.9025 142.531 35.8406 143.691C40.7787 144.85 45.2523 144.843 49.8157 142.625" fill="#F5F5F5"/>
<path d="M50.58 149.275C49.7321 145.143 48.4874 141.103 46.8634 137.209C44.8596 132.46 42.5841 127.83 40.0482 123.341C39.3813 122.145 38.7231 120.964 38.0737 119.8C37.4255 118.637 36.7811 117.485 36.0804 116.396C34.7312 114.311 33.2678 112.302 31.6968 110.379C30.1982 108.531 28.7295 106.829 27.3357 105.251C25.942 103.673 24.6044 102.229 23.338 100.98C21.3436 98.9695 19.1939 97.1188 16.9088 95.4448C16.0995 94.8576 15.4588 94.42 15.0354 94.1283C14.8256 93.9899 14.6608 93.8814 14.5334 93.8029C14.4791 93.763 14.4214 93.728 14.361 93.6982C14.4081 93.7468 14.4609 93.7895 14.5184 93.8253L15.0054 94.1732C15.4326 94.4798 16.062 94.9212 16.8788 95.5345C19.138 97.231 21.2671 99.0937 23.2481 101.107C24.5032 102.375 25.8258 103.826 27.2121 105.404C28.5984 106.983 30.067 108.692 31.547 110.539C33.1065 112.461 34.5599 114.466 35.9006 116.546C36.5937 117.627 37.2344 118.771 37.8863 119.934C38.5383 121.097 39.1902 122.283 39.8571 123.476C42.3873 127.958 44.6638 132.578 46.676 137.314C48.2999 141.189 49.5544 145.209 50.4227 149.319" fill="#E0E0E0"/>
<path d="M35.998 116.396C36.0498 116.182 36.0774 115.962 36.0804 115.742C36.1179 115.323 36.1479 114.71 36.1778 113.954C36.234 112.458 36.2415 110.36 36.2453 108.056C36.249 105.752 36.2827 103.673 36.3652 102.169C36.4026 101.421 36.4401 100.808 36.4701 100.385C36.4955 100.168 36.4955 99.9483 36.4701 99.7308C36.4061 99.9403 36.3647 100.156 36.3464 100.374C36.2827 100.793 36.2153 101.403 36.1554 102.154C36.0205 103.65 35.953 105.752 35.953 108.056C35.953 110.36 35.953 112.38 35.953 113.95C35.953 114.661 35.953 115.259 35.953 115.738C35.9451 115.958 35.9602 116.179 35.998 116.396Z" fill="#E0E0E0"/>
<path d="M16.3804 114.784C16.6395 114.812 16.9007 114.812 17.1597 114.784C17.658 114.784 18.3774 114.762 19.2691 114.784C21.0525 114.784 23.5141 114.893 26.2267 115.117C28.9393 115.342 31.3821 115.663 33.143 115.94C34.0272 116.075 34.7391 116.198 35.2299 116.284C35.476 116.342 35.7268 116.378 35.9792 116.392C35.7376 116.295 35.4865 116.224 35.2299 116.179C34.7428 116.06 34.0347 115.903 33.1543 115.745C31.3933 115.416 28.9468 115.072 26.2267 114.84C23.9059 114.637 21.5761 114.552 19.2466 114.586C18.3512 114.586 17.6281 114.646 17.1298 114.687C16.8777 114.699 16.6271 114.731 16.3804 114.784Z" fill="#E0E0E0"/>
<path d="M46.5898 136.884C46.6359 136.806 46.6724 136.723 46.6985 136.637C46.7659 136.439 46.8521 136.2 46.9533 135.908C47.1743 135.272 47.4703 134.348 47.8187 133.2C48.5231 130.904 49.3886 127.699 50.299 124.153C51.2095 120.607 52.0487 117.399 52.7007 115.091C53.0229 113.969 53.2851 113.045 53.48 112.361C53.5661 112.062 53.6336 111.815 53.6898 111.613C53.7219 111.528 53.7396 111.438 53.7422 111.347C53.6983 111.427 53.6632 111.511 53.6373 111.598C53.5661 111.796 53.48 112.035 53.3788 112.327C53.1578 112.959 52.8618 113.887 52.5133 115.035C51.8127 117.331 50.9435 120.533 50.033 124.082C49.1226 127.631 48.2833 130.836 47.6314 133.144C47.3129 134.266 47.0469 135.19 46.8521 135.874L46.646 136.622C46.6171 136.707 46.5983 136.795 46.5898 136.884Z" fill="#E0E0E0"/>
<path d="M20.1646 131.274C20.2474 131.314 20.3359 131.34 20.4269 131.353L21.1987 131.525L24.0274 132.13C26.4178 132.639 29.7111 133.383 33.3454 134.21C36.9797 135.036 40.288 135.747 42.6896 136.207C43.8885 136.439 44.8626 136.618 45.537 136.727L46.3163 136.847C46.4061 136.867 46.4981 136.874 46.5899 136.869C46.5048 136.832 46.4154 136.806 46.3238 136.79L45.5745 136.618L42.7121 136.028C40.3217 135.515 37.0284 134.775 33.3903 133.948C29.7523 133.122 26.4665 132.396 24.0649 131.947C22.866 131.715 21.8918 131.54 21.2174 131.431L20.4381 131.308C20.3485 131.286 20.2567 131.275 20.1646 131.274Z" fill="#E0E0E0"/>
<path d="M219.896 80.5222C220.278 80.2591 220.641 79.9691 220.982 79.6545C221.371 79.2759 221.701 78.8409 221.96 78.3642C222.596 77.23 222.816 75.9101 222.582 74.6315C222.348 73.353 221.675 72.1958 220.679 71.3592C220.27 71.0089 219.81 70.7238 219.315 70.5139C218.803 70.2858 218.258 70.1406 217.7 70.0838C216.521 69.9486 215.33 70.1937 214.302 70.7833C213.273 71.3729 212.46 72.2759 211.983 73.3601C211.536 74.3684 211.396 75.4858 211.582 76.5727C211.753 77.5553 212.184 78.4745 212.829 79.2356C213.345 79.8393 213.982 80.3276 214.699 80.6686C215.416 81.0095 216.198 81.1954 216.992 81.2141C217.536 81.2317 218.079 81.1674 218.603 81.0233C219.049 80.8905 219.484 80.7229 219.903 80.5222C219.903 80.5222 219.881 80.5446 219.828 80.5745L219.588 80.7054C219.462 80.78 219.329 80.8426 219.191 80.8924C219.008 80.9742 218.819 81.0417 218.626 81.0944C218.096 81.2549 217.545 81.3319 216.992 81.3225C216.177 81.3165 215.373 81.1365 214.634 80.7946C213.895 80.4527 213.237 79.9569 212.706 79.3403C212.035 78.5601 211.586 77.6148 211.406 76.6027C211.305 76.0574 211.288 75.4998 211.357 74.9496C211.415 74.3741 211.567 73.812 211.807 73.2853C212.298 72.1617 213.139 71.2258 214.204 70.6156C215.269 70.0054 216.503 69.7534 217.723 69.8968C218.855 70.0253 219.924 70.486 220.795 71.2208C221.58 71.8868 222.173 72.7508 222.511 73.7228C222.774 74.4921 222.87 75.3083 222.793 76.1175C222.716 76.9266 222.468 77.7103 222.065 78.4165C221.794 78.8978 221.449 79.3332 221.042 79.7068C220.899 79.844 220.745 79.9691 220.581 80.0808C220.465 80.1759 220.34 80.2586 220.207 80.3277L219.974 80.4661C219.929 80.5109 219.899 80.5259 219.896 80.5222Z" fill="#E0E0E0"/>
<path d="M229.671 72.1147L229.543 72.2082L229.169 72.4812L227.606 73.5583V73.5284C227.689 74.2352 227.79 75.1104 227.906 76.1464L227.884 76.1127L230.057 77.2796H230.09V77.317C229.862 78.1772 229.603 79.1421 229.341 80.1743V80.223H229.296L226.771 80.0435L226.831 80.0098L225.549 82.2052V82.1378C225.943 82.8148 226.37 83.5591 226.812 84.3258L226.846 84.3818L226.793 84.4193L224.305 86.2893L224.261 86.3229L224.212 86.2855L222.241 84.7185H222.331L219.926 86.1023L219.967 86.0424C219.858 86.7642 219.735 87.5646 219.592 88.3799V88.4472H219.555L216.748 88.6417H216.677L216.655 88.5744L215.868 85.9564L215.932 86.02L213.406 85.3393L213.5 85.3131L211.679 87.2766L211.623 87.3402L211.556 87.2916L209.221 85.6497L209.161 85.6048L209.188 85.5375C209.465 84.7895 209.765 83.948 210.068 83.114L210.087 83.2112L208.401 81.2664L208.487 81.3001L205.943 81.6965H205.868L205.838 81.6255C205.463 80.784 205.063 79.8752 204.662 78.9663L204.624 78.884L204.703 78.8392L204.755 78.8093C205.561 78.3492 206.366 77.8892 207.161 77.4292L207.112 77.5227C207.045 76.655 206.977 75.7948 206.91 74.9421L206.973 75.0244L204.568 74.1417L204.493 74.1118V74.0333C204.715 72.9985 204.933 71.975 205.145 70.9627V70.8842H205.227L207.719 71.0151L207.637 71.06L209.012 68.9955V69.0853C208.603 68.2101 208.206 67.3536 207.813 66.5047L207.783 66.4373L207.843 66.3962L210.151 64.7207L210.203 64.6833L210.255 64.7169L212.526 66.3289H212.44L214.587 65.2405L214.542 65.3116C214.598 64.4738 214.654 63.666 214.707 62.8731V62.8058H214.774L217.655 62.5066H217.719V62.5664L218.678 65.3527L218.622 65.3041L220.993 65.723H220.93L222.736 63.9166L222.773 63.8792L222.818 63.9053L225.227 65.5098L225.265 65.536V65.5809C224.916 66.4186 224.616 67.1367 224.339 67.8249V67.7725L226.119 70.0165H226.081L228.247 69.7098H228.266V69.7285L229.296 71.5574L229.543 72.0025C229.6 72.0997 229.622 72.1446 229.622 72.1446C229.622 72.1446 229.588 72.0959 229.528 71.9987C229.468 71.9015 229.382 71.7481 229.266 71.5574L228.213 69.7585H228.243L226.081 70.0838H226.059V70.0651L224.264 67.8211V67.7987V67.7688C224.542 67.0993 224.834 66.3775 225.178 65.5248L225.201 65.5921L222.784 64.0026H222.863C222.301 64.5748 221.713 65.1695 221.065 65.8202L221.042 65.8464H221.005L218.663 65.45H218.622V65.4088C218.311 64.5187 217.992 63.5949 217.655 62.6225L217.738 62.6749L214.853 62.9816L214.928 62.9068C214.875 63.6996 214.823 64.5075 214.766 65.3453V65.3901L214.725 65.4126L212.578 66.5047L212.53 66.5271L212.488 66.4972L210.188 64.8665H210.293L207.989 66.5458L208.019 66.4336L209.218 69.0105L209.24 69.0591L209.21 69.1002L207.839 71.1684L207.809 71.2133H207.756L205.261 71.0824L205.359 71.0076C205.144 72.0174 204.928 73.0409 204.71 74.0782L204.65 73.966L207.022 74.8785L207.078 74.901V74.9608C207.146 75.8135 207.213 76.6737 207.281 77.5414V77.6012L207.224 77.6349L204.819 79.0112L204.767 79.0449L204.808 78.9215L205.981 81.5806L205.879 81.5245L208.423 81.1318H208.476L208.513 81.1692C209.094 81.8387 209.667 82.5044 210.199 83.114L210.237 83.1589V83.2112C209.93 84.0453 209.63 84.8718 209.353 85.631L209.319 85.5226L211.649 87.1682H211.526L213.346 85.2047L213.384 85.1635H213.44L215.965 85.8479H216.014V85.8966C216.284 86.8016 216.554 87.6918 216.797 88.5146L216.707 88.451L219.513 88.264L219.435 88.3388C219.562 87.5234 219.686 86.7231 219.809 86.0013V85.9601L219.843 85.9414L222.252 84.5651L222.297 84.5389L222.342 84.5726L224.309 86.1434H224.216L226.707 84.2958V84.3893C226.265 83.6413 225.838 82.8933 225.452 82.1977L225.433 82.164L225.452 82.1304L226.681 79.9387L226.703 79.9051H226.741L229.266 80.0958L229.206 80.137C229.487 79.1047 229.753 78.1435 229.989 77.2833L230.012 77.3394L227.85 76.1613V76.1389L227.573 73.5209V73.5022L229.142 72.4625L229.547 72.1969L229.671 72.1147Z" fill="#E0E0E0"/>
<path d="M260.543 150.225C260.543 150.281 207.172 150.322 141.35 150.322C75.529 150.322 22.1465 150.281 22.1465 150.225C22.1465 150.168 75.5066 150.127 141.35 150.127C207.194 150.127 260.543 150.172 260.543 150.225Z" fill="#263238"/>
<path d="M250.468 98.6949L229.862 150.146H171.972L190.368 97.988C190.433 97.8036 190.554 97.6439 190.713 97.5307C190.873 97.4175 191.064 97.3565 191.26 97.356L249.588 97.3934C249.743 97.393 249.896 97.4309 250.034 97.5035C250.171 97.5762 250.288 97.6815 250.375 97.81C250.462 97.9386 250.516 98.0866 250.533 98.2409C250.549 98.3952 250.527 98.5511 250.468 98.6949Z" fill="#263238"/>
<path d="M247.28 100.18L228.363 146.275C228.322 146.374 228.252 146.459 228.163 146.518C228.074 146.577 227.968 146.609 227.861 146.608H175.149C175.064 146.61 174.979 146.591 174.902 146.553C174.826 146.515 174.76 146.459 174.71 146.39C174.66 146.321 174.627 146.24 174.615 146.156C174.603 146.072 174.611 145.985 174.64 145.905L191.413 99.8094C191.451 99.7059 191.52 99.6167 191.611 99.5537C191.701 99.4908 191.809 99.4573 191.919 99.4578H246.793C246.879 99.4585 246.963 99.48 247.039 99.5206C247.115 99.5611 247.179 99.6195 247.227 99.6906C247.275 99.7616 247.305 99.8433 247.314 99.9286C247.323 100.014 247.312 100.1 247.28 100.18Z" fill="#455A64"/>
<path d="M229.85 150.228H229.337H151.208V146.608H227.715L229.85 150.228Z" fill="#263238"/>
<path d="M170.14 100.692C170.14 100.692 168.555 119.497 165.142 120.413C155.85 122.904 145.221 121.06 141.489 120.327C141.07 119.953 140.586 119.534 140.039 118.996C139.576 118.527 139.196 117.983 138.915 117.387C138.527 116.658 138.241 115.879 138.065 115.072C137.975 114.324 137.034 114.063 136.701 114.665C136.367 115.267 136.229 117.567 137.48 119.661C137.535 119.793 137.561 119.935 137.555 120.078C137.55 120.221 137.513 120.36 137.449 120.488C137.384 120.615 137.292 120.727 137.18 120.815C137.068 120.904 136.937 120.967 136.798 121C135.221 121.584 129.661 123.308 128.762 123.73C127.964 124.104 127.192 124.785 128.031 124.923C128.87 125.062 133.464 124.4 133.464 124.4C133.464 124.4 127.428 125.148 127.578 126.016C127.679 126.618 129.305 126.906 133.246 126.016C133.246 126.016 128.278 126.663 127.761 127.182C126.589 128.357 132.572 127.635 132.572 127.635C128.383 128.177 128.428 127.96 128.383 128.533C128.35 128.963 129.297 129.135 131.598 129.161C133.471 129.183 135.39 129.58 138.23 129.771C138.23 129.771 174.141 139.91 179.068 124.134C181.732 115.63 181.747 112.394 182.669 106.822" fill="#FFBE9D"/>
<path d="M135.086 127.369C135.086 127.474 133.823 127.695 132.231 127.859C130.639 128.024 129.342 128.076 129.339 127.968C129.335 127.859 130.609 127.642 132.194 127.478C133.778 127.313 135.071 127.265 135.086 127.369Z" fill="#A36957"/>
<path d="M135.049 125.743C135.049 125.847 133.715 126.158 132.051 126.434C130.388 126.711 128.994 126.853 128.975 126.752C128.956 126.651 130.305 126.337 131.973 126.057C133.64 125.776 135.03 125.638 135.049 125.743Z" fill="#A36957"/>
<path d="M134.996 124.052C135.015 124.157 133.745 124.471 132.16 124.755C130.575 125.039 129.271 125.185 129.253 125.084C129.234 124.983 130.504 124.662 132.089 124.377C133.674 124.093 134.977 123.947 134.996 124.052Z" fill="#A36957"/>
<path d="M216.745 132.789L219.079 146.361H182.665L184.059 135.814L216.745 132.789Z" fill="#263238"/>
<path d="M173.845 86.1733C173.845 86.1733 168.551 102.042 168.892 102.674L180.541 105.371L173.845 86.1733Z" fill="#27B0C4"/>
<path opacity="0.2" d="M173.845 86.1733C173.845 86.1733 168.551 102.042 168.892 102.674L180.541 105.371L173.845 86.1733Z" fill="black"/>
<path d="M183.808 115.981L182.684 138.694L217.861 134.719L212.357 112.765C212.357 112.765 208.573 87.3103 201.676 84.4903C199.285 83.5639 196.841 82.7784 194.358 82.1379C189.964 80.8928 185.363 80.5518 180.833 81.1356L180.125 81.2291C178.719 81.3835 177.385 81.9288 176.275 82.803C175.165 83.6771 174.323 84.8449 173.845 86.1733C173.845 86.1733 173.722 93.9899 176.127 99.1661L183.808 115.981Z" fill="#27B0C4"/>
<path d="M192.137 145.931C192.084 145.931 192.005 144.087 191.964 141.817C191.923 139.547 191.93 137.703 191.964 137.703C191.998 137.703 192.099 139.551 192.14 141.817C192.182 144.084 192.204 145.931 192.137 145.931Z" fill="#455A64"/>
<path d="M194.077 138.72C194.077 138.72 194.115 138.661 194.231 138.619C194.336 138.59 194.446 138.586 194.553 138.607C194.66 138.628 194.76 138.674 194.846 138.741C194.932 138.808 195 138.894 195.047 138.992C195.093 139.091 195.115 139.199 195.111 139.308C195.107 139.472 195.053 139.632 194.956 139.766C194.859 139.899 194.724 140 194.568 140.056C194.412 140.1 194.247 140.1 194.091 140.057C193.935 140.013 193.794 139.927 193.684 139.809C193.597 139.714 193.532 139.601 193.495 139.478C193.458 139.355 193.45 139.225 193.47 139.098C193.549 138.664 193.815 138.518 193.819 138.541C193.71 138.715 193.639 138.91 193.609 139.113C193.6 139.227 193.618 139.342 193.662 139.448C193.707 139.553 193.776 139.647 193.864 139.72C193.952 139.793 194.057 139.844 194.169 139.869C194.281 139.894 194.397 139.891 194.508 139.861C194.625 139.818 194.727 139.743 194.802 139.644C194.878 139.545 194.924 139.427 194.935 139.304C194.942 139.202 194.92 139.1 194.871 139.01C194.823 138.921 194.75 138.846 194.662 138.795C194.484 138.696 194.275 138.67 194.077 138.72Z" fill="#455A64"/>
<path d="M217.325 140.942C217.282 140.984 217.235 141.02 217.183 141.05C217.047 141.152 216.906 141.245 216.76 141.331C216.223 141.654 215.652 141.918 215.059 142.12C213.09 142.808 210.949 142.834 208.964 142.195C206.978 141.555 205.257 140.285 204.062 138.578C203.7 138.07 203.394 137.525 203.148 136.951C203.054 136.749 203.006 136.577 202.964 136.476C202.923 136.375 202.912 136.308 202.919 136.304C202.927 136.301 203.028 136.525 203.215 136.918C203.888 138.299 204.867 139.508 206.078 140.456C207.849 141.856 210.067 142.571 212.324 142.468C213.239 142.433 214.146 142.272 215.017 141.989C215.606 141.801 216.175 141.558 216.718 141.264C216.914 141.144 217.117 141.036 217.325 140.942Z" fill="#455A64"/>
<path d="M188.922 96.2676C188.794 96.4157 188.654 96.5521 188.502 96.6753C188.108 97.0321 187.688 97.3608 187.247 97.6589C186.59 98.1204 185.832 98.4191 185.037 98.5303C184.054 98.5866 183.073 98.3896 182.189 97.9581C181.241 97.543 180.391 97.0605 179.567 96.7613C178.845 96.4684 178.063 96.3579 177.289 96.4397C176.768 96.4978 176.271 96.6898 175.846 96.9969C175.554 97.2213 175.43 97.3934 175.415 97.3709C175.436 97.3243 175.463 97.2814 175.498 97.2438C175.587 97.1284 175.689 97.0231 175.801 96.9296C176.223 96.5874 176.731 96.3686 177.27 96.2976C178.067 96.1929 178.878 96.292 179.626 96.5855C180.477 96.881 181.335 97.3635 182.268 97.7711C183.122 98.1918 184.07 98.3887 185.022 98.3433C185.793 98.2453 186.531 97.9686 187.176 97.5355C187.62 97.2497 188.047 96.94 188.457 96.608C188.603 96.4828 188.759 96.369 188.922 96.2676Z" fill="#FAFAFA"/>
<path d="M179.694 87.3851C179.508 87.6233 179.279 87.825 179.02 87.9798C177.799 88.8076 176.305 89.1332 174.849 88.8886C174.548 88.8564 174.256 88.7676 173.988 88.6268C173.988 88.5969 174.329 88.6904 174.868 88.754C176.288 88.9145 177.721 88.6015 178.945 87.8639C179.413 87.5834 179.671 87.359 179.694 87.3851Z" fill="#FAFAFA"/>
<path d="M211.499 108.782C211.423 108.856 211.342 108.925 211.256 108.987C211.005 109.167 210.735 109.317 210.45 109.436C209.38 109.822 208.227 109.927 207.104 109.739C206.335 109.624 205.572 109.467 204.819 109.268C203.958 109.036 203.082 108.867 202.196 108.763C201.225 108.68 200.246 108.751 199.296 108.972C198.271 109.218 197.268 109.551 196.299 109.967C194.302 110.794 192.414 111.695 190.548 112.08C188.898 112.425 187.191 112.381 185.561 111.953C184.469 111.681 183.397 111.337 182.35 110.925L181.496 110.584C181.397 110.548 181.3 110.504 181.208 110.453C181.311 110.476 181.413 110.508 181.511 110.547L182.376 110.854C183.428 111.238 184.502 111.56 185.591 111.819C187.203 112.221 188.886 112.25 190.51 111.905C192.346 111.531 194.22 110.618 196.224 109.784C197.2 109.365 198.21 109.031 199.244 108.785C200.214 108.562 201.213 108.494 202.204 108.583C203.09 108.694 203.967 108.87 204.827 109.111C205.567 109.313 206.317 109.478 207.075 109.604C208.178 109.801 209.312 109.719 210.375 109.365C210.772 109.216 211.149 109.02 211.499 108.782Z" fill="#FAFAFA"/>
<path d="M183.62 122.672C183.62 122.672 183.62 122.646 183.669 122.601L183.83 122.395C184.052 122.148 184.304 121.93 184.58 121.744C185.018 121.45 185.499 121.225 186.007 121.079C186.68 120.887 187.379 120.801 188.079 120.824C189.645 120.847 191.41 121.494 193.261 122.32C194.224 122.763 195.211 123.152 196.217 123.487C197.288 123.853 198.42 124.012 199.551 123.955C200.676 123.834 201.762 123.474 202.736 122.9C203.706 122.377 204.59 121.778 205.486 121.288C206.327 120.797 207.239 120.441 208.191 120.234C209.214 120.052 210.265 120.101 211.267 120.376C212.269 120.651 213.197 121.145 213.983 121.823C214.326 122.111 214.63 122.443 214.886 122.81C214.862 122.793 214.84 122.771 214.823 122.747C214.774 122.698 214.718 122.635 214.65 122.56C214.56 122.453 214.462 122.353 214.358 122.261C214.225 122.127 214.083 122.002 213.935 121.887C212.999 121.121 211.884 120.606 210.694 120.391C209.876 120.243 209.039 120.243 208.221 120.391C207.289 120.6 206.397 120.954 205.576 121.442C204.688 121.931 203.807 122.534 202.83 123.065C201.832 123.655 200.719 124.024 199.566 124.146C198.411 124.202 197.255 124.04 196.16 123.667C195.149 123.326 194.157 122.93 193.189 122.481C191.346 121.651 189.608 121.004 188.071 120.959C187.386 120.931 186.7 121.007 186.037 121.183C185.537 121.318 185.06 121.529 184.624 121.808C184.254 122.052 183.916 122.342 183.62 122.672Z" fill="#FAFAFA"/>
<path d="M215.392 134.67C215.216 134.244 214.993 133.839 214.729 133.462C213.958 132.463 212.891 131.732 211.679 131.375C210.854 131.111 209.989 130.996 209.124 131.035C208.13 131.082 207.146 131.259 206.198 131.562C205.146 131.896 204.12 132.304 203.126 132.781C202.084 133.264 201.02 133.806 199.896 134.296C198.814 134.789 197.684 135.172 196.524 135.437C195.429 135.653 194.311 135.726 193.197 135.654C191.315 135.498 189.466 135.068 187.708 134.378C186.209 133.813 185.033 133.256 184.22 132.882L183.294 132.433L183.055 132.31L182.976 132.261C183.007 132.266 183.038 132.276 183.066 132.291L183.309 132.396L184.254 132.815C185.07 133.189 186.254 133.701 187.757 134.251C189.504 134.915 191.337 135.327 193.201 135.474C194.297 135.542 195.398 135.467 196.475 135.25C197.635 134.991 198.764 134.615 199.847 134.128C200.971 133.641 202.028 133.103 203.077 132.632C204.079 132.152 205.115 131.745 206.175 131.412C207.138 131.109 208.137 130.935 209.146 130.896C210.036 130.863 210.924 130.99 211.769 131.27C212.999 131.647 214.075 132.409 214.838 133.443C215.035 133.727 215.199 134.032 215.328 134.352C215.362 134.457 215.392 134.539 215.415 134.606C215.409 134.628 215.402 134.649 215.392 134.67Z" fill="#FAFAFA"/>
<g opacity="0.2">
<path d="M188.581 137.942C192.152 137.8 195.726 136.611 198.457 134.311C202.204 131.162 204.043 126.218 204.452 121.348C204.86 116.479 203.991 111.624 203.126 106.799C199.782 111.475 197.065 116.567 195.044 121.946C193.718 125.477 192.552 129.333 189.615 131.7C188.566 132.546 187.315 133.178 186.494 134.244C185.674 135.309 185.497 137.067 186.588 137.86L187.554 138.174" fill="black"/>
</g>
<path d="M162.781 138.129C163.493 138.474 164.25 138.717 165.029 138.851C165.645 138.984 166.278 139.012 166.903 138.934C167.195 138.896 167.469 138.855 167.731 138.814C168.937 138.619 170.065 138.092 170.987 137.292C175.044 133.772 186.03 122.65 187.989 120.133C190.349 117.107 191.013 97.1054 191.013 97.1054L204.193 99.2596C204.193 99.2596 203.957 113.674 200.716 124.89C198.652 132.022 173.74 146.694 173.71 146.709C171.863 148.729 169.788 150.917 168.51 151.982C165.854 154.204 165.651 153.972 165.445 153.617C164.891 152.671 169.968 149.533 168.484 149.574C167 149.615 162.721 154.133 162.182 153.119C161.478 151.795 166.858 148.609 167.292 148.306C167.727 148.003 167.292 147.364 166.918 147.659C166.375 148.082 160.548 152.394 159.852 151.104C159.477 150.385 160.814 149.806 160.814 149.806C160.814 149.806 166.558 146.174 166.206 145.576C165.854 144.977 162.407 146.986 161.29 147.749C160.174 148.512 159.387 148.287 159.454 147.524C159.503 147.004 162.856 144.585 163.977 143.855C165.097 143.126 168.195 141.181 165.884 140.901C163.572 140.62 161.905 139.528 161.657 138.922C161.41 138.316 162.163 137.748 162.781 138.129Z" fill="#FFBE9D"/>
<path d="M195.977 84.0714C197.218 83.8176 198.503 83.8794 199.713 84.2513C200.924 84.6232 202.021 85.2932 202.904 86.1995C204.441 87.7965 205.984 90.4706 205.853 94.708C205.595 102.977 204.943 105.797 204.943 105.797L188.701 105.236L189.338 91.342C189.338 91.342 190.593 85.2047 195.977 84.0714Z" fill="#27B0C4"/>
<path opacity="0.2" d="M195.977 84.0714C197.218 83.8176 198.503 83.8794 199.713 84.2513C200.924 84.6232 202.021 85.2932 202.904 86.1995C204.441 87.7965 206.007 90.6875 205.876 94.9174C205.621 103.187 204.943 105.797 204.943 105.797L188.701 105.236L189.36 91.5552C189.36 91.5552 190.593 85.2047 195.977 84.0714Z" fill="black"/>
<path d="M205.557 100.98C205.557 100.999 205.37 100.815 205.01 100.561C204.49 100.214 203.913 99.9611 203.305 99.8132C202.404 99.5883 201.466 99.5565 200.552 99.7197C199.442 99.9798 198.365 100.362 197.341 100.86C196.301 101.361 195.219 101.768 194.107 102.076C193.184 102.293 192.229 102.338 191.29 102.211C190.655 102.128 190.042 101.925 189.484 101.612C189.334 101.526 189.191 101.427 189.057 101.317C189.007 101.283 188.962 101.242 188.922 101.197C188.922 101.178 189.124 101.339 189.518 101.545C190.08 101.822 190.686 102.002 191.309 102.076C192.231 102.181 193.165 102.121 194.066 101.9C195.165 101.586 196.234 101.178 197.262 100.681C198.302 100.179 199.395 99.7962 200.522 99.5401C201.46 99.383 202.421 99.4315 203.339 99.6823C203.957 99.8468 204.538 100.127 205.051 100.509C205.186 100.614 205.311 100.73 205.426 100.857C205.474 100.893 205.518 100.934 205.557 100.98Z" fill="#FAFAFA"/>
<path d="M204.894 89.2738C204.722 89.3643 204.543 89.4406 204.358 89.5019C204.186 89.573 203.984 89.6441 203.714 89.7226C203.444 89.8011 203.171 89.8909 202.845 89.962C202.083 90.1483 201.309 90.2845 200.529 90.3696C199.572 90.465 198.61 90.5 197.648 90.4743C196.688 90.4371 195.731 90.3321 194.785 90.1602C194.014 90.0149 193.255 89.8098 192.515 89.5468C192.229 89.4516 191.948 89.3392 191.676 89.2102C191.465 89.1239 191.259 89.0239 191.061 88.911C190.885 88.8285 190.718 88.7282 190.563 88.6118C190.746 88.6748 190.924 88.7523 191.095 88.8437C191.297 88.9439 191.505 89.0326 191.717 89.1092C191.992 89.2268 192.274 89.3292 192.56 89.4159C193.295 89.6575 194.046 89.8474 194.808 89.9844C195.746 90.144 196.693 90.2427 197.644 90.2799C198.597 90.3064 199.55 90.2764 200.499 90.1901C201.273 90.1104 202.041 89.9856 202.8 89.8161C203.129 89.7525 203.418 89.6777 203.673 89.6067C203.927 89.5356 204.148 89.4795 204.324 89.4197C204.509 89.3531 204.7 89.3042 204.894 89.2738Z" fill="#FAFAFA"/>
<path d="M187.408 66.0783C187.386 66.2904 187.424 66.5044 187.519 66.6954C187.614 66.8864 187.762 67.0464 187.945 67.1566C188.128 67.2669 188.338 67.3229 188.552 67.3181C188.765 67.3132 188.973 67.2477 189.15 67.1293C189.817 66.6506 189.75 65.6333 189.484 64.8853C189.218 64.1373 188.813 63.307 189.031 62.5179C189.199 61.9157 189.698 61.4707 190.061 60.962C190.38 60.5175 190.592 60.0053 190.68 59.4654C190.768 58.9256 190.729 58.3728 190.567 57.8503C190.39 57.333 190.074 56.8741 189.654 56.5233C189.234 56.1725 188.725 55.9433 188.184 55.8607C187.079 55.7335 185.82 56.2608 184.913 55.6176C184.254 55.1538 184.074 54.2487 183.527 53.6541C182.68 52.734 181.2 52.7976 179.997 53.1566C178.795 53.5157 177.611 54.1066 176.359 53.9944C175.318 53.9046 174.381 53.3324 173.362 53.0482C172.263 52.7451 171.096 52.7914 170.024 53.1806C168.953 53.5698 168.029 54.2826 167.382 55.2199C166.734 56.1572 166.396 57.2725 166.413 58.4108C166.429 59.5491 166.801 60.6539 167.476 61.5716C167.939 62.2521 168.627 62.7475 169.421 62.9704" fill="#263238"/>
<path d="M185.572 89.5431C183.949 89.8403 182.274 89.4827 180.914 88.5489C179.554 87.615 178.621 86.1811 178.319 84.5614C177.944 82.6353 177.659 81.0084 177.659 81.0084C177.659 81.0084 172.643 81.0832 171.747 76.2137C170.852 71.3443 169.851 60.6479 169.851 60.6479L169.788 60.0008C175.033 56.6087 181.777 56.8518 187.307 59.7727L187.472 60.7788L190.645 82.7251C190.822 84.2916 190.397 85.8666 189.455 87.1321C188.513 88.3977 187.126 89.2593 185.572 89.5431Z" fill="#FFBE9D"/>
<path d="M180.095 72.5111L176.959 74.0295C177.245 74.3466 177.631 74.5565 178.052 74.6245C178.474 74.6926 178.907 74.6146 179.278 74.4035C180.649 73.6107 180.095 72.5111 180.095 72.5111Z" fill="white"/>
<path d="M177.637 80.9411C179.901 80.5983 182.012 79.5921 183.703 78.05C183.703 78.05 182.796 81.8162 177.843 82.2052L177.637 80.9411Z" fill="#EB996E"/>
<path d="M187.708 64.0625C187.809 64.0101 191.305 63.1724 191.421 67.3836C191.537 71.5948 187.236 70.3195 187.225 70.1998C187.213 70.0801 187.708 64.0625 187.708 64.0625Z" fill="#FFBE9D"/>
<path d="M188.491 68.6851C188.51 68.6851 188.566 68.7338 188.693 68.7899C188.87 68.8596 189.067 68.8596 189.244 68.7899C189.683 68.6141 190.038 67.896 190.038 67.1368C190.039 66.7749 189.96 66.4174 189.806 66.0896C189.762 65.9595 189.688 65.842 189.588 65.7469C189.489 65.6519 189.369 65.5821 189.237 65.5435C189.152 65.5239 189.063 65.5345 188.985 65.5734C188.907 65.6123 188.845 65.6771 188.81 65.7567C188.753 65.8764 188.783 65.9587 188.761 65.9662C188.738 65.9736 188.667 65.8988 188.697 65.7231C188.72 65.618 188.776 65.5233 188.858 65.4538C188.971 65.3641 189.115 65.3225 189.259 65.3378C189.434 65.3666 189.598 65.4399 189.736 65.5506C189.874 65.6614 189.98 65.8058 190.046 65.9699C190.235 66.3297 190.335 66.7302 190.334 67.1368C190.334 67.9858 189.915 68.7936 189.312 68.9843C189.199 69.021 189.08 69.0316 188.964 69.0154C188.847 68.9992 188.735 68.9566 188.637 68.8908C188.502 68.7861 188.476 68.6926 188.491 68.6851Z" fill="#EB996E"/>
<path d="M169.005 62.832C169.005 62.832 172.163 63.8568 175.749 61.4108C178.105 59.8026 180.972 58.7928 181.691 59.2042C182.41 59.6156 182.905 62.1962 185.516 62.6226C185.516 62.6226 186.022 67.6118 187.982 67.163C189.941 66.7142 187.648 59.1968 187.648 59.1968L182.661 56.5488L177.229 56.2758L171.477 57.7232L168.435 60.1841L169.005 62.832Z" fill="#263238"/>
<path d="M187.438 54.978C186.692 55.1144 186.013 55.4962 185.509 56.0626C185.665 55.6941 185.939 55.3876 186.288 55.1913C186.637 54.995 187.042 54.92 187.438 54.978Z" fill="#263238"/>
<path d="M185.13 53.3212C185.368 53.7993 185.484 54.3286 185.468 54.8621C185.475 55.2444 185.411 55.6248 185.28 55.9841C185.238 56.1365 185.16 56.2763 185.052 56.3918C185.174 55.8939 185.248 55.3854 185.273 54.8733C185.258 54.0206 185.085 53.3362 185.13 53.3212Z" fill="#263238"/>
<path d="M171.35 67.7389C171.359 67.9291 171.442 68.1081 171.583 68.237C171.723 68.3659 171.909 68.4342 172.099 68.4271C172.191 68.4291 172.282 68.4129 172.367 68.3794C172.452 68.3459 172.53 68.2959 172.595 68.2322C172.661 68.1685 172.713 68.0924 172.749 68.0084C172.785 67.9243 172.803 67.834 172.804 67.7427C172.796 67.5565 172.716 67.3807 172.58 67.2529C172.444 67.125 172.264 67.0552 172.077 67.0582C171.984 67.0526 171.89 67.0661 171.803 67.0977C171.715 67.1294 171.635 67.1786 171.567 67.2423C171.499 67.306 171.444 67.3829 171.407 67.4683C171.37 67.5537 171.35 67.6458 171.35 67.7389Z" fill="#263238"/>
<path d="M171.331 67.1891C171.425 67.2788 171.946 66.8487 172.718 66.8151C173.489 66.7814 174.074 67.1367 174.153 67.0358C174.19 66.9946 174.093 66.8301 173.838 66.6618C173.492 66.4486 173.089 66.3467 172.684 66.37C172.283 66.3874 171.898 66.533 171.586 66.7852C171.358 66.9759 171.286 67.1479 171.331 67.1891Z" fill="#263238"/>
<path d="M178.941 67.3425C178.957 67.5267 179.044 67.6974 179.184 67.8187C179.324 67.9401 179.505 68.0027 179.69 67.9932C179.782 67.9918 179.872 67.9721 179.956 67.9351C180.04 67.8982 180.116 67.8449 180.179 67.7783C180.241 67.7117 180.29 67.6332 180.322 67.5474C180.354 67.4616 180.369 67.3703 180.365 67.2789C180.348 67.0947 180.261 66.924 180.121 66.8026C179.982 66.6812 179.8 66.6187 179.615 66.6281C179.523 66.629 179.433 66.6484 179.349 66.6852C179.264 66.7219 179.189 66.7752 179.126 66.8419C179.063 66.9086 179.014 66.9874 178.982 67.0734C178.95 67.1594 178.936 67.2509 178.941 67.3425Z" fill="#263238"/>
<path d="M178.716 66.7852C178.813 66.8675 179.315 66.4112 180.084 66.3439C180.852 66.2766 181.455 66.5982 181.53 66.4972C181.605 66.3962 181.459 66.2915 181.196 66.1232C180.841 65.9252 180.432 65.8416 180.027 65.8839C179.629 65.9236 179.253 66.0871 178.952 66.3514C178.746 66.572 178.679 66.7478 178.716 66.7852Z" fill="#263238"/>
<path d="M176.494 72.743C176.077 72.6562 175.65 72.6223 175.224 72.642C175.026 72.642 174.849 72.6196 174.79 72.4887C174.754 72.2874 174.78 72.0803 174.864 71.894C175.003 71.4041 175.149 70.8879 175.299 70.3456C175.899 68.1465 176.311 66.3438 176.221 66.3177C176.131 66.2915 175.576 68.068 174.969 70.2634C174.827 70.8057 174.688 71.3218 174.561 71.8192C174.46 72.0671 174.45 72.343 174.535 72.5971C174.57 72.6626 174.62 72.7193 174.68 72.7632C174.741 72.8072 174.81 72.8373 174.883 72.8514C174.995 72.8657 175.108 72.8657 175.22 72.8514C175.648 72.8709 176.076 72.8344 176.494 72.743Z" fill="#263238"/>
<path d="M178.251 64.4926C178.349 64.6945 179.106 64.5225 180.016 64.5412C180.927 64.5599 181.683 64.7394 181.785 64.5412C181.83 64.4477 181.683 64.2644 181.369 64.0924C180.953 63.8823 180.494 63.7698 180.028 63.7633C179.562 63.7568 179.1 63.8566 178.679 64.055C178.36 64.2196 178.21 64.3991 178.251 64.4926Z" fill="#263238"/>
<path d="M171.223 65.1284C171.376 65.2892 171.886 65.0573 172.523 64.9863C173.16 64.9152 173.71 64.9863 173.815 64.7955C173.86 64.702 173.759 64.5337 173.508 64.3916C173.172 64.2264 172.794 64.1638 172.422 64.2117C172.05 64.2596 171.701 64.4158 171.418 64.6609C171.223 64.8629 171.159 65.0499 171.223 65.1284Z" fill="#263238"/>
<path d="M35.3273 100.116L55.4057 150.232H111.763L93.8578 99.4429C93.7953 99.2624 93.678 99.106 93.5222 98.9953C93.3663 98.8847 93.1798 98.8254 92.9885 98.8257L36.1816 98.8631C36.0322 98.864 35.8852 98.901 35.7534 98.9711C35.6215 99.0412 35.5087 99.1422 35.4246 99.2655C35.3406 99.3888 35.2878 99.5306 35.2708 99.6788C35.2539 99.827 35.2733 99.977 35.3273 100.116Z" fill="#263238"/>
<path d="M38.4183 101.485L56.8557 146.365C56.8958 146.461 56.9635 146.542 57.0502 146.6C57.137 146.657 57.2388 146.687 57.3428 146.687H108.672C108.755 146.687 108.837 146.669 108.911 146.631C108.985 146.594 109.049 146.539 109.097 146.472C109.146 146.405 109.177 146.328 109.189 146.246C109.201 146.164 109.194 146.08 109.167 146.002L92.8312 101.122C92.7931 101.022 92.7254 100.936 92.6371 100.875C92.5487 100.814 92.4439 100.782 92.3366 100.782H38.9054C38.8206 100.78 38.7367 100.799 38.6611 100.838C38.5856 100.876 38.5208 100.933 38.4725 101.003C38.4243 101.072 38.3941 101.153 38.3846 101.237C38.3752 101.321 38.3867 101.406 38.4183 101.485Z" fill="#455A64"/>
<path d="M55.4057 150.228H55.9078H131.995V146.702H57.4888L55.4057 150.228Z" fill="#263238"/>
<path d="M143.497 101.421C143.497 101.421 144.902 99.6 143.954 97.5018C143.007 95.4037 140.455 93.0138 140.455 93.0138C139.706 92.8231 140.695 88.5969 141.126 87.1944C141.557 85.7919 141.073 85.0327 140.305 85.3244C139.784 85.5338 138.364 89.7862 137.971 91.1775C137.757 91.9255 137.357 93.4215 136.869 94.2518C136.465 94.9287 136 95.1419 135.532 94.0797C134.502 91.7385 132.846 90.3173 132.16 90.2387C131.474 90.1602 131.115 91.1326 131.703 91.6637C132.283 92.3021 132.774 93.0168 133.16 93.788C133.498 94.3943 133.731 95.053 133.85 95.7365C133.951 96.3275 134.022 96.8585 134.078 97.3298C134.206 98.505 134.196 99.6912 134.048 100.864L119.893 117.507L116.814 106.238L116.529 105.371L104.382 109.881C104.007 109.975 107.005 118.801 108.878 124.284C109.338 125.626 110.081 126.855 111.056 127.887C112.031 128.919 113.216 129.731 114.532 130.268C116.599 131.113 118.89 131.24 121.038 130.63C123.187 130.019 125.067 128.707 126.379 126.902L141.489 105.004L141.163 104.784L141.47 104.922L143.497 101.421Z" fill="#B78876"/>
<path d="M141.602 94.1021C141.578 94.2436 141.538 94.3817 141.482 94.5135L141.081 95.6094L140.47 97.24C140.368 97.5757 140.213 97.8927 140.009 98.1787C139.876 98.3357 139.692 98.4404 139.488 98.4742C139.38 98.4883 139.269 98.4744 139.168 98.4338C139.066 98.3932 138.977 98.3273 138.908 98.2423C138.775 98.0815 138.699 97.8819 138.69 97.6738C138.686 97.4848 138.708 97.2961 138.754 97.1128C138.84 96.765 138.93 96.4359 139.02 96.1217C139.204 95.4934 139.395 94.9399 139.571 94.4799C139.747 94.0199 139.904 93.6496 140.02 93.399C140.071 93.266 140.139 93.1402 140.223 93.025C140.193 93.1649 140.149 93.3015 140.092 93.4327C139.998 93.6907 139.859 94.0647 139.717 94.5285C139.575 94.9923 139.38 95.5495 139.207 96.1741C139.121 96.4883 139.035 96.8174 138.956 97.1577C138.898 97.3157 138.879 97.4852 138.899 97.6522C138.919 97.8193 138.979 97.9792 139.073 98.1189C139.12 98.1791 139.182 98.2262 139.253 98.2556C139.324 98.2851 139.401 98.2959 139.477 98.2872C139.634 98.2593 139.777 98.1789 139.882 98.0591C140.072 97.7891 140.218 97.4913 140.316 97.1764L140.968 95.5757L141.425 94.5023C141.47 94.3633 141.529 94.2292 141.602 94.1021Z" fill="#AA6550"/>
<path d="M143.033 95.744C143.016 95.8731 142.981 95.9991 142.928 96.118C142.849 96.3461 142.726 96.6715 142.553 97.0754C142.381 97.4793 142.216 97.9581 141.999 98.4891C141.893 98.7901 141.696 99.0512 141.437 99.2371C141.289 99.3383 141.114 99.3906 140.935 99.3867C140.746 99.3772 140.568 99.2971 140.436 99.1623C140.317 99.0341 140.227 98.8811 140.174 98.7143C140.121 98.5474 140.106 98.3709 140.129 98.1974C140.162 97.8944 140.224 97.5952 140.313 97.3036C140.447 96.8129 140.615 96.3319 140.815 95.8637C140.983 95.4672 141.141 95.1531 141.253 94.9361C141.303 94.8208 141.369 94.7126 141.448 94.6145C141.478 94.6145 141.249 95.1119 140.942 95.916C140.764 96.386 140.611 96.8655 140.485 97.3522C140.406 97.6339 140.351 97.9216 140.32 98.2124C140.3 98.3577 140.313 98.5056 140.356 98.6458C140.399 98.786 140.473 98.915 140.571 99.024C140.67 99.1185 140.8 99.1755 140.936 99.1851C141.073 99.1946 141.209 99.1562 141.321 99.0763C141.549 98.9114 141.722 98.6822 141.819 98.4181L142.411 97.0231C142.579 96.6266 142.722 96.3087 142.823 96.0881C142.876 95.9641 142.947 95.8483 143.033 95.744Z" fill="#AA6550"/>
<path d="M143.82 97.4083C143.759 97.7719 143.664 98.1288 143.535 98.4742C143.434 98.8033 143.321 99.1848 143.16 99.6149C143.086 99.8666 142.915 100.079 142.684 100.206C142.615 100.236 142.54 100.251 142.465 100.251C142.39 100.251 142.315 100.236 142.246 100.206C142.107 100.15 141.989 100.052 141.909 99.9253C141.777 99.6843 141.725 99.4084 141.759 99.1362C141.787 98.4851 141.955 97.8476 142.25 97.2662C142.373 97.024 142.519 96.7947 142.688 96.5817C142.808 96.4321 142.887 96.3573 142.898 96.3648C142.909 96.3723 142.651 96.7127 142.373 97.326C142.215 97.6857 142.098 98.0621 142.025 98.448C141.984 98.6741 141.959 98.9028 141.95 99.1324C141.925 99.3653 141.968 99.6005 142.074 99.8094C142.122 99.9023 142.203 99.9738 142.302 100.01C142.4 100.046 142.509 100.044 142.606 100.004C142.787 99.8978 142.921 99.7266 142.98 99.5251C143.123 99.1175 143.258 98.7435 143.381 98.4031C143.499 98.0597 143.645 97.7269 143.82 97.4083Z" fill="#AA6550"/>
<path d="M139.001 101.017C138.968 101.017 139.001 100.722 138.964 100.269C138.864 99.0507 138.293 97.9185 137.372 97.1129C137.019 96.8062 136.765 96.6603 136.78 96.6342C137.03 96.7076 137.262 96.8353 137.458 97.0082C137.958 97.3936 138.365 97.8859 138.65 98.449C138.934 99.012 139.089 99.6315 139.102 100.262C139.122 100.518 139.087 100.775 139.001 101.017Z" fill="#AA6550"/>
<path d="M60.3214 146.365L96.9563 146.552L97.4133 140.1L68.8338 127.407C66.3581 130.399 64.7145 133.989 64.068 137.815L60.3214 146.365Z" fill="#263238"/>
<path d="M77.6197 133.948C77.5241 134.085 77.4135 134.21 77.29 134.322C77.1563 134.466 77.0137 134.601 76.8629 134.726C76.6725 134.902 76.4723 135.066 76.2634 135.22C76.0163 135.414 75.7573 135.593 75.4879 135.755C75.1839 135.949 74.87 136.128 74.5474 136.289C73.0618 137.039 71.4304 137.456 69.7667 137.512C69.406 137.531 69.0446 137.531 68.6839 137.512C68.3701 137.498 68.0574 137.465 67.7472 137.415C67.4948 137.381 67.2446 137.333 66.9979 137.269C66.8046 137.234 66.6143 137.184 66.4284 137.12C66.266 137.083 66.1087 137.026 65.9601 136.951C65.9601 136.91 66.6457 137.138 67.781 137.28C68.062 137.31 68.3729 137.348 68.7064 137.352C69.0398 137.355 69.3995 137.352 69.7742 137.352C71.405 137.265 73.0017 136.852 74.4688 136.136C74.8022 135.964 75.1207 135.807 75.4054 135.627C75.6724 135.47 75.9312 135.299 76.181 135.115C77.1064 134.442 77.5897 133.918 77.6197 133.948Z" fill="#455A64"/>
<path d="M87.5821 145.823C87.7027 145.4 87.8504 144.985 88.0242 144.581C88.3352 143.773 88.7248 142.745 89.1482 141.611C89.5716 140.478 89.9875 139.457 90.3059 138.649C90.4502 138.233 90.6256 137.828 90.8305 137.438C90.7311 137.867 90.5983 138.289 90.4333 138.698C90.1635 139.446 89.7776 140.519 89.3318 141.69C88.8859 142.86 88.4626 143.893 88.1403 144.641C87.9792 145.015 87.8444 145.314 87.7432 145.52C87.7032 145.627 87.649 145.729 87.5821 145.823Z" fill="#455A64"/>
<path d="M87.7882 137.138C87.5778 137.237 87.4055 137.401 87.2973 137.606C87.2457 137.711 87.2217 137.828 87.2276 137.945C87.2335 138.062 87.2691 138.176 87.3311 138.275C87.4026 138.401 87.5106 138.501 87.6407 138.564C87.7709 138.626 87.917 138.648 88.0597 138.625C88.2024 138.603 88.3349 138.538 88.4397 138.439C88.5444 138.339 88.6164 138.211 88.6462 138.07C88.6746 137.956 88.6737 137.837 88.6436 137.724C88.6135 137.611 88.555 137.507 88.4738 137.423C88.3071 137.263 88.0952 137.158 87.8668 137.123C87.8668 137.123 87.9343 137.086 88.0654 137.093C88.2554 137.112 88.4336 137.193 88.5712 137.325C88.6792 137.423 88.759 137.548 88.8025 137.686C88.846 137.825 88.8515 137.973 88.8185 138.114C88.785 138.293 88.6967 138.457 88.5659 138.584C88.4351 138.71 88.2682 138.793 88.0881 138.821C87.9081 138.849 87.7238 138.821 87.5607 138.74C87.3976 138.659 87.2637 138.529 87.1775 138.369C87.1033 138.244 87.0641 138.101 87.0641 137.956C87.0641 137.81 87.1033 137.667 87.1775 137.542C87.2677 137.375 87.4115 137.244 87.5858 137.168C87.7095 137.12 87.7844 137.127 87.7882 137.138Z" fill="#455A64"/>
<path d="M112.565 91.7759C112.565 91.7759 117.923 107.506 117.619 108.15L106.78 111.115L112.565 91.7759Z" fill="#27B0C4"/>
<path opacity="0.2" d="M112.565 91.7759C112.565 91.7759 117.923 107.506 117.619 108.15L106.78 111.115L112.565 91.7759Z" fill="black"/>
<path d="M103.783 117.84L100.362 132.325L98.1402 140.43L68.8225 127.407L78.1292 112.447C78.1292 112.447 83.2247 91.6412 90.4146 87.7965C95.6412 84.999 100.081 85.9714 100.744 85.9714L106.99 86.8353C107.128 86.854 107.263 86.8765 107.398 86.9027C110.729 87.5572 112.988 90.6651 112.816 94.0461C112.681 96.7538 112.228 101.335 110.733 104.761C108.728 109.365 103.783 117.84 103.783 117.84Z" fill="#27B0C4"/>
<path d="M99.2267 137.179L99.0131 137.082C98.8041 136.985 98.6013 136.875 98.4062 136.753C97.6532 136.283 96.995 135.677 96.4654 134.965C95.6129 133.838 95.1125 132.485 95.0267 131.076C94.9729 130.192 95.1443 129.31 95.525 128.51C95.7319 128.072 96.022 127.678 96.3792 127.351C96.762 127.004 97.2346 126.773 97.743 126.681C98.1623 126.639 98.5859 126.68 98.9894 126.801C99.393 126.922 99.7686 127.122 100.095 127.388C100.421 127.655 100.691 127.983 100.89 128.354C101.089 128.725 101.212 129.131 101.254 129.55C101.3 130.157 101.189 130.767 100.931 131.319C100.665 131.898 100.274 132.412 99.7858 132.823C99.2973 133.233 98.7238 133.531 98.1065 133.694C96.791 134.024 95.4018 133.892 94.1725 133.32C92.9001 132.71 91.7869 131.814 90.9203 130.702C90.4626 130.143 90.0492 129.549 89.6839 128.925C89.3022 128.289 89.0168 127.599 88.8372 126.879C88.6541 126.144 88.6451 125.375 88.811 124.635C88.9784 123.869 89.3898 123.178 89.9837 122.665C90.2955 122.411 90.6552 122.223 91.0414 122.111C91.4276 121.999 91.8324 121.966 92.2317 122.014C92.6359 122.058 93.0224 122.204 93.3557 122.436C93.6815 122.679 93.9395 123.001 94.105 123.371C94.4196 124.121 94.4344 124.963 94.1462 125.724C93.8499 126.457 93.3526 127.092 92.7112 127.556C91.4786 128.41 90.053 128.946 88.5623 129.115C87.0715 129.284 85.562 129.081 84.1688 128.525C82.8688 127.968 81.7494 127.062 80.9355 125.907C80.1514 124.813 79.7094 123.512 79.6654 122.167C79.6477 121.521 79.752 120.878 79.9726 120.271C80.1872 119.677 80.5587 119.152 81.0479 118.752C81.5314 118.375 82.1206 118.157 82.7339 118.128C83.0306 118.109 83.3282 118.15 83.6092 118.247C83.8903 118.343 84.1492 118.495 84.3712 118.693C84.7831 119.089 85.0384 119.62 85.0905 120.189C85.1491 120.725 85.0691 121.267 84.8582 121.763C84.4237 122.671 83.6461 123.369 82.6964 123.704C81.8726 124.015 80.9994 124.175 80.1187 124.175C78.7111 124.194 77.316 123.911 76.0273 123.345C75.2172 122.99 74.4606 122.525 73.7793 121.961C73.5433 121.767 73.3747 121.61 73.2661 121.501C73.1574 121.393 73.1012 121.333 73.1012 121.333C73.1012 121.333 73.1649 121.382 73.281 121.486C73.3972 121.591 73.5658 121.744 73.8018 121.931C75.5974 123.352 77.8314 124.107 80.1225 124.067C80.9888 124.062 81.847 123.9 82.6552 123.588C83.0921 123.414 83.4992 123.173 83.8616 122.874C84.2425 122.562 84.5421 122.163 84.7346 121.711C84.9341 121.239 85.0089 120.724 84.9519 120.215C84.9008 119.681 84.6603 119.184 84.2738 118.812C84.0656 118.63 83.8234 118.491 83.561 118.402C83.2987 118.313 83.0214 118.277 82.7451 118.296C82.1639 118.323 81.6057 118.531 81.149 118.891C80.6856 119.275 80.3337 119.776 80.1299 120.342C79.9185 120.929 79.8207 121.551 79.8415 122.175C79.8859 123.487 80.3187 124.757 81.0853 125.825C81.8802 126.955 82.9754 127.841 84.2475 128.383C85.609 128.926 87.0844 129.124 88.5413 128.958C89.9982 128.793 91.3911 128.268 92.5951 127.433C93.2074 126.991 93.6827 126.386 93.9664 125.686C94.2373 124.975 94.2239 124.186 93.9289 123.484C93.7771 123.14 93.5366 122.843 93.232 122.623C92.9231 122.416 92.5681 122.288 92.198 122.249C91.8282 122.209 91.4541 122.242 91.0973 122.347C90.7404 122.452 90.4078 122.626 90.1186 122.859C89.5513 123.345 89.157 124.001 88.9946 124.729C88.8333 125.443 88.841 126.184 89.017 126.894C89.3617 128.316 90.1897 129.546 91.0627 130.634C91.9107 131.725 92.9992 132.605 94.2436 133.208C95.4347 133.764 96.781 133.896 98.0577 133.582C98.6519 133.427 99.2041 133.142 99.6745 132.748C100.145 132.354 100.522 131.861 100.778 131.304C101.028 130.779 101.137 130.197 101.093 129.617C101.055 129.218 100.939 128.831 100.751 128.477C100.563 128.122 100.307 127.809 99.9981 127.553C99.6888 127.298 99.332 127.106 98.9483 126.989C98.5645 126.871 98.1613 126.83 97.7618 126.868C97.2776 126.953 96.8271 127.172 96.4617 127.5C96.1155 127.818 95.8332 128.199 95.6299 128.622C95.2571 129.402 95.0858 130.262 95.1316 131.124C95.2074 132.517 95.6921 133.857 96.5254 134.977C97.0438 135.688 97.6874 136.298 98.4249 136.779C98.6162 136.903 98.8138 137.017 99.0169 137.12L99.2267 137.179Z" fill="#FAFAFA"/>
<path d="M108.024 109.238C108.024 109.238 107.998 109.212 107.953 109.156L107.754 108.909C107.512 108.581 107.302 108.23 107.128 107.862C106.501 106.482 106.336 104.937 106.656 103.456C106.864 102.426 107.341 101.47 108.039 100.685C108.248 100.471 108.505 100.309 108.788 100.213C108.938 100.165 109.097 100.148 109.254 100.163C109.411 100.177 109.564 100.224 109.702 100.299C109.982 100.458 110.204 100.7 110.339 100.991C110.469 101.286 110.536 101.604 110.538 101.926C110.526 103.266 110.057 104.561 109.208 105.599C108.768 106.15 108.231 106.617 107.623 106.975C106.995 107.354 106.281 107.565 105.547 107.589C104.804 107.595 104.084 107.329 103.524 106.841C102.983 106.377 102.574 105.778 102.34 105.105C102.119 104.463 102.011 103.787 102.022 103.108C102.01 102.459 102.091 101.812 102.262 101.186C102.352 100.879 102.497 100.592 102.689 100.337C102.88 100.075 103.159 99.8921 103.475 99.8206C103.786 99.7604 104.108 99.8178 104.378 99.9814C104.63 100.138 104.845 100.347 105.008 100.595C105.16 100.825 105.275 101.077 105.349 101.343C105.421 101.602 105.46 101.87 105.465 102.139C105.475 102.643 105.391 103.144 105.218 103.617C104.918 104.428 104.424 105.153 103.779 105.73C103.299 106.161 102.779 106.545 102.224 106.874C101.767 107.147 101.404 107.338 101.156 107.465L100.875 107.607C100.844 107.626 100.81 107.642 100.774 107.652L100.864 107.592L101.138 107.432C101.377 107.293 101.737 107.091 102.183 106.811C102.726 106.473 103.236 106.083 103.704 105.648C104.326 105.077 104.8 104.365 105.087 103.572C105.25 103.114 105.327 102.629 105.315 102.143C105.309 101.89 105.269 101.638 105.195 101.395C105.128 101.14 105.02 100.897 104.873 100.677C104.725 100.449 104.526 100.258 104.292 100.12C104.06 99.9761 103.781 99.9266 103.513 99.9814C102.958 100.094 102.606 100.662 102.43 101.231C102.271 101.841 102.195 102.47 102.205 103.101C102.199 103.758 102.305 104.412 102.52 105.034C102.743 105.673 103.13 106.242 103.644 106.684C104.17 107.141 104.846 107.39 105.544 107.383C106.242 107.358 106.923 107.156 107.522 106.796C108.11 106.449 108.631 106 109.058 105.468C109.879 104.465 110.335 103.214 110.354 101.919C110.355 101.621 110.294 101.327 110.174 101.055C110.057 100.797 109.862 100.581 109.616 100.438C109.497 100.373 109.367 100.333 109.233 100.32C109.098 100.306 108.962 100.32 108.833 100.359C108.578 100.449 108.348 100.596 108.159 100.789C107.471 101.553 106.996 102.482 106.78 103.486C106.591 104.309 106.556 105.159 106.675 105.995C106.762 106.627 106.933 107.245 107.185 107.832C107.353 108.198 107.55 108.551 107.773 108.886L107.956 109.144C108.009 109.208 108.028 109.234 108.024 109.238Z" fill="#FAFAFA"/>
<path d="M99.0506 104.836C99.0506 104.836 99.0506 118.135 102.385 119.396C111.456 122.822 122.306 122.032 126.124 121.673C126.581 121.356 127.109 120.967 127.709 120.48L128.972 119.429C128.972 119.429 134.966 120.57 134.876 120.884C134.786 121.198 132.538 121.924 130.223 121.404C130.155 121.531 130.115 121.672 130.107 121.816C130.098 121.96 130.121 122.104 130.174 122.239C130.227 122.373 130.308 122.494 130.412 122.594C130.516 122.694 130.641 122.771 130.777 122.818C132.302 123.566 137.705 125.844 138.563 126.36C139.312 126.82 140.032 127.575 139.177 127.627C138.323 127.68 133.778 126.562 133.778 126.562C133.778 126.562 139.773 127.908 139.526 128.768C139.361 129.363 137.701 129.49 133.835 128.207C133.835 128.207 138.754 129.352 139.222 129.928C140.283 131.222 134.352 129.898 134.352 129.898C138.499 130.863 138.473 130.646 138.473 131.218C138.473 131.652 137.495 131.73 135.187 131.528C133.314 131.364 131.339 131.569 128.469 131.476C128.469 131.476 91.4187 138.062 88.0467 121.744C86.2258 112.944 86.548 109.698 86.1733 104.013" fill="#B78876"/>
<path d="M131.838 129.378C131.812 129.479 133.074 129.827 134.655 130.156C136.236 130.485 137.529 130.657 137.548 130.552C137.566 130.447 136.304 130.1 134.734 129.774C133.164 129.449 131.883 129.273 131.838 129.378Z" fill="#AA6550"/>
<path d="M132.04 127.747C132.014 127.852 133.336 128.297 134.992 128.746C136.648 129.195 138.02 129.471 138.046 129.367C138.072 129.262 136.753 128.817 135.094 128.372C133.434 127.927 132.07 127.646 132.04 127.747Z" fill="#AA6550"/>
<path d="M132.257 126.057C132.227 126.161 133.471 126.603 135.034 127.048C136.596 127.493 137.889 127.77 137.919 127.665C137.949 127.56 136.705 127.119 135.142 126.674C133.58 126.229 132.291 125.956 132.257 126.057Z" fill="#AA6550"/>
<path d="M92.2167 91.8245C91.0166 91.7199 89.81 91.9319 88.7178 92.4393C87.6256 92.9466 86.6861 93.7316 85.9935 94.7155C84.7346 96.4733 83.5769 99.3007 84.1464 103.493C85.2704 111.676 86.1658 114.407 86.1658 114.407L101.231 112.024L99.1705 98.2984C99.1705 98.2984 97.3534 92.3406 92.2167 91.8245Z" fill="#27B0C4"/>
<path opacity="0.2" d="M92.2167 91.8245C91.0166 91.7199 89.81 91.9319 88.7178 92.4393C87.6256 92.9466 86.6861 93.7316 85.9935 94.7155C84.7346 96.4733 83.5769 99.3007 84.1464 103.493C85.2704 111.676 86.1658 114.407 86.1658 114.407L101.231 112.024L99.1705 98.2984C99.1705 98.2984 97.3534 92.3406 92.2167 91.8245Z" fill="black"/>
<path d="M130.174 119.68C130.066 119.676 129.958 119.662 129.852 119.639C129.642 119.605 129.327 119.542 128.934 119.486C128.72 119.503 128.517 119.584 128.35 119.717C128.133 119.865 127.927 120.026 127.731 120.2C127.255 120.629 126.803 121.084 126.379 121.565C125.212 121.907 124.005 122.09 122.79 122.111C121.359 122.128 119.928 122.069 118.503 121.935C115.049 121.692 111.909 121.501 109.654 121.187C108.53 121.038 107.619 120.881 106.997 120.75C106.683 120.69 106.447 120.626 106.282 120.589C106.197 120.573 106.114 120.549 106.034 120.518C106.12 120.519 106.206 120.53 106.289 120.551L107.009 120.675C107.634 120.783 108.545 120.918 109.672 121.049C111.92 121.326 115.056 121.498 118.518 121.741C120.017 121.857 121.459 121.961 122.786 121.928C123.986 121.913 125.178 121.742 126.334 121.419L126.3 121.442C126.733 120.962 127.196 120.51 127.686 120.088C127.888 119.911 128.104 119.751 128.331 119.609C128.517 119.466 128.744 119.385 128.979 119.377C129.384 119.452 129.683 119.527 129.893 119.572C129.99 119.599 130.084 119.635 130.174 119.68Z" fill="#AA6550"/>
<path d="M100.197 104.365C100.16 104.381 100.121 104.392 100.081 104.398L99.7325 104.473L99.1593 104.529C98.8953 104.535 98.6312 104.524 98.3687 104.496C97.1926 104.363 96.0839 103.88 95.1878 103.108C94.7972 102.785 94.4553 102.407 94.1725 101.986C93.8494 101.526 93.6121 101.012 93.4718 100.468C93.3991 100.174 93.3751 99.8711 93.4007 99.57C93.4237 99.2465 93.5468 98.9381 93.7528 98.6874C93.8676 98.5626 94.0064 98.4622 94.1609 98.3922C94.3154 98.3221 94.4824 98.2839 94.6521 98.2797C94.993 98.2795 95.3289 98.363 95.6299 98.5228C96.2494 98.862 96.7482 99.3847 97.0574 100.019C97.3867 100.675 97.5342 101.407 97.4845 102.139C97.4408 102.906 97.1652 103.642 96.694 104.249C96.1958 104.879 95.546 105.373 94.8051 105.685C94.0642 105.997 93.2562 106.116 92.4565 106.033C91.6615 105.928 90.8977 105.656 90.2147 105.237C89.5317 104.817 88.9449 104.259 88.4925 103.598C88.0343 102.985 87.7461 102.263 87.657 101.504C87.6157 101.125 87.6592 100.742 87.7844 100.382C87.9116 100.035 88.1197 99.7233 88.3914 99.4728C88.654 99.2204 88.9871 99.0535 89.3468 98.9941C89.6982 98.9392 90.058 98.9982 90.3734 99.1624C90.6685 99.3192 90.926 99.5382 91.1278 99.8043C91.3297 100.07 91.4711 100.377 91.5423 100.703C91.6811 101.3 91.6811 101.92 91.5423 102.517C91.4164 103.064 91.1998 103.586 90.9016 104.062C90.454 104.78 89.8228 105.367 89.0727 105.761C88.3227 106.156 87.481 106.344 86.6342 106.306C86.1763 106.291 85.723 106.209 85.2891 106.063C85.1379 106.014 84.9912 105.953 84.8508 105.879C84.8508 105.879 85.0044 105.939 85.3041 106.025C85.736 106.154 86.1836 106.222 86.6342 106.227C87.3471 106.244 88.0548 106.102 88.7061 105.812C89.5666 105.423 90.2898 104.784 90.7817 103.979C91.0699 103.519 91.2776 103.013 91.3962 102.483C91.5274 101.91 91.5274 101.314 91.3962 100.741C91.3297 100.439 91.198 100.155 91.0104 99.9085C90.8227 99.6624 90.5836 99.4601 90.3097 99.3157C90.0251 99.1683 89.7008 99.1159 89.3842 99.1661C89.06 99.2238 88.7601 99.3761 88.5225 99.6037C88.2744 99.8356 88.0844 100.123 87.968 100.441C87.8559 100.772 87.8163 101.123 87.8518 101.47C87.9442 102.196 88.2215 102.886 88.6574 103.475C89.0923 104.114 89.6568 104.655 90.3145 105.063C90.9722 105.471 91.7083 105.736 92.4752 105.842C93.2419 105.923 94.0167 105.809 94.7274 105.511C95.4382 105.213 96.0619 104.74 96.5404 104.137C96.9709 103.564 97.2324 102.883 97.2953 102.17C97.3582 101.456 97.22 100.74 96.8963 100.101C96.7442 99.8017 96.5513 99.5248 96.3231 99.2783C96.0989 99.0417 95.8383 98.8422 95.5512 98.6874C95.2765 98.5379 94.9687 98.4595 94.6558 98.4592C94.5089 98.4606 94.3639 98.4922 94.2298 98.552C94.0957 98.6119 93.9754 98.6987 93.8765 98.8071C93.6904 99.0305 93.579 99.3064 93.558 99.5962C93.5326 99.8806 93.5528 100.167 93.618 100.445C93.7514 100.972 93.9772 101.471 94.2849 101.919C94.5581 102.337 94.8885 102.714 95.2665 103.041C95.6013 103.331 95.9684 103.582 96.3605 103.789C96.9892 104.125 97.6732 104.345 98.38 104.44C98.9859 104.509 99.5989 104.484 100.197 104.365Z" fill="#FAFAFA"/>
<path d="M92.2729 62.8769C92.0001 62.1083 91.518 61.431 90.8807 60.9209C90.2434 60.4109 89.4762 60.0884 88.6654 59.9897C87.8546 59.891 87.0323 60.02 86.2909 60.3622C85.5495 60.7045 84.9184 61.2463 84.4686 61.927C83.8991 62.7872 83.6556 63.7969 83.2959 64.788C82.9362 65.7791 82.4079 66.7403 81.4975 67.2303C80.4334 67.8062 79.0322 67.6043 78.0655 68.3523C76.9865 69.1564 76.9415 70.9329 77.8632 71.9277C78.7849 72.9226 80.3398 73.1395 81.6099 72.642C81.303 73.4282 81.1295 74.2599 81.0966 75.103C81.084 75.5257 81.1758 75.9451 81.364 76.3241C81.5522 76.703 81.8309 77.0299 82.1756 77.2759C82.5533 77.4777 82.9765 77.5796 83.4048 77.5717C83.8331 77.5639 84.2522 77.4466 84.6222 77.231C85.3594 76.7924 85.9922 76.199 86.4768 75.4919C86.5981 76.0864 86.8064 76.6597 87.095 77.1936C87.2411 77.4594 87.4429 77.6905 87.6866 77.8713C87.9304 78.052 88.2104 78.1781 88.5075 78.2408C88.879 78.2728 89.2523 78.203 89.587 78.0389C89.9217 77.8748 90.2053 77.6226 90.4071 77.3096C90.8017 76.6756 91.0369 75.9558 91.0927 75.2114C91.3096 73.3838 91.1902 71.5321 90.7405 69.7473C90.4595 68.6029 90.0624 67.4322 90.2834 66.2766C90.5045 65.1209 91.6435 64.0326 92.7712 64.3841" fill="#263238"/>
<path d="M77.5035 70.7645C77.5616 70.8052 77.6262 70.8355 77.6946 70.8543C77.8843 70.923 78.0783 70.9792 78.2754 71.0226C79.1881 71.2157 80.1344 71.1839 81.032 70.9297C81.9297 70.6755 82.7518 70.2068 83.427 69.564C83.9044 69.1083 84.3021 68.5761 84.6035 67.9894C84.91 67.3568 85.1318 66.6865 85.2629 65.996C85.3848 65.3262 85.5679 64.669 85.8099 64.0325C86.0418 63.4568 86.4313 62.9578 86.9339 62.5926C87.3617 62.2852 87.8513 62.0742 88.3688 61.9741C88.8863 61.874 89.4194 61.8872 89.9312 62.0129C90.629 62.1935 91.2721 62.5414 91.8046 63.0265C92.1792 63.3705 92.3516 63.6099 92.3741 63.5912C92.3965 63.5725 92.3478 63.5201 92.2729 63.4042C92.161 63.2396 92.0357 63.0845 91.8982 62.9404C91.3726 62.4054 90.7147 62.0183 89.9912 61.8184C89.4462 61.6683 88.8747 61.6405 88.3176 61.7368C87.7605 61.8332 87.2317 62.0513 86.769 62.3757C86.2212 62.7672 85.7952 63.3052 85.5401 63.9278C85.2854 64.5801 85.0935 65.2551 84.9669 65.9437C84.8418 66.6086 84.6315 67.2547 84.3412 67.866C83.9564 68.6204 83.4086 69.2802 82.7374 69.7976C82.0661 70.315 81.2882 70.6772 80.4597 70.858C79.7501 71.0093 79.0192 71.0321 78.3016 70.9253C77.7883 70.8281 77.511 70.7383 77.5035 70.7645Z" fill="#455A64"/>
<path d="M87.3835 77.6723C87.3835 77.6723 87.4397 77.6462 87.5334 77.5714C87.6754 77.4651 87.8015 77.3391 87.908 77.1974C88.2893 76.6803 88.5201 76.0681 88.5749 75.4283C88.6588 74.4901 88.5504 73.5446 88.2565 72.6495C87.9717 71.6397 87.5334 70.5701 87.3648 69.4032C87.1939 68.3093 87.4113 67.1901 87.9792 66.2392C88.4393 65.4593 89.1196 64.8323 89.935 64.4365C90.4874 64.168 91.084 64.002 91.6959 63.9465C91.9239 63.9428 92.1516 63.9266 92.3778 63.8979C92.1543 63.8322 91.9206 63.8081 91.6884 63.8269C91.052 63.8382 90.4247 63.9794 89.8451 64.242C88.9705 64.63 88.2348 65.2744 87.7357 66.0896C87.1185 67.0964 86.8795 68.2893 87.0613 69.4556C87.2374 70.6786 87.6907 71.7519 87.9867 72.7393C88.2843 73.5992 88.4116 74.5087 88.3614 75.4171C88.3325 76.0284 88.1439 76.6215 87.8144 77.1375C87.5558 77.4928 87.361 77.6499 87.3835 77.6723Z" fill="#455A64"/>
<path d="M112.4 70.585C115.337 63.8044 111.31 59.6754 108.687 58.1944C107.125 57.3118 105.266 57.1248 103.475 57.0724C101.702 56.987 99.925 57.1494 98.1964 57.5549C96.4611 57.9654 94.8769 58.8559 93.6255 60.1242C91.4786 62.4206 91.0028 65.8203 91.1901 68.9544C91.4223 72.6606 92.4918 76.2663 94.3186 79.5012C94.5209 79.9347 94.8384 80.3047 95.2365 80.5708C95.4396 80.6953 95.6816 80.7404 95.9161 80.6976C96.1505 80.6548 96.3608 80.5271 96.5066 80.3389" fill="#263238"/>
<path d="M107.364 87.516L107.256 83.948C107.256 83.948 111.433 83.2561 112.299 77.8144C112.73 75.1067 112.595 70.671 112.366 67.0432C112.318 66.2677 112.112 65.5102 111.762 64.8162C111.412 64.1223 110.924 63.5064 110.329 63.0058C109.734 62.5053 109.043 62.1304 108.298 61.9038C107.554 61.6772 106.771 61.6036 105.997 61.6876L96.5441 62.6861C96.0663 62.7358 95.6246 62.9629 95.3067 63.3225C94.9889 63.682 94.818 64.1478 94.8281 64.6272L96.0833 87.9835C96.1563 89.4215 96.7806 90.7765 97.8267 91.7679C98.8728 92.7592 100.261 93.3111 101.703 93.3093C102.46 93.3152 103.211 93.1683 103.91 92.8775C104.609 92.5867 105.242 92.1578 105.77 91.6167C106.299 91.0757 106.713 90.4335 106.987 89.7288C107.261 89.0241 107.389 88.2715 107.364 87.516Z" fill="#B78876"/>
<path d="M111.422 70.1175C111.423 70.2996 111.354 70.475 111.228 70.6068C111.102 70.7386 110.93 70.8166 110.748 70.8244C110.659 70.831 110.569 70.8198 110.484 70.7915C110.399 70.7632 110.321 70.7183 110.254 70.6595C110.186 70.6007 110.131 70.5291 110.092 70.4489C110.053 70.3687 110.03 70.2815 110.025 70.1923C110.024 70.0106 110.093 69.8357 110.219 69.7044C110.345 69.5732 110.517 69.496 110.699 69.4892C110.788 69.4821 110.878 69.4928 110.962 69.5207C111.047 69.5485 111.126 69.593 111.193 69.6516C111.26 69.7101 111.315 69.7815 111.355 69.8615C111.394 69.9415 111.417 70.0285 111.422 70.1175Z" fill="#263238"/>
<path d="M111.403 69.3359C111.313 69.4256 110.785 69.0329 110.032 69.0367C109.279 69.0404 108.728 69.4107 108.65 69.3209C108.571 69.2312 108.695 69.1152 108.938 68.9469C109.267 68.7176 109.661 68.5973 110.062 68.6028C110.452 68.602 110.833 68.7251 111.149 68.9544C111.366 69.1302 111.445 69.2947 111.403 69.3359Z" fill="#263238"/>
<path d="M103.884 70.312C103.885 70.4941 103.815 70.6695 103.69 70.8013C103.564 70.9331 103.392 71.0111 103.209 71.0189C103.12 71.0255 103.031 71.0143 102.946 70.986C102.861 70.9577 102.783 70.9128 102.715 70.854C102.648 70.7952 102.593 70.7236 102.554 70.6434C102.514 70.5631 102.492 70.4759 102.486 70.3868C102.485 70.2051 102.555 70.0301 102.681 69.8989C102.807 69.7677 102.979 69.6905 103.161 69.6837C103.25 69.6771 103.339 69.6881 103.424 69.7162C103.508 69.7443 103.586 69.7888 103.654 69.8472C103.721 69.9057 103.776 69.9768 103.815 70.0566C103.855 70.1364 103.878 70.2232 103.884 70.312Z" fill="#263238"/>
<path d="M104.007 69.4742C103.921 69.564 103.389 69.175 102.64 69.175C101.891 69.175 101.336 69.549 101.254 69.463C101.171 69.377 101.302 69.2573 101.542 69.089C101.872 68.861 102.265 68.742 102.666 68.7487C103.057 68.7493 103.439 68.8723 103.756 69.1002C103.97 69.2685 104.049 69.4331 104.007 69.4742Z" fill="#263238"/>
<path d="M106.739 75.0431C107.135 74.9179 107.545 74.8437 107.96 74.8225C108.151 74.8038 108.335 74.7664 108.365 74.6355C108.382 74.4374 108.337 74.2389 108.237 74.067L107.668 72.6046C106.881 70.5252 106.308 68.816 106.394 68.7861C106.48 68.7562 107.185 70.4167 107.975 72.4924C108.162 73.0086 108.35 73.4948 108.518 73.9623C108.638 74.1925 108.673 74.4567 108.62 74.7103C108.592 74.7786 108.549 74.8396 108.494 74.8883C108.438 74.937 108.372 74.9721 108.301 74.9908C108.195 75.0205 108.085 75.0356 107.975 75.0356C107.565 75.0889 107.15 75.0914 106.739 75.0431Z" fill="#263238"/>
<path d="M107.256 83.9294C104.69 83.968 102.163 83.2948 99.9573 81.9846C99.9573 81.9846 101.73 85.7246 107.185 85.2122L107.256 83.9294Z" fill="#AA6550"/>
<path d="M106.405 76.8532C106.262 76.6729 106.075 76.532 105.862 76.4436C105.649 76.3553 105.417 76.3225 105.188 76.3483C105.022 76.3642 104.861 76.413 104.714 76.492C104.567 76.571 104.438 76.6786 104.333 76.8084C104.233 76.9333 104.173 77.086 104.162 77.2459C104.152 77.4058 104.19 77.5651 104.273 77.7022C104.395 77.837 104.554 77.9328 104.73 77.9774C104.906 78.022 105.091 78.0134 105.263 77.9528C105.617 77.8256 105.943 77.6299 106.222 77.3768C106.308 77.3179 106.381 77.243 106.439 77.1562C106.467 77.1146 106.481 77.0658 106.481 77.0159C106.481 76.9661 106.467 76.9173 106.439 76.8757" fill="#AA6550"/>
<path d="M104.532 75.548C104.652 75.548 104.656 76.3558 105.353 76.9318C106.049 77.5077 106.922 77.4217 106.93 77.5377C106.93 77.5863 106.735 77.6947 106.368 77.706C105.889 77.7116 105.423 77.5487 105.053 77.2459C104.696 76.9577 104.468 76.5414 104.416 76.0865C104.378 75.7612 104.468 75.548 104.532 75.548Z" fill="#263238"/>
<path d="M104.345 68.1578C104.273 68.3635 103.52 68.2662 102.64 68.3747C101.759 68.4831 101.04 68.7188 100.924 68.5355C100.871 68.4495 100.995 68.255 101.299 68.0605C101.681 67.8136 102.116 67.6611 102.569 67.6155C103.021 67.5597 103.48 67.6136 103.906 67.7725C104.214 67.9034 104.378 68.068 104.345 68.1578Z" fill="#263238"/>
<path d="M111.126 67.1592C110.991 67.3313 110.474 67.1592 109.852 67.1592C109.23 67.1592 108.702 67.2714 108.578 67.0919C108.526 67.0059 108.608 66.8376 108.841 66.673C109.148 66.4747 109.51 66.3779 109.875 66.3962C110.24 66.402 110.595 66.5209 110.89 66.7366C111.111 66.9011 111.182 67.0769 111.126 67.1592Z" fill="#263238"/>
<path d="M112.366 67.0245C111.415 62.3869 110.118 64.2233 108.653 62.0092C106.533 64.1522 101.651 66.6206 98.6722 67.1068C98.3631 67.1298 98.0638 67.2259 97.7993 67.3873C97.3422 67.7276 97.3047 68.3859 97.3047 68.9581C97.3643 70.5701 97.231 72.1835 96.9076 73.764C96.5817 75.354 95.7686 76.8035 94.5809 77.9117C92.7825 74.1305 92.6027 69.7323 93.4082 65.622C93.7379 63.9428 94.2924 62.185 95.6337 61.134C96.5929 60.386 97.8292 60.0644 99.0357 59.8437C102.014 59.2977 105.165 59.1668 108.001 60.2177C110.838 61.2687 113.041 62.5851 113.419 65.5846" fill="#263238"/>
<path d="M91.7671 63.767C91.957 63.9012 92.162 64.0129 92.3778 64.0999C92.6193 64.2202 92.8698 64.3215 93.1271 64.4028L93.6067 64.5711L94.1612 64.7095C95.0756 64.9263 96.0094 65.0515 96.9487 65.0835C99.2558 65.1697 101.556 64.788 103.711 63.9615C104.199 63.7446 104.671 63.5688 105.083 63.3332L105.682 63.0115L106.214 62.6712C106.518 62.477 106.809 62.2621 107.083 62.0279L107.428 61.7511L107.69 61.4856C107.861 61.3298 108.016 61.1569 108.151 60.9695C108.103 60.9171 107.439 61.6576 106.094 62.4879L105.566 62.8058L104.967 63.105C104.558 63.3294 104.09 63.479 103.61 63.6959C102.547 64.0823 101.451 64.3727 100.336 64.5636C99.2208 64.7415 98.0926 64.8228 96.9637 64.8067C96.0396 64.7856 95.1192 64.6817 94.2137 64.4963C92.67 64.1747 91.7933 63.7072 91.7671 63.767Z" fill="#455A64"/>
<path d="M93.3107 60.1018C93.4511 60.2449 93.6084 60.3705 93.7791 60.4758C93.9702 60.6177 94.1733 60.7429 94.386 60.8498L94.7794 61.063L95.2403 61.2575C96.947 61.9158 98.7648 62.2396 100.594 62.2112C102.413 62.2149 104.227 62.0129 106.001 61.609C106.683 61.4557 107.226 61.3023 107.593 61.1789C107.79 61.132 107.981 61.059 108.159 60.962C108.159 60.9134 107.316 61.1415 105.959 61.3958C104.191 61.7333 102.395 61.9036 100.594 61.9045C98.7997 61.93 97.0145 61.6427 95.3189 61.0555C94.6337 60.7719 93.9635 60.4535 93.3107 60.1018Z" fill="#455A64"/>
<path d="M110.062 58.92C110.062 58.8863 109.875 58.8489 109.583 58.92C109.203 59.0319 108.865 59.2543 108.613 59.5588C108.361 59.8633 108.205 60.2359 108.166 60.6292C108.148 60.9284 108.219 61.1041 108.256 61.1004C108.294 61.0966 108.309 60.3823 108.848 59.754C109.388 59.1257 110.077 59.006 110.062 58.92Z" fill="#455A64"/>
<path d="M81.9021 64.7806C81.8626 64.7052 81.8077 64.639 81.741 64.5861C81.5516 64.4213 81.3163 64.3182 81.0666 64.2906C80.6733 64.2437 80.2759 64.3349 79.9426 64.5487C79.7142 64.6932 79.531 64.8988 79.4138 65.1421C79.2966 65.3854 79.25 65.6566 79.2795 65.925C79.3154 66.2477 79.4292 66.5569 79.6113 66.826C79.7934 67.095 80.0383 67.3159 80.3248 67.4696C80.6651 67.6281 81.0422 67.6913 81.4157 67.6525C81.7892 67.6136 82.1451 67.4741 82.4454 67.2489C82.778 67.0188 83.0473 66.7089 83.2285 66.3476C83.401 65.971 83.499 65.5646 83.5169 65.1508C83.5731 64.328 83.4308 63.4977 83.5806 62.6899C83.7397 61.9282 84.0904 61.2196 84.5997 60.6307C85.109 60.0418 85.7602 59.5921 86.4918 59.3239C87.0944 59.1181 87.736 59.0516 88.3681 59.1293C89.0003 59.2071 89.6065 59.427 90.1411 59.7727C90.8792 60.233 91.4756 60.8879 91.8645 61.6651C92.1343 62.2187 92.1905 62.5665 92.2392 62.559C92.2435 62.4744 92.2333 62.3896 92.2092 62.3084C92.1609 62.0704 92.0868 61.8384 91.9882 61.6165C91.626 60.7895 91.0295 60.0862 90.2722 59.5932C89.7501 59.2477 89.1642 59.0099 88.5487 58.8938C87.8345 58.7638 87.0988 58.8205 86.4131 59.0584C85.6293 59.3347 84.9301 59.8083 84.3834 60.4333C83.8366 61.0584 83.4608 61.8137 83.2921 62.6263C83.1348 63.5089 83.2921 64.3467 83.2322 65.1246C83.2191 65.4993 83.1325 65.8678 82.9774 66.2092C82.8226 66.5288 82.5893 66.8041 82.2993 67.0096C82.0405 67.2085 81.733 67.3346 81.4088 67.3747C81.0846 67.4149 80.7556 67.3675 80.4559 67.2377C80.2024 67.1057 79.9844 66.9148 79.8201 66.6812C79.6558 66.4475 79.55 66.1779 79.5118 65.8951C79.4804 65.663 79.5143 65.4269 79.6096 65.2129C79.7048 64.9989 79.8578 64.8156 80.0513 64.6833C80.3524 64.4748 80.7161 64.3757 81.0816 64.4028C81.3875 64.4415 81.6741 64.5734 81.9021 64.7806Z" fill="#263238"/>
<path d="M96.2181 67.234C96.4034 67.277 96.5941 67.2921 96.7839 67.2789C97.1586 67.2789 97.6793 67.2789 98.335 67.2789C100.051 67.2503 101.752 66.9576 103.378 66.4112C105.022 65.8406 106.457 64.792 107.499 63.4005C107.804 62.9769 108.05 62.5139 108.23 62.0242C108.306 61.848 108.354 61.6613 108.372 61.4706C108.08 62.1029 107.729 62.7065 107.323 63.2733C106.266 64.5817 104.863 65.5689 103.273 66.1232C101.673 66.6574 100.008 66.9744 98.3238 67.0657C97.6193 67.0832 96.9164 67.1393 96.2181 67.234Z" fill="#263238"/>
<path d="M88.4813 80.5259C88.4813 80.5259 88.5 80.7466 88.7398 81.0421C88.9161 81.2465 89.1322 81.413 89.3751 81.5313C89.6179 81.6496 89.8824 81.7173 90.1523 81.7302C90.9602 81.7519 91.7444 81.4565 92.3366 80.9074C92.7104 80.5864 92.9486 80.1362 93.0035 79.647C93.033 79.3748 92.9812 79.0999 92.8545 78.8569C92.7278 78.614 92.532 78.414 92.2916 78.2819C92.0323 78.1617 91.7361 78.1477 91.4665 78.2427C91.1969 78.3378 90.9753 78.5344 90.8492 78.7906C90.7991 78.9186 90.7781 79.0562 90.7879 79.1933C90.7976 79.3305 90.8377 79.4637 90.9054 79.5835C91.0232 79.808 91.2114 79.9879 91.4411 80.0958C91.8543 80.2691 92.3185 80.2772 92.7375 80.1183C93.0923 79.9952 93.4123 79.7886 93.6704 79.5161C94.0491 79.134 94.2924 78.6389 94.3635 78.1062C94.4037 77.9158 94.3921 77.7182 94.3298 77.5339C94.3036 77.5339 94.3298 77.7396 94.2474 78.0875C94.1363 78.5748 93.8834 79.0185 93.5205 79.3628C93.2769 79.5998 92.9802 79.7755 92.655 79.8752C92.3003 80.0011 91.9111 79.989 91.5648 79.8415C91.3903 79.7655 91.2496 79.6286 91.169 79.4565C91.0883 79.2844 91.0732 79.0889 91.1264 78.9065C91.2237 78.7287 91.3846 78.5941 91.577 78.5296C91.7695 78.4651 91.9792 78.4755 92.1642 78.5587C92.3481 78.6659 92.4969 78.8239 92.5927 79.0138C92.6884 79.2036 92.727 79.4171 92.7038 79.6283C92.6542 80.0437 92.4543 80.4268 92.1418 80.7055C91.6066 81.2143 90.8988 81.5029 90.1598 81.5133C89.6614 81.5053 89.1847 81.3088 88.826 80.9635C88.5787 80.7092 88.5075 80.5147 88.4813 80.5259Z" fill="#263238"/>
<path d="M119.74 146.701C119.74 146.754 106.139 146.799 89.3655 146.799C72.5917 146.799 58.9875 146.754 58.9875 146.701C58.9875 146.649 72.5842 146.604 89.3655 146.604C106.147 146.604 119.74 146.649 119.74 146.701Z" fill="#455A64"/>
<path d="M40.1718 124.991C40.8234 125.097 41.4468 125.333 42.0044 125.686C42.562 126.039 43.0423 126.501 43.4164 127.044C44.1586 128.135 44.6405 129.381 44.8251 130.687C45.2523 133.193 44.5816 136.042 43.6599 138.41C41.0935 137.221 39.7147 134.266 39.119 132.691C38.1673 130.238 37.9425 125.211 40.1718 124.991Z" fill="#27B0C4"/>
<path d="M47.208 141.746C46.8665 141.093 46.7042 140.362 46.7378 139.626C46.7713 138.89 46.9995 138.176 47.3991 137.557C47.8092 136.946 48.3366 136.422 48.9507 136.016C49.5649 135.61 50.2536 135.329 50.9772 135.19C51.6441 135.051 52.4009 135.04 52.9292 135.467C53.165 135.681 53.3387 135.955 53.4323 136.26C53.5259 136.564 53.5359 136.888 53.4612 137.198C53.3054 137.816 52.9873 138.382 52.5395 138.836C51.0821 140.441 49.3811 141.746 47.208 141.746Z" fill="#27B0C4"/>
<path d="M46.7359 149.925C46.6948 149.755 46.671 149.581 46.6648 149.405C46.6273 149.031 46.5786 148.56 46.5186 147.988C46.312 146.421 46.3614 144.831 46.6648 143.279C46.9942 141.722 47.7326 140.28 48.8041 139.102C49.1334 138.753 49.5032 138.444 49.9056 138.182C50.0141 138.109 50.1267 138.043 50.2428 137.984C50.2812 137.959 50.3228 137.94 50.3665 137.927C49.837 138.299 49.3462 138.722 48.9015 139.192C47.8803 140.368 47.1729 141.783 46.8446 143.306C46.4287 145.09 46.5823 146.769 46.6498 147.962C46.691 148.56 46.721 149.05 46.7359 149.387C46.7514 149.566 46.7514 149.746 46.7359 149.925Z" fill="#263238"/>
<path d="M40.6851 128.791C40.7193 128.858 40.7481 128.928 40.7712 129C40.8274 129.161 40.9024 129.374 40.9923 129.613C41.1759 130.148 41.4381 130.926 41.7416 131.891C42.3673 133.817 43.1953 136.488 44.0458 139.461C44.8963 142.434 45.6007 145.142 46.084 147.105C46.3275 148.089 46.5149 148.886 46.6385 149.439C46.6985 149.701 46.7434 149.91 46.7771 150.075C46.7982 150.149 46.8108 150.226 46.8146 150.303C46.7855 150.233 46.7617 150.16 46.7434 150.086L46.5711 149.458C46.4212 148.886 46.1964 148.1 45.9566 147.139C45.4433 145.183 44.7165 142.483 43.8697 139.509C43.023 136.536 42.21 133.866 41.6217 131.928C41.3295 130.978 41.0934 130.201 40.9174 129.636C40.8424 129.382 40.7825 129.172 40.7338 129.011C40.7083 128.94 40.6919 128.866 40.6851 128.791Z" fill="#263238"/>
<path d="M44.087 144.229C43.4145 142.831 42.418 141.613 41.1801 140.676C39.9422 139.739 38.4984 139.11 36.9684 138.84C36.1891 138.709 35.2337 138.754 34.8178 139.423C34.4019 140.093 34.7953 140.972 35.2749 141.6C36.3016 142.891 37.688 143.85 39.2594 144.355C40.8309 144.861 42.5171 144.891 44.1058 144.443" fill="#27B0C4"/>
<path d="M37.9612 141.043C38.1252 141.049 38.2882 141.071 38.4483 141.106C38.6389 141.136 38.8278 141.176 39.0141 141.226C39.2314 141.29 39.4861 141.335 39.7634 141.436C40.0601 141.531 40.3516 141.642 40.6364 141.768C40.9644 141.907 41.2846 142.063 41.5955 142.236C42.309 142.639 42.975 143.121 43.5812 143.672C44.1751 144.234 44.703 144.861 45.1548 145.542C45.35 145.842 45.5277 146.153 45.6869 146.473C45.8302 146.748 45.9554 147.031 46.0615 147.322C46.1572 147.559 46.2398 147.802 46.3088 148.048C46.3695 148.23 46.4183 148.416 46.4549 148.605C46.4968 148.764 46.5244 148.927 46.5374 149.091C46.4961 149.091 46.3725 148.407 45.9416 147.371C45.8249 147.087 45.6923 146.81 45.5445 146.541C45.3828 146.229 45.2039 145.927 45.0087 145.636C44.1137 144.292 42.9151 143.178 41.5093 142.382C41.2048 142.205 40.8908 142.046 40.5689 141.903C40.2729 141.757 39.9807 141.656 39.7184 141.555C38.6506 141.185 37.9537 141.084 37.9612 141.043Z" fill="#263238"/>
<path d="M131.287 28.05C128.429 27.8578 125.57 28.4054 122.987 29.64C120.404 30.8745 118.184 32.754 116.542 35.0965C114.9 37.439 113.892 40.1651 113.615 43.0107C113.338 45.8563 113.803 48.725 114.963 51.339C116.896 55.7036 120.643 59.092 122.295 63.58C123.419 66.6393 123.516 70.0128 124.674 73.0609C127.053 79.3291 134.318 83.316 140.893 81.9658C144.842 81.158 148.387 78.6933 152.418 78.4427C156.734 78.1735 161.65 80.3651 165.071 77.7172C167.461 75.8659 167.866 72.3129 167 69.4219C166.135 66.5308 164.269 64.0625 162.736 61.4594C161.204 58.8564 159.956 55.8494 160.526 52.8836C161.039 50.1945 162.95 48.0216 164.149 45.5569C165.28 43.2396 165.779 40.6659 165.598 38.0946C165.416 35.5234 164.559 33.0453 163.113 30.9095C161.667 28.7737 159.684 27.0556 157.362 25.928C155.04 24.8004 152.461 24.3029 149.885 24.4858C146.453 24.7289 143.235 26.1575 139.934 27.1038C136.633 28.05 134.981 28.1771 131.287 28.05Z" fill="#F5F5F5"/>
<path d="M139.518 39.0419C139.518 39.0419 133.168 38.9783 130.983 44.4873C128.799 49.9963 131.302 52.6555 132.28 54.2749C133.258 55.8943 135.884 59.4174 135.907 62.7385L144.438 62.6824C144.88 59.7426 145.899 56.9187 147.435 54.3721C149.987 50.131 149.683 47.038 148.986 45.1904C148.289 43.3429 146.015 38.7688 139.518 39.0419Z" fill="#27B0C4"/>
<path d="M141.455 62.458L141.433 62.3234C141.433 62.2299 141.399 62.1027 141.373 61.9494C141.32 61.5978 141.249 61.0929 141.156 60.4534C140.98 59.1481 140.717 57.2519 140.552 54.8957C140.511 54.3048 140.477 53.6877 140.459 53.0257C140.44 52.3637 140.425 51.7092 140.459 51.0136C140.488 50.2875 140.657 49.5739 140.957 48.9117C141.284 48.1999 141.861 47.6329 142.579 47.3185C142.965 47.1666 143.387 47.1292 143.794 47.2108C144.201 47.2925 144.575 47.4896 144.872 47.7785C145.026 47.9289 145.148 48.1088 145.23 48.3074C145.313 48.506 145.354 48.7192 145.352 48.9342C145.338 49.3715 145.183 49.7928 144.91 50.1347C144.64 50.4833 144.289 50.7607 143.887 50.9425C143.487 51.129 143.065 51.2647 142.632 51.3465C141.753 51.5206 140.86 51.6158 139.964 51.6307C139.07 51.655 138.175 51.6037 137.289 51.4774C136.852 51.4085 136.427 51.2828 136.023 51.1034C135.624 50.9273 135.265 50.6729 134.966 50.3554C134.67 50.041 134.463 49.6538 134.367 49.2334C134.278 48.812 134.335 48.3729 134.528 47.9879C134.711 47.6053 135.028 47.3032 135.419 47.139C135.614 47.069 135.82 47.0389 136.026 47.0505C136.232 47.0621 136.433 47.1151 136.618 47.2063C136.976 47.3821 137.282 47.6475 137.506 47.9767C137.715 48.2865 137.866 48.6311 137.952 48.994C138.077 49.7029 138.141 50.4211 138.143 51.1408C138.203 52.5283 138.259 53.8186 138.308 55.0004C138.406 57.3529 138.481 59.2603 138.537 60.5843C138.559 61.2425 138.578 61.7511 138.593 62.1027C138.593 62.2747 138.593 62.4056 138.593 62.4991C138.593 62.5926 138.593 62.6338 138.593 62.6338V62.4991C138.593 62.4056 138.593 62.2747 138.57 62.1251C138.57 61.7736 138.522 61.2612 138.488 60.6067C138.424 59.2827 138.334 57.3753 138.218 55.0229C138.166 53.8448 138.102 52.5507 138.038 51.1669C138.034 50.4534 137.969 49.7414 137.844 49.0389C137.766 48.6779 137.623 48.3342 137.42 48.0253C137.208 47.7136 136.917 47.4633 136.577 47.2998C136.407 47.2148 136.221 47.1653 136.031 47.1544C135.841 47.1435 135.651 47.1713 135.472 47.2362C135.11 47.3892 134.818 47.6703 134.651 48.0253C134.47 48.3846 134.417 48.7951 134.502 49.1885C134.593 49.591 134.791 49.9616 135.075 50.2619C135.679 50.8709 136.471 51.2584 137.323 51.3614C138.2 51.4881 139.086 51.5394 139.972 51.5148C140.859 51.4996 141.743 51.4058 142.613 51.2343C143.037 51.1543 143.45 51.0225 143.842 50.8416C144.222 50.6718 144.557 50.4156 144.82 50.0936C145.075 49.7732 145.22 49.3802 145.236 48.9716C145.238 48.7727 145.201 48.5753 145.125 48.3915C145.049 48.2076 144.936 48.0411 144.794 47.9019C144.514 47.6302 144.161 47.4447 143.779 47.3678C143.396 47.2908 142.999 47.3256 142.636 47.4681C141.944 47.77 141.387 48.3141 141.069 48.9977C140.776 49.6473 140.61 50.3467 140.579 51.0585C140.534 51.7466 140.552 52.4161 140.579 53.0594C140.605 53.7027 140.627 54.3198 140.661 54.9069C140.815 57.2631 141.066 59.1556 141.227 60.4683L141.418 61.9643C141.438 62.1314 141.453 62.2623 141.463 62.357C141.462 62.3908 141.459 62.4245 141.455 62.458Z" fill="#263238"/>
<path d="M135.903 62.615L144.464 62.4804L144.558 67.881L142.07 70.843L138.788 70.9814L136.008 67.6678L135.903 62.615Z" fill="#E0E0E0"/>
<path d="M142.07 70.8431C141.847 70.6157 141.58 70.4365 141.284 70.3169C140.989 70.1972 140.672 70.1395 140.354 70.1475C140.039 70.1669 139.732 70.2522 139.453 70.3978C139.173 70.5434 138.927 70.7461 138.732 70.9927L142.07 70.8431Z" fill="#455A64"/>
<path d="M144.329 67.4359C144.221 67.4045 144.116 67.3606 144.018 67.305C143.823 67.2115 143.535 67.0881 143.171 66.9572C141.256 66.2762 139.156 66.3201 137.27 67.0806C136.914 67.2265 136.63 67.3611 136.439 67.4546C136.341 67.51 136.239 67.5588 136.135 67.6005C136.22 67.5266 136.313 67.4626 136.412 67.4098C136.677 67.25 136.952 67.1088 137.237 66.9871C139.132 66.166 141.274 66.1216 143.201 66.8637C143.489 66.9708 143.769 67.0957 144.041 67.2377C144.142 67.2957 144.239 67.362 144.329 67.4359Z" fill="#263238"/>
<path d="M144.34 66.1269C144.234 66.0891 144.13 66.0442 144.029 65.9923C143.835 65.9025 143.546 65.7753 143.183 65.6482C142.232 65.3143 141.23 65.1522 140.223 65.1695C139.214 65.1919 138.218 65.3959 137.282 65.7716C136.907 65.9137 136.641 66.0521 136.45 66.1456C136.355 66.2058 136.253 66.2548 136.146 66.2915C136.234 66.2206 136.326 66.1568 136.424 66.1007C136.689 65.9439 136.965 65.804 137.248 65.6818C139.143 64.8607 141.285 64.8163 143.213 65.5584C143.501 65.6623 143.782 65.7873 144.052 65.9324C144.155 65.9855 144.252 66.0508 144.34 66.1269Z" fill="#263238"/>
<path d="M144.273 64.8778C144.166 64.8451 144.063 64.8012 143.966 64.7469C143.767 64.6534 143.479 64.53 143.115 64.3991C142.165 64.0644 141.163 63.9023 140.155 63.9203C139.148 63.9464 138.154 64.1503 137.218 64.5225C136.843 64.6683 136.577 64.803 136.386 64.8965C136.288 64.9533 136.185 65.0021 136.079 65.0423C136.165 64.9679 136.259 64.9039 136.36 64.8516C136.624 64.6925 136.898 64.5513 137.18 64.429C139.077 63.6092 141.22 63.5649 143.149 64.3056C143.436 64.4126 143.716 64.5375 143.988 64.6796C144.089 64.7367 144.184 64.803 144.273 64.8778Z" fill="#263238"/>
<g opacity="0.2">
<path d="M134.88 54.2861C134.764 54.417 134.468 54.3946 134.041 54.1739C133.455 53.842 132.945 53.3924 132.542 52.8537C131.927 52.0549 131.479 51.1402 131.227 50.1646C130.899 48.9421 130.869 47.6587 131.14 46.4223C131.411 45.1858 131.975 44.0323 132.786 43.0586C133.422 42.2759 134.211 41.6307 135.105 41.1624C135.694 40.8404 136.343 40.6443 137.012 40.5865C137.488 40.564 137.761 40.665 137.821 40.8333C137.93 41.2073 137.132 41.7085 136.18 42.6734C135.631 43.2195 135.147 43.8269 134.738 44.4836C134.256 45.2528 133.906 46.0973 133.703 46.9819C133.519 47.87 133.483 48.7822 133.595 49.6822C133.694 50.4486 133.88 51.2014 134.149 51.9262C134.614 53.2015 135.127 54.0019 134.88 54.2861Z" fill="white"/>
</g>
<g opacity="0.2">
<path d="M137.615 57.308C137.59 57.5386 137.499 57.7571 137.352 57.9369C137.205 58.1167 137.009 58.25 136.788 58.3207C136.567 58.3913 136.33 58.3963 136.106 58.3349C135.882 58.2735 135.68 58.1484 135.526 57.9749C135.372 57.8014 135.271 57.5869 135.237 57.3575C135.203 57.1281 135.236 56.8937 135.333 56.6828C135.429 56.4719 135.585 56.2935 135.782 56.1695C135.978 56.0454 136.206 55.981 136.439 55.9841C136.77 56.0062 137.079 56.1575 137.299 56.4053C137.519 56.653 137.632 56.9773 137.615 57.308Z" fill="white"/>
</g>
<path d="M129.279 41.039C129.256 41.0652 128.155 40.291 126.851 39.2887C125.547 38.2864 124.483 37.4599 124.502 37.4187C124.52 37.3776 125.626 38.1667 126.93 39.169C128.233 40.1714 129.301 41.0091 129.279 41.039Z" fill="#263238"/>
<path d="M131.073 38.6641C130.703 38.3082 130.363 37.9216 130.058 37.5085C129.719 37.1241 129.412 36.7126 129.14 36.278C129.512 36.6334 129.853 37.02 130.159 37.4337C130.499 37.8166 130.805 38.2283 131.073 38.6641Z" fill="#263238"/>
<path d="M134.981 38.1181C134.947 38.1181 134.513 36.925 134.011 35.429C133.509 33.933 133.13 32.7063 133.164 32.6951C133.198 32.6839 133.632 33.8881 134.134 35.3841C134.636 36.8801 135.015 38.1069 134.981 38.1181Z" fill="#263238"/>
<path d="M139.781 37.0821C139.655 36.6369 139.569 36.1813 139.526 35.7208C139.44 35.2658 139.399 34.8036 139.402 34.3407C139.529 34.7858 139.614 35.2415 139.657 35.7021C139.743 36.157 139.784 36.6192 139.781 37.0821Z" fill="#263238"/>
<path d="M144.49 38.7053C144.453 38.7053 144.816 37.2728 145.299 35.5263C145.783 33.7797 146.206 32.3697 146.24 32.3809C146.274 32.3921 145.91 33.8133 145.427 35.5599C144.944 37.3065 144.524 38.7165 144.49 38.7053Z" fill="#263238"/>
<path d="M148.458 40.6613C148.687 40.1962 148.954 39.7509 149.256 39.3298C149.521 38.8851 149.824 38.4646 150.163 38.0732C149.934 38.5382 149.667 38.9836 149.365 39.4046C149.1 39.8493 148.797 40.2698 148.458 40.6613Z" fill="#263238"/>
<path d="M154.737 39.8422C154.756 39.8721 153.655 40.7024 152.272 41.7122C150.89 42.722 149.754 43.4925 149.732 43.4625C149.709 43.4326 150.815 42.6023 152.197 41.5925C153.58 40.5827 154.737 39.8123 154.737 39.8422Z" fill="#263238"/>
</svg>
